<svg xmlns="http://www.w3.org/2000/svg" viewBox="0 0 1117.09 1117.09"><defs><style>.cls-1{fill:#faf5f2;}.cls-2{fill:#faf5f3;}.cls-3{fill:#fbf7f4;}.cls-4{fill:#d4a47d;}.cls-5{fill:#deb591;}.cls-6{fill:#d2a17a;}.cls-7{fill:#d19f77;}.cls-8{fill:#e0bb9b;}.cls-9{fill:#d5a57e;}.cls-10{fill:#e9d7c9;}.cls-11{fill:#c49777;}.cls-12{fill:#c4967b;}.cls-13{fill:#daae88;}.cls-14{fill:#c29276;}.cls-15{fill:#c59679;}.cls-16{fill:#d2ab8e;}.cls-17{fill:#c79e80;}.cls-18{fill:#c19478;}.cls-19{fill:#c49575;}.cls-20{fill:#cba185;}.cls-21{fill:#d2ae92;}.cls-22{fill:#c89e85;}.cls-23{fill:#c99c80;}.cls-24{fill:#cca58a;}.cls-25{fill:#deb798;}.cls-26{fill:#dab696;}.cls-27{fill:#fbf7f3;}.cls-28{fill:#e7e477;}.cls-29{fill:#77b0e7;}.cls-30{fill:#e778c0;}.cls-31{fill:#e8e573;}.cls-32{fill:#f0ed5a;}.cls-33{fill:#dfbfa2;}.cls-34{fill:#77afe7;}.cls-35{fill:#e777c0;}.cls-36{fill:#f6f0ea;}.cls-37{fill:#e6e377;}.cls-38{fill:#f4ece6;}.cls-39{fill:#e8e579;}.cls-40{fill:#f6eee8;}.cls-41{fill:#e8d3c1;}.cls-42{fill:#e5cdb7;}.cls-43{fill:#e8d3c6;}.cls-44{fill:#e7d1c3;}.cls-45{fill:#e6d0bd;}.cls-46{fill:#ecddcf;}.cls-47{fill:#d9ae88;}.cls-48{fill:#d7a780;}.cls-49{fill:#dbb89b;}.cls-50{fill:#deb38f;}.cls-51{fill:#ddb18d;}.cls-52{fill:#deb590;}.cls-53{fill:#e1b995;}.cls-54{fill:#cc9f79;}.cls-55{fill:#dbaf8a;}.cls-56{fill:#ddb38e;}.cls-57{fill:#d8a983;}.cls-58{fill:#7db4e8;}.cls-59{fill:#f3f06d;}.cls-60{fill:#d3a784;}.cls-61{fill:#d9ab85;}.cls-62{fill:#e3c0a1;}.cls-63{fill:#e4c4a8;}.cls-64{fill:#cda487;}.cls-65{fill:#dbaf89;}.cls-66{fill:#dfb793;}.cls-67{fill:#e2bc98;}.cls-68{fill:#deb699;}.cls-69{fill:#dfb89a;}.cls-70{fill:#e4c1a4;}.cls-71{fill:#e2bda0;}.cls-72{fill:#ddb594;}.cls-73{fill:#ddb593;}.cls-74{fill:#c48e6b;}.cls-75{fill:#deb697;}.cls-76{fill:#dcb38e;}.cls-77{fill:#e4c19e;}.cls-78{fill:#e1bc99;}.cls-79{fill:#e3bfa2;}.cls-80{fill:#d8b193;}.cls-81{fill:#f8f2ee;}.cls-82{fill:#e3c8ab;}.cls-83{fill:#e3c9ae;}.cls-84{fill:#e0c3a3;}.cls-85{fill:#cca284;}.cls-86{fill:#cda281;}.cls-87{fill:#f9f4f1;}.cls-88{fill:#cca185;}.cls-89{fill:#e777bf;}.cls-90{fill:#d7aa83;}.cls-91{fill:#dfb893;}.cls-92{fill:#ddbd9f;}.cls-93{fill:#d8ac86;}.cls-94{fill:#d8ab84;}.cls-95{fill:#cea27e;}.cls-96{fill:#dab08b;}.cls-97{fill:#dcb492;}.cls-98{fill:#cea481;}.cls-99{fill:#dbb18d;}.cls-100{fill:#e3bfa0;}.cls-101{fill:#dcb392;}.cls-102{fill:#dab18c;}.cls-103{fill:#e3c09f;}.cls-104{fill:#e6c5a9;}.cls-105{fill:#e2be9c;}.cls-106{fill:#e2be9b;}.cls-107{fill:#daaf8a;}.cls-108{fill:#e2c6a8;}.cls-109{fill:#e3c7aa;}.cls-110{fill:#f9f3f0;}.cls-111{fill:#dfb692;}.cls-112{fill:#cca07b;}.cls-113{fill:#e3cbb0;}</style></defs><g id="Layer_5_Image" data-name="Layer 5 Image"><path class="cls-1" d="M919.29,369.65c2.67,7.62,5.44,15.22,8,22.89,8,24.24,14.69,48.76,15.21,74.55.14,7.23,3,14.05,2.65,21.5-1.07,26-3.31,51.77-8.63,77.2-5.92,28.3-11.39,56.72-19.9,84.4-2.09,6.76-2.62,14.26-8,19.7-4.07-5.29-1.52-10.67,0-15.88,6.14-20.48,11.21-41.23,15.72-62.12,1.67-4.28,1.9-8.89,2.95-13.31,1.48-4.28,1.75-8.79,2.47-13.23a21.78,21.78,0,0,1,1-3.91c6.51-35.73,9.81-71.59,4.3-107.47.63-.36-8.28,4.66-8.28,4.69-20.92-5.69-42.22-2.59-63.38-2.64-3.69,0-8.89.77-9,5.26-.08,5,5.33,4.47,8.85,4.59,14,.46,28,.09,42.07.23,5.07,0,10.23-.35,15.06,1.79,6.49,6,3.07,13.24-.7,17.18-17.83,18.66-22.45,42.55-28.33,66.08-2.92,11.69-8.9,22.18-13.25,33.3a43.42,43.42,0,0,1-6,9.89c-12.52,13.3-26.2,25.45-38.8,38.68-5.12,5.38-11.87,6-18.22,8.24-4.24,1.49-13.16,1.47-4.88,10.18,4.17,4.38-.95,7.73-4.1,10.15-4.3,3.31-8.76,7.17-15,4.41a6.6,6.6,0,0,1-2-2.84c.71-13.47-8.54-6.73-14.32-7a31.32,31.32,0,0,1-3.43.87,45.81,45.81,0,0,1-7.2.77c-3.06.11-6.13.11-9.2.15-4.27,0-8.53,0-12.65,1.38a30.36,30.36,0,0,1-5.43.92c-4.74.36-9.55-.14-14.19,1.32-1.67.48-3.38.81-5.09,1.13a14.63,14.63,0,0,0-6.23,2.68c-4,3-8,5.66-13.38,3.79-6.71-14.16-21.77-17.39-32.8-15.08-11.25,2.35-21.71,7.19-34,6-5.27-.49-6,6-7.33,10.63-2.13,7.46-6.11,10.94-12.1,3.09-3.63-4.75-7.54-4.51-10.53-.6-5.18,6.79-20.33,8.19-12.67,22.28a6.41,6.41,0,0,1-.14,3.73,9.65,9.65,0,0,1-2.51,2.92A15.92,15.92,0,0,1,582.6,704c-7.32,1.55-14.26,5.9-22.18,3.07-1.9-7.84,4.52-12,8.05-17.25,4.46-6.59,9.95-12.48,15.67-20.14-8.1-2.55-13.06.1-17.7,4.9-5.4,5.59-6.69,13.58-12.12,19.3-6,6.34-14.93.42-20.93,5.07,1.56,6.84,12.66,3.9,10.73,12.7-8.41,5-17.25,3.23-26.06,1.75-10.39-12.88-24.08-18.46-40.15-22.45-15.09-3.74-30.63-7.08-45.17-13.21-6.94-2.94-13.52-6.76-14.82-14.69s-5.65-13-11.34-17.84a62.55,62.55,0,0,1-17.87-24.72c-5.12-13.08-.46-26,3.24-37.93,3.24-10.43,1.85-32-6.63-39.12-2-1.65-4.14-3.09-5.42-5.38-3.37-6-1.47-10.85,3.78-14.38s9.76-2,13.18,3.06c1.43,2.13,2.2,4.64,3.57,6.82,5.34,8.43,9.95,13.9,22.29,8,19.41-9.32,29.56-5.53,42.87,12.44,3.48,4.71,8.78,5,12.36,8.42,3.82,3.69,3.39,9.5,6.39,14.85,5.13-4.86,4.94-9.86,3-15.22-3-8.2-.17-12.36,8.25-15.17,10.54-3.5,23-5.1,26.87-18.78.73-2.61,3.72-3.3,6.36-3.63,8-1,10.13-6.67,11.06-16.73-11,15.33-28.82,8.88-40.43,18.77-3.49,3-7.24.31-9.66-3.28-4.66-6.94-5.65-14.11-1.86-21.83,2.07-4.21,4.93-8.07,6-12.73.59-2.51,1.08-5.64-1.67-6.87-3-1.32-5,1.45-5.69,3.72-3.67,11.41-15.56,17.83-23.16,20-11.84,3.39-25.8,3.48-38.85,3.82-6.28.16-14.26-15.7-13.63-22.93.27-3.08.89-6,4.13-7.38,3.69-1.52,6.65,0,9.16,2.69,2.05,2.2,3.19,5.07,5.28,7.24,1.83,1.91,3.93,3.58,6.74,2.75s3.9-3.42,3.51-6.09c-2.73-18.85,14.79-28.7,19.8-44.26,2-6.28,9.19-4.66,14.57-1.91,8.58,4.39,16.91,6.54,27,3.42,9.31-2.88,14.08,3.7,14,16.85.87-6.91,5.26-11.63,10.4-15.51,6.86-5.2,5.16-8.67-1.48-12.05-4.92-2.5-9.33-6.07-15.32-5.93-8.78.2-12.41-4.34-11.52-12.93a19.16,19.16,0,0,0-.86-8.88c-1-2.55-2.67-4.39-5.51-4.75-3.43-.44-5.7,1.31-7.26,4.16a14.86,14.86,0,0,0-1.19,3.65c-4.21,17.64-4.21,17.64-23.28,12.19,1.13,6.35,1.56,12.4-7.77,11.06-6.29-.9-7.44,2.53-5.24,7.84,1.83,4.38,4.07,8.95-.54,12.92-4.08,3.52-7.93.5-11.95-.78-12.67-4-23.07,4.43-20.55,17.07,1.5,7.54-3.45,8.27-8,8.23-9.41-.08-12.54,3.63-12.31,13.17.23,9.75-6.17,14.36-16,14-18.06-.71-27,11.5-21.36,28.62,2,6,8.23,14.2-.17,18-7,3.17-12.24-5-15.43-10.82-19.45-35.24-50.87-58.34-81.88-81.91a23,23,0,0,0-6.85-3.44c-18.54-6.14-30-22.12-30.19-41.9-.08-9.95,5.31-13.12,15.5-9.13,5,2,9.76,8.3,14.86-.68,4.45-7.82,9.24-14.48-1.5-21.27-5.13-3.25-6.94-9.57-9.7-14.89-1.72-3.31-3.87-8-8.5-5-4.4,2.92-4.78,7.82-1.59,12.45a9.71,9.71,0,0,0,1.84,1.78c4.46,3.71,11.55,6.76,7.78,14-3.29,6.36-10.6,4.31-16.36,4.37-18,.19-24.81-10.74-16.63-26.29,10.88-20.72,20.14-42.12,26.78-64.58,3.56-12.06,8.51-22.88,18.56-31.28,7.17-6,12.59-14,19.35-20.48s13.49-13.49,24.31-12.31a6.28,6.28,0,0,0,6.53-3.27c3.38-6.79,8.38-5.33,14.15-3.75,7.73,2.11,12.21.6,10.6-9.52-2-12.84,1-16,17.86-23.9,22.1-7.41,44.15-14.93,66-23,6.41-2.37,12.85-4.31,19.3.58,11.24,8.52,10.8,18.58-1.53,29.13-12.21,4.72-23.51,11.76-36.9,13.65s-17.29,14.36-23.32,23.56c-2.82,4.3,3.17,13.7,6,13.43,5.94-.57,13.8-1.47,17.13-8.76,2.48-5.42,4.95-10.63,9.35-15,8.5-8.5,16.73-16.73,29.69-18.18,5.48-.61,9.83-4.87,14.18-8.31a17.28,17.28,0,0,1,4.52-2.07,35.78,35.78,0,0,0,4.3-1.79c1.73-1.08,3.45-2.19,5.19-3.27q2-1.38,3.91-2.8c3.19-2.29,6.43-4.48,9.76-6.52,1.33-.85,2.69-1.64,4-2.49,1.62-1.15,3.29-2.22,5-3.25.78-.56,1.59-1.09,2.39-1.64.37-.31.77-.58,1.15-.89a23.89,23.89,0,0,1,2.39-1.74c.84-.57,1.71-1.07,2.59-1.56,1.32-.85,2.62-1.73,4-2.6a17.46,17.46,0,0,1,8-2.7,29.31,29.31,0,0,1,9,.48,12.85,12.85,0,0,1,7.31,5.47,20.33,20.33,0,0,1,2.47,4.93,13.78,13.78,0,0,1-1.78,12.06,22.1,22.1,0,0,1-3.47,3.83,29.68,29.68,0,0,1-5.54,3.86,16.55,16.55,0,0,1-4.76,2,7.57,7.57,0,0,1-3.46-.45,3.27,3.27,0,0,1-1.45-3c.8-3.11,3.3-4.87,5.44-6.93,3-2.85,5.32-6.21,2-10s-7.12-1.81-10.42.35Q468.63,202.8,440.64,222c-3.61,2.48-7.23,6-3.79,10.56s7.86,1.75,11.47-.47c10.53-6.5,20.56-13.78,31-20.39,4.13-2.61,7.94-7,13.82-4.3-.06,7.49,3.84,11.23,11.11,12.16,14.84,1.88,29.54,5.13,44.6,4,2.81-2.7,2.8-6.54,4-9.89a24.89,24.89,0,0,1,2.11-4.42,17.23,17.23,0,0,1,5.89-6,20.47,20.47,0,0,1,4.72-2.25,12.59,12.59,0,0,1,5.36-.24,19.66,19.66,0,0,1,6.75,2.94c5.41,4.2,7.13,10.07,7.5,16.55-1.88,6.5-.93,12.53,6,14.66,11,3.36,19.19,10.73,28.26,17,4.78,3.3,10.13,6.83,16.66,3.85,10.38-3.65,21-3,31.63-1.83,2.53.42,4.93,1.45,7.51,1.65,1.26,0,2.52.17,3.77.27,3.17.16,6.33.1,9.5,0,2-.1,3.9-.12,5.85-.09,23.6,1.53,46.48-1.23,68.12-11.4,2.46-1.15,4.82-1.69,7.07.41,2.59,2.42,3,5.64,1.23,8.17-6.82,9.75-11.58,20.66-17.78,30.69-4,6.52-12.27,7.08-19.72,7.15-17.52.16-35,.06-52.55.06-7.39,0-10,1.35-6.08,9.62,7.94,16.49,21.13,30.17,25.61,48.47.6,2.48,2.32,5.11,4.86,5.62,14.91,3,19.37,15.67,25.14,26.95,13.22,25.85,25.26,52.27,37.07,78.8a15.92,15.92,0,0,1,0,7.64,19.35,19.35,0,0,1-2.25,4.91c-1.79,3.11-1.95,6.16.4,9.11.8.84,1.54,1.7,2.31,2.56.41.43.78.88,1.19,1.31,4.57,5.05,5.89,10.91,5.76,17.72a57.82,57.82,0,0,0,5.3,26.31c3.16-23.3,3.07-23,26-16,9.36,2.86,19.57,1,29.14,3.49,14,.26,25.74,4.76,32.78,19.8,6.27-15.46,20.3-23.64,25.64-38.67,4.15-11.68,1.58-18.89-11.15-20.06-8.47-.78-17,.15-25.54-.39-14.47-.93-18.76-7-16-22.08,5.92-9.19,15.08-12.1,25.24-12.6a188.32,188.32,0,0,1,29.37.62c6.42.69,12.88.53,18.63-2.91,12.55-7.5,14.52-14.33,9-28.53-4.14-10.74-6.94-21.94-10.55-32.86C911.17,375,909.55,368.05,919.29,369.65Z"/><path class="cls-2" d="M344.13,200.17c-17.18,12-17.18,12-11.47,31.47-12.63,5.84-12.63,5.84-24.81.58-2.83,1.45-1.83,4.49-2.76,6.72-1.07,2.55-3,5-5.75,3.87-14.48-6.06-21.38,5.86-28.87,13.28-8.13,8.05-15.21,17.21-24.58,24-2.17,1.58-3.86,3.27-4.3,6-2.07,13.09-9.55,24.69-10.55,38.08-.24,3.26-2.56,5.23-4.35,7.61-4.62,6.21-8.8,12.7-8.37,20.92a11.53,11.53,0,0,1-4.78,10c-4.33,3.45-6,8.34-7.14,13.28-2,8.53,2.37,13.87,11.06,14.11,5.13.14,10.27,0,15.4,0,2.18,0,4.42-.33,5.21-2.78.93-2.87-.61-4.91-2.85-6.46-1.05-.72-2.27-1.2-3.35-1.87-9-5.6-10.56-12.34-4.84-21,3-4.47,7.92-4.89,11.74-.85,1.46,1.55,3.16,3.23,3.75,5.16,2.86,9.35,7.95,16.56,16.52,21.87,5.27,3.26,4.76,6.76-.84,11.66-2.92,2.56-3.23,5.65-4.32,8.86-2.44,7.16-6.95,8.27-13.38,3.87a42,42,0,0,0-4.18-2.93c-3.42-1.79-7.31-4.15-10.79-1.45s-1.66,6.93-1.23,10.74c1.17,10.48,6,19.29,11.34,28.07,2.51,4.12,5.29,6.55,10.15,6.21A19.85,19.85,0,0,1,260,454c20.84,16.88,42.85,32.41,60.73,52.74,7.05,8,14.32,15.82,18.66,25.74,2.65,6.06,6.94,10.72,11.92,14.85,1,.81,2.14,1.56,3.49.88a3.21,3.21,0,0,0,1.55-4.29c-1.7-4.82-3.62-9.56-5.41-14.35-3.89-10.37-2.17-16.26,7-23,1.74-1.28,3.46-2.4,4.6-4.3,2.82-4.66,5.48-5.43,11.28-2.84,10.13,4.5,17.66-2.51,16.24-13.61-.41-3.17-4.08-6.77-.47-9.41a18.26,18.26,0,0,1,11.93-3.85c3.26.24,6.64,2.4,10.36-1.69-.91-3.63-7.67-5.06-5.88-10.69s6.75-7.19,10.83-10.19c7.31-5.38,14.18-7.59,21.53-.36,1.68,1.65,3.81,2.06,5.77.52,2.4-1.88,2.44-4.29.94-6.82a61.35,61.35,0,0,0-3.3-5.46c-1.89-2.55-3.3-5.11-1.43-8.19,2.11-3.48,5.49-3.76,9-3.1,2.46.45,4.58,2.4,7.32,1.65,1.75-.81,1-2,.39-3.07-1.7-3-6.94-5.12-2.85-9.6,3.24-3.54,6.26-.1,9.26,1a50.24,50.24,0,0,1,4.61,2.25c10.24,4.87,11,4.48,10.06-7.29-.36-4.6,1.61-8.35,3.15-12.19,1.75-4.31,6.14-3.83,10-3.93s6.41,1.54,8.05,5.07c1.32,2.84,1,5.84,1.49,8.75.72,4.19-3,8.68.07,12.31,3.39,4,7.84,1.36,11.91.4,2.37-.56,4,1.16,5.5,2.67a29.46,29.46,0,0,0,8.51,5.61c10.92,5.29,11.38,8.52,1.94,15.34-6.72,4.84-11.52,10.93-14.37,22-.46-5.62-.49-8.3-.93-10.91-1.88-11.23-6.11-14.15-16.29-9.22-8.25,4-13.78-1.85-20.59-3.07-4.68-.84-8.06-8.57-13.52-3.32a19.2,19.2,0,0,0-6.3,12.25c-.53,5.74-4.31,10.13-8.59,13.85-5.27,4.59-8.25,9.51-4.81,16.8,2.31,4.92.39,9.55-4.1,12.2-5.12,3-8.64-1.24-12.3-3.95-3-2.22-2.82-6.13-4.65-9a5.24,5.24,0,0,0-5.43-2.6c-2.53.44-3.14,2.46-3.35,4.74-.53,5.68,6.58,19.6,11.48,22a8.42,8.42,0,0,0,10.54-2c5.34-6,10.88-4.83,17.32-1.85,7.62,3.53,7.83,3.13,12.34-5.51,1-2,2.07-4.17,4.65-3.33,7.56,2.46,9.73-2.93,12.25-8,1.33-2.68,2.61-5.39,4.15-8,1.39-2.33,3.52-3.77,6.41-3.23,3.43.65,4.86,3.09,5.36,6.33.9,5.84-1.12,10.58-4.36,15.49-4.76,7.23-8.43,14.93-2.19,23.69,2.68,3.77,4.59,6.32,8.66,2.07,5.43-5.68,12.15-7.64,19.81-7,6.71.57,11.81-1.73,14-8.45,1.17-3.54,3.46-4.78,6.84-3.89,4,1,3.64,4.31,3.06,7.28a51.68,51.68,0,0,1-2.32,7.31c-3.61,9.9-4.63,10.48-16,9.31-2.66,2.59-1.28,6.62-3.32,9.46-1.24,1.72-2.27,5-3.5,5.07-9,.35-15,8.65-24.17,8.39-5.58-.16-8.58,4-5.38,8,6.27,8,2.64,14.32-1.14,21.15-1.21,2.19-2.28,5-5.48,4.28-2.74-.59-2-3.29-2.44-5.27-.88-4.16-1.88-8.29-2.79-12.44-.53-2.42-2.33-4.31-4.41-3.66-7.41,2.31-7.32-3.32-9.76-7.61-8.5-15-29.48-18.65-45.44-8.47-8.12,5.18-8.28,5.28-13.66-3-3.13-4.79-9.13-7.38-9.36-14.59-.13-4.32-4.29-6.14-8.74-4.05-5,2.35-7,7.59-4.33,11.56,2,2.95,4.92,4.37,8.28,5.6,5.6,2.06,7.32,6.31,6,12.32-1.09,5-1.17,10,2.25,14.69,4,5.47,3.09,10.35-3.08,13.87-3.76,2.14-6.44,5.58-3.42,9.37,3.79,4.77,2.49,7.91-.52,12.31-6.1,8.94,1,16.15,4.74,23.18,4.62,8.7,12.07,15.35,19.88,21.34,3.25,2.49,5.67,4.74,4.7,9.47-1.44,7.07,3.1,11.18,8.62,14,4.53,2.34,9.4,5.47,14.18,5.59,17.2.43,31.27,12.11,48.39,12.48,8.71.18,14,7.55,21,11.32,3.53,1.9,3.4,5.63,3.38,9.1-3.75,4-8.51,3.41-13.19,2.83-17.89-2.19-35.53,1.16-53.26,2.35-18.56,2.85-36.66.33-54.55-4.65-19.1-5.69-37.92-12-52.4-26.73-21.55-21.85-35.19-48.19-43.76-77.38-3.92-7.76-9.88-14.08-15-21a54.8,54.8,0,0,0-8.05-10.29c-.78-.74-1.5-1.53-2.22-2.34s-1.48-1.56-2.2-2.36c-.38-.39-.73-.8-1.12-1.19a30.36,30.36,0,0,1-2.17-2.5c-.74-.88-1.39-1.8-2-2.74a51.57,51.57,0,0,0-20.64-18.4c-18.21-9.13-31.47-24.37-45.73-38.34-8.31-9.16-14.49-19.78-20.93-30.56.14,23.45-2.88,46.72.93,69.94.87,12.37,2.05,24.68,4.82,36.79a28.47,28.47,0,0,1,1,6.36c0,4.38.45,8.89-3.19,12.32-4.18-5.77-3.81-12.79-5.09-19.3-6.83-34.54-5.25-69.55-5.23-104.46,0-7.63,0-15.16,1.83-22.84,1.89-8-1.12-16.38.53-25,6.56-34.08,16.62-67,32.46-97.83a379,379,0,0,1,54.26-78.53c12-13.49,25.74-24.71,38.27-37.39,8.23-8.32,19.58-11.74,29.26-17.79.79-.92,1.82-1.6,2.57-2.56h2.56C338.17,194.88,341.73,195.21,344.13,200.17Z"/><path class="cls-2" d="M765.24,462.09c-11.24-24-22.4-48-33.78-71.87-3.11-6.54-7.12-12.64-10.32-19.13-3.4-6.88-7.15-12.8-16.23-11.79-4.2.47-5.84-2.17-7-5.85-3.67-11.21-7.28-22.21-15.22-31.73-6.45-7.72-8.52-18.5-15.52-26.38-3.48-3.92-1.71-7.13,3.55-7.75a79.06,79.06,0,0,1,9-.11c18.83,0,37.66.17,56.49-.07,12.35-.16,17.16-4.31,18.7-16,.5-3.76,1.68-6.34,4.84-8.35,4.52-2.86,6.15-8.09,9.34-12.07,1.2-1.49.82-3.24-.54-4.61a2.76,2.76,0,0,0-4.43.13c-5.12,5.9-10.77,9.79-18.95,5.91a2.62,2.62,0,0,0-2.37.55c-8.92,10-20.75,5.37-31.43,6.19-6,.45-12,.07-18,.07,3.74-12.63,9.48-23.87,21.45-30.77a6.11,6.11,0,0,1,3.43-.92c2.12.48,3.76,1.79,5.53,3,4.36,2.95,5.63,11.46,12.23,9.43,7.14-2.2,14.32-6.2,18.34-13,4.16-7.05,10.8-12,14.91-19,1.26-2.15,3.24-4,6.28-2.66,18.32,9.36,34.3,22.31,49.41,35.8,27.34,24.43,51.64,51.79,71.05,83.21,9,14.52,15.56,30.21,23.32,45.33-6.43,1.14-6.17,5.66-3.73,9.53,4.67,7.41,5.57,16,8.25,23.95,1.63,4.84,2.39,9.92,5.75,14,2.71,3.27,2.89,7,2.28,10.88-.51,3.19-2.59,6.22-5.2,6.85-7.25,1.73-6.53,11.7-16.16,12.49-12.39,1-24.37-1.22-36.57-1-12,.24-22.71,2.17-31.64,10.59-10.84.16-12.1-9.8-16-16.44-4.63,2-4.55,5.37-2.87,7.8,5,7.28,7,16.62,14.7,22.13,4,2.89,7.47,6.16,5.34,11.65-2,5.28-6.37,8-11.87,8.32-7.17.41-14.31-.4-21.58.82-5.81,1-7.76-4.62-8.72-9.2-2.14-10.23-7.6-14.66-18.22-12.4C775.54,471.22,769.75,467.92,765.24,462.09Z"/><path class="cls-3" d="M344.13,200.17c-3.2-1.75-6.54-3-10.28-2.57,2.92-6.31,8.94-9.65,14.58-11.79,11.2-4.25,20.92-10.73,31.21-16.52,11.35-6.4,24-10.89,36.51-14.78,22.67-7,45.76-13.18,69.4-15.29,28.34-2.53,56.81-4.74,85.35-3,1.48.09,2.88,1.51,4.33,2.31-10.73,6.93-22.32,1.36-33.47,2-4.1.24-8.32-.22-10.54.33,8.31-1.3,18.56-.21,28.6,1.13,9.13,1.22,14.69,10.31,9.75,18.15-7.62,12.1-1.94,21.64,2.21,31.89,1.71,4.24,3.77,7.88-1.69,10.7H565c-.78.92-1.81,1.6-2.56,2.56a8.93,8.93,0,0,0-5.15,5.14c-1,.75-1.63,1.78-2.56,2.57.28,4.51-.13,8.88-2.56,12.84-16.93.25-33.1-4.23-49.36-8-3.75-.88-7.8-2.51-8.09-7.08-.37-5.74,5.24-5.85,8.65-8l2.58,0c.8-.91,1.78-1.63,2.56-2.55l5.14-2.59c.84-.87,1.7-1.72,2.57-2.56,2.44-4,2.84-8.33,2.57-12.84-.93-.79-1.61-1.82-2.56-2.57a8.93,8.93,0,0,0-5.15-5.14,9.42,9.42,0,0,0-10.26,0c-2.91-.12-5.21,1.52-7.71,2.59-.79.92-1.82,1.6-2.57,2.56h-2.57c-.81.9-1.76,1.66-2.57,2.57h0c-.85.85-1.79,1.62-2.56,2.55l-5.14,2.58c-.79.93-1.82,1.6-2.57,2.56l-12.84,7.72c-.78.92-1.81,1.6-2.56,2.55l-5.14,2.58c-.79.92-1.81,1.6-2.57,2.56h-5.13c-7.42,3.68-14.94,8.26-20.54-2.57,11.62-9.81,12.23-14.58,3.41-23.61-3.63-3.71-7-5-12.37-3-19.81,7.36-39.88,14-59.71,21.32C353.16,199.11,348.89,200.51,344.13,200.17Z"/><path class="cls-4" d="M755.72,914.39a12.75,12.75,0,0,1-5.47,5.29c-6-1.37-10.29,10.5-17.14,2.13-.58-4.94,1.93-9.1,3.43-13.49,14.67-43.19,29-86.48,34.49-132.14-12.25,52.3-26.59,104-44.18,154.75-3.18,7.06-9.6,9.8-16.28,12.17-3.14-.25-3.54-2.62-3.88-5a11.65,11.65,0,0,1,.52-3.21c.53-1.44,1.23-2.82,1.9-4.2.37-.89.81-1.76,1.24-2.63a37.23,37.23,0,0,0,1.73-5.52c.25-1,.55-1.95.87-2.92.57-2.08.87-4.21,1.3-6.33,4.72-13.58,8.29-27.48,12.36-41.23a56.51,56.51,0,0,0,2.87-9.78,28.51,28.51,0,0,1,.93-3.19c1.13-3.08,1.24-6.36,1.77-9.56a19.86,19.86,0,0,1,.86-3.13,44.28,44.28,0,0,0,1.73-7.91,30.46,30.46,0,0,1,.73-3.28c1.45-7.33,3.07-14.62,4.14-22a29.32,29.32,0,0,1,.8-3.36c.16-7,4.81-14.52-2.85-20.35a106.8,106.8,0,0,1-26.43,12.39c-1,.53-2,1-3.09,1.46s-2,1-3,1.54-2,1.06-3,1.54c-5.69,2.51-11.69,4.16-17.52,6.29a30.09,30.09,0,0,1-3.22,1c-2.2.6-4.37,1.3-6.61,1.79a10.83,10.83,0,0,1-5.32-.54c-2.24-1.09-4.61-2.06-4.86-5.06,9.77-10,24.45-8.94,35.55-15.92,32.84-12.54,61.94-31.53,90.05-52.23,3.72-2.74,6.81-6.54,12-6.7,8.24.05,11.54-7.29,17.08-11.31,3.49-2.54,6.35-8.81,12.08-3.09-2.55,13.93-1.68,29-13.19,40-4.68-1.08-1.89-5.86-4.17-8.39-3.88,3.92-3.32,9.45-5.32,13.94-1.68,3.79-1,9.86-8,9.22-5.52-8.24-.13-16.23.92-24.35-5.36,15.38-8.65,31.2-13.19,46.68A28,28,0,0,0,783,812a19.68,19.68,0,0,1-1.08,3.28c-4,7.69-3.91,16.47-6.48,24.55A20,20,0,0,1,774.3,843c-2.94,4.85-3.63,10.32-4.29,15.81a29.92,29.92,0,0,1-.86,3.35c-4.22,16.36-13.67,31-15.51,48.1A11.09,11.09,0,0,1,755.72,914.39Z"/><path class="cls-2" d="M570.09,202.74c.49-1.18,1.7-3.12,1.36-3.43-7.34-7-4.44-18.33-11-25.51-3-3.31-3.07-6.07,1.31-7.86,7.59-3.11,6.31-9.61,5.39-15.28s-7-6.47-11.15-6.47c-10,0-20.15-4.41-30,.91a6.09,6.09,0,0,1-6.11.05c-1.55-.88-2.66-2.13-2.41-4a2.73,2.73,0,0,1,2.69-2.27c3-.24,6-.28,9-.28,15.37,0,30.74,0,46.11,0,8.27,3.66,17.38-.95,25.68,2.57h2.56c4.72,3.34,10.66-.65,15.41,2.56l5.14,0c2,2.41,5.6.28,7.7,2.55,3.82,3.14,9-.43,12.83,2.57,2.92,2.88,7.33-.18,10.28,2.56l5.13,0c1.34,1.6,3.74,1.06,5.14,2.55h0c1.34,1.6,3.77,1,5.14,2.57.85,0,1.71,0,2.56,0,2,2.47,5.63.24,7.71,2.57h2.56c1.32,1.65,3.78,1,5.14,2.56h2.56c1.32,1.65,3.79,1,5.15,2.56h2.56c.74,1,1.78,1.64,2.58,2.56h2.55c1.32,1.66,3.79,1,5.15,2.56l2.56,0c1.33,1.61,3.74,1.07,5.13,2.56h0c1.36,1.56,3.73,1.1,5.14,2.57,2.4,2,5.23,3.27,7.7,5.13.81.91,1.75,1.67,2.58,2.56,9-1.21,15.64,4.45,23.11,7.74.83.85,1.68,1.69,2.54,2.52l0,0q1.25,1.31,2.55,2.55h0c1.38,4-.9,7.13-3.62,8.83-13.27,8.29-24.45,20-40,24.55-10.89,2.4-19.28-1.56-19.84-12.66-.74-14.66-9.56-18.89-20.39-25.51-15.41-9.41-32.35-15.18-47.77-24.18a114.37,114.37,0,0,0-22.33-9.55c-5.46-1.79-7.7-.36-10.66,5-7.84,14.15-11.22,30.27-20.23,43.8Z"/><path class="cls-5" d="M927.24,590.61c-2.72,22-9.31,43.14-15.33,64.39-1.38,4.91-3.41,9.66-3.34,14.89-11.74,28.59-23.16,57.31-35.35,85.71-7.66,17.85-15,36-27.9,51.08-9.07.78-7-4.31-5.3-9.65,8.41-26.61,18.75-52.55,27-79.24,1.63-5.3,2.42-10.65,3.76-15.93,1.45-4.94,3.3-9.73,5.14-14.54,2.87-11.93,5.72-25,11.58-34.66,12.6-20.85,20.58-44.65,37.9-62.61Z"/><path class="cls-6" d="M755.72,914.39l-3.33-3c4.4-15.68,13.84-29.4,17.7-45.29a23.76,23.76,0,0,1,1-3.19,48.46,48.46,0,0,0,2.14-6.25,27.76,27.76,0,0,1,1.07-3.23c.88-2.21,1.65-4.44,2.35-6.72,5.61-19.63,12.29-38.92,16.94-58.83,1.1-4.7,1.81-10.33,7.54-12.56,3.44-3.51,4-8.22,5.12-12.63,1.08-4.06,1.74-8.25,3-12.24,1.17-3.62,4.36-5.71,7.85-4.56,2.67.88,2,4.29,1.48,6.77s-1.36,4.85-2.06,7.27c4,4.26,3.76,9.51,2.22,14.33-6.51,20.5-11.23,41.56-19.53,61.47-4.72,12.18-8.91,24.6-14,36.64-2.16,5.12-.44,3.55,2.4,2.33a4.63,4.63,0,0,1,3.66,3.54C781,891.86,769.78,904.51,755.72,914.39Z"/><path class="cls-7" d="M791.35,878.27l-3-2.8c-3.78-6.33,1.53-11,3.15-16.26,2.08-6.78,5.78-13,7.07-20.08,8.75-20.52,13.83-42.36,22.42-62.93,2.83-4.3,4.35-9.18,5.85-14,.3-1,.68-2,1.08-3a42.7,42.7,0,0,0,2-7.67,24.44,24.44,0,0,1,.93-3.13c.71-2.14,1.28-4.32,1.87-6.51a35.41,35.41,0,0,1,1.05-3.51c1.74-4.68,2.3-9.78,4.84-14.14,1.79-3.09,4.56-5,8.27-4.41,4.1.6,5.27,3.53,5.12,7.27a26,26,0,0,1-2.24,6.93,23.11,23.11,0,0,0-1.9,8.16,28.17,28.17,0,0,1-1,6.52,44.6,44.6,0,0,1-2.5,5.87,36.81,36.81,0,0,0-2.12,5.67,25.6,25.6,0,0,1-.89,2.86,36.84,36.84,0,0,0-1.52,5.77,23.84,23.84,0,0,1-.64,3c-.27,1-.6,2-.94,3a53.78,53.78,0,0,0-1.29,6.55c-6.14,25.33-16.92,49.05-25.31,73.59C805.47,863.32,799.48,871.72,791.35,878.27Z"/><path class="cls-8" d="M248.9,798.81c-2.69-2-3.44-5.27-4.93-8-1.58-1.86-2.05-4.15-2.52-6.45s-1.45-4.6-2.15-6.93a24.55,24.55,0,0,1-1-3.76c-8.71-33.1-16.24-66.47-23.32-99.93-1.23-5.81-3.52-11.57-.93-17.59,9.29-3.16,10.08,4.91,13.16,9.95,3,28.6,13.6,55.4,19.69,83.26,1.7,7.76,9.06,6.86,12.46,11.57,5,7-7.11,8.86-3.86,15.76,3.48,7.41,9.21,13.86,13.54,20,6.89,9.71,7.74,19,8.85,29.29a4.94,4.94,0,0,1-2.86,2c-7.71-.72-9-8.13-13.11-12.63C257.2,810.08,255.74,802.32,248.9,798.81Z"/><path class="cls-3" d="M716.45,228.42c9.13-6.64,17.72-14.32,27.59-19.55A44.16,44.16,0,0,0,760.1,195q7.7,5.15,15.41,10.27c-5.91,5.15-11.38,11.77-14.51,18C755.6,234,745.22,237,737.71,244.08c-4.19,3.94-7.21.22-9.27-2.84C725.1,236.27,721.91,231.33,716.45,228.42Z"/><path class="cls-9" d="M873.11,700.88c1,7.86-2.49,14.55-4.67,21.8C861.87,744.48,855,766.1,845.87,787c-2.12,4.88-1.44,10.57-5,15.39-2.07,2.79,4,1.61,4.47,4.27a5.88,5.88,0,0,1-.79,2.1,10.27,10.27,0,0,0-2,3c-5.73,12.45-14.74,22.58-23.38,33-7.15-2.13-2.61-6.58-1.44-9.59,6.17-15.79,12.14-31.68,18.68-47.31,3.64-8.71,4.63-18.08,8-26.78,5.34-10.8,7.34-22.62,10.68-34,2-6.68,2.42-14.45,9.14-19a4.32,4.32,0,0,1,3,3.66c1.24-1.18.38-2.68.62-4C868.45,704.49,867.88,700.47,873.11,700.88Z"/><path class="cls-10" d="M244,783.06v7.71c-9.4-8.7-12.95-20.76-17.8-31.94-17-39.2-26.83-80.57-36.22-122.07-2.52-11.15-3.53-22.66-7.52-33.48q0-6.4,0-12.82a2.32,2.32,0,0,1,3-.36c2.73,3.25,2,7.53,3.36,11.2.4,1.07.72,2.15,1,3.25.67,2.24,1.45,4.45,2.23,6.67a26,26,0,0,1,1,3.65c10.59,51.17,22.44,102,44.31,149.76,2,4.35,1.75,9.16,4.07,13.27h0C242.91,779.32,242.38,781.71,244,783.06Z"/><path class="cls-11" d="M708.58,942l15.58-10c.61-.63,1.22-1.25,1.84-1.87a18.52,18.52,0,0,1,2-1.68c1-.84,2-1.69,2.95-2.55a9.93,9.93,0,0,1,2.18-1.44l1.3-.2c3.23-1.88,6.57-3.6,9.65-5.7,2.64-1.81,4.54-1.53,6.19,1.13C719.6,947.2,683.77,964.4,643.64,973a37.93,37.93,0,0,1-6.33.32c-4,1-8.08,3-11.25-1.61,5.09-8.31,14.32-5.68,21.59-8.21,2.32-.8,4.64-1.63,7-2.46,5.54-1.46,11.18-2.65,16.56-4.71,1.56-.56,3.16-1,4.75-1.44,1-.4,2-.75,3-1.14s2-1,3-1.42a130.47,130.47,0,0,1,14.49-6c1.42-.62,2.86-1.24,4.24-2,.83-.55,1.69-1,2.54-1.58a14,14,0,0,1,2.64-1.43l1.49-.18Z"/><path class="cls-12" d="M341.79,908.8c-5.62-2.7-9.57-7.24-13.33-12-5.19-6-12.25-10.27-16.17-17.46a7.74,7.74,0,0,1,0-3.32c.39-.4.78-.8,1.16-1.21.54-.1,1.08-.2,1.62-.32a9.23,9.23,0,0,1,3,1.1c.45.28.9.58,1.36.85.92.52,1.82,1.1,2.72,1.67a29.33,29.33,0,0,1,2.7,1.72,26.26,26.26,0,0,1,2.54,2c.42.36.81.74,1.23,1.09.86.71,1.68,1.45,2.5,2.19,5.33,4.19,10.93,8.06,15.41,13.22,1.11,1.1,2.15,2.28,3.2,3.44s2,2.11,3,3.15c.68.61,1.33,1.26,2,1.88.35.28.68.58,1,.86.75.47,1.48,1,2.24,1.43a20.45,20.45,0,0,1,2.29,1.38,17.82,17.82,0,0,1,2.07,1.7l1,.91c.69.59,1.35,1.19,2,1.78.4.24.76.51,1.16.75,1.34.63,2.72,1.12,4.11,1.62a19.1,19.1,0,0,1,6.61,4.36c1.11,1,2.13,2.16,3.13,3.29s1.92,2.05,2.95,3a22.56,22.56,0,0,0,3.44,2.24c.89.39,1.74.83,2.59,1.29a12,12,0,0,1,4.67,3.89,8.94,8.94,0,0,1,.81,3.16,5.63,5.63,0,0,1-2.1,4.39c-3.1.3-5.22-2-7.84-2.95l.12.07c-1.09-2-3.62-1.43-5-2.84l.05,0a68,68,0,0,0-7.86-5l.08,0a6.55,6.55,0,0,0-2.81-2.53l.15.18c-1-2-3.6-1.44-4.88-3l-.06,0a12.79,12.79,0,0,0-2.84-2.35l.12.15c-1.23-1.59-3.15-2.34-4.53-3.74a28.18,28.18,0,0,0-3.27-2.81,27.37,27.37,0,0,1-2.52-1.31l.11,0a7.46,7.46,0,0,0-2.76-2.59l.13.16C347.14,911.87,344,911,341.79,908.8Z"/><path class="cls-13" d="M847.39,762.5c-5.3,26.37-18.86,49.62-28.23,74.45-1,2.63-3.6,5.19,0,7.78-1.8,4-3.59,7.95-7.64,10.25-1.41-4.64-.62-8.75,1.19-13.42,8.14-20.91,16.65-41.72,21.85-63.64,1.61-1.34,1.07-3.75,2.57-5.14h0a5.77,5.77,0,0,0,1.42-4,17.13,17.13,0,0,1,1-2.86c.78-1.91,1.64-3.79,1.53-5.93a5.65,5.65,0,0,1,.91-3,3.2,3.2,0,0,1,3-.24C847,758.15,845.86,760.87,847.39,762.5Z"/><path class="cls-14" d="M469.7,973.17c-15.28-1.54-29.6-6.4-43.53-12.61a6.67,6.67,0,0,1-1.24-7.16,5.24,5.24,0,0,1,4.64-2.57,23,23,0,0,1,5.2.89,129.83,129.83,0,0,1,12.81,3.52,26.12,26.12,0,0,1,3.08,1.19c1,.39,2,.85,3,1.3s2.11.78,3.17,1.17c6.09,2.12,12.78,2.33,18.45,5.82a10.82,10.82,0,0,1,2.28,3.08C479.25,975.89,474.75,974.93,469.7,973.17Z"/><path class="cls-15" d="M469.7,973.17c3.11-.43,8.27,1.21,5.41-5.31a7.42,7.42,0,0,1,5.83-1.68c7.46,1.59,15.2.14,22.65,1.94,13,2.92,26.83,0,39.45,5.57a5.32,5.32,0,0,1,2.6,3.3,5.27,5.27,0,0,1-1.21,4l-5,0c-13.6-4.23-27.8.69-41.46-2.72C488.21,978.27,478.55,977.92,469.7,973.17Z"/><path class="cls-16" d="M248.9,798.81c.63-2.28,1.23-6.07,4.17-2.13,5.69,7.65,10.8,15.74,15.95,23.78,1.59,2.48,2.91,5,5.79,6.26,1.13.84,2.55,1.13,3.7,1.94a19.61,19.61,0,0,1,3.14,2.9,46.6,46.6,0,0,1,3.45,4.71c.65.77,1.26,1.57,1.91,2.35.37.38.7.77,1.06,1.15,3,3.73,7.68,6.39,7.91,12a6.27,6.27,0,0,1-3,3.95c-2.87.73-3.89-1.84-5.61-3.15l.17.1a8.15,8.15,0,0,0-2.6-2.75l.05.09c-1.71-2.62-3-5.56-5.31-7.74l.16.12a8,8,0,0,0-2.62-2.73l.1.1a8.8,8.8,0,0,0-2.68-2.65l.09.1a9.33,9.33,0,0,0-2.62-2.69l.07.08a18.59,18.59,0,0,0-2.46-2.71l0,0a23.3,23.3,0,0,1-2.2-2.45,2.44,2.44,0,0,1-.63-1.75,5.15,5.15,0,0,0-2.62-3.38C258.24,816.27,251.71,808.66,248.9,798.81Z"/><path class="cls-17" d="M544.43,981c0-.94,0-1.88,0-2.82,5.62-5.2,13.18-2.22,19.46-4.64a33.94,33.94,0,0,1,6-1,52.61,52.61,0,0,1,6-.25c7.82-.35,15.72.85,23.47-1.13a27,27,0,0,1,3.89-.88,27.91,27.91,0,0,1,4-.46c6.44.74,13.1-4.06,19.37.76,2.84,3.79,7.1,2,10.72,2.72-13.93,5.77-28.95,5.16-43.48,6.66A318,318,0,0,1,544.43,981Z"/><path class="cls-18" d="M426.33,952.37c-.05,2.73-.1,5.45-.16,8.19H424.9l-1.22-.37c-1.3-1.67-3.72-1-5.11-2.46-9-3.46-18-6.83-25.82-12.62-1.31-1-1.26-2,.17-2.88,0-1.72,0-3.44,0-5.15a6.24,6.24,0,0,1,4.86-2c6.6,1,11.95,5,17.87,7.6q3.07,1.59,6.12,3.25C424,947.58,427.28,948.49,426.33,952.37Z"/><path class="cls-19" d="M292.73,854.94l2.63-2.61,1.66,0a10.92,10.92,0,0,1,3,1.33c3.39,2.76,5.64,6.58,8.84,9.53a42.47,42.47,0,0,1,5.26,6.25,7.82,7.82,0,0,1,.76,3.19,5,5,0,0,1-1.58,2.8c0,.85,0,1.71,0,2.57-.94,1.46-2,1.57-3.24.35a21,21,0,0,1-7.25-7.63,6.41,6.41,0,0,0-2.54-2.86l.06.06a7.39,7.39,0,0,0-2.61-2.63l.05,0a9.54,9.54,0,0,0-2.54-2.68v0C294.27,860.19,291.12,858.34,292.73,854.94Z"/><path class="cls-17" d="M497.92,978.32c10.39,0,20.78-.14,31.18-.08,3.62,0,7.62-.94,10.28,2.8C525.52,980.78,511.52,982.54,497.92,978.32Z"/><path class="cls-20" d="M310.08,878.4l3.24-.35c3.64,7.38,12.38,10.65,15.14,18.75C320.12,892.88,314.45,886.29,310.08,878.4Z"/><path class="cls-3" d="M600.91,141.11c-8.53-1.15-17.56,2.69-25.68-2.57C583.76,139.69,592.78,135.88,600.91,141.11Z"/><path class="cls-3" d="M618.88,143.68c-5.15-.79-10.9,2.08-15.41-2.56C608.62,141.9,614.37,139.05,618.88,143.68Z"/><path class="cls-21" d="M292.73,854.94c1.1,2.52,2.92,4.8,2.53,7.8-4.21-2.19-7.26-5.28-7.91-10.22Z"/><path class="cls-3" d="M644.55,148.82c-4.32-.63-9.24,1.72-12.83-2.57C636,146.87,641,144.54,644.55,148.82Z"/><path class="cls-22" d="M357,919.1a7.89,7.89,0,0,1,5,5.47,9.56,9.56,0,0,1-7.83-5.19l1.31-1.36Z"/><path class="cls-23" d="M341.79,908.8c3.67.19,6.25,1.86,7.35,5.5A9.06,9.06,0,0,1,341.79,908.8Z"/><path class="cls-3" d="M654.83,151.38c-3.55-.36-7.58,1.2-10.28-2.56C648.1,149.18,652.13,147.64,654.83,151.38Z"/><path class="cls-22" d="M372.21,932.1c3.82-.2,6.4,1.53,7.86,5A9,9,0,0,1,372.21,932.1Z"/><path class="cls-24" d="M392.92,942.24c-.06,1-.11,1.92-.17,2.88a8.63,8.63,0,0,1-7.81-5.18C388,939.36,390.35,941.17,392.92,942.24Z"/><path class="cls-21" d="M279.66,842.22c3.75,1.22,5.42,3.87,5.31,7.74A9.24,9.24,0,0,1,279.66,842.22Z"/><path class="cls-3" d="M729.29,179.63a7.75,7.75,0,0,1-7.7-5.13A7.76,7.76,0,0,1,729.29,179.63Z"/><path class="cls-3" d="M631.72,146.25c-2.82-.09-5.85.46-7.7-2.55C626.84,143.78,629.87,143.23,631.72,146.25Z"/><path class="cls-3" d="M680.51,159.09c-2.83-.09-5.86.45-7.71-2.57C675.63,156.61,678.66,156.07,680.51,159.09Z"/><path class="cls-25" d="M418.57,957.74c2.19-.19,4.05.3,5.11,2.46C421.51,960.34,419.71,959.73,418.57,957.74Z"/><path class="cls-24" d="M380,937.17c2.24,0,4.18.44,5,2.84A5.4,5.4,0,0,1,380,937.17Z"/><path class="cls-22" d="M364.75,926.8c2.18.09,4.1.63,4.88,3A5.3,5.3,0,0,1,364.75,926.8Z"/><path class="cls-3" d="M665.1,154c-2.11,0-4-.49-5.14-2.55C662.08,151.44,664,151.89,665.1,154Z"/><path class="cls-3" d="M670.24,156.52c-2.12-.05-4-.5-5.14-2.57C667.21,154,669.13,154.45,670.24,156.52Z"/><path class="cls-3" d="M688.21,161.65c-2.11,0-4-.49-5.14-2.56C685.19,159.14,687.1,159.59,688.21,161.65Z"/><path class="cls-3" d="M695.92,164.22c-2.12,0-4-.49-5.15-2.56C692.89,161.71,694.8,162.16,695.92,164.22Z"/><path class="cls-3" d="M708.76,169.35c-2.12,0-4-.49-5.15-2.56C705.73,166.84,707.64,167.29,708.76,169.35Z"/><path class="cls-3" d="M716.45,171.93c-2.11-.05-4-.5-5.13-2.56C713.43,169.41,715.34,169.86,716.45,171.93Z"/><path class="cls-3" d="M721.59,174.5c-2.12-.05-4-.5-5.14-2.57C718.57,172,720.48,172.43,721.59,174.5Z"/><path class="cls-3" d="M331.29,197.61l-2.57,2.56Z"/><path class="cls-3" d="M760.1,195l-2.55-2.55Z"/><path class="cls-21" d="M264.21,824.22a3.82,3.82,0,0,1,2.62,3.37Q265.51,825.91,264.21,824.22Z"/><path class="cls-3" d="M757.52,192.45,755,189.93Z"/><path class="cls-21" d="M267.46,829.35l2.2,2.45Z"/><path class="cls-5" d="M842.55,811.75a3.17,3.17,0,0,1,2-3C843.87,809.76,843.21,810.75,842.55,811.75Z"/><path class="cls-21" d="M269.7,831.84l2.46,2.71Z"/><path class="cls-3" d="M731.87,182.19l-2.58-2.56Z"/><path class="cls-21" d="M272.09,834.47l2.62,2.69Z"/><path class="cls-21" d="M274.62,837.06l2.68,2.65Z"/><path class="cls-21" d="M277.2,839.61l2.62,2.73Z"/><path class="cls-21" d="M284.92,849.87c.86.92,1.73,1.83,2.6,2.75A3.62,3.62,0,0,1,284.92,849.87Z"/><path class="cls-21" d="M295.25,862.71a3.33,3.33,0,0,1,2.54,2.68A3.24,3.24,0,0,1,295.25,862.71Z"/><path class="cls-21" d="M297.74,865.34a3.25,3.25,0,0,1,2.61,2.63A3.5,3.5,0,0,1,297.74,865.34Z"/><path class="cls-3" d="M701.06,166.79l-2.58-2.56Z"/><path class="cls-21" d="M300.29,867.91a3.25,3.25,0,0,1,2.54,2.86Z"/><path class="cls-23" d="M349,914.14a3.7,3.7,0,0,1,2.76,2.59A3.69,3.69,0,0,1,349,914.14Z"/><path class="cls-22" d="M351.65,916.71l2.76-.14a1.62,1.62,0,0,1,.59,1.55c-.12.55-.25.83-.41.83l-.45.43Z"/><path class="cls-22" d="M361.85,924.42l2.84,2.35A3.38,3.38,0,0,1,361.85,924.42Z"/><path class="cls-22" d="M369.48,929.62a3.54,3.54,0,0,1,2.81,2.53A3.46,3.46,0,0,1,369.48,929.62Z"/><path class="cls-26" d="M803.71,736.77c-10.58,4.55-18.46,13-28,19.2-23.79,15.42-47,31.8-74.7,39.94a10.13,10.13,0,0,1,6.8-12.26c14.17-4.19,19.8-16.46,27.94-26.58C754.93,733.26,776.72,711.74,796,688c6.72-8.29,13.48-16.39,18.82-25.62a19.63,19.63,0,0,1,3.76-4c21.85-15.57,36.26-37.62,51.33-59.07.56-3.84,2.93-6.78,4.86-9.94,8.6-21.61,19-42.57,22.58-65.92,1.34-8.69,6.19-9.05,12.41-4.12a29.06,29.06,0,0,0,10.07,1.14c4.62.2,6.77-3,8.83-6.42a11.65,11.65,0,0,1,2.86-2.7c7.66-.1,5.56,5.92,5.62,9.78.19,14.75-2.08,29.28-4.89,43.72l0-.06c-3.29,4,.11,9.15-2.44,13.24-.32,4.29.76,8.87-2.58,12.55l-.49-.26c-3.75-3.73-2-8.16-1.66-12.46-1.73,11.43-6.92,21.2-14.17,30-3.4,2.78-7.16,4.48-11.69,4.2C882.18,611,863.42,627.6,861,646.53c-2.89,22.17-16.4,39.75-27.56,58-5.61,9.15-13.56,17.35-21.26,25.28A17.79,17.79,0,0,1,803.71,736.77Z"/><path class="cls-3" d="M575.23,205.31c3.86-12.35,4.83-25.76,13.87-36.21,2.47-2.85,3.53-6.59,4.17-10.52,1.58-9.61,1.51-8.36,10.71-6.21,19.23,4.49,34.26,18.39,53.5,22.69,3.89.87,7.7,3.85,10.66,6.75,5.1,5,11.3,7.33,17.78,9.54,11.58,3.94,12,4.73,12.56,17.32.57,13.92,3.64,17.3,18,19.75-.06.41,0,1.07-.21,1.21-11.32,7-14.24,20.53-22.9,29.59H688.2a9.42,9.42,0,0,0-10.26,0h-2.58c-1.32-1.63-3.78-1-5.13-2.55-12,.46-24.2-1.54-36,2.57-7.39-1-12.45-6.07-18-10.33-6.29-4.81-12.31-9.73-20.9-10.85-9.45-1.23-12.62-8.43-12.42-17.34C581,215.25,581.62,208.53,575.23,205.31Z"/><path class="cls-27" d="M765.24,462.09c7.72,3,14.85,7.11,24.06,3.15,5.49-2.36,12.64,4.32,14.3,11.44.58,2.46.35,5.16,1.19,7.49,1.38,3.85,3.42,7.44,8.19,3.37,3.54-3,6.94-1.38,10.74-.49,5.85,1.37,11.93,1.94,16.34-3.75,2.45-3.17,3.17-6.87-1.07-8.4-12.67-4.57-12.19-18.62-19.88-26.85-3.1-3.32-.75-8.93,3.61-11.95,3.92-2.72,7.45-1.42,8.92,3.07,3.37,10.31,4.43,12.08,10.63,17.78.36,16.26,1.92,17.88,17.54,18,8.13,0,16.25.15,24.38,0,4.53-.1,8.33.51,10.89,4.91,2.12,3.66,7.17,5.56,7.81,9.87.73,4.84-5.78,6.4-6.76,10.16-3,11.47-10.24,19.31-18.77,26.9-3.49,3.1-3.15,9.6-6.79,13.51-3.32,3.58-5.94,3.14-7.43-1.31-4.15-12.39-10.74-17.39-23.44-17.76-1.71,0-3.42,0-5.13,0-6.2-4.87-12.68-5.42-20.82-5.86-13.28-.73-28.22-3.58-36.34-17.3-3.13-5.3-6.78-9.79-12.17-12.79-.81-.9-1.76-1.67-2.57-2.57-3.65-3.42-3.63-6.85,0-10.28.84-.86,1.7-1.72,2.57-2.55Z"/><path class="cls-2" d="M449.64,326.29c2.17-6.38-1.36-8.09-6.39-7.91-8.66.31-13.14-3.25-14.92-12.1-1.39-6.92-4.85-7.28-9.92-1.25-3,3.53-7.17,4.37-10.66,6.54-5.34,3.31-13.12-2.21-11.55-8.39,1.62-6.37,1.24-12.67,2.05-19,1.28-9.86,19.19-23.36,28.5-21.57,3.57.69,5.8,3.64,7.14,6.84,2.11,5,5.74,8.07,10.54,10.51,8.74,4.43,12.73,13.53,18.8,20.57,2.65,3.09,1.19,6.15-1.67,8.92-7.08,6.87-6.9,6.9-.5,14.11,2.36,2.67,7.22,4.71,4.81,9.32s-7.45,3.58-11.57,3.09C447.79,335.25,449.78,330.06,449.64,326.29Z"/><path class="cls-28" d="M692.17,282.09c-13.26,0-26.52,0-39.78,0-4.29,0-8.51-.08-12.53-2-4.25-2.06-7.13-5.29-6.57-10,.64-5.29,4.22-8.26,9.76-8.24,16.68.07,33.47-1,50,.64,14.11,1.38,28.14,1.14,42.2,1.54,11.33.32,14.84,2.54,14.61,9.63-.22,6.63-3.39,8.73-14.07,8.82-14.54.11-29.08,0-43.62,0Z"/><path class="cls-29" d="M760.07,464.84c-.23,4.84-2.78,8.11-7.33,9.36-3.92,1.08-6.55-1.34-8.2-4.63-5.74-11.47-11.46-23-17-34.53q-11.68-24.27-23.09-48.67a50.66,50.66,0,0,1-4.3-12c-.76-4.07,1.32-7.64,5.34-9.24s7.6-.41,10.12,3.19a37.69,37.69,0,0,1,3.16,5.57q19.38,41.21,38.69,82.44C758.69,459,760.18,461.68,760.07,464.84Z"/><path class="cls-30" d="M577.6,218.9c-3,16.38-5.58,31.46-8.42,46.5-2.12,11.28-4.52,22.51-6.79,33.76a37.48,37.48,0,0,1-1,5c-1.77,5-4,9.72-10.69,8.74-5.19-.77-8.54-6.09-7.36-12.83,3.06-17.59,6.48-35.12,9.79-52.67,1.42-7.53,2.85-15.05,4.39-22.54a67.53,67.53,0,0,1,2.36-8.63c1.66-4.74,4.37-8.55,10.12-7.79C574.62,209.05,577.76,214.3,577.6,218.9Z"/><path class="cls-31" d="M695.91,527.3a47.12,47.12,0,0,1-2.57,6.25q-20.7,36.84-41.56,73.6a26.68,26.68,0,0,1-2,3.31c-3.08,3.94-6.92,7.12-12,4.28s-4.49-8-2.62-12.54c1.78-4.29,4.59-8.16,6.84-12.27,10.69-19.47,21.31-39,32-58.41,2.06-3.74,4.43-7.3,6.66-10.94,2.59-4.23,6.37-5.78,10.94-3.94C696,518.38,696.32,522.35,695.91,527.3Z"/><path class="cls-29" d="M386.52,488.29c-.39,3.76-1.43,7-5.09,8.41-3.24,1.23-6-.53-8-2.76a34,34,0,0,1-5.63-8.5q-16.54-37.53-32.76-75.2a83,83,0,0,1-2.93-8.47c-1-3.18-.25-6,2.51-7.95,3.14-2.17,6.47-1.85,9.56.31a16.12,16.12,0,0,1,5.4,7q17.61,40.56,35.18,81.12A45.81,45.81,0,0,1,386.52,488.29Z"/><path class="cls-32" d="M344.35,226c-5.22.12-8.79-1-10.08-5.42s-.76-8.5,3.91-10.91a47.2,47.2,0,0,1,5.76-2.72q35.51-12.48,71-24.84a21.38,21.38,0,0,1,4.88-1.48c4.8-.42,8.09,1.84,10,6.21,2,4.56-.61,7.39-3.86,9.63a34.78,34.78,0,0,1-8,3.93Q383.8,212.58,349.5,224.6A51.43,51.43,0,0,1,344.35,226Z"/><path class="cls-33" d="M909.33,523.54c-3.29-.43-4.2-3.91-8.37-6.33-4.5,26.17-14.39,49.91-25.29,73.27a3.79,3.79,0,0,1-.13-5.25,18.29,18.29,0,0,1,2-8.64c8.68-16.73,14.84-34.4,17.22-53.06,1.49-11.68,6.88-21.09,14.53-29A47.86,47.86,0,0,0,921.84,470c.68-4.64,1.68-9.15,5.31-12.55,4.42.12,6.06-4.14,9.34-6.19.72,1.23,1.81,2.24,1.88,3.32.92,14.76,5.63,29.46,3.41,44.17-2.29,15.14-1.26,30.52-4.56,45.5-1.52,6.93-1.26,14.29-5,20.68.44-17,4.42-33.75,2-51.19-2.15-1.42-2.88,1.93-4.72,2.25-4.23-3.55.73-14.25-8.58-13-7.9,1.1-9.31,8.83-10,15.84A8.93,8.93,0,0,1,909.33,523.54Z"/><path class="cls-2" d="M426.3,202.74c6.28,5.36,13.55,2.81,20.54,2.57-4.67,8.19-12.66,11.28-21.16,12.64-6.72,1.08-11.11,4.11-15.92,9-7.18,7.38-14.39,14.13-17,24.55-.62,2.51-3.18,5.45-5.43,4.57-7.91-3.06-9.73,4.72-15,8.16-3.08-6.67-3.64-14-9-19.1-2.39-2.28-.75-5.75,1.94-7.71s6.38-3.29,7.22-6.9C375,219.47,384,216,393.23,214.49c9.82-1.61,18.22-6,27-9.92A49.47,49.47,0,0,1,426.3,202.74Z"/><path class="cls-34" d="M493,207.46c-13.71,6.13-25,16.13-37.67,23.84-3.64,2.21-7,5.08-10.87,6.66-4.53,1.84-9.61,2-12.25-3.29-2.28-4.55-1.84-9.31,2.53-12.66,4.06-3.09,8.44-5.77,12.7-8.6q22.9-15.22,45.81-30.42c2.13-1.41,4.27-2.82,6.48-4.08,4.95-2.85,9.12-1.55,12.19,2.94,3.17,4.64,1.87,8.86-1.88,12.62-3,3-7.65,4-9.77,8C498.58,205.26,495.87,206.49,493,207.46Z"/><path class="cls-30" d="M279.87,290.34c-3.44,0-7.31.27-11.14-.06-6.79-.58-9.63-3.62-9.48-9.55s3.47-8.18,9-8.71c16.12-1.55,32.22-3.4,48.36-4.88,6.79-.61,13.64-.32,20.35-2.17a14.38,14.38,0,0,1,11.17,1.52c3.89,2.22,5,5.92,4.72,9.8-.27,4.42-3.68,6.7-7.6,7.67-7.47,1.84-15.23,1.6-22.85,2.74C308.47,288.78,294.33,289.2,279.87,290.34Z"/><path class="cls-28" d="M417.3,311.92c4.62.46,7.71,3.42,10.68,6.55q25.56,27,51.09,54a23.74,23.74,0,0,1,2.47,2.94c2.8,4.14,4.59,8.42.62,12.82-3.11,3.45-9.05,3.27-13.75-1.07A208.67,208.67,0,0,1,449.52,368c-9.86-11.85-20.74-22.7-31.42-33.76-3.92-4.06-7.29-8.42-7.46-14.43C410.52,315.17,412.81,312.62,417.3,311.92Z"/><path class="cls-35" d="M557,497.82c-11.51,0-23-.07-34.55,0a30.8,30.8,0,0,1-13.66-2.81,9,9,0,0,1-5-8.35c-.09-3.95,2.67-6.17,6.1-7.3,2.38-.79,5-1.65,7.42-1.31,22.49,3.21,45.12,1.39,67.68,2.13,3.82.13,7.65-.12,11.33,1.47,4.26,1.83,7.44,4.41,6.85,9.53s-4.3,7.07-9,7.1c-12.37.08-24.74,0-37.12,0Z"/><path class="cls-36" d="M588.07,698.31c-9.86-10.65-9.67-11.53,2.68-20.66,3.73-2.76,7-6.19,10.53-9.16,6.56-5.45,9.31-4.82,12.55,3.06.84,2,1.47,4.59,3.78,4.42,3-.21,3.76-3.13,3.74-5.75,0-6.2.12-11.56,8.08-13.64,5.72-1.49,10.4-2.49,15.41,1.64,3.07,2.54,6.54,1.52,8.75-1.84,1.76-2.69,1.88-6.88,6.48-6.74,5,.15,10.37-1.4,15,1.48a21.67,21.67,0,0,0,10.59,3.63c12.06.76,12,.93,12.85,12.74-3.2,11-12.22,8.13-19.67,7.78-8-.39-7.09-6.26-6.6-12.19.47-5.68-3.56-6.72-7.49-3.87-11.32,8.19-28.25,8.89-33.66,25.08-.5,1.5.62.67-.76.86C615.47,687.2,604,699.78,588.07,698.31Z"/><path class="cls-2" d="M530.86,612.55c-4.42-6.15-9.91-9.91-10.28-17.16-.19-3.78-4-6.43-8-7.4-2.64-.63-4.86-1.81-5.94-4.36-.68-1.6-.72-3.59.91-4.58a3.57,3.57,0,0,1,3.44.35c3.91,4.51,10,6.28,13.42,11.62,2.92,4.52,5.46,11.14,13.8,7.92,2.13-.83,2.66,4.13,2.43,5.34-1.23,6.55,1.21,10.91,5.72,15.51,5.09,5.2,4.25,9.66-1,15.3-11.63,12.42-21.68,13-35.12,2.21-3-2.37-6.56-3.94-9.79-6-4.22-2.68-7.35-6.49-6.18-11.56,1.37-5.92,6.79-8.42,11.83-10.75a3.7,3.7,0,0,1,4.48,1.65C516,618.94,522.57,616.66,530.86,612.55Z"/><path class="cls-37" d="M482.45,618.9c-3.53.2-7.07-1.45-10.67-2.73q-28.9-10.24-57.77-20.65a36.81,36.81,0,0,1-7-3.15c-4.31-2.66-5.08-7-3.47-11.23,1.76-4.62,5.78-6.11,10.47-4.58q15.79,5.18,31.48,10.68c12.07,4.21,24.09,8.54,36.14,12.84a32.15,32.15,0,0,1,5.94,2.28c3.93,2.36,6.43,5.73,5.24,10.62C491.57,618.21,487.48,619.05,482.45,618.9Z"/><path class="cls-38" d="M588.07,698.31c7.69-1.44,14.21-5.56,20.67-9.54,3.44-2.11,6.66-3.42,10.65-3.33,6.14.15,12.61.67,10.23-9.16-.54-2.23,2.85-2.62,4.17-4,8.77-8.95,22.94-8.55,31.22-18.36,2.15-2.54,5.44-2.11,8.08,0s5.11,4.53,4.36,8.55c-.54,2.89-4.16,4.45-3.1,8.92,8.35,1.64,16.8,3.44,24.13-4,5.42,1.15,8.77-2.86,12.82-5.14,1.37-1.55,3.83-.9,5.15-2.55h5.12c4.76-3.2,10.7.79,15.42-2.56l5.12,0c3.86-3,9,.61,12.86-2.54h10.27a5.89,5.89,0,0,0,7.7,0c7.35-2.32,13.22-1.18,16.15,6.88a4.61,4.61,0,0,1-2.87,2.69c-16.36,3.27-32.81-2.85-49.4,1-12,2.79-23.25,7.19-34.87,10.78-21.57,6.65-44.55,6.06-66.13,13-10.53,3.38-21.31,5.94-31.2,11.07-7.09,1.3-13.17,7.62-21.2,4.3a2.4,2.4,0,0,1-.49-3.52l2.55,0a29.46,29.46,0,0,0,2.58-2.54Z"/><path class="cls-39" d="M927.15,457.4c0,4.94.28,10-5.31,12.55l-57.76.15c-3,0-6,0-9-.23-3.72-.28-6.58-1.95-7.39-5.89-.88-4.33.87-7.46,4.65-9.59A21.9,21.9,0,0,1,863.49,452q25,.09,50.06,0C918.84,451.94,923.85,452.51,927.15,457.4Z"/><path class="cls-2" d="M544.41,708.58c-3.67-1-7.44-1.81-11-3.19-2.59-1-6.49-1.73-5.81-5.61.52-3,3.18-5.19,6.16-5.95a22.65,22.65,0,0,1,7.58-.32c8.91.86,12.56-.58,15.49-8.45,2.14-5.76,4.83-10.79,9.33-15,7-6.44,12.49-7,24.15-1.39-11.86,11.39-20.24,25.07-30.51,37.29a7.14,7.14,0,0,1-4,4.41C551.72,711.81,547.8,711.88,544.41,708.58Z"/><path class="cls-2" d="M670.09,368.85c0,6.62-3.81,9.21-9.2,6.2-7-3.94-13.68-8.63-20.59-12.84-4.74-2.88-3.26-7.46-3.4-11.53-.18-5.5.9-10.94-6.78-13.13-5.5-1.57-6.09-7.78-7.68-12.58-.74-2.27.28-4.18,2.38-5.33,2.3-1.26,4.08,0,5.69,1.46A9.23,9.23,0,0,1,633,324c3.45,8.27,6.67,16.62,18.07,16,.88,0,2,1.48,2.76,2.49,4.69,6.58,9.39,13.15,13.89,19.87C669.14,364.42,670.32,366.8,670.09,368.85Z"/><path class="cls-2" d="M765.24,485.19c6.24.92,11.48,3.42,13.79,9.74,3.32,9.09,11.16,13.45,19.31,15,6.32,1.24,13.73,9.35,20.28-.07,7.46.71,12.38,5,16,11.24-3.71-.84-7.45-2.54-11.11-2.37a59.69,59.69,0,0,1-28.13-5.59c-10.23-4.62-11.74-2.93-10,7.65,1.36,8.32-.45,15.15-3.89,14.35-5.72-1.32-7.77-7.45-7.77-11.75,0-8-5-15.27-1.93-23.73C773.86,493.85,767.6,490,765.24,485.19Z"/><path class="cls-2" d="M561,504.36c14.41-3.21,29,1.05,42.75-2.82,2.86,3.4-.09,4.93-1.56,6.67a46.85,46.85,0,0,1-6.26,6.41c-3.61,2.89-1,9.36-5.59,10.85-6.27,2-12.24-2.87-18.79-2.09-3.26.39-5.25-2.33-6.68-5.15A31.52,31.52,0,0,1,561,504.36Z"/><path class="cls-40" d="M790.93,664.91c8.81-1.72,8.81-1.72,18.45-10,.32-3.35-2.43-2.52-4.2-3-5-1.49-4.33-4.61-2-7.81C807,638.74,813.24,637.4,819,637c6.32-.42,9.88-3.88,13.93-7.79C845.43,617.14,857,604.06,870.51,593c2.87,6-2.23,9.3-4.57,13.54a22.15,22.15,0,0,1-2,2.82,25.44,25.44,0,0,1-2.42,2.45,21.79,21.79,0,0,1-2.81,2.06c-6.1,4.76-12.32,9.4-14,17.66a15.72,15.72,0,0,1-1.4,3.27,18.44,18.44,0,0,1-2.31,2.69,17.94,17.94,0,0,1-2.86,2.12c-6.65,7.28-15.62,5.28-26.09,5.55,6.85,4.49,6.77,9.14,3.84,14.15a26.87,26.87,0,0,1-20.22,10.53C793.13,669.2,790.22,668.79,790.93,664.91Z"/><path class="cls-2" d="M500.31,660c-13.9,3.84-23.15-.46-27-12-1.88-5.62-3.12-11.44-4.92-17.09-1.41-4.44-.34-7.7,4.11-9.11,3.61-1.15,6.56-.28,8,4,.77,2.35,3.43,4.33,3.6,6.6C484.94,644.1,491.61,652.42,500.31,660Z"/><path class="cls-2" d="M493,207.46a8.57,8.57,0,0,1,7.27-5l3.06.27c-1,3.51-5.11,4.33-6.57,7.41.4.8.7,2.12,1.15,2.18,13.58,1.63,25.11,11,39.56,10,4.77-.35,9.76,2.24,14.66,3.49-1.27,2.19-2.73,5.18-5.62,3-5-3.79-10.29-2.29-15.69-2.61-11.62-.7-23.27-2.28-34.42-5.74C488.75,218.11,488.6,216.16,493,207.46Z"/><path class="cls-2" d="M325.31,436.56c8.91-.3,19.41,15.28,15.64,22.78-1.47,2.92-4,2.5-6.61,1.61-8.72-3-12.26-10.42-14.78-18.19C318.17,438.47,322,437.05,325.31,436.56Z"/><path class="cls-2" d="M582.93,220.71c2.55,1.61,2.32,4.33,2.82,6.81.84,4.13,3.67,7.84,7.42,8,16.09.58,25.74,11.95,36.94,20.81,1.33,1.05,2.78,2,4.17,2.93-7.72,4-13.15-2.24-17.88-5.6a167.43,167.43,0,0,0-26.87-16.14C579,232.58,578,230.34,582.93,220.71Z"/><path class="cls-36" d="M544.41,708.58l12.79-.06c.06.73.11,1.46.17,2.19-3.69,4.41-9.18,4.61-14.14,6.1-27.32,1.22-54.65.07-82,.64-4.3.09-8.58-.26-11.84-3.69,1.7-2.31,4.16-2.56,6.75-2.6,11.73-.19,23.4.25,35.12-2.24,8.14-1.74,16.32,3.86,24.88,2.22C525.54,709.85,535.41,714,544.41,708.58Z"/><path class="cls-2" d="M372.88,339c5.53.19,8.84,5.2,5.67,9.58s-6.28,9-9.3,13.54c-2,3.07-9,1.81-10.87-1.58a3,3,0,0,1,1.06-4.38c5.22-2.88,8.37-6.69,8.1-13.09C367.42,340.05,370,339,372.88,339Z"/><path class="cls-2" d="M440.83,554.4c0,2.61-8,14.56-10.31,15.1-3.12.73-6.15.14-7.82-2.69-2.29-3.86-2.76-8.52.23-11.86,3.83-4.29,9.75-4.06,15.09-4.25C439.54,550.65,440.73,552.5,440.83,554.4Z"/><path class="cls-2" d="M591.36,331.83c-13,2.06-18.88-1.54-20.85-11.05-.51-2.48-.92-5.36,2-6.71,3-1.43,4.9.71,5.91,3.17C580.72,322.9,585.13,326.81,591.36,331.83Z"/><path class="cls-2" d="M311.54,484.7c9.25-1.86,15.59,2.5,20.8,8.6,2.58,3,1.54,6.63-2,8.65s-7.83.66-8.18-2.95C321.46,491.86,317.31,488.06,311.54,484.7Z"/><path class="cls-2" d="M539,598.41c-1.35-4.12-2.09-7-3.22-9.69-1.35-3.2-1.11-5.9,2.17-7.47,4.37-2.08,8.13-.83,11.33,2.7,2.71,3,.78,5.55-.67,8C546.54,595.46,542.52,596.29,539,598.41Z"/><path class="cls-2" d="M644.09,443.8c-1.12,5-5.23,5.54-9.7,5.38-4.21-.15-7.55-2-8.68-6.1-.81-2.87,7.63-7.16,12.37-6.5C641.87,437.11,644.48,440.05,644.09,443.8Z"/><path class="cls-2" d="M469.8,478c3-.33,4.83.84,4.82,3.21a8.07,8.07,0,0,1-6.53,8.09,6,6,0,0,1-7.09-5.51C460.83,477.84,467.35,480.25,469.8,478Z"/><path class="cls-2" d="M518.37,261.55c-4.15-.51-4.89-3.19-4.42-6.48s2.44-5.69,5.89-5.53c4.21.2,3.92,3.69,3.9,6.68C523.72,259.88,521.84,261.66,518.37,261.55Z"/><path class="cls-2" d="M519,673.76c1,1.66.08,3.23-.21,4.82-.68,3.72-2.47,6.49-6.64,6.41a3.43,3.43,0,0,1-3.34-3.26c-.57-4.36.83-7.59,5.39-8.72C515.8,672.61,517.57,672.41,519,673.76Z"/><path class="cls-40" d="M788.39,662.33c-3.54-5.8-9-7.69-15.45-7.67,6.87-4.86,14.1-2.17,21.27-1.8,1.07,4.48-4,5.9-3.29,9.51A1.52,1.52,0,0,1,788.39,662.33Z"/><path class="cls-2" d="M638.27,647c-.24,3.3-2.39,4.48-5,4.83-2.95.39-6.46.53-7.29-3-.76-3.26,2.37-4,4.85-4.16C633.52,644.46,636.82,643.35,638.27,647Z"/><path class="cls-2" d="M322.86,258.94c-.7,2.81-3.29,2.84-5.83,2.54s-5.4-1.58-4.9-4.5c.7-4.11,4.51-2.75,7.19-2.62C321.55,254.47,323.22,255.75,322.86,258.94Z"/><path class="cls-2" d="M470.7,592.19c-3.28-.7-3.26-3-3.13-5.06.17-2.59.91-5.35,4.2-5.21,2.58.11,5.46,1.35,4.76,4.55C475.89,589.42,473.31,591.25,470.7,592.19Z"/><path class="cls-41" d="M862.79,608.43c-.39-6.62,8.15-8.76,7.72-15.39,1.57-2.68,2.24-5.92,5-7.81,0,1.75.09,3.5.13,5.25-1.7,3.17-3,6.46-2.64,10.16C870,603.75,869,609.49,862.79,608.43Z"/><path class="cls-36" d="M557.2,708.52l2.62-2.52c8-.41,15.35-3.65,23.11-5.12,0,.88,0,1.75,0,2.63.61,2.72-1.25,3.81-3.2,4.85-7.46,1.1-14.88,6.25-22.44.32Z"/><path class="cls-2" d="M485.08,338c-.29,2.28-1.44,4.54-3.71,4.25-2.92-.37-3.85-3.06-3.3-5.82.43-2.1,1.48-4.24,4.16-3.5C484.57,333.61,485.08,335.79,485.08,338Z"/><path class="cls-2" d="M292,366.72c-7.2.06-10.06-2.74-11.45-9.32C286.7,358.38,289,361.79,292,366.72Z"/><path class="cls-2" d="M416.74,436.82c1.73,0,3.5.21,3.5,2.43a3,3,0,0,1-3,3.28c-.9,0-2.17-1.23-2.63-2.21C413.75,438.44,414.75,437.23,416.74,436.82Z"/><path class="cls-40" d="M737,657.23c-4.51,4.64-10.26,1.78-15.42,2.56C726.09,655.17,731.84,658,737,657.23Z"/><path class="cls-2" d="M357.94,479a3.2,3.2,0,0,1,3.31,2.84,1.93,1.93,0,0,1-1.94,2.44,3.24,3.24,0,0,1-3.47-2.73C355.63,480.33,356.64,479.38,357.94,479Z"/><path class="cls-2" d="M505.41,334.05c.19,4.12,0,5.52-1.35,5.38-.86-.09-1.92-1.28-2.31-2.21a1.73,1.73,0,0,1,1.58-2.41C504.66,334.72,505.45,335.61,505.41,334.05Z"/><path class="cls-40" d="M755,654.67c-3.61,4.27-8.53,1.94-12.86,2.54C745.73,653,750.63,655.27,755,654.67Z"/><path class="cls-38" d="M788.39,662.33l2.53,0c0,.84,0,1.69,0,2.54,1.15,2.13,3.16,2.56,5.32,2.67a2.65,2.65,0,0,1-1.31,3.66c-7.45,1.1-9.89-1.67-6.73-8.74Z"/><path class="cls-33" d="M929.82,578.06c.28-4.51-2.07-9.51,2.44-13.24C932,569.33,933.28,574.13,929.82,578.06Z"/><path class="cls-2" d="M403.94,322.64A2.66,2.66,0,0,1,401.8,325a1.94,1.94,0,0,1-2.7-1.31c-.35-1.46.77-2.14,2-2.38S403.4,321.13,403.94,322.64Z"/><path class="cls-2" d="M533.81,538.13a2.07,2.07,0,0,1-1.24-2.78c.39-1.17,1.22-2.34,2.54-2s1.43,1.66,1.15,2.83S535.32,538.33,533.81,538.13Z"/><path class="cls-2" d="M429.8,653.46a2.94,2.94,0,0,1-3.47.83,1.26,1.26,0,0,1-.79-2.06c.76-1.2,1.91-1.87,3.19-.92C429.31,651.73,429.46,652.73,429.8,653.46Z"/><path class="cls-2" d="M677.94,259.21c3.42-3.61,6.84-3.62,10.26,0Z"/><path class="cls-2" d="M500.77,174.47q5.13-5.41,10.26,0Z"/><path class="cls-2" d="M617.35,653.53a7,7,0,0,1-1.11,1.85c-.74.66-1.63.38-1.73-.58a2.24,2.24,0,0,1,.94-1.81C615.88,652.78,616.7,653.32,617.35,653.53Z"/><path class="cls-40" d="M772.94,654.66q-3.84,5-7.7,0Z"/><path class="cls-2" d="M517.15,550l-.33-1.1c.32-.09.86-.33.93-.24C518.45,549.67,518.22,550.14,517.15,550Z"/><path class="cls-2" d="M670.23,256.66c2.11,0,4,.5,5.13,2.55C673.25,259.18,671.34,258.73,670.23,256.66Z"/><path class="cls-2" d="M356.31,303.32c-.32.09-.84.34-.92.24a3,3,0,0,1-.36-1.07c.32-.09.84-.34.92-.23A3.16,3.16,0,0,1,356.31,303.32Z"/><path class="cls-2" d="M597.7,436.49l-.73.88c-.19-.34-.54-.69-.51-1s.44-.6.68-.9Z"/><path class="cls-40" d="M716.45,659.8c-1.11,2.07-3,2.51-5.15,2.55C712.42,660.3,714.33,659.84,716.45,659.8Z"/><path class="cls-2" d="M562.39,205.3l2.56-2.56Z"/><path class="cls-2" d="M452,205.3l2.57-2.56Z"/><path class="cls-2" d="M508.46,200.19l-2.56,2.55Z"/><path class="cls-2" d="M459.68,200.16l2.56-2.55Z"/><path class="cls-2" d="M516.17,195l-2.57,2.56Z"/><path class="cls-2" d="M554.68,213l2.56-2.57Z"/><path class="cls-2" d="M475.08,189.89c.86-.85,1.72-1.7,2.57-2.56C476.8,188.19,475.94,189,475.08,189.89Z"/><path class="cls-2" d="M482.79,184.75l2.56-2.55Z"/><path class="cls-2" d="M516.18,179.63l2.56,2.57Z"/><path class="cls-2" d="M485.35,182.2l2.57-2.57Z"/><path class="cls-2" d="M490.49,179.62l2.57-2.56Z"/><path class="cls-2" d="M765.24,469.79l-2.57,2.55Z"/><path class="cls-2" d="M762.67,482.62l2.57,2.57Z"/><path class="cls-36" d="M588.06,698.32l-2.58,2.54Z"/><path class="cls-42" d="M449.42,713.76l97.5-.14c.08.67.17,1.34.26,2-4.13,5.18-10,3.94-15.42,4-17.08.22-34.16.15-51.24.05-6.72,0-12,2.29-17.45,6.41C441.18,742.67,416.9,755,391.33,765c-9.71,3.78-17.35,2-23.95-6a96.61,96.61,0,0,0-12.58-12.76c-7.85-6.49-11.52-5.66-14.75,3.83-1.76,5.17-3.27,9.8-9.74,10.06-4.93.18-8.78-2.24-12.43-5.14-4.24-3.59-9.59-5.51-13.81-9.14-4.63-6.77-15.38-9.47-13.68-20.49,4.06-3.84,6.21-9.12,9.83-13.27,8.86-10.14,16.38-10.48,25.48-.92,8.06,8.48,18.78,11.47,29.38,13.92,8.89,2.06,15.1-4.4,20.51-10.54,4.78-5.42,9.63-9.71,17.41-6,5.21-.66,10,1.35,14.88,2.52C421.58,714.31,435.5,714,449.42,713.76Z"/><path class="cls-10" d="M202.94,508.27c6,3.53,10.31,9,15,13.89,9.83,10.39,21.43,18.26,34,24.65,8.86,4.51,14.44,11.44,17.79,20.52-2.36.72-3.36,1.66-1.4,4.11,2.09,2.62,4.1,5.56.89,8.86-5,.92-7.55-3.12-10.86-5.54-3.1-2.26-6.19-2.75-9.39-.46s-5.92,5.44-4.85,9.62a17.27,17.27,0,0,0,12.78,13c5.77,1.53,9.8-1.19,12.21-6.56,1-2.26,1.85-4.86,5-5.16,6,6,3.78,11.71-.95,16.79-5.68,6.11-19.87,7.76-27.43,2.49-8.76-6.12-18.75-9.35-27.66-14.78-3.58,4.8-.48,9-.68,13.06-.27,5.54-2.4,10.23-7.87,12.06-6.3,2.12-9.71-2.29-11.79-7.17-8.21-19.25-14.63-39-16-58.14,0,6.44,2.19,14.56,3.32,22.82.63,4.69,1.19,9.41-2.76,13.16-4.92-12.43-5.39-25.45-5.11-38.58C173.6,523.19,179.45,514.41,202.94,508.27Z"/><path class="cls-43" d="M182.31,585.44c1.26-14.45-5.05-28.55-1.67-44.15,3.83,8,5.22,16,6.69,23.74,2.56,13.46,7.64,26.08,12.26,38.83,1.41,3.88,2.14,10.12,8.76,9.06,4.91-.79,7.43-8.41,4.68-14.74-2-4.71-3.34-8.79,1.29-12.57,3.34-2.72,6.94-4.66,8.94,1,1.74,4.9,5,6.62,9.72,6.41,4.32-.19,7.43,2.17,9.74,5.26,6.84,9.14,16,6.26,24.41,4.38,7.29-1.63,8.72-7.89,5.07-17.33-.39-.3-.79-.61-1.2-.91a8.78,8.78,0,0,1-1.33-2.69c0-.5,0-1,0-1.51.13-5.35-4.26-7.79-7.2-11.15-1.11-1.28-2.31-2.66-1.08-4.29,1.92-2.54,3.54-.53,5.19.62,1,.71,2.13,1.28,3.19,1.91l0,0a17.14,17.14,0,0,0,2.57,2.61l0,0a34.89,34.89,0,0,0,2.56,2.6h0c2.82,4.79,7.29,8.25,10.39,12.82,7.08,5.39,11.95,12.43,15.36,20.57-7.16,3.63-7.1,9.57-5.68,16.36,1.51,7.18,1.73,14.35-3.23,20.72-9,11.61-17.17,12.72-28.51,3.19-5-4.17-8.7-6.3-13.36.6-13.08,19.37-13.53,19.27-28.41,1.93a27.44,27.44,0,0,0-4.8-4.2c-14.1-13.69-19.63-32.33-28.37-49.11-.79-1.84-.19-4.62-3.32-4.88l-2.49,0C182.36,588.79,182.34,587.12,182.31,585.44Z"/><path class="cls-44" d="M218.06,641.91c6.39,2.05,7.72,8.79,11.91,12.9,5.79,5.69,8.7,5.67,13-1.11,1.79-2.83,2.54-6.3,4-9.36,4.05-8.46,8.72-9.34,15.7-3.1a13.33,13.33,0,0,0,1.83,1.78c4.32,2.55,6.06,11.15,13.08,7.09,8-4.61,16.62-9.17,15.37-21.19-.62-5.93-3.61-11.39-2.73-17.57.93-6.54,2-7.24,10.36-5.48,6.46,6.77,7.43,15.93,9.95,24.23,4.39,14.53,12.52,26.59,22.43,37.62,4.26,4.74,7.66,10,11.35,15.12-3.36,8.88-12.16,12.66-18.12,19.12-4.53,4.89-9.6,1.54-13.51-1.73a100.82,100.82,0,0,0-20.27-12.93c-11.49-5.66-14.73-4.7-21.2,6.27-1.75,3-3.24,6-7.39,5.92-6-2.3-8.27-9.3-14.47-11.31a16.78,16.78,0,0,1-2.83-1.81,29.14,29.14,0,0,1-3.43-3.68c-.78-.81-1.51-1.66-2.26-2.51s-1.61-1.64-2.4-2.48c-7.68-7.91-13-17.48-19-26.59C217.56,648.37,215.45,645.4,218.06,641.91Z"/><path class="cls-45" d="M262,698.26c4.94-.23,6-4.2,7.31-7.76,3.79-10,11.77-13.83,20.61-8.36,8.26,5.11,17.73,8.2,24.68,15.78,5.22,5.69,5.95,4.46,12.11-1.67,5.18-5.15,11.67-9,17.57-13.41,13.89,13,31.51,19,48.71,25.7-4.74-.14-9,.08-12,5-2.16,3.52-5.74,6.18-8.7,9.22a21.57,21.57,0,0,1-11,6.07c-7.37,1.63-32.11-7.58-36.81-13.54-9-11.39-17.37-10.66-24.52,2.19-2.33,4.18-2.57,10.48-9.93,9.13-5.24,1.34-8-2.64-11.29-5.33-.74-.76-1.43-1.58-2.11-2.39-.37-.36-.72-.76-1.1-1.12-2.32-2.17-5.19-3.64-7.55-5.78-3.21-3.66-8.12-6.37-7.07-12.45C261.28,699.12,261.65,698.69,262,698.26Z"/><path class="cls-46" d="M202.94,508.27c-4.34,2.07-7,6.07-10.44,9.17a10.52,10.52,0,0,0-2.67,2.7c-2.59,5.28-13.05-.77-12.61,8.93.27,5.92,0,11.86,0,17.79-2.69-2.18-2.48-5.24-2.48-8.22q0-32,0-64.08c0-2-.44-4.33,3.25-6.54,5,6,7,13.82,11.21,20.32C193.54,495.13,198.34,501.64,202.94,508.27Z"/><path class="cls-10" d="M285.2,585.3c-5-3-9.68-6.32-10.39-12.82C279.66,575.63,284.25,579,285.2,585.3Z"/><path class="cls-10" d="M272.27,569.91l-2.57-2.61Z"/><path class="cls-10" d="M274.81,572.49l-2.56-2.6Z"/><path class="cls-1" d="M830.33,380.16a33.22,33.22,0,0,1-1.07,4.17c-1.71,4.2-2.64,8.2,2,11.29,4.77,3.2,10,3.68,14.2-.09,4.49-4,9.32-4.91,15-5.67,6.79-.89,11.75-.9,13.81,6.89.35,1.32,2.35,2.3,3.71,3.26,8.8,6.22,9.39,9,2.86,16.95-4.26,5.18-9.81,9-11.18,16.62-.87,4.9-7.4,6-12.91,3.54-7.63-3.44-12.09-12-21.67-12.73-2.8-.21-3.45-4.58-2.06-7.69,3.24-7.24-.41-10.16-6.92-11.71-9.87-2.34-11-13.64-18.51-18.41,2.83-7.95-2.14-14.6-3.54-21.86-.41-2.17.51-4.53,3.12-4.74,7.19-.6,23.56,9.19,23.44,18.13A14.64,14.64,0,0,1,830.33,380.16Z"/><path class="cls-1" d="M802.41,299.36c-10-2.37-16.53-6.9-21.68-13.27-1-1.27-2.32-2.69-1.17-4.55A4,4,0,0,1,784,279.9c9.59,2.23,19.32,2.46,29.09,2.82,3.78.14,7.26,2.39,10.1,5.12,5.37,5.18,4.47,9.92-2.78,12.15-3.3,1-6.58,1.48-8.94,4.3-4.58,5.49-3.33,15.24,2.73,15.84,11.09,1.11,19.35,8.13,29.11,11.91,13.07,5.06,25.59,11.55,38.32,17.49,2.31,1.07,5,2,6.58,3.82,3.25,3.79,7,7.83,3.84,13.58-3.63,6.56-11,11.08-16.31,9.05-10.72-4.07-21.22-8.73-31.77-13.24s-21-9.34-31.62-13.62c-3.8-1.53-7-3.82-8.82-7-4.32-7.82-11.35-11.31-19.32-13.3-3.92-1-8.16-1.46-8.2-6.28s2-9.44,6.86-11.35C789.19,308.67,795.7,306.8,802.41,299.36Z"/><path class="cls-1" d="M908.19,405.88c-.6.42-1.29,1.28-1.79,1.18-2.4-.44-3.27-2.46-3.18-4.48.07-1.47,1.71-1.37,2.75-.7C907.36,402.78,908.53,404,908.19,405.88Z"/><path class="cls-47" d="M626.59,970.54c-7,0-13.44,3.86-20.56,2.47-.42-15.74,3.55-31,4.64-46.69,1.85-26.44,1.29-52.85,2.09-79.26.12-3.83,0-7.71,1.9-11.21,8.63-3,7.14,4.48,7.4,8.18,1,14.38.23,28.83.49,43.25.08,4.38-.93,9.16,2.64,13.36,5.55-5.26,1.58-15.64,11-17.53,5.75,5.17,3.86,11.71,3.06,18-2.2,17.19-6.19,34.1-8,48.93,4.65-16.66,6.34-36.26,9.45-55.61.71-4.44,0-9.73,5.72-11.75,8,7.65,1,17,4.21,25.73,5.36-21.23,11.82-42.18,13.93-64.15a22.69,22.69,0,0,1,.67-3.57c1.71-4.46,1.87-9.2,2.48-13.86a21.54,21.54,0,0,1,.91-3.35c1.25-3.88,3-7.45,6.69-9.59,1.12-2.06,3-2.5,5.15-2.55,1.84,1.1,3.79,2.07,4.63,4.26,2.1,7,1.56,14.08.43,21.16-2.29,6.8-1.49,13.83-1.46,20.8-.11,4.33,0,8.7-2.68,12.47a3.35,3.35,0,0,1-3.82.58c-7.19-12.21.2-25-1.76-33.68-5,41-10.8,85.73-26.12,128.5C642.49,969.26,634.27,968.68,626.59,970.54Z"/><path class="cls-48" d="M698.48,947.38c-5.7,3.25-11.47,6.35-18,7.71,4-20.93,13.15-40.37,17-61.36,4.53-24.34,10-48.51,12.47-73.18.59-5.84,2.07-11.88-.69-17.67-.21-.62-.4-1.25-.59-1.88,3.15-4,8-3.93,12.21-5.64,5.73-2.34,10.75-6.4,16.07-9.73,5.31,8.86.1,17.28-1.29,25.79-.53,3.25-2.94,6.16-2.28,9.77a14.87,14.87,0,0,1-.44,3.58c-2.89,5.92-3.19,12.43-4.18,18.8a20.41,20.41,0,0,1-1.26,3.37c-5.65,17.8-9.68,36-14.3,54.1-4.72,10.48-6.42,21.83-9.35,32.81a21.17,21.17,0,0,1-1.06,3.21C701.32,940.46,699.42,943.72,698.48,947.38Z"/><path class="cls-49" d="M816.6,662.37c-.76,7.71-5.53,13.71-10.3,18.79-15.76,16.78-28.5,36.34-44.93,52.14-14,13.47-25.13,28.53-36,44.19-1.71,2.47-3.81,5.08-7,5.19-9,.3-13.37,6.47-17.36,13.23-5,5.42-12.3,5.43-18.42,8.2-5.77,2.62-12.55,2.73-17.56,7.17a8.5,8.5,0,0,1-2.71,2.42,67.07,67.07,0,0,1-6.86,2.94c-9.28,2-18.08,7.72-28.13,3.58-2.41-8.94,6.06-8.78,9.9-9.48,14.54-2.65,27.33-9.43,40.77-14.79,12.13-4.85,21.63-12,26.62-24.29,3-7.41,8.07-12.57,14.73-17.11,11.64-7.94,22.4-16.85,30.3-29.11,7.67-11.9,18.52-21.3,29.34-30.34a129.91,129.91,0,0,0,22.38-24.54c3.6-4.31,8.35-6.9,13.51-8.86Z"/><path class="cls-50" d="M731.84,926.84l-2.56,2.55c-.75,1-1.85,1.57-2.64,2.49l-2.48.11c-.12-12.76,7.63-23.29,10-35.43,1.81-9.14,5.24-18,9.25-26.55,4.93-10.52,5.94-22.13,8.55-33.29,4.52-19.31,8.88-38.65,13.52-57.93,1.18-4.9,3.17-9.57,9.06-12.48,2.76,12.45-.54,23.6-3,34.45-9.4,41.16-21.25,81.63-36.74,121a11,11,0,0,0-.4,2.52h0C733.46,925,732.78,926.06,731.84,926.84Z"/><path class="cls-6" d="M803.71,736.77l5.19-7.62C830.44,710,849,688,867.17,665.71c2.66-3.28,4.73-7,7.91-9.9,1.26-1.29,2.55-2.55,3.77-3.89a14.7,14.7,0,0,1,2.88-2.39,4.85,4.85,0,0,1,3.68-.34l1.38,1.36c1.43,13.48-7.61,24.56-8.58,37.48-1,4.57-1.78,9.21-5.1,12.85-3.88,2.62-1.92,6.92-3,10.34-.5,1.61-1.52,3.56-3.19,2.93-2.39-.91-1.22-3.62-1.54-5.57-5.13-8.79,1.56-16.2,2.32-23.84-7.25,13.8-6.26,31.18-15.92,44.69l-1.81-.31c-.33-2.79.75-6.54-3.44-7.11s-6,2.34-6.67,6c-.84,5-1.86,9.9-5.3,13.89-5.58-10.09.38-19.09,2.08-27.43-1.25,1.85-2.42,5.72-7.18,4.34-6.09,3.43-9.86,9.42-15.13,13.71C811.31,735,808.91,739.65,803.71,736.77Z"/><path class="cls-51" d="M829.45,718.86l9.24-6.75c-1.48,10.7-2.81,20.27-4.14,29.84h0c-2.42,2.06-.29,5.62-2.56,7.72-2.87,2.91.16,7.32-2.59,10.26h0c-3,4.69-3.19,10.36-5.13,15.42-5.43,15.95-10.77,31.93-16.34,47.83-2,5.56-4.48,10.91-6.75,16.37-1.16,1.71-2.67,3.69-4.76,2.57-1.93-1-2-3.29-.39-5.15,6-19.38,11.81-38.83,18.19-58.09,2.09-6.29,2.39-12.51,2.36-18.92,2.88-1.41,5-3.53,5-6.86C821.62,741.08,828.76,730.72,829.45,718.86Z"/><path class="cls-48" d="M680.5,870.35q0-6.42,0-12.84c3.53-6.51-.85-14,2.55-20.55V813.87c-.7-.58-.94-1.15-.7-1.72s.47-.86.71-.86c6.16-4.4,13.5-5.64,20.54-7.7,3.93,3.67,4,8.59,3,13-3.11,14-3.81,28.51-7.8,42.37-1.86,4.25-2.25,9-4.14,13.2-1.34,3-2.47,6.84-6.78,6.23S679.67,876,680.5,870.35Z"/><path class="cls-52" d="M775.53,855c0,.85,0,1.69,0,2.54-1.61,1.34-1.08,3.74-2.53,5.16h0c-1.17,1.7-2.68,3.68-4.77,2.57s-2-3.29-.39-5.15h0c2.21-5.85,2.33-12.29,5.13-18,4.16-9,2.93-19.44,7.7-28.25,2.5-4.87.41-11.28,5.13-15.41,1.65-15.94,8.9-30.64,10.4-46.61a8,8,0,0,1,1-3.63c1.6-2.38,3.19-5.74,6.6-4.85,3.94,1,3.06,5.15,2.23,7.49-2.82,8-6.09,15.75-4.81,24.5q-10.3,35.1-20.57,70.23a8,8,0,0,1-2.5,4.24C776.49,851.16,777,853.58,775.53,855Z"/><path class="cls-53" d="M737,837c0,.84,0,1.69,0,2.54-2.4,2.05-.28,5.6-2.53,7.71h0c-3.17,3.81.42,9-2.58,12.83h0c-2.89,2.91.18,7.32-2.57,10.27-2.3,16-8,31-12.85,46.22-1.61,1.33-1.06,3.74-2.56,5.13h0c-2.39,2.06-.3,5.61-2.55,7.71-1.57,1.36-1.11,3.73-2.57,5.14h0c-2.51,2-.15,5.64-2.61,7.64l0,0c-.83.85-1.67,1.68-2.53,2.5h-.06c-6.46-.7-3.39-4.52-2.5-7.63,5.13-10.78,4.5-23.24,9.89-34,5.54-19.43,11.22-38.81,15.79-58.49h0c4.56-6.14,1.14-14.26,5.13-20.54h0c-.26-5.65,2.58-10.5,4.06-15.7.66-2.32,2.1-3.76,4.54-3,3.21,1,3.29,3.28,1.68,5.85h0C739.4,819.66,738.91,828.47,737,837Z"/><path class="cls-54" d="M662.52,811.34q1.28,0,2.55-.06c2.12.07,4,.5,5.16,2.58l-1,1.52c-3.79,3.3-8.63,4.19-13.15,5.85-4.24,1.08-8.71,1.24-12.67,3.42-19.1,6.12-39,7.55-58.7,10.59-1.38.08-2.77.08-4.16.06-2.07,0-4.14,0-6.21,0-11-1-21.91,3.25-32.89.24-2.8-.14-5.6-.16-8.41-.18-9.44-.19-19,1.16-28.29-1.3a8.3,8.3,0,0,1-4.75-4.58,4,4,0,0,1,1.51-4c4.84-2.91,10.26-2,15.5-2.31a427.75,427.75,0,0,0,98.27-4.82,21.4,21.4,0,0,1,11.27.71c10.72,1,20.31-4.57,30.75-5.24C658.74,812.32,661.16,813,662.52,811.34Z"/><path class="cls-55" d="M767.81,860.09c-.14,4.56,2.38,3.83,5.16,2.58,1.32,7.18-2.64,13-5.25,19-4.45,10.21-7.13,21.42-15.33,29.71-2.13.53-6,2.46-3.79-2.36,6.18-13.37,9-28,16.06-41C766,865.55,764.76,862,767.81,860.09Z"/><path class="cls-56" d="M742.13,811.29c-.41-1.11-.52-2.58-1.3-3.27-1.89-1.64-3.1,0-3.46,1.56-1.17,5.12-1.85,10.39-5.52,14.55-1.3-3-3.61-6-1.39-9.5,5.7-8.89,4.86-19.22,6.56-29,2.58-.74,6.77-3.75,7.08.9C744.66,794.75,747.12,803.42,742.13,811.29Z"/><path class="cls-57" d="M695.9,860.08c2.61-13.27,3.48-26.81,6.77-40,1.31-5.25.69-11,.94-16.5a20.05,20.05,0,0,0,2.57-2.56l2.56,0,0,0c4.58,13.13-1.81,48.54-10.68,59.19Z"/><path class="cls-55" d="M780.64,813.86c-2.21,9.51-1.58,19.8-7.7,28.25C774.47,832.41,773.56,822,780.64,813.86Z"/><path class="cls-56" d="M737,837c-.28-9,.23-17.77,5.12-25.71A57.62,57.62,0,0,1,737,837Z"/><path class="cls-55" d="M772.94,842.11c.13,6.51-.74,12.74-5.13,18C767.79,853.6,767,846.9,772.94,842.11Z"/><path class="cls-55" d="M785.77,798.45c-1.77,5.12-1.23,11-5.13,15.41C781.12,808.31,778.68,801.79,785.77,798.45Z"/><path class="cls-57" d="M675.35,813.85c-2.37,3.09-1.63,7.74-5.12,10.28-4-3.42-4.88-6.84,0-10.27Z"/><path class="cls-56" d="M731.86,860.08c.62-4.32-1.72-9.24,2.58-12.83C733.83,851.58,736.12,856.49,731.86,860.08Z"/><path class="cls-56" d="M729.29,870.35c.36-3.55-1.19-7.57,2.57-10.27C731.52,863.63,733,867.65,729.29,870.35Z"/><path class="cls-56" d="M706.15,942.19c.12-2.8-.41-5.83,2.61-7.64l-.18,7.49A16.52,16.52,0,0,1,706.15,942.19Z"/><path class="cls-56" d="M711.32,929.41c.07-2.83-.46-5.85,2.55-7.71C713.8,924.53,714.32,927.56,711.32,929.41Z"/><path class="cls-56" d="M734.44,847.25c.06-2.83-.48-5.85,2.54-7.71C736.91,842.36,737.43,845.39,734.44,847.25Z"/><path class="cls-56" d="M708.75,934.55c0-2.12.49-4,2.57-5.14C711.28,931.53,710.82,933.44,708.75,934.55Z"/><path class="cls-56" d="M713.88,921.7c0-2.11.5-4,2.56-5.13C716.4,918.69,715.94,920.59,713.88,921.7Z"/><path class="cls-57" d="M683.07,811.29c0,.86,0,1.72,0,2.58l-2.56-2.57Z"/><path class="cls-48" d="M706.18,801l-2.57,2.56Z"/><path class="cls-58" d="M751.91,195.27c-.32,2.33-2,3.79-3.71,5-9.55,6.45-19,13.06-28.84,19.07-6.29,3.85-12.06,2.8-14.52-1.92-2.93-5.6-.4-10.12,4.07-13.37,7.93-5.78,16.06-11.3,24.32-16.59,4.08-2.61,15.35,1.09,18,5.48A9,9,0,0,1,751.91,195.27Z"/><path class="cls-59" d="M581,143.77c7.42-.22,9.88,2.63,8.38,10.11a79.63,79.63,0,0,1-3,11.05,6.38,6.38,0,0,1-7,4.45c-3.92-.37-6.46-2.67-6.72-6.5a74.45,74.45,0,0,1,.36-12.75C573.46,145.5,576.51,143.59,581,143.77Z"/><path class="cls-60" d="M878.21,688c-1.26-10.92,4.67-20.33,6.51-30.62.54-3,1.69-5.68-1.37-7.89.25-14.28,12.06-22.39,18.12-33.57,2-3.61,5.33-6.48,7.58-10.07,7.65-9.06,10.69-20.58,17.7-30.81v15.28c-6,10.06-12.14,20.09-18.1,30.2-1.71,2.89-4,5.93-4.29,9.05-.49,5.71-3.7,9.27-7.44,12.77-5.13,4.81-7.33,10.61-8.79,17.64C886.13,669.62,881.64,678.72,878.21,688Z"/><path class="cls-61" d="M796.05,837c-.13,4.55,2.36,3.87,5.15,2.58-.36,9-5.59,16.29-8.43,24.42-1.34,3.87-4.22,7.17-4.44,11.5-3.57,2.17-3.87,7.79-9.92,8.65A482.55,482.55,0,0,1,796.05,837Z"/><path class="cls-55" d="M773,862.67c0-2.13.46-4,2.53-5.16C775.47,859.63,775,861.54,773,862.67Z"/><path class="cls-55" d="M775.53,855c0-2.13.47-4.05,2.57-5.15C778,851.93,777.57,853.85,775.53,855Z"/><path class="cls-6" d="M824.29,775.35c-.19-5.77.16-11.37,5.13-15.42C829.35,765.61,828,770.89,824.29,775.35Z"/><path class="cls-6" d="M829.41,759.93c.37-3.54-1.16-7.57,2.59-10.26C831.63,753.21,833.2,757.25,829.41,759.93Z"/><path class="cls-6" d="M844.84,742c.08-2.83-.45-5.86,2.56-7.72l1.22,1.3a6.33,6.33,0,0,1-.68,6.72A2.33,2.33,0,0,1,844.84,742Z"/><path class="cls-6" d="M832,749.67c.09-2.83-.43-5.85,2.56-7.72C834.48,744.78,835,747.82,832,749.67Z"/><path class="cls-9" d="M844.84,742h2.55c2.52,2.9,2.5,5.59-.7,8l-1.86-.29C844.83,747.1,844.84,744.53,844.84,742Z"/><path class="cls-9" d="M844.82,757.35c-.84,0-1.69,0-2.54,0q-1.08-.86-.72-1.71c.23-.58.47-.87.7-.87.06-2.11.51-4,2.57-5.14l0,0C847,752.25,847.06,754.8,844.82,757.35Z"/><path class="cls-6" d="M839.71,767.65c0,.85,0,1.7,0,2.55a1.67,1.67,0,0,1-2.56,0c.09-2.82-.45-5.85,2.57-7.7A3.56,3.56,0,0,1,839.71,767.65Z"/><path class="cls-9" d="M839.7,767.65v-7.71c.85-1.13,1.71-1.2,2.56,0C842.18,762.76,842.72,765.79,839.7,767.65Z"/><path class="cls-6" d="M847.4,734.25c.05-2.11.51-4,2.56-5.13h0c1.65,3,1.72,5.14-2.57,5.14Z"/><path class="cls-9" d="M837.14,772.78c0,2.11-.51,4-2.57,5.14C834.61,775.8,835.06,773.88,837.14,772.78Z"/><path class="cls-6" d="M842.26,759.93H839.7c0-2.11.5-4,2.56-5.14,0,.86,0,1.72,0,2.58S842.27,759.08,842.26,759.93Z"/><path class="cls-9" d="M837.13,770.21h2.56l-2.55,2.58C837.14,771.92,837.14,771.07,837.13,770.21Z"/><path class="cls-62" d="M282.57,836.88l-2.64-5a4.11,4.11,0,0,1-1.24-1.93,14.73,14.73,0,0,0-1.06-2l-.29-1.12a79.31,79.31,0,0,1-5.19-21c-.53-4.5-1.93-7.77-7.31-4.14-1.71,1.15-3.28.17-4.18-1.46-1-1.89,0-3.23,1.54-4.25,5-3.3,4.22-5.62-1-7.74-8.41-3.4-9.11-11.57-11-18.84-.71-2.71.88-3.87,3.64-3.11,2.05.57,4.72,1.46,4.55-1.89-.13-2.57-3-5.94-4.75-5.21-9.32,4-8-4.1-9.34-8.15-2.3-6.76-4.37-13.7-6.35-20.45-2.29-7.79-4.05-16-6-24-2.75-11.46-6.68-22.71-7.58-34.6a4.65,4.65,0,0,1,1.63-4.44l1.72.28a11.86,11.86,0,0,1,2.93,1.82c4.79,4,7.57,9.85,12.56,13.69a11.92,11.92,0,0,1,2.19,2.56c3.58,4.44,7.7,8.53,9.52,14.17.53,1.11,1,2.24,1.44,3.39a26.51,26.51,0,0,1,1.32,3.65c6.57,41.83,18.65,82.24,30.95,122.61,1.1,3.58,3.58,8.68-3.51,9.79l0,0C284.27,838.61,283.39,837.78,282.57,836.88Z"/><path class="cls-63" d="M241.43,777.9c-20.77-36.08-31.78-75.64-41.1-115.78-3.92-16.91-9.77-33.45-10.33-51,11,6.57,13.29,19.57,20.89,28.7,3.38,4.06,7,8.73,4.84,14.92-.79,12.18,3.9,23.45,6.35,35,5.44,25.74,10.63,51.58,18.45,76.78C241.63,770,241.17,774.08,241.43,777.9Z"/><path class="cls-64" d="M215.73,654.69a102.2,102.2,0,0,0-12.17-20.88c-5.39-7.1-9-15.17-13.56-22.74l0,0c-2.12-2.15-.08-5.65-2.5-7.71v0c-.94-3.83-4.28-8.25,2.53-10.15,7.7,14.42,13.91,29.63,23,43.32,1.41,2.13,2.71,4.23,5.06,5.43,5.71,13.31,15.21,24.15,23.37,35.87.85.85,1.66,1.72,2.44,2.64v0c1.61,1.64,1.57,3.33.14,5-8.9-1.39-10-10.65-15.5-15.43-.8-.89-1.63-1.74-2.5-2.55h0Z"/><path class="cls-63" d="M244,783.06c-2-1.13-2.51-3-2.53-5.15C243.51,779,244,780.94,244,783.06Z"/><path class="cls-21" d="M277.36,829.28l-2.55-2.56h2.54c.33.42.66.85,1,1.27Z"/><path class="cls-65" d="M847.41,734.27c2.06-1.11,2.52-3,2.57-5.14,4.45-11.23,8.66-22.61,10.13-34.64.78-6.44,4.75-10.3,9-16.64,3.44,12.2-4.05,21-3.72,30.73-6.75,12.41-8.31,26.49-12.42,39.74a125.26,125.26,0,0,1-5.56,14.18c-2.07-1.11-2.5-3-2.56-5.15l0-7.67c3-1.87,2.46-4.89,2.53-7.72C847.4,739.4,847.41,736.83,847.41,734.27Z"/><path class="cls-63" d="M190,593.16c-3.74,2.66-2,6.68-2.52,10.15-4.14-3.62-1.95-8.51-2.6-12.83.25-1.45.22-3.75,2.21-3.24C189.83,587.94,189.9,590.73,190,593.16Z"/><path class="cls-63" d="M187.48,603.33c3,1.89,2.51,4.87,2.5,7.71C187.09,609.14,187.51,606.16,187.48,603.33Z"/><path class="cls-57" d="M680.5,870.35a9.49,9.49,0,0,0,9,5.87c3.81-4.79,2.16-11.65,6.45-16.14h0c4.07,4.18,3.74,9.42,2.85,14.41a503.93,503.93,0,0,1-17.3,69.19c-1.76,5.33-5,9.82-8.66,14-5.26,4.2-11.45,5.2-17.93,5.18-1.54-2.92-.63-5.81.27-8.63a412.59,412.59,0,0,0,17-75.68c.42-3.47.14-8.11,5.78-8.21Z"/><path class="cls-66" d="M672.81,957.68c-.67-4.61,2.87-7.75,4-11.61,8.5-28.17,18.22-56.11,19.07-86,3.21-2.47,4.62-6,5.06-9.77,1.91-16.53,7.65-32.46,7.78-49.28,3.2.29,7.33-.8,6.45,5-3.44,22.6-5.69,45.33-10.22,67.85s-10.58,44.58-16.73,66.66c-1.56,5.58-5,9.8-7.76,14.55h0c-.85.85-1.73,1.66-2.63,2.44Z"/><path class="cls-67" d="M677.92,870.34c-4.66,8.84-2.74,18.83-4.95,28.17-5.12,21.73-8.37,43.93-18.09,64.35-1.17,2-3.07,2.45-5.16,2.53-2.74-8.55.39-16.56,3.38-24.09,6.49-16.37,9.08-33.62,11.57-50.73,1.83-12.6,4-25.14,6.19-37.66,1-5.91,2-11.71,1.94-17.68-.1-5.56,1.31-10.53,5.94-14.73C679.43,837.2,676.76,853.77,677.92,870.34Z"/><path class="cls-56" d="M701,937.11c.12,2.78-.49,5.8,2.5,7.63-1,2.11-3,2.56-5.06,2.64C694.19,942.67,698.42,940.09,701,937.11Z"/><path class="cls-4" d="M731.84,926.84l2.57-2.58Z"/><path class="cls-4" d="M726.64,931.88l2.64-2.49Z"/><path class="cls-56" d="M703.6,944.74l2.53-2.5Z"/><path class="cls-57" d="M677.87,957.52c.87-.82,1.75-1.63,2.63-2.44C679.62,955.89,678.74,956.7,677.87,957.52Z"/><path class="cls-68" d="M305.78,744.42c4.13,2.77,9.34,3.75,12.72,7.75a4.86,4.86,0,0,1-3.89,3.75c-10.09,1.12-5.28,8.25-4.38,12.63,5.47,26.4,14.62,51.82,21.48,77.87,4.13,15.69,8.12,31.5,15.21,46.26,1.31,2.72,2.16,5.66-.19,8.41-6.23-4.86-12.71-9.42-18.06-15.32a35.53,35.53,0,0,0-2.54-2.52l0,0a23.8,23.8,0,0,0-2.53-2.49c-.82-.06-1.65-.11-2.48-.15-.84-.87-1.77-1.65-2.61-2.53h0c-.86-.85-1.7-1.71-2.59-2.53h0a18.22,18.22,0,0,1-2.54-2.58c-.06-.82-.11-1.64-.13-2.46-15.2-40.7-25.37-82.84-35.66-124.94a53.17,53.17,0,0,1-1.84-16.44c3.56-6.59,6.83-1.45,9.93.43C292.79,733.85,297.79,741.16,305.78,744.42Z"/><path class="cls-69" d="M351.83,906.38l-2.51-2.68c1.54-5.88-1.68-10.77-3.42-15.93-5.57-16.55-11.1-33.12-15-50.15-1.19-5.22-3.56-10.7-.25-16.11,16.35.13,16.34.13,13.59-16.83-.87-5.4-1.89-10.79-2.52-16.21-.53-4.58-1.08-9.47,4.61-11.76,3-.22,5.23,1.21,7.13,3.35,5.66,12,9.54,24.33,7.51,37.81-5.6,2.4-3,6.53-2.24,10.42,6,30.53,8.31,62,22,90.63.73,1.54.39,3.37-.09,5.06a2.1,2.1,0,0,1-3.17.38c-3.48-1.59-5.77-5.42-10.12-5.35a23.12,23.12,0,0,1-2.67-2.47h0c-.88-.83-1.72-1.7-2.61-2.53h0c-.83-.86-1.68-1.69-2.56-2.49-.81-.08-1.62-.13-2.44-.15-.91-.82-1.84-1.62-2.68-2.51h0C353.58,908,352.72,907.18,351.83,906.38Z"/><path class="cls-70" d="M331.3,821.56c3.34,23.76,11.67,46.13,19,68.77a97.15,97.15,0,0,1,3.06,9.74c.62,3-2,3.21-4.06,3.63l-2.59-2.61c-13.61-29-19.42-60.41-28.74-90.74C312.08,791.12,305.48,772,304.33,751c4.66-1.22,7.69,2.54,11.43,3.84,3.07.86,4.48,3.23,5.43,6,3.22,15.3,6.93,30.49,9.91,45.84C332.05,811.59,333.8,816.58,331.3,821.56Z"/><path class="cls-24" d="M398,937.11l-5.11,0c0-.83,0-1.66-.08-2.48l1.37-1C396.67,933.48,398.91,933.61,398,937.11Z"/><path class="cls-24" d="M392.85,934.61c-2.09-.09-4-.55-5.14-2.56l1.35-1c2.47-.13,4.69,0,3.88,3.51Z"/><path class="cls-20" d="M313.33,872.91l2.54,2.58h-2.54C313.32,874.62,313.32,873.77,313.33,872.91Z"/><path class="cls-20" d="M315.88,875.5l2.59,2.53Z"/><path class="cls-20" d="M318.47,878l2.61,2.53Z"/><path class="cls-20" d="M323.56,880.72l2.53,2.49Z"/><path class="cls-20" d="M326.13,883.25l2.54,2.52Z"/><path class="cls-23" d="M351.83,906.38l2.59,2.47Z"/><path class="cls-23" d="M354.42,908.85l2.68,2.51Z"/><path class="cls-23" d="M359.54,911.51,362.1,914Z"/><path class="cls-23" d="M362.1,914l2.61,2.53Z"/><path class="cls-23" d="M354.59,919a19.06,19.06,0,0,1-.18-2.38L357,919.1A19.33,19.33,0,0,1,354.59,919Z"/><path class="cls-22" d="M364.72,916.54l2.67,2.47Z"/><path class="cls-22" d="M377.51,924.36c.84,0,1.68,0,2.52,0l.69,1.26c-.23.42-.46.84-.68,1.26Z"/><path class="cls-22" d="M382.62,929.44,380,926.9l.12-.12a2.31,2.31,0,0,1,2.83,1C382.86,928.34,382.74,928.89,382.62,929.44Z"/><path class="cls-22" d="M385.21,932l-2.59-2.53.14-.17a2.4,2.4,0,0,1,2.93-.06A2,2,0,0,1,385.21,932Z"/><path class="cls-24" d="M385.21,932c0-.82,0-1.64,0-2.47a2.67,2.67,0,0,1,3-.31,2,2,0,0,1-.36,2.77l-.08.09Z"/><path class="cls-25" d="M426.33,952.37l-5.26-4.89c-.13-.63-.27-1.26-.41-1.89-7.14-17.52-8.2-36.63-14.11-54.48a8.87,8.87,0,0,1,.81-7.44c18.08-4,21.33-8.09,18.72-27.43-1.55-11.44-3-22.87-4.06-34.35-.45-4.94-.56-9.95,6.88-9.11a9.89,9.89,0,0,1,4.46,4c5.89,12,7.13,25.11,9.2,38-.81,6.63,3.75,13.16.42,19.83-4.39,1.15-5.75,3.07-4.59,8.24,4.69,20.86,7.16,42.16,12.17,63,.94,4,2.53,8.32-1.24,11.94L434.23,955c-.93-.76-1.89-1.48-2.75-2.32Z"/><path class="cls-68" d="M475,965.49a44.21,44.21,0,0,1-20.51-5.19c-4-14.09-6-28.63-9.46-42.85-1-4.12-1.72-8.24.16-12.31,6.68-5.81,9.43,6.84,14.91,3.44,4.26-2.64-1.05-11.5,7-12.7,7.34,9,2.64,19.83,4.62,29.68,2.51,12.48,2.74,25.33,4.27,38Z"/><path class="cls-71" d="M446.84,903.73c.59,16.65,5.37,32.54,9,48.61.71,3.09,1.67,5.76-1.42,8-.84,0-1.67-.07-2.49-.17q-1.28-1.26-2.64-2.43v0c-.5-14.33-6.65-27.56-8.14-41.69-1.29-12.29-4.37-24.23-6.78-36.3-.79-4-1.29-8.26.63-12.5,5.24.46,3,6.8,6.67,8.23C448.9,883.91,448.9,893.63,446.84,903.73Z"/><path class="cls-72" d="M480.13,968.06l-5-.2c-.05-.79-.09-1.58-.14-2.37l.13-.18a3.56,3.56,0,0,1,3.07-1.13,4.44,4.44,0,0,1,2.49,2.23C480.48,967,480.31,967.51,480.13,968.06Z"/><path class="cls-18" d="M431.48,952.67l2.74,2.32Z"/><path class="cls-25" d="M449.33,957.7l2.64,2.43Z"/><path class="cls-73" d="M575.26,831.88h5.08c7.19,17.81,6.73,36.38,5.43,55a9.78,9.78,0,0,1-2.11,3.89c-7.16-4.72-7.34-5.74-3.14-17.85-2.47-.23-2.12,1.87-2.06,3,1.15,24.2-6.52,47.81-4.82,72.07a74.23,74.23,0,0,1-3.53,27.56l-5.21.12a38.47,38.47,0,0,1-20.45.08c-12.3-.69-24.4-3.77-36.84-3-1.4.08-2.91-1.46-4.37-2.25a8.66,8.66,0,0,1,2.68-2.9c7.29-5.58,3.84-13.15,3.12-19.81-1.14-10.5-2.65-20.9-.21-31.38,1.86-3.94,4.17-3.47,6.62-.58,3.46,4.08,6.4,10.62,12.66,8.34,6.69-2.42,2-9.82,3.72-14.7a22.16,22.16,0,0,1,.87-3.79c.92-6.36.18-12.54-1-18.85-1.59-8.87-.92-17.57,5.66-24.74,5.26,1.8,5.39,6.51,5.08,10.61-1.62,21.68,2.87,43.47-1.33,65.13-1.4,7.2,1.47,14.37,2,21.61-.52-23.14,1.17-46.29-.73-69.42-.25-3.13.21-6,3.58-7.45,5.25,1.36,6.16,5.65,6.85,10.09.66,8.92-.19,17.9.57,26.84.29,3.37.56,7.86,4.71,8s5.37-4.32,5.21-7.61c-1-19.32,8.1-37.56,5.94-57A28.27,28.27,0,0,1,570,854C573,846.94,567.55,837.83,575.26,831.88Z"/><path class="cls-72" d="M505.94,970.46l-2.7.07c-7.68-1.06-15.82,2.24-23.11-2.47l.13-.19c5.36-6.46,2.45-13.58,1.63-20.52-1-8.76-4.35-17.07-5.18-25.88-.3-6.77-4.3-13.56.11-20.29,17.67-6.17,14.72-2.21,13.53-22-1-16.77-4-33.9,2.3-50.46a6.63,6.63,0,0,1,8.12.53l2.59,2.58c2.41,3.05,2.9,6.3,1,9.71-.57,1.75-3.76-.63-3.87,3.84-.59,23.94,3.36,47.5,5.1,71.21,1,13.54.87,27.22,3.49,40.66C510,961.82,509.43,966.64,505.94,970.46Z"/><path class="cls-74" d="M544.45,975.77l20.45-.08c-6.32,5-13.69,1.42-20.49,2.49C544.42,977.38,544.43,976.57,544.45,975.77Z"/><path class="cls-75" d="M285.12,839.47c2.53-1.78,2.64-4.14,1.6-6.76-9.27-23.35-14.4-47.94-21.59-71.92-5.63-18.74-7.85-38.11-10.87-57.34,7.43-2.05,9.06,7.65,15.48,7.65,2.64,1.55,5.86,2.29,7.48,5.28-1.12,2-3.15,3.17-4.42,5-1.17,22.39,9,42.34,13.56,63.46,5.34,24.59,14.2,48.16,22.36,71.91,1,2.87,1.8,5.77-.54,8.44-5-1.86-6.53-7.21-10.26-10.36-.86-.8-1.71-1.63-2.53-2.49l0,0Z"/><path class="cls-21" d="M279.9,829.32c0,.84,0,1.67,0,2.51l-2.57-2.55,0,0A1.61,1.61,0,0,1,279.9,829.32Z"/><path class="cls-21" d="M282.57,836.88l2.51,2.64Z"/><path class="cls-76" d="M582.91,890.91l0-2.6,1.86-.73a5.62,5.62,0,0,1,2.66,2.72c2.34,7,.91,14.26,1.53,21.39.24,2.84-.17,6.77,3.72,7,3.61.21,4.44-3.53,5.06-6.36,2.72-12.4,4-25,5.52-37.65a26.07,26.07,0,0,1,.85-3.92c4.88-12.57,1.25-26.5,6.26-39,3-1.46,5.64-2,5.9,2.67,0,14-.33,28.09.07,42.11.8,28-2.76,55.76-5.22,83.57-.43,4.87-3.28,8.68-5.13,12.93l-2.6,0c-3.9-5.94.25-11.41,1.05-17.06,1.24-8.81,3.92-17.41,3.49-26.6-3.68,14.45-4.77,29.21-7,43.78-8.23,5-17.25,1.39-25.84,2.37A5.58,5.58,0,0,1,574,972c.25-2.58.31-5.18.35-7.79,2.21-21.32,6-42.51,5.2-64.07C579.43,896.74,580.22,893.4,582.91,890.91Z"/><path class="cls-77" d="M582.91,890.91c0,22,.81,44-4.79,65.57-.94,3.6-.26,7.61-.33,11.43-1.64,1.33-1,3.79-2.55,5.15,0,.81,0,1.62-.11,2.42l-5,.09c-1-2.32-3-4.59-2.15-7.14,3.94-11.61,2.37-23.6,1.9-35.31-.65-16.22,6.64-31.34,5.36-47.48-.44-5.64,1-10.7,3.88-16C582.48,876.86,577.39,884.78,582.91,890.91Z"/><path class="cls-78" d="M601,973.11c-1.71-.25-3.84-.71-3.53-2.74,2.39-15.8,5-31.58,7.56-47.34a3.11,3.11,0,0,1,3.68-2.72c1.79.36,2.25,2.18,2.43,4,1.1,11.16-1.31,21.94-3.59,32.71-1.15,5.38-2.71,10.66-4.09,16Q602.2,973.08,601,973.11Z"/><path class="cls-69" d="M387.79,932c0-.82-.06-1.65-.07-2.48-9.11-20.48-13.11-42.58-20.18-63.71a9.35,9.35,0,0,1,.95-7.35c5.71-4.1,8.17,1.86,11.75,4,6.14,3.62,10.37,4.64,10-5-.14-3.16-.28-7.09,4.33-8.07,7.2,6.21,7.05,15.34,8,23.36,2.64,22,6.75,43.46,14.48,64.22a9.82,9.82,0,0,1,.2,6.25L416,944.87c-6.68-1-11.89-5.34-17.94-7.76-1.1-2.05-3-2.53-5.1-2.6C391.8,932.5,389.89,932,387.79,932Z"/><path class="cls-69" d="M421.07,947.48c-2.08-.11-4-.61-5.09-2.61l.12-.13c2.86-1.46,5.23-2,5.08,2.57Z"/><path class="cls-79" d="M308.18,865.21c-5.46-16-11.58-31.87-16.22-48.14Q284.15,789.62,276.8,762c-3.48-13.07-6.41-26.17-9.1-39.38-1-4.81.7-5.28,4.51-3.76l1.54.27a9.21,9.21,0,0,1,2.52,1.82c1.19,1.69,2.6,3.35,1.12,5.58,3.76,20.45,9.84,40.36,14.37,60.61,5.18,23.16,12.27,45.62,20.05,68,1.62,4.66,5.56,9.85,1.39,15.34A9.58,9.58,0,0,1,308.18,865.21Z"/><path class="cls-16" d="M295.39,852.36l2.53,2.5Z"/><path class="cls-80" d="M909.05,605.88c-.4,6.86-5.34,11.46-8.62,16.81-5.54,9-12.38,17.25-17.08,26.83h0a30.92,30.92,0,0,0-2.55,2.57h0c-1.57,1.34-1.1,3.72-2.59,5.11-8.63,10.42-17.19,20.89-25.9,31.25-11.83,14.08-25.42,26.44-38.63,39.17-1.08,1-3.16,1-4.77,1.51,4.08-7,9.87-13,15.38-18.41,15.17-14.76,19.5-35.47,31.22-51.93,1.75-2.46,2.14-5.46,2.19-8.52.35-21.17,13.09-32.91,31.07-40.64,3.26-1.4,6.87-2,9.94-.71C903.37,610.93,905.72,607.21,909.05,605.88Z"/><path class="cls-81" d="M909.33,523.54c-4.47-8.1-.06-14.44,4.3-20.65,2.61-3.71,6.43-5.9,10.91-4.24,4.89,1.81,6.9,5.74,5.74,11.07-.44,2-.54,4.14-.8,6.22h0a19.59,19.59,0,0,1-7.8,7.7Z"/><path class="cls-49" d="M862.79,608.43,873,600.64c-.42,1.61-.31,3.86-1.35,4.72-12.78,10.62-19.33,26.45-31.61,37.49-5.54,5-8.64,12.56-16.11,15.56a48,48,0,0,1-4.79,1.4l-.9-1.53a6.65,6.65,0,0,1,.76-3.39c6.18-6.86,14-11.9,20.66-18.22h0c.9-.81,1.74-1.68,2.6-2.53h0c4.23-9.07,9-17.69,17.93-23.14h0a26,26,0,0,0,2.57-2.57Z"/><path class="cls-33" d="M921.72,523.63a21.49,21.49,0,0,1,7.8-7.7Q929.31,523.52,921.72,523.63Z"/><path class="cls-49" d="M819.17,659.81l-2.57,2.56h0c-.71-2.42.2-3.23,2.57-2.56Z"/><path class="cls-2" d="M594.33,218c10.06,1.11,17.48-1.22,23.52-7.5,1.1-1.14,3-2.28,4.43-2.21,7.92.38,13-1.77,12.75-11-.06-2.79,2.67-4,5.65-2.11,5.76,3.59,11.8,6.77,17.35,10.67,5.78,4.07,5.86,10-.61,12.9a54.63,54.63,0,0,0-18.17,13.14c-3.12,3.33-7.75,5.47-12.43,1.14-1.14-1-3.22-2-4.62-1.71C610.72,233.47,603.07,227.23,594.33,218Z"/><path class="cls-82" d="M788.21,662.5c-.48,5.7,2.17,8.11,7.78,7.44a3.08,3.08,0,0,1,.18,3.29,8.36,8.36,0,0,1-3.15,1.58,9.55,9.55,0,0,1-8.11-2.14c-1.18-1.06-2.28-2.22-3.54-3.18-2.72-1.79-5.8-1.63-8.87-1.61-3.88.14-7.82-.42-11.45,1.43-.78.66-1.6,1.29-2.39,1.94a18.71,18.71,0,0,1-3.69,2.68,25.86,25.86,0,0,1-4.32,1.47,18.58,18.58,0,0,1-4.55,1,6.65,6.65,0,0,1-2.93-1c-2-1.5-3.53-3.8-6.24-4.35-4.32-.89-8.37.41-12.44,1.49-1.52.5-3,1-4.53,1.6-1,.5-2,.94-2.94,1.4-1.49.8-3,1.59-4.5,2.34a29.69,29.69,0,0,1-10.17,3c-17.11,2.68-34.56,3.08-51.38,7.78-7.56,2.11-12.59,5.29-8.37,14.16-3.2,4.77-8.37,3.22-12.82,4-6.08,1.07-12.79,2.51-12.8,10s6.76,7.42,12.39,7.66c2.2.09,4.2.66,5.5,2.67-6.31,12.24-15.27,6.13-23.73,3.49-3.75-1-5.23,1.87-7.14,4.12-12.56,14.82-27.2,27.95-45.74,33.3-19.53,5.62-35.45,18-54.42,24.61-21.42,7.52-42.59,5.09-64,4.26-6.06-.24-11.85-1.12-17.37,1.61-7,3.45-13.92,3.4-21,.74a20.42,20.42,0,0,1-3.71-1.38c-2.35-1.27-4.64-2.6-5.59-5.33.6-5.86,4.65-10.92,9.44-10.63,11.84.74,21.1-6.09,31.77-8.47,4.2-.93,8.54-1.83,12.72-.94,22,4.71,41-4.16,60.05-13.06,24-11.22,43.36-28.42,61.41-47.32a17.17,17.17,0,0,1,3-2.26,33.64,33.64,0,0,1,5-2.23,41.53,41.53,0,0,1,5.35-.32,159.64,159.64,0,0,0,22.56-9.13c6.11-5.81,14-8,21.77-9.78,19.37-4.33,38.36-10,58.49-11.47,9.72-.73,20.76-2.36,29.64-9.47,4.12-3.31,10.73-1.81,16.27-4.19a45.55,45.55,0,0,1,22.36-3.1C764.05,661.53,776.22,660.55,788.21,662.5Z"/><path class="cls-83" d="M603.44,698.15c-6.35,6.46-14.81,8.22-23.08,10.43-.84-.57-1.12-1.15-.84-1.73s.55-.87.83-.87l2.6-2.47C590.46,704.34,596,697.5,603.44,698.15Z"/><path class="cls-41" d="M839.69,636.67c-4.85,8.85-12.54,14.86-20.52,20.58a3.4,3.4,0,0,1-5,.06c5.56-7.73-3.7-8.22-6.14-11.59,1.19-3.5,3.78-4.12,6.2-3.82C823.33,643,831.89,641.81,839.69,636.67Z"/><path class="cls-41" d="M860.23,611c-7.76,6.33-9.13,17.61-17.93,23.14C841.82,621.42,849.86,615.3,860.23,611Z"/><path class="cls-84" d="M814.14,657.31l5-.06c0,.85,0,1.7,0,2.55l-2.57,2.56-12.83,7.72c-2,2.66-3.92,5.39-7.72,2.55,0-.9,0-1.79,0-2.69s.15-1.57.26-2.36C803.19,665.86,809.57,663.16,814.14,657.31Z"/><path class="cls-41" d="M842.29,634.14l-2.6,2.53Z"/><path class="cls-41" d="M862.8,608.43,860.23,611Z"/><path class="cls-42" d="M580.35,706c0,.87,0,1.74,0,2.6l-5.14,0a32.28,32.28,0,0,0-2.57,2.53h-2.56c-7.25,4.8-14.64,8.31-23.08,2.62l-.09-.15c2.37-3.93,8-1,10.39-5C565.23,709.85,572.49,705.33,580.35,706Z"/><path class="cls-83" d="M547,713.77c7.93,1.22,15.21-3.31,23.08-2.62-.13,6-4.63,9.29-8.6,12.09a88,88,0,0,0-17.64,16.42c-8.39,10.28-21.67,12.66-31.77,20.22-12.85,9.62-29,11.6-43.56,17.13-4.85,1.84-10.17,1.45-15.16.07-12.22-3.38-23.5-1.91-33.62,6-2.54,2-5.53,3.41-8.29,2.09-9.59-4.59-14.14,1.38-18.53,8.13a6.8,6.8,0,0,1-4.83,2.36,13.92,13.92,0,0,1-3.58-.31c-10.26-5.16-20.41-10.53-29.8-17.21a21.29,21.29,0,0,0-5.71-2.93,21.74,21.74,0,0,1-3-1.13,43.23,43.23,0,0,1-4.41-2.34c-4.36-4.74-12.92-5.68-13-14.32,4.13,0,7.86-.54,7.79-6a21.75,21.75,0,0,1,.24-5.11c2-9.28,10.13-12.32,17.14-6,6.34,5.7,12.09,12.08,17.91,18.34,6.27,6.75,7.48,6.74,16.53,3.79,24.08-7.83,45.14-21.58,67-33.69,1.47-.81,3.25-1.78,4-3.15,5.42-10.44,15-9.41,24.4-9.33q25.67.24,51.33,0C539.06,716.21,543.62,717.61,547,713.77Z"/><path class="cls-85" d="M277.39,726.53c-.89-1.7-1.78-3.39-2.66-5.09-.89-.81-1.46-1.92-2.5-2.57h0c1.07-2,2.94-2.47,5-2.48l.1,0c.89.78,1.75,1.6,2.59,2.45l10.15,7.76,15.72,17.81c-3.78,2.83-6.27-.41-8.69-2.22C290.38,737.17,283.94,731.78,277.39,726.53Z"/><path class="cls-86" d="M328.59,757.44c4,5.71,10.56,8.26,15.46,12.85l1.13,1.53a4.89,4.89,0,0,1-2.58,2.54c-11,.11-17.76-6.82-24.13-14.44l-2.71-5.07,2.74-2.68C322,753.68,324.26,757.53,328.59,757.44Z"/><path class="cls-87" d="M272.2,585.35c.49,6.32-.29,12.4-7.17,14.69s-13,.36-18.29-5.38c-7.76-8.48-8.9-13-3.54-19.79,6-7.62,11.47-7.94,18.72-1.2,2.47,2.3,5.14,4.38,7.71,6.57v0c1.54,1.38,1,3.8,2.6,5.15Z"/><path class="cls-10" d="M272.22,585.36c-2-1.13-2.53-3-2.6-5.15C271.74,581.29,272.19,583.22,272.22,585.36Z"/><path class="cls-45" d="M249.17,685.46c7.13,1.41,11.36,5.73,12.84,12.8l-.21.18c-5.5,1.39-7.42-3.59-10.77-6a17.26,17.26,0,0,1-2.14-2.53c-.25-.5-.49-1-.73-1.5A2.84,2.84,0,0,1,249.17,685.46Z"/><path class="cls-62" d="M244,685.5c0-1.68-.09-3.36-.14-5,2.16.95,2.67,2.83,2.78,4.93l-1.32,1-1.37-1Z"/><path class="cls-62" d="M243.87,680.42l-2.44-2.64Z"/><path class="cls-62" d="M249.17,685.46c0,.82,0,1.64,0,2.46-2.29.77-3.42.23-2.7-2.39l.14-.15C247.49,685.42,248.33,685.45,249.17,685.46Z"/><path class="cls-88" d="M246.51,685.53l2.7,2.4,0,.06a11.76,11.76,0,0,0,2.53,2.4l10,8.05c.28,5.7,5.94,8,7.94,12.66-1.91,2.76-3.95,2.16-6.14.3-3.13-2.64-5.44-6.23-9.34-7.95-.8-.92-1.68-1.76-2.5-2.65.13-6.5-8.07-8.78-7.8-15.35Z"/><path class="cls-75" d="M279.91,718.86l-2.59-2.45Z"/><path class="cls-89" d="M818.94,326.17c2.5.94,6.94,2.4,11.21,4.26q23.37,10.21,46.63,20.67c9.36,4.19,12.93,9.24,10.66,14.74-2.69,6.47-8.67,7.43-18.63,3q-25.62-11.44-51.23-22.92c-2.32-1-4.61-2.21-6.83-3.45-4-2.28-6.68-5.33-4.93-10.38C807.66,326.72,811.69,325.18,818.94,326.17Z"/><path class="cls-90" d="M616.31,834.4c-1.1-2.07-3-2.52-5.14-2.56-2.31,13.62-2.22,27.54-5.13,41.08-5,7.62-6.59,19.75-20.54,15.41q-2.26-28.2-2.58-56.48c20.69-2.55,41.34-5.31,61.62-10.3L645.8,823c1.36,3.38,0,6.33-1.47,9.24-6.76,15.89-2.39,33.18-6.24,49.43-.4.51-.82,1-1.23,1.52-5.35,4.32-5.2,10.34-5.19,16.38,0,4-.47,8.47-5.67,8.22-4.84-.24-7.2-3.61-7.16-8.8q.21-26.28,0-52.58C618.78,842.32,620.24,837.75,616.31,834.4Z"/><path class="cls-57" d="M644.54,821.55c3.61-4.24,8.53-1.92,12.85-2.56,3.69,3.71,1.73,8,1.11,12.07-1.13,7.32,1.07,11.53,9.16,11,0,7.64.33,15.28-2.47,22.65-4.7,12.37-5.52,25.57-7.73,38.46a24.47,24.47,0,0,1-4.21,10.51,5.07,5.07,0,0,1-5.56,2.19c-2.51-.66-3-2.77-3.05-5a24.44,24.44,0,0,1,1.25-10.05c2.23-5.74.89-11.8,1.22-17.71-4.25-4.27-3.25-9.76-3.5-15A341.11,341.11,0,0,0,646.52,831c.08-3.42.62-6.62-1.93-9.36Z"/><path class="cls-91" d="M647.12,867.78q0,7.71,0,15.4c-4,7.25-4.21,15.41-4.93,23.24-1.57,17-3.93,33.76-10.38,49.73-.78,1.93-.94,4.24-4.39,4.63.13-26.34,10.28-51.34,9.45-77.58h0c1.32-1.33,1.64-3.07,2-4.81a30.09,30.09,0,0,1,1.28-9.94C641.78,863.69,644.38,863.9,647.12,867.78Z"/><path class="cls-4" d="M667.66,842.1c-2.74,1.44-3.73,6.06-8.1,4.5s-4.3-5.39-4.82-9.2c-.87-6.46,3-12.11,2.65-18.41,3.62-3.36,8.28-4.12,12.84-5.13-2.68,3.43,0,6.85,0,10.27-3.34,4.72.64,10.66-2.56,15.41C667.67,840.39,667.66,841.25,667.66,842.1Z"/><path class="cls-57" d="M683.06,837c-1.11,6.82,2.57,14.24-2.55,20.55C681.63,850.7,678,843.28,683.06,837Z"/><path class="cls-57" d="M667.67,839.54c.78-5.15-2.09-10.9,2.56-15.41C669.44,829.28,672.3,835,667.67,839.54Z"/><path class="cls-56" d="M726.72,844.67c.78,15.61-4.94,29.94-10.24,44-1.87,5-.32,11.24-5.16,15.09-.71-.57-1-1.15-.72-1.72s.47-.87.71-.87a37.41,37.41,0,0,1,2.38-16.1c4.47-11.2,6.3-23.09,8.47-34.87C722.7,847.28,724.4,845.84,726.72,844.67Z"/><path class="cls-56" d="M711.31,901.15c0,.86,0,1.73,0,2.59-1.72,7.82-3.49,15.64-5.12,23.48-.8,3.82-1.91,7.39-5.16,9.89C703.05,924.72,703.67,911.93,711.31,901.15Z"/><path class="cls-56" d="M731.85,824.13c-1.37,6.93,3.69,15.47-5.13,20.54C727,837.47,725.12,829.72,731.85,824.13Z"/><path class="cls-92" d="M796,672.63c2.91.16,5.22-1.5,7.72-2.55-3.36,11-11.67,18.26-20,25.28-12.36,10.43-24.78,20.92-33.42,34.69-7.51,12-18.34,20.13-29.68,27.26a31.16,31.16,0,0,0-13.39,16.15c-5.06,13.37-15.06,21-28.16,25.11a56.83,56.83,0,0,0-14.83,7.23,28.69,28.69,0,0,1-15.42,5.33c-8.42.2-15.35,3.91-22.3,7.92-3.68,4.19-8.84,2-13.26,3a175.19,175.19,0,0,1-44.09,4.75,167.48,167.48,0,0,0-26.59,1.82c-8.58,1.19-17.47-2.78-26.45-2a2.36,2.36,0,0,1,.32-3.41c13.3-4.67,27.09-2.3,40.59-2.07,16.22.27,28.63-8,40-17,13.89-10.95,29.6-14.07,46-15.3,5.21-.39,10.21.5,14.14-3.61,12-12.57,27.29-20.59,41.83-29.38,31.9-19.28,55.19-46.71,76.12-76.66a15.76,15.76,0,0,1,2.52-2.83c4.39-4.79,10.91-.66,15.71-3.75Z"/><path class="cls-4" d="M662.52,811.34c-1.14,2.06-3.07,2.48-5.19,2.48C658.5,811.81,660.4,811.34,662.52,811.34Z"/><path class="cls-60" d="M878.2,657.22c.06-2.11.52-4,2.59-5.11C880.74,654.22,880.29,656.13,878.2,657.22Z"/><path class="cls-60" d="M880.8,652.1l2.55-2.57Z"/><path class="cls-4" d="M692.8,814.69c2.74,0,4.55,1.52,4.67,3.59.27,4.89-3.82,5.92-7.4,6.85a2.92,2.92,0,0,1-3.53-2.68C686.26,817.94,689.52,816.11,692.8,814.69Z"/><path class="cls-93" d="M503.32,842.11c0-3.44,0-6.87,0-10.3l30.78.06c1.1,11.32,3.63,22.56.13,34-4.36,14.24,2,28.66-.13,43h0c-9.89,6.58-14.38,5.81-17.7-4.6s-9.07-19.93-9.49-31.12a25,25,0,0,1-1-3.74c-1.1-5.46.1-11.32-2.87-16.47C501.59,849.3,500,845.65,503.32,842.11Z"/><path class="cls-94" d="M549.55,893.46c.38-3.73-.81-7.07-2.57-10.27-6.27-15.18-5.76-31.3-6.53-47.24a7,7,0,0,1,1.39-4.1c6.08,2.48,12,1.62,18.32.27,4.83-1,10.05-.23,15.1-.24-.58,4.27-2.88,8.3-.53,12.93a5.77,5.77,0,0,1-2.07,7.57c-3.4,11.5.69,23.66-3.27,35.16C565.54,898.71,560.06,900.48,549.55,893.46Z"/><path class="cls-95" d="M500.77,829.23l-7.69.08c-8.73,5.82-17,.54-25.42-1a28.65,28.65,0,0,1-3.16-1.64,16.65,16.65,0,0,0-4.84-1.77c-2.37-.27-4.75-.22-7.13-.37-7.52-1.41-15.48-1.69-21.07-8.1l-2.58-2.55c-.78-3.63,1.92-4.12,4.36-4.87,5-.43,9.53,1.57,14.28,2.46,2.71.78,5.35,1.82,8.05,2.64,1.05.29,2.08.66,3.1,1,4.15,1.52,8.6.87,12.85,1.75a31,31,0,0,1,3.3.78c6.84,1.4,13.72,2.61,20.42,4.62,2.3.94,4.37,2.16,5.53,4.5Z"/><path class="cls-96" d="M541.84,831.85c0,.84,0,1.69,0,2.53-2.18,5.27-.8,10.59-.43,15.94.32,4.71-1,9-4.7,12.33-2.07,11.49-2.8,22.91-.22,34.52.83,3.73,1.56,8.45-2.36,11.7-3-17-4.36-34.12-.55-51.24.59-2.66-1-4.88-1.42-7.32-1-6.28-1.48-12.6,2-18.44Z"/><path class="cls-47" d="M582.92,831.85c4.35,18.67,2,37.64,2.58,56.48l-2.55,0c1.7-18.93-2.67-37.58-2.61-56.44Z"/><path class="cls-72" d="M500.77,826.75c-2.11-.09-4-.52-5.21-2.56,6.85-5.14,13.72-5.05,20.59,0,0,.82,0,1.65,0,2.47Z"/><path class="cls-8" d="M226,667.52l2.5,2.55Z"/><path class="cls-8" d="M279.9,829.32l-2.51-.07c0-.84,0-1.69,0-2.53Z"/><path class="cls-75" d="M251.76,700.8c.83.88,1.66,1.77,2.5,2.65C253.42,702.57,252.59,701.68,251.76,700.8Z"/><path class="cls-97" d="M385.08,793.43l2.63-.07c3,2.8,7.34-.19,10.33,2.5.84,0,1.68.06,2.52,0a2.13,2.13,0,0,1,.9,1.85c-.07.72-.19,1.07-.36,1.08-2.1,2-4.85,2.55-7.51,3.31-1,.28-2.08.53-3.07.86-4.52,6.51-1,12.68.43,19.06,2,9.1,7.29,18.08,2,27.74-.22,6.27-.13,12.53,2.25,19.65-8.8.08-15.64-1-20.45-8.07-1.12-1.65-3.26-2.6-4.92-3.88-8.68-11.43-13.27-24-10.27-38.51-.79-13.19-4.73-25.74-7.72-38.48,8-1.19,12.69,5.86,19.41,7.9C375.93,789.84,379.46,794.52,385.08,793.43Z"/><path class="cls-72" d="M318.47,759.92c5.08,3.06,10.35,5.85,15.16,9.27,3.27,2.33,6.45,4,10.51,3.57,1.86,1.2,3.9,2.3,2.64,5.1-4.24,3.92-2.23,8.37-1.45,12.95,1.77,10.35,4.62,20.59,3.91,31.25-.13,2,.3,4.28-2.64,6.32-5.21-.88-10-4.57-15.3-6.82C326.3,801.17,321.1,780.81,318.47,759.92Z"/><path class="cls-70" d="M359.54,819c0,9,2.71,17.22,6.14,25.38,1.76,4.21,2.77,8.75,4.13,13.13-.78,6.19,1.9,11.66,3.58,17.34q7.44,25,14.86,50c.5,1.68,1,3.22-.53,4.6h-1.27l-1.26,0c-.81-.09-1.62-.17-2.43-.23l-2.6-2.49c-.06-.8-.1-1.6-.13-2.4-14.51-27.54-18.42-57.87-22.89-88-1.16-7.83-4.92-15.2-4.63-23.39C358.21,811.79,356.28,818.19,359.54,819Z"/><path class="cls-98" d="M346.78,777.86l-2.64-5.1,0,0a1.61,1.61,0,0,1,2.62,0l2.5.11c1.37,1.56,3.8.92,5.17,2.5l30.68,18.08c-2.81,3.72-5.9,2-9,.44-8.28-4.13-16.79-7.83-24.3-13.35Z"/><path class="cls-99" d="M434.09,811.21c-2.11.14-4.08.55-5.21,2.64-3.58.42-5.45,2.13-4.49,6,3.08,12.31,3.17,25.06,5.11,37.55,1.16,7.54,3.81,16.66-4.75,24.17-6.14,5.38-10.48,5.55-16.42,1.64-6.47-4.48-6-12-7.48-18.38-3.9-16.59-7-33.37-9.37-50.25-.65-4.54-2.24-9.33,1.37-13.5l.13,0c6.12-1,11.42,1.73,16.75,3.93,4.75,1.95,9.36,3.56,14.47,1.61,3.25-.6,6.44-.67,9.38,1.19A2.49,2.49,0,0,1,434.09,811.21Z"/><path class="cls-100" d="M392.85,801.05c4.74,27.46,7.78,55.23,15.48,82.13,5.44,18.57,7.56,38,14,56.26,1.06,3,2,5.65-1.16,7.87-1.12-2-3-2.45-5.08-2.57-3.53-10.8-7.18-21.56-10.54-32.41-4.62-15-4-30.81-7.54-46-1.31-5.63-1.37-11.68-5.09-16.57-1.79-9.76-1.14-19.9-6.33-29.13-3.58-6.36,0-14.1-2.51-20.58C387.92,797.41,390.22,800.16,392.85,801.05Z"/><path class="cls-101" d="M454.54,821.59h7.69a4.87,4.87,0,0,1,.64,4c1.38,18.64,3.2,37.24,4.12,55.92.25,5.06,2,10.19-2.18,14.53-.43,6.25,1,12.63-1.2,19.48-7.78-1-12.22-6.49-16.77-11.78-4.08-9-2.27-19-5.14-28.24,1-7.08-3.59-13.46-2.56-20.55,6.79-1.09,7.55,7.54,14.37,8.26,2.46-6.34-.64-12.64-.92-19C452.26,836.64,447.32,828.54,454.54,821.59Z"/><path class="cls-102" d="M454.54,821.59c-2.11,12.7,2.34,24.81,3.51,37.21.24,2.52,1.06,4.77-.18,7.26-1.65,3.31-3.86,4.75-6.8,1.83-4.15-4.14-8-8.62-11.93-12.95-1-13.16-5.31-25.65-7.68-38.54C439.18,818,446.57,821.1,454.54,821.59Z"/><path class="cls-103" d="M464.81,896c-3.77-21.77-.9-44.17-6.15-65.78-.93-3.85-.41-5.7,3.58-6.11a1.47,1.47,0,0,1,2.51.05h0c4,5.12,5.72,11,6.77,17.4,2.51,15.38,4.79,30.8,7.14,46.2.67,4.45,2.28,9.16-1,13.38-1.34,7.13,2.54,13.6,2.56,20.55-7.42,6.12-3.59,14-3.29,21.31s4.75,14.73.74,22.32l-2.56,0a74,74,0,0,1-5.3-25.86c-.37-13.06-3.41-26-2.69-39.14C467.18,898.93,465.62,897.46,464.81,896Z"/><path class="cls-104" d="M477.66,965.34c-2.77-13.27-5.88-26.48-5.16-40.22.35-6.58,3.83-5.24,7.71-3.41,2.39,11.79,4.81,23.57,7.14,35.37,1.48,7.5.69,8.62-7.09,10.79Z"/><path class="cls-105" d="M503.32,842.11c-.37,3.73.8,7.07,2.57,10.27,3.35,5.64-.89,12.36,2.57,18h0c1.41,10.66,3.26,21.25,4.88,31.87.62,4.11,1.14,8.37-2.29,11.77-1.78,16.11,2.59,31.88,2.63,47.9,0,5.61-1.35,9.12-7.73,8.56-.95-18.63-2.63-37.18-4.74-55.74C499.86,903,500,891,498.39,879.19c-2-15.18-1.29-30.55-.92-46.6C502.29,834.57,499.33,840.54,503.32,842.11Z"/><path class="cls-106" d="M536.72,862.65c1-7,2.63-13.89.22-21.08-1.15-3.43.32-6.8,4.91-7.19.8,1.45,2.36,2.93,2.29,4.33-.76,14.95,4.36,29.51,2.84,44.48-1.34,1.13-2.53,2.42-2.18,4.32,4.77,25.8,1,51.84,2.14,77.74a19.63,19.63,0,0,1-.31,3.82,3.52,3.52,0,0,1-3.32,3.26c-1.83.11-3.72-1.09-3.53-2.86,1.39-12.72-6.13-25.05-1.63-37.84,1.31-3.75,1.11-7.57,1.12-11.39q0-24.72,0-49.46C539.26,867.82,539.58,864.73,536.72,862.65Z"/><path class="cls-107" d="M549.55,893.46c14.13,3.58,14.71,2.89,18.93-11.62,1.72-5.92,1.22-11.7,1.64-17.56.29-4.07-1.39-8.6,2.54-11.9-.5,15.68,1.78,31.48-4.51,46.8-2,4.79-.43,11-.66,16.53-.14,3.39,0,6.95-1.06,10.09-1.29,3.92-2.88,8.87-8.33,8.22-5.26-.63-8.19-4.57-8.41-9.8-.31-7.25-.13-14.52-.15-21.78C549.54,899.44,549.55,896.45,549.55,893.46Z"/><path class="cls-96" d="M511,914c-3-14.42-2.74-29-2.59-43.64,3.34,9.65,7.05,19.19,9.93,29,3.68,12.5,3.4,12.59,15.77,9.54.25,4.55,1,9.15.63,13.64-.55,6.15-3.68,7.73-9.53,6.17C517.51,926.6,514.43,920.19,511,914Z"/><path class="cls-107" d="M477.65,901.16c-2.55-14.88-5.14-29.77-7.64-44.66-1.81-10.76-3.5-21.55-5.25-32.32,9.19,3.12,18.56,5.21,28.32,5.13,0,13.24.51,26.5-.21,39.7-.47,8.71,3.25,16.7,2.81,25.3-.44,8.4-.23,8.32-9.38,7.66C483.41,901.76,480.4,903,477.65,901.16Z"/><path class="cls-47" d="M585.5,888.33c3.82.12,7.66-.13,9.58-4,2.48-5,7.69-7.22,11-11.37.5,15.26-3.35,30-5.42,45-.74,5.32-4.67,6.46-9.36,6.29-5.38-.19-5.76-3.87-5.75-7.93C585.53,906.93,585.5,897.63,585.5,888.33Z"/><path class="cls-47" d="M606,872.92c-.21-13.93.32-27.78,5.13-41.08C611,845.72,612.59,859.83,606,872.92Z"/><path class="cls-73" d="M575.24,973.06c0-2.11.49-4,2.55-5.14C577.75,970,577.3,972,575.24,973.06Z"/><path class="cls-75" d="M272.23,718.87l2.5,2.57Z"/><path class="cls-84" d="M516.15,824.15l-20.59,0A61.8,61.8,0,0,1,472.45,819c.55-.68,1.2-1.64,1.9-1.61,19,.74,36.55-6.94,54.63-10.49,23.73-4.67,48.08-10.75,69.36-24.34,28-17.86,51.41-40.33,72.43-65.91,10.76-13.09,21.16-26.57,32.84-38.92l10.27-2.57c.79-.92,1.82-1.6,2.58-2.56H719c.79-.92,1.81-1.61,2.58-2.56,5.87-1.64,11.75-3.25,17.95-2.57,1.56,2.67,1.61,6.34,5.15,7.69h2.56c.79-.92,1.82-1.6,2.58-2.55H755c.81-.9,1.76-1.67,2.56-2.57,3.45-6.8,10.87-1.63,15.42-5.11,3.55.34,7.56-1.22,10.27,2.54.91.79,1.59,1.81,2.54,2.58,1.86,3,4.9,2.47,7.72,2.57-4.42,3.86-10.29,3.35-15.48,5-1.4-1.86-2.59-4.29-5.9-3.5,1.8,1.64,4.68,1.35,5.9,3.5-.42,7.05-5.35,11.42-9.23,16.45-15.36,19.93-31.6,39-52.1,53.94-8.58,6.24-17.68,11.78-26.7,17.38-11.9,7.4-23.94,14.59-33.49,25.05-3.36,3.69-6.54,4.67-11.09,2.15-5.24-2.91-10.34-2.41-15.62,1-5,3.21-11.21,3.6-17,4.83-2.06.43-5,.17-6,1.44-7.09,9.19-17.4,13.3-26.92,19-5.42,3.25-10.1,5.4-16.31,5.32C547.74,824,531.94,824.14,516.15,824.15Z"/><path class="cls-108" d="M703.61,677.77c-5.45,12.25-13.37,22.59-22.84,32.13-8.66,8.72-15.53,19.2-24.14,28-12.11,12.36-22.51,26.58-38.89,34.47-9.51,4.58-16.69,13-26.11,18.22S572,798.49,561.7,800.81c-5,1.13-10.6,1.51-14.46,4.54-7.42,5.82-15.59,6.28-24.23,6-4.71-.17-9.64-.58-13.76,2.05-11.49,7.33-24.29,5.36-36.79,5.68h0c-4.69-3.45-10.66.61-15.39-2.62h0c-2.08-2.43-5.65-.29-7.8-2.52-5.37.78-10.15-1.79-15.22-2.7-.07-.82-.12-1.64-.14-2.46,22.32-8.74,46.87-8.33,69.24-16.34,34.83-12.47,69.58-25.4,96.26-53,4-4.18,4.76-11.42,11.72-12.81,7.72,4,15.44,8.92,23.07-.15,1.36-8,11.66-13,7.69-22.77-9.59-6.9-9.41-11.88,1.67-16.07,8.65-3.28,17.94-6,27.09-6.53C681.75,680.42,692.53,677.62,703.61,677.77Z"/><path class="cls-109" d="M611.17,726.56C600,747.35,581.09,759.14,561.59,771c-16.21,9.85-34.94,13.54-50.82,23.64-15.62.08-29.62,11-45.88,6.89a6.35,6.35,0,0,0-6.81,2.58c-5.88,8-13.3,8-21.58,4.74a7.69,7.69,0,0,0-2.55-.09l-10.14-.08c-9.15-.19-17-3.23-23.18-10.22,0-.85,0-1.69-.07-2.54,7.88,2.57,15,3.31,23-1.68,4.8-3,12.06-4.42,18.07.19.95.73,2.69,1.49,3.56,1.1,12.77-5.68,25.7,2.14,38.89-1,12.93-3,24.77-8.87,37.54-12.07,2.27-.57,4-3.11,6.13-4.45,4.3-2.69,7.91-7.1,13-7.74,12.07-1.49,21.42-9.55,32.7-12.73a16.45,16.45,0,0,0,8.34-5.6c7.31-8.76,18-14.34,23.22-25.12C606.32,724.23,609,723.71,611.17,726.56Z"/><path class="cls-110" d="M641.93,703.64c7.06,10.64,7,10.61-3.43,18.41a37.4,37.4,0,0,0-4.26,4.36c-2.9.58-5.77,1.5-8.69,1.68-6.26.39-10.37-2.83-12.68-8.51-2.23-5.46,1-8.51,4.72-11.79C624.93,701.24,633.63,703.86,641.93,703.64Z"/><path class="cls-108" d="M773,665c-4.2,4.54-11,1.18-15.42,5.11.36-3.38,2.2-5.09,5.63-5.08C766.42,665,769.68,665,773,665Z"/><path class="cls-109" d="M398,795.86c-3.56-.36-7.56,1.12-10.33-2.5l5.21,0C395,793.37,396.93,793.81,398,795.86Z"/><path class="cls-108" d="M744.7,675.2c-5.21-.23-5.18-4-5.15-7.69C742.45,669.28,743.17,672.51,744.7,675.2Z"/><path class="cls-108" d="M749.84,672.65l-2.58,2.55Z"/><path class="cls-108" d="M716.46,672.64l-2.58,2.56Z"/><path class="cls-108" d="M757.53,670.07,755,672.64Z"/><path class="cls-108" d="M721.6,670.08,719,672.64Z"/><path class="cls-83" d="M572.65,711.15c.86-.84,1.72-1.68,2.57-2.53C574.37,709.47,573.51,710.31,572.65,711.15Z"/><path class="cls-108" d="M785.76,670.08l-2.54-2.58Z"/><path class="cls-72" d="M354.4,775.35c-2.11,0-4-.5-5.17-2.5C351.37,772.81,353.27,773.29,354.4,775.35Z"/><path class="cls-72" d="M346.73,772.74l-2.62,0c0-.83,0-1.67-.06-2.5Z"/><path class="cls-62" d="M251.77,690.39l-2.53-2.4Z"/><path class="cls-111" d="M647.12,867.78c-2.41-.71-4.92-2-5.16,2.37-.19,3.62,1.23,7.7-2.54,10.47-3-17.31.72-34.28,2.57-51.35,3-1.83,2.46-4.87,2.6-7.67,5.39.62,4.95,4.65,5.13,8.51A175.41,175.41,0,0,1,647.12,867.78Z"/><path class="cls-47" d="M642,829.27c1.73,17.25-2.54,34.19-2.57,51.35l-2.56,2.58C636.16,865,634.88,846.73,642,829.27Z"/><path class="cls-96" d="M508.46,870.36c-4.81-5.43-1.62-12-2.57-18C510.75,857.8,507.53,864.38,508.46,870.36Z"/><path class="cls-84" d="M457.11,816.43c5.14.8,10.92-2.12,15.39,2.62C467.35,818.28,461.62,821,457.11,816.43Z"/><path class="cls-84" d="M449.31,813.91c2.86,0,5.91-.52,7.8,2.52C454.26,816.37,451.26,816.77,449.31,813.91Z"/><path class="cls-102" d="M464.75,824.19l-2.51-.05c0-.85,0-1.69,0-2.54Z"/><path class="cls-112" d="M400.63,798.45l23.18,10.22c-3,3.77-6.61,2.85-10.2,1.33-6.91-2.93-13.75-6-20.63-9C394.77,797.88,397.84,798.59,400.63,798.45Z"/><path class="cls-113" d="M775.13,677.91c-4.46-.5-9.56,1.11-10.51-3.73-.72-3.65,3.49-4,6.46-4,3.28,0,7.33-.64,8,4C779.49,677.35,777.14,678.25,775.13,677.91Z"/></g></svg>