<svg xmlns="http://www.w3.org/2000/svg" viewBox="0 0 1117.09 1117.09"><defs><style>.cls-1{fill:#fef076;}.cls-2{fill:#fad273;}.cls-3{fill:#f7f7ad;}.cls-4{fill:#a45829;}.cls-5{fill:#b16f35;}.cls-6{fill:#b3774e;}.cls-7{fill:#c59149;}.cls-8{fill:#b37237;}.cls-9{fill:#f9f59f;}.cls-10{fill:#faf496;}.cls-11{fill:#cd9d4d;}.cls-12{fill:#ad6633;}.cls-13{fill:#b57638;}.cls-14{fill:#c18c5a;}.cls-15{fill:#e0c2a4;}.cls-16{fill:#b67538;}.cls-17{fill:#b06c36;}.cls-18{fill:#b97c3d;}.cls-19{fill:#ca9d6a;}.cls-20{fill:#bf8543;}.cls-21{fill:#fef7b7;}.cls-22{fill:#d1a06c;}.cls-23{fill:#d1b19b;}.cls-24{fill:#c5997c;}.cls-25{fill:#cba288;}.cls-26{fill:#be8a6a;}.cls-27{fill:#b9825f;}.cls-28{fill:#c18943;}.cls-29{fill:#f9db89;}.cls-30{fill:#fbf087;}.cls-31{fill:#fdea75;}.cls-32{fill:#d7ae54;}.cls-33{fill:#faec89;}.cls-34{fill:#fbf28f;}.cls-35{fill:#be853f;}.cls-36{fill:#c18a42;}.cls-37{fill:#fde977;}.cls-38{fill:#fbf28a;}.cls-39{fill:#a85f2c;}.cls-40{fill:#fce475;}.cls-41{fill:#d4aa52;}.cls-42{fill:#ad693a;}.cls-43{fill:#fdf07c;}.cls-44{fill:#fbf28d;}.cls-45{fill:#f7d565;}.cls-46{fill:#d2a650;}.cls-47{fill:#fcf07e;}.cls-48{fill:#fbf085;}.cls-49{fill:#fbf189;}.cls-50{fill:#fbf38c;}.cls-51{fill:#fbf38f;}.cls-52{fill:#fcf182;}.cls-53{fill:#d1a550;}.cls-54{fill:#d9b256;}.cls-55{fill:#fcf181;}.cls-56{fill:#d8b156;}.cls-57{fill:#faf18e;}.cls-58{fill:#fcee7c;}.cls-59{fill:#dbb457;}.cls-60{fill:#d5ae54;}.cls-61{fill:#b4754e;}.cls-62{fill:#f9f499;}.cls-63{fill:#fcf17f;}.cls-64{fill:#fbd974;}.cls-65{fill:#f6f0a2;}.cls-66{fill:#fcf286;}.cls-67{fill:#fbdf76;}.cls-68{fill:#fcee82;}.cls-69{fill:#f6e39b;}.cls-70{fill:#ddb95a;}.cls-71{fill:#f7ec91;}.cls-72{fill:#fbdc74;}.cls-73{fill:#fcee81;}.cls-74{fill:#fbe279;}.cls-75{fill:#dcaf67;}.cls-76{fill:#fef9c6;}.cls-77{fill:#b9753b;}.cls-78{fill:#f9f498;}.cls-79{fill:#f7f3a7;}.cls-80{fill:#f8ee9f;}.cls-81{fill:#daa557;}.cls-82{fill:#c68645;}.cls-83{fill:#cf9850;}.cls-84{fill:#f8e897;}.cls-85{fill:#be7f40;}.cls-86{fill:#cf954e;}.cls-87{fill:#f8f5a1;}.cls-88{fill:#f8ed9d;}.cls-89{fill:#f9f399;}.cls-90{fill:#f7f6a7;}.cls-91{fill:#f9f59d;}.cls-92{fill:#f8e894;}.cls-93{fill:#fcf185;}.cls-94{fill:#faf391;}.cls-95{fill:#faf290;}.cls-96{fill:#faf393;}.cls-97{fill:#f9f49d;}.cls-98{fill:#cc9864;}.cls-99{fill:#fdee78;}.cls-100{fill:#f9f397;}.cls-101{fill:#fdea76;}.cls-102{fill:#faea86;}.cls-103{fill:#feef76;}.cls-104{fill:#c79648;}.cls-105{fill:#c08840;}.cls-106{fill:#faf18f;}.cls-107{fill:#f8f59f;}</style></defs><g id="Layer_5_Image" data-name="Layer 5 Image"><path class="cls-1" d="M367.88,666.23l45.58-85.47c6.49-12.17,12.93-24.36,19.43-36.52q13.2-24.72,26.48-49.41a15.09,15.09,0,0,1,1.25-1.75c9.18-16,18.54-31.86,29.08-47a12.85,12.85,0,0,1,.84-1.24c.44-.6.9-1.19,1.34-1.8,1.31-1.43,1.9-3.83,4.57-3.47,1.65,1.72.61,3.45-.21,5-7.91,14.64-13.31,30.39-20.2,45.47-4.36,8.51-8,17.35-11.5,25.51,2.84-5,4-12.31,12.18-13.37a4.61,4.61,0,0,1,3,.2,2.54,2.54,0,0,1,.93,1.19,6.89,6.89,0,0,1-.24,2.3,19.48,19.48,0,0,1-.6,2.24c-3,10-6.2,19.94-11.2,29.17a15,15,0,0,0-2.56,4c-.15.42-.34.83-.53,1.23-.28.62-.57,1.23-.85,1.85-.18.44-.39.85-.6,1.27-1.63,3.83-4.18,7.16-5.88,11-9.94,17.12-19.3,34.53-27.79,52.42a69.3,69.3,0,0,0-4.76,13.87c-1,4.14.72,6.53,4.6,7.91,8.52,3,17.64-.26,21.76-8.31a76.23,76.23,0,0,0,6.51-18.43c3.6-16.26,5.15-33,11.86-48.53a13.88,13.88,0,0,0,1.15-3.83,12.36,12.36,0,0,1,.41-1.59c3.23-10.57,7.22-20.92,9.1-31.88.87-5,2-10,5.24-14.13,1.08-.79,2.07-.31,3.07.2,3.15,2.2,7,3.71,7.95,8.59,3.67-5.2,5.39-10.59,7.93-15.56,1.3-3.16,3.17-6.07,4.25-9.34a12.19,12.19,0,0,1,.54-1.42,7.52,7.52,0,0,1,1.78-2.57,3.26,3.26,0,0,1,1.58-.43c4.8,1.65,1.9,5,1.68,7.71-1.3,11.56-4.29,22.86-5.63,35.13,3.32-1.44,3.81-3.7,4.09-6,.33-2.69.07-5.41.19-8.11.26-6.16.84-12.08,4.92-17.34,2.78-3.59,2.3-8.62,3.79-12.86a9,9,0,0,1,.4-1.55c.6-1.48.88-3.05,1.33-4.57a7.61,7.61,0,0,1,.76-1.44c4.52-5.1,5-5.1,6.83.08a15.33,15.33,0,0,1-.37,4.16,22.93,22.93,0,0,0-.78,4.11c-1.08,5.67-2.13,11.34-3.06,17-4,19.5-8,39-13.24,58.21-1.86,5.34-2.64,11-4.45,16.34a21.58,21.58,0,0,0-1.16,3.15,12.59,12.59,0,0,1-.54,1.64c-4.49,15.38-7.09,31.11-9,47-1.17,6.58-2.19,13.19-3,19.83-1,8.59,1.51,12.64,8.32,14,7.6,1.49,14.18-2,16-9.36a385.08,385.08,0,0,0,9.36-55.65c.79-8.1,1.53-16.22,1.12-24.38,0-13.9.19-27.79-.12-41.67,0-2.51-.24-5.09,1.39-7.28,1.21-.93,1.91,0,2.75.69,3.47,2.67,4.66,2.31,5.36-2.13,1.08-6.83.29-13.75.53-20.63a16.1,16.1,0,0,1,.44-3.59c1.4-5.43,0-11,.93-16.48a26.05,26.05,0,0,0,.92-5.84c.14-1.57.18-3.52,2.26-3.78,1.89-.24,1.83,1.81,2.69,2.82,4,4.72,4.73,11.09,8.39,15.93a10.92,10.92,0,0,1,1.81,3,7.91,7.91,0,0,1,.51,1.7c.62,6.93,2.08,13.77,2.42,20.73a34.85,34.85,0,0,0,1.34,10.19c2.56-.88,4.68-4.65,7.76-1.28,1.45,6.55,1.09,13.24,1.83,19.86a20.82,20.82,0,0,1-.2-8.24c.32-1.87.17-4.55,3.36-4.45,1.93,3.61,1.76,7.65,2.35,11.53,1.51,10,3.13,19.88,4,29.92,0,7,2.63,13.94.68,21-.61.92-1.86,1.17-2,.19-.33-2.38-1.44-4.68-1.36-6,3.27,11.83,5.45,25,10.12,37.59,1,2.33,1.72,4.77,2.63,7.15,3.58,9.38,11.17,13.38,20.8,11,5.24-1.3,6.67-3.27,5.61-8.6A157.26,157.26,0,0,0,613,614c-7.92-23.36-14.54-47.16-23.36-70.22a120.66,120.66,0,0,1-3.77-12.5c-1.06-6.76-4.2-13.16-3.54-20.21,4.07-1.1,3.16,2.88,4.59,4.48a22.27,22.27,0,0,1,1.5,4.62,10,10,0,0,0,1.69,4.78c3.88-2.6,3.66-6.32,3.12-10.06-1-6.64-3.28-13-4.77-19.47a55.48,55.48,0,0,1-1.29-5.82,4.16,4.16,0,0,1,.74-2.86,1.83,1.83,0,0,1,1.31-.46,6.43,6.43,0,0,1,1.83,2,9,9,0,0,1,1.43,2.86c.22.58.43,1.16.69,1.73.21.38.38.76.56,1.15.32.59.61,1.18.89,1.79a13.72,13.72,0,0,1,.54,1.33c2,4.64,4.39,9.09,6.3,13.78,1,2.39,1.35,5.26,5.16,5.74,1.88.25,2.44,3.35,3.48,5.24,1.29,2.35,2.2,4.95,4.87,7.37-1.09-6.8-4.35-12.22-5.71-18.19a3.7,3.7,0,0,1,.22-1.4c.51-1,1.78-1.31,2.26-2.37a13.08,13.08,0,0,0,.44-1.95,12.78,12.78,0,0,1,.53-2.11c1-2.68-.38-4.95-1.28-7.26-2.23-5.69-4.91-11.22-6-17.31-.32-1.75-1.21-3.46,0-5.2,3.23-.66,3.89,2.11,4.95,4,6.56,11.5,13.28,22.91,19.33,34.68,4.56,8.87,10.09,17.22,14,26.43,13.74,29.93,27.89,59.68,42.75,89.08.27.45.49.92.72,1.38a23.4,23.4,0,0,0,1.6,2.68c5.22,10.41,8.45,21.61,12.74,32.4,2.48,6.24,5.17,12.39,7.64,18.64a16.23,16.23,0,0,0,6.2,8,39.9,39.9,0,0,1,11.1,11.1,5.74,5.74,0,0,1,.94,5.4c-1.67,2.43-4.47,3.41-6.72,5.09-1.78,1.32-1.23,2.14-.09,3.27-.38,4.89-4.33,7.46-7,10.84-8.5,4.83-18,4.81-27.33,5.75-5,0-10-.45-15,.3a28.16,28.16,0,0,0-9.48,3.17c-.41.24-.83.45-1.25.67-.18.13-.39.24-.58.36-.36.26-.74.5-1.12.73s-.75.45-1.13.66l-1.09.7-.5.41c-.31.32-.63.63-1,.94-.15.18-.32.33-.47.5a17.19,17.19,0,0,1-2.13,2c-1.76,1.21-3.86,1.47-5.82,2.14-5.49,1.48-10.94,3.12-16.52,4.2-3.8,1.13-7.65,2-11.48,3a13.87,13.87,0,0,1-1.56.44,47.41,47.41,0,0,0-4.83,1.22c-6.35,1.95-13.06.91-19.47,2.36-7.65.77-15.31,2.1-23,0a9.28,9.28,0,0,1-1.55-.32,16.78,16.78,0,0,0-4.14-1,8.33,8.33,0,0,1-1.31-.22,8.66,8.66,0,0,1-1.21-.42,19.39,19.39,0,0,0-2.38-.76c-.41-.1-.8-.24-1.2-.37a28.16,28.16,0,0,0-3.16-.67c-.46-.09-.9-.21-1.35-.34-1.43-.41-2.9-.56-4.34-.87-10.68-3.82-19.83,1.23-29.19,5-4.71,1.69-9.48,2.94-14.53,1.75a3.09,3.09,0,0,1-1.35-1,1.58,1.58,0,0,1,.31-1.46,4.79,4.79,0,0,1,2.15-.84c-1-.52-3.29.6-5.39.15-5.74-.91-11.41-2.19-17.16-3-2.85-.39-5-2.21-7.5-3.46-16.9-8.19-32.49-19.05-50.52-25C419.09,721,413.82,716,408.05,712c-7.72-5.39-15.34-10.93-23.36-15.88-.83-.58-1.67-1.16-2.52-1.69a11.85,11.85,0,0,1-1.23-.87A44.44,44.44,0,0,0,365.77,685c-2.55-1.57-3.69-4.31-5.45-6.54-1.69-3.87,1-5.85,3.3-8.18C365,668.87,366.39,667.5,367.88,666.23Z"/><path class="cls-2" d="M725.38,702.41a52,52,0,0,0-13.88-12.64,5.8,5.8,0,0,1-2.28-2.93c-6.05-14.48-11.71-29.11-17.17-43.81-1.44-3.89-3.11-7.69-4.68-11.52-.66-.58-.41-1.61-1.09-2.18h0c-13.3-30.75-29.17-60.26-43.61-90.46q-17.29-31.32-34.58-62.64a5.36,5.36,0,0,0-2.47-2.77c-3.51-1.79-3.73-6-6.25-8.51-2.4-3.43-3.49-7.53-5.63-11.1-3.89-8.77-7.23-17.75-10.72-26.67a178.73,178.73,0,0,0-8.35-18.05,14.75,14.75,0,0,1-.72-1.36c-4.07-8.23-8.79-16.12-12.69-24.43-2.67-5.06-4.72-10.54-9.61-14.09-2.8-3.89-6.36-7.39-6.61-12.62.41-.79.92-1.37,1.93-1,6.16,5.05,12.3,10.13,18.49,15.15,2.78,2.25,4.16,5.48,5.93,8.4Q618.7,457,665.9,534.92q43.89,72.27,87.91,144.48c1.22,2,2.57,3.94,3.9,5.88,1.1,1.6,1.69,3.22.57,5.05-2.92,2.32-6.46,1.91-9.83,2.21-7.75,1.31-13.34,6.32-19.05,11.12C727.68,704.46,726.81,702.54,725.38,702.41Z"/><path class="cls-3" d="M545.62,356.93c1.54,4.34,4.65,7.81,6.62,11.91,3.82,3.22,5.09,8,7.64,12.06.21.46.41.92.63,1.38a11.35,11.35,0,0,1,.56,1.4,70,70,0,0,1,6.17,13.89c1.38,4.59,3.71,8.17,7.9,10.51h0c-3.67,8.63,2,15.34,4.68,22.66a51.27,51.27,0,0,0,2.62,5.31c1.07,2.4,2.33,4.71,3.42,7.09,3,8,6.22,15.94,8.93,24.06a15.36,15.36,0,0,1,.47,3.17,2.41,2.41,0,0,1-.66,1.4c-2.83,1-5.4,3.43-8.78,1.75-2.53-1.74-3.94-5-7.4-5.49a6.54,6.54,0,0,1-1.27-.56c-1.12-.75-1.64-2-2.57-3a4.89,4.89,0,0,0-1.75-.76,6.88,6.88,0,0,1-2.73-1,5.12,5.12,0,0,1-1.07-1.2,7,7,0,0,1-.62-1.55c-2.57-12.19-3.79-24.6-5.67-36.9-.25-1.61,0-3.61-1.1-4.69-6.91-6.9-5.9-16.36-8.21-24.72-.68-2.43-1-4.94-2-8.15,2.78,14.72,4.27,28.81,6.42,42.8,1.08,13.08,2.43,26.12,4.54,39.07a26.71,26.71,0,0,1,0,5.93c-2,6.21.19,12.81-1.73,19-1.24,1.74-2.11.74-3-.4h0c-.8-2.18-1.4-4.43-2.12-6.63-1.06-4.75-1.56-9.59-2.38-14.37a34.17,34.17,0,0,0-1.45-9c-1.47-4.62-2.34-4.79-5.77-1.18a4.06,4.06,0,0,1-1.75,1.19c-2.65,0-2.87-1.83-2.58-3.7.39-2.49.22-5.06.91-7.47a3.48,3.48,0,0,0-1.45-4.18c-1.42-3.4-1.08-8.4-7-7.7-3-3-1.91-6.81-1.57-10.25.44-4.48.84-9,1.56-13.44-3.08,10.27-3.55,21.06-6,31.45-3.06,2.46-4.49,5.71-5.35,9.52-1.26,5.61-3.71,10.89-5.08,16.49-1.92,3.86-1.88,8.7-5.71,11.63h0c-.71.54-.45,1.58-1.1,2.16l0,1.06c-1.12,2-2.72,1.36-4.31.77-4.19-1-4.79-3.62-3.49-7.35,2.55-7.29,4.9-14.66,6.92-22.13.51-1.9,1.21-3.78.94-5.79-2.82-2.42-3-5.07-1.61-8.53,2.19-5.34,4.1-10.8,6.49-16.06-5.17,8.92-8.1,18.82-12.22,28.2a105.31,105.31,0,0,0-4.66,11.56c-1.19,3.93-3.63,5.12-7.41,3.31-1.7-.45-3.13-1.18-3.29-3.2,3.1-10.5,8.25-20.13,12.81-30,4.54-6.29,3.72-14.69,8.24-21.06-2.83,2.83-4.05,6.61-6.21,9.8s-4.73,5-8.61,2.74c1.09-4.07,3.58-7.44,5.55-11.09,6.26-11.6,12.4-23.28,18.61-34.92q8.16-15.3,16.38-30.57c2.6-4.8,4.14-4.91,8.62-.83C544,354.05,545.22,355.3,545.62,356.93Z"/><path class="cls-4" d="M384.36,694.73c11.52,5.87,21.29,14.35,31.89,21.57,4.07,2.77,8.13,5.27,12.91,6.71,6.24,1.87,12.4,4.2,17.79,7.93,7.21,5,15.45,7.88,23,12.08,2.37,1.32,4.69,2.71,7,4.07-.58,2.82-2.7,2-4.43,1.77-2.06-.32-4-1.26-6-1.64a10.66,10.66,0,0,1-1.46-.44c-.7-.24-1.39-.51-2.09-.76a19,19,0,0,1-4.48-2.3c-10-3.73-20.05-7.2-29.69-11.79a208.83,208.83,0,0,1-29.21-16.53c-8.94-4.9-17.08-10.82-23.6-18.74-1-1.25-3.67-2.22-2.14-4.25,1.31-1.74,3.63-1.2,5.52-.31,1,.47,1.94,1,2.94,1.39l-.06,0C382.69,694.35,383.83,694.05,384.36,694.73Z"/><path class="cls-5" d="M592.55,754.67c6.74-1.53,13.7-.93,20.45-2.29,1.39-1,3.3.29,4.59-1.08l0,0c4.8-1.58,8.39,1,11.92,3.58,1.33,1,2.47,2.28,1.25,4.15h0c-.62.57-1.58.38-2.19,1l-.36.25-.44,0c-.79.4-1.75.27-2.47.87-5.62,2.4-11.64,2.6-17.57,2.93a104.36,104.36,0,0,1-20.6-.67C585.11,757.89,586,756.45,592.55,754.67Z"/><path class="cls-6" d="M559.86,759a22.26,22.26,0,0,1-2.71,0c-6-.82-11.51.42-17.36,2.16-9.47,2.82-19.18,5.26-29.11,6.22a34.59,34.59,0,0,1-11.86-.75c-1.68-1.22-3.82.15-5.51-1l0,0c-1.68-1.76-6.41-1.64-3.72-6.08,5-.37,9.45,2.21,14.41,2.38,7.78.27,15.17-.77,22.19-4.26a24.12,24.12,0,0,1,5.69-1.84c8.36-.11,16.71-1.35,25.07-.06C558.42,756.43,560,756.92,559.86,759Z"/><path class="cls-7" d="M713.49,725.18c1.81-3.55,5.18-6,6.82-9.66.81-3.4,3.11-5,6.43-5.51a8.85,8.85,0,0,1,4.75,1.66c1.74,1.62,3.44,3.27,1.59,5.87v0a9.2,9.2,0,0,1-1,1.12c-4.55,5.38-9.37,10.43-16,13.31C712,730.93,712.3,728.21,713.49,725.18Z"/><path class="cls-8" d="M660.11,735.33c2.95-2,5.91-3.91,9.71-3.6,6.7-1.06,13.29-1,19.17,2.92,1.4.94,4.7,1.88,1.66,4.68a50.7,50.7,0,0,1-10.77,1.26,4.51,4.51,0,0,1-3.13.27c-6.14-1-12.26-2.68-18.41.26-1.24.59-3.31.86-3.63-1.64l0-.07a3.6,3.6,0,0,1,1-.9l.17-.15a1.4,1.4,0,0,1,.88-.8,3,3,0,0,1,1-.45,5.1,5.1,0,0,0,1.19-.93l.07-.06A3.19,3.19,0,0,1,660.11,735.33Z"/><path class="cls-9" d="M494.38,429.87c5.42,1,7.44-2.77,9.41-6.63,1.14-2.25,2.29-4.49,3.4-6.75.75-1.51,2-2.29,3.5-1.56,1.76.86.44,2.2,0,3.21-2.12,4.68-4.93,9-5.25,14.47a9.61,9.61,0,0,1-3.32,6c-2.05-2.6.22-4.72.71-7-2.9,2.22-3.77,6.35-7.25,8.13l-3.27,4.34c-.35.38-.76.7-1.08,1.11h0c-1.67,1.32-3.45,2.08-5.57,1.06C487.64,440.29,491.16,435.16,494.38,429.87Z"/><path class="cls-10" d="M485.64,446.23a9.55,9.55,0,0,1,5.57-1.06c-1.56,4.69-4.94,8.28-7.55,12.32-7,10.86-14.05,21.72-20.54,32.91-.65,1.12-1.19,2.23-2.5,2.68,1.18-4.65,4.12-8.42,6.32-12.56q8.67-16.31,17.43-32.57A13.15,13.15,0,0,1,485.64,446.23Z"/><path class="cls-11" d="M713.49,725.18c.16,2.53.53,5,2.55,6.81a36.39,36.39,0,0,1-14.48,5.29c-3.73-1.71-7.17-4.23-11.55-4.12-1.5-.4-3.57.08-3.74-2.4C695.56,729.93,704.93,729.51,713.49,725.18Z"/><path class="cls-12" d="M382.36,693.49c-2.69.66-5.13-1.9-8.23-.45a30.13,30.13,0,0,0,7.56,8.05c5.3,4.22,10.2,9,16.17,12.36a4,4,0,0,1,1.78,1.95,43.41,43.41,0,0,1-21-14.34c-3.23-4.08-6.65-8-10-12a.51.51,0,0,0-.47-.56,1.59,1.59,0,0,0-.39-.54,2.23,2.23,0,0,1-.61-.81l-.26-.33a1.13,1.13,0,0,1-.74-.89,5.46,5.46,0,0,1-.44-.95,11.52,11.52,0,0,1,9,2.67C377.27,689.63,380.44,690.75,382.36,693.49Z"/><path class="cls-13" d="M630.72,759.06c-.2-.67-.18-1.6-.63-1.95-3.7-2.94-7.53-5.67-12.54-5.78a43.63,43.63,0,0,1,12-3.22c1.68-1,3.56-.47,5.34-.61,4.77-.36,5.74,1,4.56,6.16l0,0a8.12,8.12,0,0,0-1.19,1A17.63,17.63,0,0,1,630.72,759.06Z"/><path class="cls-14" d="M654.71,739.48c1,1.29,2.2,1,3.38.4a19,19,0,0,1,16.55-.47,31.15,31.15,0,0,0,5.24,1.18l-19.57,5.46c-4.11,1-7.47.74-7.95-4.57A3.72,3.72,0,0,1,654.71,739.48Z"/><path class="cls-15" d="M733.08,717.54c.31-2.21-.94-3.79-2.18-5.37-.93-.86-2.29-1.35-2.42-2.88.11-.23.23-.47.34-.71a4.34,4.34,0,0,1,1.36-.72c7.06-.72,12.32-5.26,18.16-8.57l1.23-.77.58-.43c2.29-1.06,2.8-4.58,6-4.38a6.64,6.64,0,0,1-1.7,4.39A248.88,248.88,0,0,1,733.08,717.54Z"/><path class="cls-16" d="M592.55,754.67c-3.93,1.57-6.32,4.12-5.45,8.7-3.78.08-7.58.46-11.24-.89.94-1.2,2-1.36,2.64-.78-2.58-1.74-5.53-4.14-9.4-5-1-.2-2.11-.71-1.55-2.2,5-.25,9.81,1.79,14.9,1.13C585.8,755.25,589.12,754.33,592.55,754.67Z"/><path class="cls-17" d="M567.55,754.55c.23.27.46.76.7.76,4.84.16,8.18,3.06,11.76,6.32-1.39,1-2.89.47-4.15.85a46.28,46.28,0,0,1-16-3.47l-2.19-2.16a2.25,2.25,0,0,1,2.82-.68c2.6,1.67,2.56-.64,3.24-1.93,1.3-.08,2.61-.36,3.83.35Z"/><path class="cls-18" d="M686.27,730.76c1.18,1.46,2.87.88,4.36,1.1a33.15,33.15,0,0,1,6.31,2.92c1.19.83,2.55,1.62,1.32,3.4a16.24,16.24,0,0,1-7.61,1.15c.62-1.15.39-1.86-.83-2.59-4.68-2.77-9.33-5.5-15.11-5-1.61.14-3.26,0-4.89,0C675.21,729.86,680.79,731,686.27,730.76Z"/><path class="cls-19" d="M652.36,741.48c1.76,3.07,4.22,4.92,7.95,4.57-5.17,2.75-10.81,3.67-16.54,4.25-1-3.23,1.65-4.7,3.27-6.67C648.57,742.31,650.87,742.89,652.36,741.48Z"/><path class="cls-20" d="M647,743.63c-.09,2.71-2.62,4.23-3.27,6.67-1.54,1-2.45,2.76-4.29,3.36-.52-5.39-.57-5.45-5.61-5.53-1.43,0-2.86,0-4.29,0A131.5,131.5,0,0,1,647,743.63Z"/><path class="cls-21" d="M367.88,666.23c-1.86,2.62-2.49,6.11-6.18,7.43-1.93.69-1.18,3.08-1.38,4.78-.13-.13-.32-.23-.38-.38C356.67,668.7,357.35,667.68,367.88,666.23Z"/><path class="cls-22" d="M756.16,693.71c-2.09,1.55-3,4.35-5.58,5.38a15.25,15.25,0,0,1-3.64-6.08c.11-.86.91-1.07,1.45-1.51,3.31-.27,6.52-1.42,9.89-1.17A4.51,4.51,0,0,1,756.16,693.71Z"/><path class="cls-23" d="M458.54,743.72c1.91-.25,3.42,1.07,5.2,1.31a3.69,3.69,0,0,1,1.32.88h0c1.73,1.41,4.75,1.37,5,4.45a3.62,3.62,0,0,1-1.88,3.32A78.38,78.38,0,0,1,458.54,743.72Z"/><path class="cls-24" d="M482.45,762.45a10,10,0,0,1-6.59-3.15c-.4-.95-1.51-.76-2.14-1.33h0c-1.13-1.77-.42-3.19.86-4.51,2.89-.52,4.54,1.38,6.24,3.18C481.38,758.58,483,760.2,482.45,762.45Z"/><path class="cls-25" d="M474.83,753.66,473.72,758a8.4,8.4,0,0,1-4.39-3.13,2.63,2.63,0,0,0-1.12-1.21l0,.05c.42-1.16.85-2.32,1.27-3.49C472.72,749.06,473.89,751.18,474.83,753.66Z"/><path class="cls-26" d="M482.45,762.45a5.94,5.94,0,0,1-2.18-5.56c1.26-.77,2.43-.21,3.62.21a5,5,0,0,1,1.73,1.44c.69,2.27,3.84,3.2,3.37,6.11A14.27,14.27,0,0,1,482.45,762.45Z"/><path class="cls-27" d="M489,764.65c-1.6-1.76-3.69-3.15-4.31-5.66,1.88-1.29,3.32-.89,4.32,1.14.52,2.57,3.39,3.29,4.34,5.52C491.8,765.71,490.27,765.74,489,764.65Z"/><path class="cls-28" d="M698.26,738.18c-1.25-3.67-5.3-4-7.63-6.32,4.21.66,8.5,1.16,10.93,5.42A4.45,4.45,0,0,1,698.26,738.18Z"/><path class="cls-29" d="M545.62,356.93c-1.54-1.1-3-2.22-2.08-4.47a9.35,9.35,0,0,1,3.43,3.18Z"/><path class="cls-27" d="M493.31,765.62c1.88.09,3.92-.73,5.51,1C496.9,766.74,495,766.92,493.31,765.62Z"/><path class="cls-13" d="M625.27,761.11a2.28,2.28,0,0,1,2.47-.87A2.5,2.5,0,0,1,625.27,761.11Z"/><path class="cls-13" d="M628.54,760a2.18,2.18,0,0,1,2.19-1A2.18,2.18,0,0,1,628.54,760Z"/><path class="cls-25" d="M473.72,758c1,0,1.85.2,2.14,1.33A2.74,2.74,0,0,1,473.72,758Z"/><path class="cls-1" d="M368.21,688.5l.41.14s.07.43.06.42A.44.44,0,0,1,368.21,688.5Z"/><path class="cls-1" d="M367.21,687.15a.66.66,0,0,1,.61.82A.66.66,0,0,1,367.21,687.15Z"/><path class="cls-23" d="M468.21,753.64a1.49,1.49,0,0,1,1.12,1.21C469,754.44,468.58,754,468.21,753.64Z"/><path class="cls-1" d="M366.21,685.93a.81.81,0,0,1,.75.89A.74.74,0,0,1,366.21,685.93Z"/><path class="cls-20" d="M638.32,754.62a1.47,1.47,0,0,1,1.19-1A1.25,1.25,0,0,1,638.32,754.62Z"/><path class="cls-15" d="M732,718.68a1.34,1.34,0,0,1,1-1.12A1.23,1.23,0,0,1,732,718.68Z"/><path class="cls-2" d="M532.6,571.58c.09,17.55-2,34.86-5.1,52.11-1.59,8.67-2.82,17.43-4.85,26-2.4,10.17-10.72,14.63-20.64,11.37-5.59-1.83-7.16-3.94-7.55-9.86-.33-5.11,1.05-10,1.58-15,.36-3.39,1.12-6.73,1.7-10.1,2.91.32,2.3,2.71,2.5,4.47.31,2.82-.15,5.68.41,8.49.76,3.86,2,7.21,7,6.42.46,0,.92,0,1.38,0a3.12,3.12,0,0,0,2.35-1,16.21,16.21,0,0,0,1.41-2.71c6.84-13.37,7.92-28,9.42-42.56,1.18-11.47,1.53-23,2.77-34.51,1.1-9,1.81-18,3.38-26.88.4-2.26.27-4.75,2.32-6.47,2.15.57,1.29,2.34,1.3,3.57.07,10.49,0,21,.07,31.47C532.08,568.05,531.57,569.91,532.6,571.58Z"/><path class="cls-2" d="M587.1,531.25c5.63,18.7,13.34,36.7,18.61,55.51,4.15,14.79,10.35,29,13.3,44.11.24,1.23.59,2.45.79,3.69,1,6.2.34,7.51-5.92,9.18-10.84,2.9-20.09-.85-23.46-11.51-.76-2.41-1.49-4.83-2.24-7.25-.39-1.16.37-1.44,1.24-1.64,1.88.14,3.08,1.37,4.28,2.62a15.34,15.34,0,0,0,3.43,3.44c2.11,1.25,4.35,1.94,6.71.82s2.44-3.4,2.45-5.6c0-3.48-.91-6.81-1.58-10.18C600.6,594,594.5,574.1,589,554c-1.11-4-2.22-8-3.05-12.1a27.07,27.07,0,0,0-.74-4,12.24,12.24,0,0,1-.39-2.41,7.64,7.64,0,0,1,.41-3.25C585.6,531.54,586.1,530.93,587.1,531.25Z"/><path class="cls-30" d="M593.64,496.37v-1.08c-.39-.34-.68-.78-1.09-1.1v-1.08c-.39-.34-.68-.78-1.08-1.1,0-1.23-.65-2.2-1.1-3.26-.66-.58-.41-1.61-1.09-2.18-2.78-.49-1.52,1.05-1.09,2.18,1.94,9.53,5.36,18.71,6.67,28.42.64,4.76-1.27,7.65-5.16,10.09-1.41-2.11-2.74-4.21-2.59-6.91,3.87-4.58,4.09-9.24,1.3-14.63A34,34,0,0,1,584.67,495c1,4,1.66,9.5,2.45,14.91.3,2.1.69,4.33-1.11,6.1-1.68-1.46-1.22-4.21-3.26-5.45l-.69-.54a73.42,73.42,0,0,1-6.22-19.35c2.61,14.55,4.39,29.23,6.23,43.9a168,168,0,0,0,3.32,19.55c.48,1.9,1,3.83.22,5.78-2.49,2-4.14,4.32-3.73,7.77a4.22,4.22,0,0,1-1.32,3.93c-1.17-.9-1.13-2.2-1.07-3.46.33-7.46-1.93-14.58-2.78-21.88-.61-5.34-1.85-10.64-1.61-16.07a5.86,5.86,0,0,1-2.48-4.61c-1.93-16.33-3.21-32.73-4.56-49.11a13.24,13.24,0,0,1,.76-4.36c3.31-3,3.57,2.2,6,2.12,2.27-1.83-3-6.52,2.51-7.26a7.54,7.54,0,0,1,3.92,5.51c.72,4.79,2.92,7.71,8,7.8a6.56,6.56,0,0,1,1,1.15c.46.63.88,1.29,1.32,1.94,1.7,4.34,5.44,8,4.31,13.27A1.84,1.84,0,0,1,593.64,496.37Z"/><path class="cls-2" d="M472.67,550.87c0,.36,0,.72,0,1.08-1,.87-.09,2.39-1.08,3.28-1.83,5.87-4,11.65-5.39,17.63-2.47,10.9-4.31,21.94-6.63,32.87a62,62,0,0,1-8.11,20.59,11.58,11.58,0,0,1-6.05,5.17c-5.73,2-11.51,2.87-17.29.09-4-1.91-5.15-4-4.11-8.27a82.17,82.17,0,0,1,5.58-15.84c7.49-15.7,15.73-31,24.26-46.15,1.16-2.05,2.39-4.06,3.58-6.08,1.07-.28,1.5.39,1.82,1.23.41,2.69-1.15,4.82-2.16,7.06-3.16,7-5.49,14.35-8.29,21.49-3.08,8.87-7.05,17.28-12.93,24.69-3,3.76-3.56,8.13-3.12,12.74,2.17,3.51,4.76,4.07,8.28,1.77,2.71-1.77,3.71-4.8,5.45-7.3a84.5,84.5,0,0,0,13.32-31.78,182,182,0,0,1,8.4-31.54,17,17,0,0,1,1.94-4.48c.61-.83,1.33-2.07,2.52-1.18C473.63,548.67,473.29,549.88,472.67,550.87Z"/><path class="cls-31" d="M532.6,571.58c-1.64-1.43-1-3.36-1.05-5.1,0-9.59,0-19.19,0-28.79a13.21,13.21,0,0,0-.76-5.36c-.83,6.36-1.41,12.76-2.6,19-.86,4.54-.12,9.31-2.08,13.67-1.08-4.64-6.71-5.81-7.9-10.37.2-10.49,2.71-20.66,4.46-30.93,1.2-7.06,2.63-14.09,3.92-21.14,1.67-8.44,2.71-17,5-25.35a13.41,13.41,0,0,1,.23-1.67c.46-1.34.58-2.76.92-4.13a3.45,3.45,0,0,1,1.59-2.12c3.22-1.22,4.11.83,3.87,3.24-.78,8,1,15.84.38,23.78a67,67,0,0,1-2.16,19.88c-.47,1.92-.89,3.92-2.65,5.2-1.78,1.61-1.05,3.73-1.06,5.63C532.58,541.91,532.61,556.75,532.6,571.58Z"/><path class="cls-32" d="M565.16,707.66c2.85-3.46,6.7-2.15,10.08-1.67a56,56,0,0,1,10.9,3.08,19.79,19.79,0,0,1,12,11c1.34,3.11.69,4.64-2.55,5.76a29.92,29.92,0,0,1-3.71.63,7.14,7.14,0,0,0-5.09,3.58c-3.74,6.38-7.84,7.93-14.42,4.88-5.89-2.72-11.53-6.08-13.62-13,4.19-.16,5.35,4.36,8.64,5.58a12.71,12.71,0,0,0,2.58,1c.47.1.93.24,1.38.38,2.3,0,5.61,2.07,5.46-2.76a4.11,4.11,0,0,1,.15-1.44c.13-.47.29-.93.44-1.39.12-6.2-2.72-10.52-8.23-13.23C567.78,709.44,566.07,709.19,565.16,707.66Z"/><path class="cls-33" d="M447.61,584.65a228.06,228.06,0,0,1,9.45-24.34c.6-1.28,1.43-2.49,1.46-4,1.11-4.31,4.18-7.74,5.43-12h0c.66-.58.47-1.59,1.09-2.18h0c.83-1.4,1-3.13,2.18-4.37,3.9-9.08,8.15-18,10.58-27.69.25-1,.35-2.17,1.4-2.82,1.89-2.64,3.65-5.56,7.65-3.26-1.25,4.78-4.05,9.09-4.37,14.15-4.41,13.39-10.86,25.92-16.32,38.87-3.24,7.66-6.54,15.29-8.87,23.29-1.24,2.32-1,5.53-4,6.83C451.36,586.48,449.23,586.16,447.61,584.65Z"/><path class="cls-34" d="M486.85,504c-3.16-.34-5.26,1.81-7.65,3.26,0-.72,0-1.45,0-2.18.41-.32.67-.77,1.07-1.09,0-.36,0-.72,0-1.07.18-.19.36-.38.53-.58,4-.62,6.24-2.94,7.38-6.83.86-2.92,2.17-5.72,3.07-8.66,3.83-10,7.73-19.94,11.81-29.81,2.71-6.57,2.58-6.62,9.92-5.35-1.57,8.92-4.54,17.44-7.44,26-.35,1-.7,2.06-1,3.08-1.57,4.75-1.57,4.75,3,6.9-1.27,1.44-3,1.32-4.7,1.48-2.92-.25-4,1.94-5.2,4-1.61,2.81-2.82,5.84-4.43,8.64-.93,1.61-1.52,3.86-4.2,3.36Z"/><path class="cls-35" d="M482.47,706.72a9,9,0,0,1,1,.16c8.49,2.06,15.69,6.29,20.91,13.31,1.7,2.28,4.86,5.11,1,8.34h0c-11.56,2.22-20.85-1.52-28.08-10.69a20,20,0,0,1-1.25-1.76c-1.66-2.74-2.85-5.8-.95-8.61S479.91,706.17,482.47,706.72Z"/><path class="cls-36" d="M570.75,729.61l-1.08,0c-.57-.69-1.61-.42-2.2-1.06-2,0-3.06-1.57-4.36-2.73s-2.51-3-4.34-3.83c-.18-.31-.36-.61-.52-.93-4.17-8.1-3.07-10.6,5.86-13.23a6,6,0,0,1,1-.14c8.48,1.66,13,6.34,14.17,14.67a2,2,0,0,1-.94,1.82c-.35.37-.76.69-1.08,1.1h0C576.5,728.78,575.15,731.5,570.75,729.61Z"/><path class="cls-37" d="M569.66,475.67a165.71,165.71,0,0,0,2,19.76,31.85,31.85,0,0,1,.18,5.94c-.24,5.44.85,10.72,1.82,16,.77,4.25-.41,8.7,1.46,12.8-2.72,4.34-2,9.26-2.62,14.07-2.69-7-2.94-14.34-2.82-21.71-2.21-1.75-2.51-4.21-2.63-6.79a101.59,101.59,0,0,0-1.74-13.89c-1.38-7.4-2.38-14.86-3.6-22.29-.21-2.17.39-4.29.39-6.44,0-2.61,1.27-4,3.95-4s3.28,1.67,3.09,4A3.53,3.53,0,0,0,569.66,475.67Z"/><path class="cls-38" d="M495.56,439.72c2-3.91,4.15-7.75,8.23-10.47,1.47,3.77-2.42,6.15-1.69,9.36L489,468c-.76,7.06-4.88,13-6.85,19.6-.54,1.83-1.12,3.16.19,5.35,2,3.37-.27,6.81-2.06,9.92l0,0H477c-4.29,1-2.81-2.1-2.39-3.75.79-3.15,1.73-6.18.21-9.33C481.39,474.46,487.1,458.73,495,444,495.64,442.76,497.49,441.39,495.56,439.72Z"/><path class="cls-39" d="M563.13,754.67c.42,1.55,2.37,2.13,2.5,4.11-3,.47-5.06-2.56-8-1.93-7,.38-14-.74-20.91.81-1.6.35-3.48-.5-5.23-.8-4.22.84-8.55,2.36-11.9-2,4-1.68,7.94-3.51,12-5a24.08,24.08,0,0,1,18.45.41c1.2,1.34,3.1,0,4.36,1.13h0c1.25,1.25,3.1,0,4.4,1.07l0,0c.87,1.12,2.37.26,3.34,1.06v-.05a2,2,0,0,0,.81.72C563,754.32,563.06,754.5,563.13,754.67Z"/><path class="cls-40" d="M456.32,580.29a53.43,53.43,0,0,1,4.51-14.39c6.87-15.7,13.92-31.32,20.91-47,.14-.31.49-.52.74-.78.43,3.56-1.25,6.7-2.28,9.88-2.47,7.62-3.69,15.66-7.53,22.83-.05-.7-.1-1.4-.15-2.17-1.39-.16-1.46,1-1.66,1.63-3.67,11.22-7.89,22.29-9.27,34.13,0,.46-.59.86-.91,1.28A68.9,68.9,0,0,0,456.32,580.29Z"/><path class="cls-41" d="M637,700.09a6.11,6.11,0,0,1,.31-1c2.57-5,8.14-4.75,12.3-6.94,1.87-1,4.2.43,6,1.53,5,3,9.47,6.53,12.11,11.93.81,4.71-.37,6.1-4.63,5.3-1.92-.36-3.66-1.56-5.72-1.31-3.16-.17-4.33-2.94-6.23-4.76-.34-.32-.68-.66-1-1s-.78-.56-1.17-.84a12,12,0,0,0-8.09-2.6c-.45.07-.91.11-1.37.16a6.81,6.81,0,0,1-1.35.15A1.65,1.65,0,0,1,637,700.09Z"/><path class="cls-42" d="M519.63,754.86a38.24,38.24,0,0,0,11.9,2c-9.19,5-18.91,7.64-29.48,6.54-4.52-.47-8.67-2.28-13.05-3.27a7.56,7.56,0,0,0-4.32-1.14l-1.11-1.06c-1.17-2.44.37-3.68,2.31-3.64,6.26.15,12.55.41,18.57,2.47A38.16,38.16,0,0,0,519.63,754.86Z"/><path class="cls-43" d="M523.89,481.12c-.8,4.05-1.55,8.12-2.43,12.15a5.47,5.47,0,0,1-1.43,2.89c-4.88,4.15-4.4,9.94-4.82,15.42-.23,3.06.07,6.16-.08,9.23-.14,2.78-1,5.4-3.5,7-.93.58-2.31,1.5-3.5.51-.9-.76-.65-2-.47-3.09.69-4.08,1.48-8.13,2.2-12.21,1.18-6.72,3.17-13.31,3.2-20.21a2.48,2.48,0,0,1,1-1.84,2.11,2.11,0,0,1,.29,3.14c3.27-2.08,2.67-6.07,4.3-9C519.76,482.91,520.55,480.32,523.89,481.12Z"/><path class="cls-44" d="M508.62,574.85c1.48-5.44,1.89-11.18,4.37-16.36,4.11-2.82,4.75-2.45,5.93,3.44-2,12-1.66,24.09-2.93,36.1-1.71,2.07-2.79.32-2.8-.93,0-4.88-2.87-6.71-7.11-7.36-1.52-4.14.66-7.8,1.46-11.64,0-.35,0-.71,0-1.06C508.24,576.47,508,575.43,508.62,574.85Z"/><path class="cls-45" d="M642.67,538.88c4,3.44,5.34,8.5,7.41,13,4.2,9.22,8.78,18.23,13.56,27.16s9.42,18,13.63,27.18c2.84,6.22,6,12.34,8.06,18.92a11.67,11.67,0,0,1,.95,4.18c-1.67-1.29-2.19-3.3-3.06-5.06-9.05-18.38-18.3-36.67-27-55.24C651.6,559.06,646.35,549.31,642.67,538.88Z"/><path class="cls-46" d="M423.66,697c-2,3.27-5,2.53-7.62,1.51-5.23-2-9-5.81-11.73-10.64-1.41-2.49-2.09-4.9.06-7.46.61-.73.54-2,.78-3.07a1,1,0,0,1,1.35,0c3.72,8.82,6.38,10.39,14.06,8.27,3.62.88,3.93,4.1,4.86,6.89a2.88,2.88,0,0,1-.67,2.3v0C424,695.3,424.27,696.34,423.66,697Z"/><path class="cls-47" d="M489,505.09c2.25-1,2.63-3.35,3.66-5.21,1.76-3.17,3.38-6.41,5.15-9.58.9-1.63,2.06-3,4.26-2.64a3.25,3.25,0,0,1,.2,3.14c-2.05,4.44.19,6.06,4.16,6.66-2.78,6.25-5,12.81-9.5,18.2-.62-.49-1.12-.71-1.11-.91.16-3.8-1.22-6.52-5-7.73A3.2,3.2,0,0,1,489,505.09Z"/><path class="cls-48" d="M517.35,561.77c-.23-4.75-.26-4.77-4.36-3.28.26-5.64,2.6-10.8,3.84-16.22,3.24-14.17,6.41-28.36,9.25-42.62,2-.1,1.76.93,1.08,2.18-.39,8.84-2.42,17.45-3.79,26.15-1.42,9.06-3.49,18-3.84,27.25C517.78,557.07,521.8,560.82,517.35,561.77Z"/><path class="cls-49" d="M533.7,521.44c.16-4.17,1.75-8.05,2.42-12.15a95.14,95.14,0,0,0,.85-12.92c1.35-4.59,0-9.33.73-14,3.16-.37,2.82,2.25,2.82,3.85,0,5.26,1.77,10.48.15,15.75.35-1-.29-2.59,1.74-2.37,0,5.43-.07,10.85,0,16.27a31.14,31.14,0,0,1-1,7.46c-.37,1.75-.87,3.15-2.84,3.42-2.17.3-3.38-.94-4.1-2.78C534.15,523.18,534,522.3,533.7,521.44Z"/><path class="cls-50" d="M600.19,464.74c3.13,2.09,3.55,5.87,5.43,8.73a84.07,84.07,0,0,0,6.55,20.75c.94,2.11,1.73,4.3,2.66,6.41.8,1.79-.18,2.66-1.57,3.37a1.44,1.44,0,0,0,0,2.19c0,.72,0,1.45,0,2.17-.89,1-2.4.07-3.27,1.1v1.08a4.25,4.25,0,0,1-4.73.77c-2.49-2.32,1.58-2.71,1.29-4.17-1-4.73,2.69-9.56-1.25-14.45-3-3.69-4.56-8.55-6.68-12.94a5.78,5.78,0,0,1-.41-1.46c0-1.53.24-3.11,2.16-3,2.78.14,3.15,3,4.59,4.65.44.56.59-.72.17-.12-.11.16-.3.11-.43-.22C602.81,474.75,598.87,470.55,600.19,464.74Z"/><path class="cls-51" d="M580.56,571.58c0-2.71-.06-5.43,0-8.13.1-2.93,1.6-3.87,4.34-2.78l.61.52a25.7,25.7,0,0,1,1.87,3.61c1.33,6.65,4.45,13,3.22,20.07-6.66.65-6.06,6.55-7.79,10.77-1.91,0-1.91-.93-1.18-2.27C582.33,586.06,579.88,578.9,580.56,571.58Z"/><path class="cls-52" d="M604.54,510.55H610a174.91,174.91,0,0,1,6.44,17.84c.26.82,1.28,2.15-.42,2.69a2.29,2.29,0,0,1-2.79-1.11c-1-1.53-2-3-2.88-4.59-1.22-2.22-2.22-4.57-3.47-6.77-.51-.9-.89-3.63-2.61-.54-.53,1-1-.47-1.29-.94-3.42-6.77-6.55-13.68-9.33-20.75h2.18c2.52-.31,2.67,1.87,3.33,3.33A93.6,93.6,0,0,0,604.54,510.55Z"/><path class="cls-53" d="M651.38,703.46l5.47,5.43a1.79,1.79,0,0,1,.51,1.39c-.11,1-.31,2.06-.46,3.09a14.42,14.42,0,0,0,0,3.77c.73,5.73.72,5.73-5.57,4.9-8-2.23-12.9-7.89-15.95-15.22-.92-2.23-.9-5,1.69-6.73l1.27.08c.53,3.86.55,7.79,4.3,10.49,4.21,3,6.62,2.32,7.41-2.69C650.26,706.4,650,704.68,651.38,703.46Z"/><path class="cls-54" d="M424.71,692.55c-1.88-1.9-1.46-5.32-4.35-6.54a3.66,3.66,0,0,1-1-.83c-.46-.51-.92-1-1.42-1.49-3.73-2.49-6.54-6.63-11.74-6.41l-1,0c1.07-6.69,4.37-8.54,10-5.23,3.57,2.09,7.38,3.94,10.05,7.32.8,1,1.69,1.91,1.73,3.29C428.65,686.52,427.79,689.78,424.71,692.55Z"/><path class="cls-55" d="M554.41,470.22a103,103,0,0,1,2.19,15.24,4.37,4.37,0,0,1,0,4.38c-3-1.09-4.59-2.89-4.5-6.42.06-2.36-.47-5-3.54-6-1.33-.4-1.65-1.74-1.76-3.08-.09-1.18.39-2.54-1.1-3.66-2.57,2.27.44,6.1-2.17,8.22-1.78-1.68-1.34-3.91-1.47-6a25.76,25.76,0,0,1,1.54-9.45,3,3,0,0,1,1.08-1.27C550.76,461.4,551.87,466.68,554.41,470.22Z"/><path class="cls-56" d="M656.85,710v-1.09c1-.34,1.41-2.39,3-.89a7.43,7.43,0,0,0,2.31,1.32c3.94,1.6,5.08.82,5.58-3.74,3.24,4.95,3.07,8.71-1,12.36-4.38,3.89-9.1,7.22-15.44,4.1,1.66-.34,3.53.52,5.29-1.07-1.29-2.75-2.3-5.71-.81-8.8C656.46,711.61,656.18,710.56,656.85,710Z"/><path class="cls-57" d="M519.53,485.48a45.29,45.29,0,0,0-1.06,5.23,3.79,3.79,0,0,1-3.73,3.81c-1-1.07-.51-2.4-.66-3.6a14.89,14.89,0,0,1,.51-3.09c1.11-2.77-.18-3.52-2.66-3.42l4.33-12c3.09,2.83,3.09,3.08.21,8.91,4.36-7.39,5-15.9,7.1-24,.7-2.77.73-5.79,3-8a3.05,3.05,0,0,1,1.68-.52,3.54,3.54,0,0,1,2.85,1.94c.5,1.22.84,2.71.11,3.69-5.06,6.83-4.34,15.56-7.65,23C522.34,480.21,519.7,482.22,519.53,485.48Z"/><path class="cls-58" d="M566.4,501.82c1.68,3.94,1.93,8.16,2.1,12.33a31.91,31.91,0,0,0,1.16,8.38c-3.78-.52-5,2.92-7.76,5.14-1.11-4.43-2.13-8.49-2-12.78,1.64-3.59-.5-7.24.18-10.84C561.46,501.33,564.74,503.9,566.4,501.82Z"/><path class="cls-59" d="M505.39,728.53c2-3.78-.82-6.21-2.75-8.64a33.13,33.13,0,0,0-11-8.64c-2.73-1.4-5.68-2.38-8.09-4.37a25.76,25.76,0,0,1,20.21,5.63c3.3,2.59,6.06,5.61,6.06,10.26C509.77,725.87,508.68,728,505.39,728.53Z"/><path class="cls-60" d="M482.47,706.72c-1.09,0-2.18-.06-3.27,0-4,.26-5.91,2.87-3.75,6.14,4.84,7.34,10.39,13.79,20.39,14.24,3.11.14,6.21,1.71,9.52,1.41-2.63,1.05-5.17,2.44-7.9,3.08-5.72,1.33-10.76-.53-14.72-4.69a107.9,107.9,0,0,1-6.95-8.91,11.16,11.16,0,0,1-2.11-7.63c.21-4.9,1.56-5.92,6.46-4.81A3.49,3.49,0,0,1,482.47,706.72Z"/><path class="cls-48" d="M519.53,485.48c.12-1.25-.15-2.74.43-3.71,3.83-6.33,5-13.41,6.14-20.51a6.07,6.07,0,0,1,1.86-3.82c2.17-1.84,2.63-4.2,2.48-6.83,3.1-3,4.48.15,6.29,1.77-.05,6.11.49,12.32-3,17.85v2.17c-1,.87-.12,2.38-1.09,3.27h0c-1.16.31-1.47-.4-1.59-1.33-.54-4.54-1.51-9.06-1-13.71-.29-.7-1.42.26-.74,0,.39,5.54-2.08,10.26-4.29,15.06-1.22,1.24.08,3.1-1.09,4.36v1.09C521.56,481.69,520.74,483.78,519.53,485.48Z"/><path class="cls-61" d="M504.45,756.76c-6,.76-11.85-.66-17.74-1.28-2.3-.25-3,.5-3.14,2.45l-3.3-1-5.44-3.24c-1.92-.95-3-3.27-5.37-3.44-.88-2-3.61-2.15-4.38-4.29,2.54-.32,4.8.77,7.13,1.49,1.68.51,3.31,1.39,4.82-.32,2.46.41,3.88,2.83,6.32,3.28,5.64,2.26,11.58,3.26,17.53,4.27,1.21.2,2.54,0,3.25,1.37C504.24,756.26,504.35,756.51,504.45,756.76Z"/><path class="cls-62" d="M586,516c0-8.8-2.27-17.35-3.33-27.07,3.14,3.86,3.43,7.89,5.08,11.29,2,4,3.25,8.39,4.83,12.6a4.31,4.31,0,0,0,.22.49c.32.65.58,2,.24,1.93-3.73-.23-2.31,5.4-5.94,5.12C586.74,518.9,586.38,517.44,586,516Z"/><path class="cls-63" d="M474.85,489.84c2.28,1,3.07,2.61,2.23,5.06-.69,2-1.18,4-1.75,6.05-.42,1.5.58,1.8,1.7,2-5.34,1.13-7.78,5.12-9.81,9.68-1.13,2.55-2.16,5.23-4.22,7.59C462.1,516.94,466.72,505.35,474.85,489.84Z"/><path class="cls-64" d="M507.54,578.1c0,4-1.76,7.91-1.09,12,.05.28.09.55.13.83a15.42,15.42,0,0,1-.58,5.92c-2.34,12.88-5.42,25.68-4.64,38.94.09,1.61-.07,3.26-1.46,4.45-2-2.12-.7-4.73-1.08-7.09s.92-5-1.08-7.08C498.3,618,500,610,501.28,602c1-6.22,2.67-12.34,4.09-18.49C505.81,581.62,506.1,579.62,507.54,578.1Z"/><path class="cls-65" d="M542.41,499.64c-1.86,1.35-.58,3.69-1.82,5.36.41-6-1.55-11.81-1.47-17.77,0-1.72.58-3.64-1-5.05-2.31-4,.43-7.9.17-11.86.57-1.42.85-3.54,2.82-3.18,1.57.28,1.23,2.28,1.39,3.64.11.87.38,1.71.48,2.59-.31,7.67.67,15.36-.51,23C542.42,497.47,542.42,498.55,542.41,499.64Z"/><path class="cls-66" d="M506.45,497.46c-2.26,1.67-4.34-.14-7-.28a54.84,54.84,0,0,1,2.68-9.52h5.46a2.79,2.79,0,0,0,3.24,0C510.18,491.28,507.82,494.15,506.45,497.46Z"/><path class="cls-67" d="M581.66,593.37a2.33,2.33,0,0,0,1.07,2.2c3.45,6.81,3.55,14.54,5.88,21.66.68,2.09,2.27,4.25.69,6.64L588.18,625c-2.92-6-4.43-12.55-6-19s-2.52-13.08-3.7-19.64a8.13,8.13,0,0,1,.21-1.91C580.85,587.26,579.65,590.87,581.66,593.37Z"/><path class="cls-43" d="M525,475.67c.43-5.94,2.59-11.33,5-16.94.6.63,1.25,1,1.26,1.37.16,4.82.23,9.65.32,14.48-.36.5-.72.52-1.09,0-.06-.84.25-1.9-.49-2.44-1.38-1-1.63.56-2.22,1.22A8.25,8.25,0,0,1,525,475.67Z"/><path class="cls-68" d="M530.43,474.58h1.09l1.09,1.09q-2.37,12.68-4.75,25.36c-.06.3-.46.53-.7.8a2.25,2.25,0,0,0-1.08-2.18q1.62-8.73,3.26-17.44c1-.87.1-2.39,1.09-3.27Z"/><path class="cls-69" d="M504.13,756c-7.27-.6-14.59-1.06-20.78-5.64,6.35.48,12.51,2.06,18.75,3.23.55.9,2.62.1,2.27,2Z"/><path class="cls-70" d="M424.71,692.55c-.1-3.48,3.23-6.19,2.22-9.87,1.35,1.06,1.89,2.65,2.5,4.14,1.85,4.53.52,6.73-4.68,7.95C424.74,694,424.73,693.29,424.71,692.55Z"/><path class="cls-71" d="M561,502.91c-.57,4,1.23,8.16-1.09,12,.32-4.87-1-9.58-1.52-14.36-.28-2.84-.57-5.67-.66-8.52l2.17,1.09A10.27,10.27,0,0,1,561,502.91Z"/><path class="cls-72" d="M587.1,531.25,586,532.34c-1.4.16-2-.84-2.24-1.87a116.29,116.29,0,0,1-3.35-15.87c-.2-1.64-.32-3.79,2.32-4.06h0Z"/><path class="cls-73" d="M726.58,711.07c-3,.17-4,3.2-6.27,4.45-1.32-.29-2.84.4-4.32-1.24,3.61-2.07,6-5.68,10.4-6.47C727.57,708.83,727.45,709.93,726.58,711.07Z"/><path class="cls-49" d="M542.43,496.38q0-12,0-24a.66.66,0,0,1,1.09,0v6.54c0,4.31,0,8.62,0,12.93C543.47,493.43,543.93,495.15,542.43,496.38Z"/><path class="cls-74" d="M464,544.33c-.49,4.59-2.91,8.32-5.43,12l-1.1-1.08Z"/><path class="cls-75" d="M726.58,711.07c-.06-1.09-.12-2.17-.19-3.26a6.27,6.27,0,0,0-1-5.4c1.67-1.49,2.14,1,3.36,1,.73,1,.25,2,.24,3.07,0,.83-.09,1.65-.15,2.47l2.07,3.21Z"/><path class="cls-76" d="M504.37,755.61l-2.27-2c2.27.08,4.68-.52,6.83,1.62C507.36,756.12,505.82,755.6,504.37,755.61Z"/><path class="cls-52" d="M588.19,488.75a2.44,2.44,0,0,1-1.06-2.29c0-.8-.4-2.12.65-2.22,1.41-.14,1.33,1.32,1.5,2.33A2.25,2.25,0,0,0,588.19,488.75Z"/><path class="cls-71" d="M556.58,489.84c0-1.46,0-2.92,0-4.38,1.92,1.93.78,4.36,1.08,6.56A2.27,2.27,0,0,1,556.58,489.84Z"/><path class="cls-74" d="M467.22,537.78a6,6,0,0,1-2.18,4.37C464.93,540.28,465.24,538.62,467.22,537.78Z"/><path class="cls-17" d="M554.43,751.37c-1.53-.08-3.25.56-4.36-1.13C551.61,750.3,553.19,750.15,554.43,751.37Z"/><path class="cls-13" d="M617.59,751.3c-1.19,1.78-3,1.05-4.58,1.08C614.33,751.16,616,751.32,617.59,751.3Z"/><path class="cls-16" d="M567.56,754.59l-4.43.08h0a.72.72,0,0,1-.25-.75c.08-.25.17-.37.25-.37C564.67,753.63,566.31,753.3,567.56,754.59Z"/><path class="cls-43" d="M523.89,480c.16-1.51-.5-3.22,1.09-4.36C524.83,477.17,525.49,478.88,523.89,480Z"/><path class="cls-17" d="M558.82,752.44c-1.54-.05-3.24.57-4.4-1.07C556,751.35,557.58,751.13,558.82,752.44Z"/><path class="cls-17" d="M562.13,753.48c-1.25.1-2.55.33-3.34-1.06C560,752.39,561.27,752.32,562.13,753.48Z"/><path class="cls-52" d="M610,509.46c.78-1.29,2.07-1.06,3.27-1.1C612.48,509.65,611.19,509.41,610,509.46Z"/><path class="cls-43" d="M530.43,478.94c0,1.2.19,2.48-1.09,3.27C529.38,481,529.15,479.72,530.43,478.94Z"/><path class="cls-40" d="M471.58,555.23c0-1.2-.19-2.49,1.08-3.28C472.64,553.15,472.86,554.44,471.58,555.23Z"/><path class="cls-64" d="M508.62,574.85a2.27,2.27,0,0,1-1.08,2.19A2.3,2.3,0,0,1,508.62,574.85Z"/><path class="cls-74" d="M465,542.15a2.24,2.24,0,0,1-1.09,2.18A2.24,2.24,0,0,1,465,542.15Z"/><path class="cls-45" d="M686.28,629.33a2.26,2.26,0,0,1,1.09,2.18A2.26,2.26,0,0,1,686.28,629.33Z"/><path class="cls-52" d="M613.25,506.19c-1.1-.73-1.11-1.46,0-2.19C613.26,504.73,613.25,505.46,613.25,506.19Z"/><path class="cls-52" d="M589.28,486.57a2.24,2.24,0,0,1,1.09,2.18A2.27,2.27,0,0,1,589.28,486.57Z"/><path class="cls-12" d="M384.36,694.73c-.94,0-1.75-.24-2.06-1.27A2.18,2.18,0,0,1,384.36,694.73Z"/><path class="cls-70" d="M423.66,697a2.1,2.1,0,0,1,1.09-2.21A2.43,2.43,0,0,1,423.66,697Z"/><path class="cls-57" d="M510.82,486.57a2.17,2.17,0,0,1,1.1-2.16A2.26,2.26,0,0,1,510.82,486.57Z"/><path class="cls-52" d="M591.47,492l1.08,1.1Z"/><path class="cls-10" d="M491.21,445.17l1.08-1.11Z"/><path class="cls-52" d="M592.55,494.19l1.09,1.1Z"/><path class="cls-33" d="M480.29,504l-1.07,1.09Z"/><path class="cls-17" d="M563.13,753.55v1.12c-.34-.41-.68-.82-1-1.24A1.42,1.42,0,0,1,563.13,753.55Z"/><path class="cls-14" d="M655.8,738.51l-1,.9A1.07,1.07,0,0,1,655.8,738.51Z"/><path class="cls-14" d="M656.85,737.56l-.88.8A.83.83,0,0,1,656.85,737.56Z"/><path class="cls-14" d="M659,736.18a1.34,1.34,0,0,1-1.19.93A1.4,1.4,0,0,1,659,736.18Z"/><path class="cls-14" d="M660.11,735.33l-1,.79A1,1,0,0,1,660.11,735.33Z"/><path class="cls-77" d="M722.23,664.22c2.35,1.19,5,1.93,6.63,4.22a19.44,19.44,0,0,0,2.34,2,4.76,4.76,0,0,1,1,1.2c1.8,5.14,4.61,10.18,1.47,15.78-2.81,2.8-5.6,1.06-8.34-.1-2-.83-3.46-2.47-5.28-3.6a18.13,18.13,0,0,1-6.62-10.15C711.58,666.61,714.82,663.18,722.23,664.22Z"/><path class="cls-78" d="M600.19,464.74c1.07,5.92,4.81,11,5.91,17.26-2.8-.69-2.87-3-4-4.52-.52-.72-1-1.67-2.07-1.31-1.3.46-.87,1.76-1,2.77-4-1.08-3.71-4.62-4.36-7.63v-1.09c-.67-.58-.39-1.62-1.09-2.18-2.51-6.83-5-13.67-7.55-20.47-.57-1.51-1.31-2.93-1.17-4.6,3.88.44,3.94,4.49,6.15,6.5,1.43,1.29,2.38,3,3.68,4.37C597.45,457,598.44,461.08,600.19,464.74Z"/><path class="cls-79" d="M581.65,436.43c-4.55-6.21-6.5-13.66-9.51-20.58-1.33-3.06,1.58-5.32,3-7.77a71.66,71.66,0,0,1,8.7,18.53c.58,2.06,1.26,4.09,1.95,6.12C587.25,437,586.71,437.47,581.65,436.43Z"/><path class="cls-80" d="M581.65,436.43a1.23,1.23,0,0,1,1.4-.38c2.13.59,3.11.2,2.24-2.3-.8-2.3-1.81-4.59-1.45-7.14,3.06,4.69,4.13,10.2,6.28,15.28,1.66,3.92,4,7.63,4.63,11.95a11.79,11.79,0,0,1-6.15-5.65,19.82,19.82,0,0,0-3.68-5.22A12.32,12.32,0,0,1,581.65,436.43Z"/><path class="cls-79" d="M575.14,408.08c-3.23.12-5.9-1.5-6.86-4.21-2.51-7.08-5.84-13.81-8.42-20.84a1.58,1.58,0,0,1,2.22,0C566.61,391.27,571.68,399.25,575.14,408.08Z"/><path class="cls-81" d="M731,669.6c2.63.28,4,2.33,5.47,4.1a65.59,65.59,0,0,1,5.4,8.07c1.88,3.25,1.54,4.3-1.76,6.45a6.66,6.66,0,0,0-1.89,1.81c-3.39,4.67-4.28,4.79-9.5,1.49.86-2,3.16-2.26,4.4-3.79,5-5.29,5.09-6.35.93-12.52-1-1.5-2-3-3.08-4.46h0c-.34-.27-.44-.53-.32-.78S730.88,669.6,731,669.6Z"/><path class="cls-82" d="M727.73,706.69c-.1-1.22.61-2.2,1-3.27,4.31-5.2,9.42-9.24,16-11.25a9.75,9.75,0,0,1,3.65-.67l-1.07,1.06C742.38,699.47,736.17,704.63,727.73,706.69Z"/><path class="cls-83" d="M722.23,664.22c-1.6.08-3.19,0-4.73.73-3,1.5-4.53,4.27-3.57,7.5,1.25,4.18,3.37,7.87,7.2,10.3,1,3.14,5.85,3.52,5.47,7.64-8.93-3.84-13.8-10.62-14.17-20.31C712.18,663.48,715.57,661.58,722.23,664.22Z"/><path class="cls-84" d="M562.08,383l-2.22,0a14.14,14.14,0,0,0-1.09-1.1q-3.27-6.54-6.53-13.09a3.91,3.91,0,0,1,3.5,2.07C557.85,374.94,561.12,378.37,562.08,383Z"/><path class="cls-85" d="M726.6,690.39c-1.25-3-5.13-4-5.47-7.64,2.64,2,5.15,4.09,8.53,4.88a5,5,0,0,0,3.46-.54q.52.35.36.72c-.1.26-.21.38-.33.38-1,1.8-2.24,3.17-4.43,3.33Z"/><path class="cls-86" d="M731,669.6l0,1.15a3.25,3.25,0,0,1-2.11-2.31A2.74,2.74,0,0,1,731,669.6Z"/><path class="cls-87" d="M513,451.7a22.1,22.1,0,0,1-2.7,0c-3-.37-4.69,1.09-5.69,3.8q-4.77,12.87-9.64,25.71c-.82,2.18-1.78,4.31-2.68,6.46-1.71,2.34-3.93,4.26-5.43,6.77-.65,1.09-1.53,2.37-3,1.88s-.87-2.22-1-3.36c-.4-3.78,1.87-6.91,2.93-10.33,1.39-4.48,2.9-9,6.45-12.39,3.81,1.6,3.84,1.57,5.24-1.9q7.91-19.56,15.86-39.1a8.57,8.57,0,0,1,.71-1.46c.85-1.35,1.86-3.52,3.48-2.65,1.93,1.05.15,2.94-.53,4.23-3,5.79-4.82,12.07-7.4,18-1.13,2.61-.2,3.19,2.09,3.41C512.17,450.81,512.57,451.38,513,451.7Z"/><path class="cls-88" d="M556.58,427.72c-2.27-3.14-1.16-7-1.88-10.41-1.74-8.42-2.38-17.06-3.65-25.58-.44-3-1.34-5.84-1.39-9.24,2.87.51,3.2,2.64,3.62,4.37,1.22,5.06,2.23,10.17,3.31,15.27.59,2.81,1.12,5.63,1.76,8.43.43,1.86.49,3.72,3.18,4.36s2.2,3.66,2.44,5.53c1.63,12.82,3.24,25.64,5.66,38.34a14.4,14.4,0,0,1,0,2.71c-2.87-.2-2.23-2.94-3.26-4.48-2.29-7.42-2.94-15.18-4.61-22.72a17.19,17.19,0,0,0-.62-3.18,12.73,12.73,0,0,1-.35-1.51c-.47-2.88-1-5.76-1.09-7.29C560.33,424,558.61,425.92,556.58,427.72Z"/><path class="cls-89" d="M492.28,470.22c-2.54,6.55-5,13.12-7.66,19.65-.74,1.85-1.59,3.61-.31,6.21,1.87-3.87,4-7.15,8-8.43-.49,3.24-2.09,6.08-3.22,9.09-2.3,6.14-2.3,6.14-8.76,6.17a16.85,16.85,0,0,1,.82-5.3c.49-1.85,2.95-4.55-1.42-5.34-.6-.11-.44-1.28-.16-1.95,3.19-7.42,5.61-15.16,9.48-22.28C489.11,470.26,490.7,470.23,492.28,470.22Z"/><path class="cls-90" d="M594.73,471.31c2.62,1.88,1.74,5.75,4.36,7.63,2.5,5.56,4.6,11.28,6.72,17,.57,1.52,1.4,3.45-.07,4.52-1.9,1.38-3.36-.53-4.48-1.79a67.74,67.74,0,0,1-8.88-13.48,20.53,20.53,0,0,0-3.33-4.87c-2.1-2.23-4.62-4.28-3-7.92,1.26.6,2.51,1.32,3.8,0S593,471.34,594.73,471.31Z"/><path class="cls-91" d="M528.25,449.51h-1.09a1.46,1.46,0,0,1,0-2.18c.74-5.88,1.34-11.78,2.27-17.63.82-5.14,2-10.22,3.06-15.33a12,12,0,0,1,.67-2.6,1.41,1.41,0,0,1,1.74-.89,1.23,1.23,0,0,1,.87,1.21,7.69,7.69,0,0,1,.06,2.7c-1.21,4-.91,8.2-1.64,12.28-.69,3.81-1.52,7.8.6,11.54C534.82,445,533,448,528.25,449.51Z"/><path class="cls-92" d="M556.58,427.72c-.32-3,3.32-4.63,2.58-7.87a17.82,17.82,0,0,1,2.87,10c-.09,9.17,1.33,18.26,1.67,27.41a56.53,56.53,0,0,1-1.21,15.57,1,1,0,0,1-1.53.61c.42-7.75-1.74-15.23-2.48-22.86S556.46,435.42,556.58,427.72Z"/><path class="cls-87" d="M527.16,447.33v2.18c-2.47,7-3.46,14.34-5.11,21.52a30.88,30.88,0,0,1-5.34,11.66,6.65,6.65,0,0,1,0-4.75c.62-1.9,1.29-3.84-.5-5.54,2-7.63,5.39-14.83,6.63-22.66C523.31,447.12,525.86,448.35,527.16,447.33Z"/><path class="cls-93" d="M561,473.49H562c1.37,2-.32,4.54,1.1,6.55a163.67,163.67,0,0,1,3.27,21.79c-1.69,4-2.07,4.1-5.45,1.09a26.66,26.66,0,0,1-1.1-9.81c0-3.91.1-7.83,0-11.75A24.86,24.86,0,0,1,561,473.49Z"/><path class="cls-94" d="M528.25,449.51c4.11-2.47,4.83-7,6.54-10.9,5.1-1.57,6.41-.69,6.54,4.45,0,1.06,0,2.12,0,3.17,2.2,3.86,1.21,7.8.33,11.72-1.77,1.17-2.14-.33-2.44-1.45-.55-2-.59-4.17-1.23-6.18-1-3-.77.31-1.2.27a3,3,0,0,1-.92,1.1c-1.16,0-2.36.15-3.19-1-.68-.94-1.49-.28-2.25-.08Z"/><path class="cls-95" d="M567.49,457.14c1.76.93.41,3.42,2.17,4.36h0c.31.41.75.7,1.08,1.09H574c.33.4.76.69,1.09,1.07,1.23.76,1.55,2.13,2.18,3.28-.82.41-1.69.89-1.55,1.95a16.44,16.44,0,0,0,.83,3.11c.52,1.52,1.57,3.47-.34,4.26s-3.8-.34-4.46-2.64a3.63,3.63,0,0,0-2.1-2.33C566.67,466.93,565.07,462.34,567.49,457.14Z"/><path class="cls-95" d="M586,472.4c.36,2.86,2.24,5.06,3.28,7.63.33.24.44.49.32.73s-.22.36-.34.36c-.82-.25-1.52-.93-2.5-.63-3.62,1.13-4,1.07-5.09-2.21-1.24-3.88-2.26-7.81-4.39-11.33C581.88,466.08,583.64,469.73,586,472.4Z"/><path class="cls-96" d="M554.41,470.22c-1.89-2.15-4.64-3.44-6-6.19-.73-1.52-2.38-1.45-3.85-1.44a.64.64,0,0,1-.28-.73c.09-.24.18-.36.28-.36.39-1,.84-2,1.17-3a3.33,3.33,0,0,1,6.39.11C553.25,462.39,554.7,466.13,554.41,470.22Z"/><path class="cls-97" d="M544.6,461.5v1.09h0a3.55,3.55,0,0,1-4.59.22,3.35,3.35,0,0,1,.23-4.57c2.32-3.83.52-8,1.1-12,2.52-.13,4,1,2.95,3.49-1.27,3-.18,6.34-1.56,9.34C542.06,460.53,543.12,461.33,544.6,461.5Z"/><path class="cls-90" d="M593.64,468a2.24,2.24,0,0,1,1.09,2.18A2.24,2.24,0,0,1,593.64,468Z"/><path class="cls-79" d="M558.77,381.93c.36.37.72.74,1.09,1.1C559.49,382.67,559.13,382.3,558.77,381.93Z"/><path class="cls-88" d="M570.75,462.59l-1.08-1.09Z"/><path class="cls-88" d="M575.11,463.67,574,462.6Z"/><path class="cls-61" d="M465.06,745.91c-.44-.29-.88-.58-1.31-.88A1.43,1.43,0,0,1,465.06,745.91Z"/><path class="cls-98" d="M727.73,706.69c7.21-3.77,13.42-8.92,19.59-14.13,1.06,2.19,3.91,3.48,3.26,6.53h0c-.35.34-.71.67-1.08,1-2.4,1.52-4.81,3-7.2,4.56-3.8,2.43-7.77,4.32-12.43,4.21a.62.62,0,0,0-1.06.08l0,0A2.31,2.31,0,0,1,727.73,706.69Z"/><path class="cls-22" d="M749.5,700.09l1.08-1Z"/><path class="cls-75" d="M728.81,708.94c.31-.65.66-.7,1.06-.08A5.35,5.35,0,0,1,728.81,708.94Z"/><path class="cls-1" d="M517.35,561.77c1.19-.82,1.08-2.07,1.09-3.27s-.1-2.46,1.09-3.27a2.2,2.2,0,0,0,1.88,2.23c4.22.87,5.12,3.82,4.67,7.59,0,9.37-1.12,18.65-2,28-.53,5.36-.12,10.78-1.2,16.15-2.19,10.88-2.49,22.23-8.25,32.19-.45.77-1.05,1.44-1.57,2.16-1.64-1.53-1.43-3.5-1.29-5.45.82-3.43.66-7,1.33-10.44,1.2-6.83.28-13.7.45-20.55.07-2.82-.61-5.84,1.65-8.25,0-4.15.11-8.3,0-12.44a84.93,84.93,0,0,1,2-20.3A26.78,26.78,0,0,0,517.35,561.77Z"/><path class="cls-99" d="M499.9,640.24c0-1.63.09-3.26,0-4.89-.8-13.29,2.28-26.11,4.77-39,.05-.3.45-.53.69-.8,1.84,1.73,1.33,4,1.52,6.16.15,3.62-.92,7.09-1.27,10.65a10.32,10.32,0,0,1-.32,1.73,16.34,16.34,0,0,0-.71,5.16c-1.2,5.84-.89,11.77-.94,17.67-1.3,4.78,3.81,6.32,5,9.85-.54,0-1.09,0-1.63,0C501.42,646.67,501,646.26,499.9,640.24Z"/><path class="cls-100" d="M508.64,646.76c-3.65-1.8-6.76-4-6.54-8.71a27.58,27.58,0,0,1,10.9,0l0,5.45a2.36,2.36,0,0,1-1.15,2.19c-.57.65-1.59.38-2.16,1Z"/><path class="cls-99" d="M509.72,646.74a2.25,2.25,0,0,1,2.16-1A2.15,2.15,0,0,1,509.72,646.74Z"/><path class="cls-1" d="M590.36,584.66,586,564c-1-.89,0-2.41-1.08-3.28h0c0-4.85-2.14-9.31-2.71-14.07-.48-4-1.1-8.05-1.65-12.08,2.2-1.59,4-1.25,5.44,1.09,0,.72,0,1.45,0,2.17,1,.89,0,2.41,1.08,3.28,3.87,16.36,9.14,32.33,13.38,48.58,2.64,10.12,4.76,20.38,7,30.6a27.54,27.54,0,0,1,.33,6.49c-.08,4-2.66,6.23-6.66,5.81s-7.18-2.35-8.57-6.45c4.34-1.64,5.08-4.44,3.71-8.83-2.8-9-4.15-18.26-6.13-27.42C589.76,588.12,589.05,586.33,590.36,584.66Z"/><path class="cls-78" d="M590.36,584.66c3.18,12.15,4.88,24.63,8.4,36.71,1.06,3.62.23,4.46-3.51,4.7-.9,0-1.8,0-2.7,0l-3.25-2.22c-2.85-7.61-4.49-15.54-6.19-23.45a35.38,35.38,0,0,1-.38-4.85c0-2,0-3.92,0-5.88.13-4.41.55-4.82,4.93-5C588.57,584.62,589.47,584.66,590.36,584.66Z"/><path class="cls-101" d="M586,535.61a8.9,8.9,0,0,0-5.44-1.09c-1-7.09-2.18-14.16-2.88-21.28-.79-8.13-2.93-16.15-2.17-24.48,2.73,7.18,5.83,14.19,7.22,21.78a3.06,3.06,0,0,0-1,3.38c1.38,6.15,2,12.48,4.31,18.42Z"/><path class="cls-101" d="M587.1,541.06c-1.28-.79-1.05-2.08-1.08-3.28C587.29,538.57,587.07,539.86,587.1,541.06Z"/><path class="cls-78" d="M589.27,481.12c0-.36,0-.73,0-1.09,4.51,4.25,7,10,10.62,14.84a18,18,0,0,0,6,5.75c-2.5-7.8-5.3-14.55-6.8-21.68,4.77,7.07,7.72,15.09,11.82,22.46-1,1.36-1.57.11-2.24-.12-.83-.27-1.46-.11-1.53.81a5.21,5.21,0,0,0,.42,1.55c1.27,4.88,1.27,4.88-3,6.91-1.13,1-1.62,0-2-.75Q600.19,505,598,500c-.58-1.32-.91-2.75-2.17-3.65l-5.45-13.07c-.36-.36-.69-.77-1.08-1.1C589.28,481.84,589.28,481.48,589.27,481.12Z"/><path class="cls-102" d="M567.49,457.14c-.08,4.84,1.28,9.47,2.18,14.16v4.37c-1.2-.83-1-2.14-1.15-3.35-.18-1.94-1.53-2.1-3-2a2.11,2.11,0,0,0-2.28,2.33c0,2.47,0,4.95,0,7.42-2-1.91-.76-4.36-1.1-6.55,0-7.07.62-14.22-.21-21.19a172.07,172.07,0,0,1-.85-17.84c0-1.57-.46-3.31,1.06-4.55V431c.66.57.38,1.61,1.08,2.17Q565.31,445.15,567.49,457.14Z"/><path class="cls-95" d="M589.29,482.2l1.08,1.1Z"/><path class="cls-103" d="M456.32,580.29c4.14,1.25,4.14,1.25,4.36,5.45a67.13,67.13,0,0,1-10.68,28c-1.71,2.53-3,5.32-4.59,7.95-2.45,4.13-6.33,6.14-10.34,5.38-2.33-.44-4.11-1.45-3.8-4.27,4.82-1.09,6.52-4.54,8.74-8.78,4.66-8.93,8.84-18,13-27.18C455.06,585.11,454.31,582,456.32,580.29Z"/><path class="cls-95" d="M453.05,586.83c-1.31,8.33-4.82,15.78-9.34,22.79-1.87,2.89-3.66,5.7-3.88,9.33-.16,2.72-1.85,4.17-4.77,3.87-1.25-.12-2.52,0-3.79,0-.83-5.92.94-11.08,4.59-15.68,4.41-5.58,8-11.59,9.9-18.53a24.16,24.16,0,0,1,1.85-3.93C449.52,585.13,452.35,583.34,453.05,586.83Z"/><path class="cls-68" d="M535.88,451.69V450.6c3.34-1.09,3,1.62,3.16,3.33.25,3.22,0,6.48,1.11,9.61.45,2.34-.48,4.48-1,6.69.6,4.07-1.49,7.9-1.08,11.95,0,3.41,0,6.82,0,10.23,0,1.4.28,2.91-1.08,4-.35-6.05.83-12.18-1-18.18-.55-1.81.53-3.49.91-5.23.64-2.91-.69-3.49-3.19-2.73Q534.79,461,535.88,451.69Z"/><path class="cls-68" d="M532.61,475.67c0-1.2-.19-2.49,1.09-3.27C533.66,473.6,533.89,474.88,532.61,475.67Z"/><path class="cls-104" d="M570.75,729.61c2.06,0,4.26.31,4.74-2.66.13-.85,1-1.34,1.83-1.69,2.32,3.94,1.73,5.17-2.68,5.41C573.26,730.75,571.76,731,570.75,729.61Z"/><path class="cls-104" d="M567.47,728.53a2.24,2.24,0,0,1,2.2,1.06A2.24,2.24,0,0,1,567.47,728.53Z"/><path class="cls-104" d="M577.31,725.26l1.08-1.1Z"/><path class="cls-105" d="M651.38,703.46c0,2,.15,3.95,0,5.9-.33,4.33-3.35,6.25-7,4.08-5.77-3.42-9.28-7.27-6.08-13.27l0,0a9.24,9.24,0,0,0,1.11-1.06,13.37,13.37,0,0,1,10.87,3.27c.35.38.72.74,1.09,1.1Z"/><path class="cls-53" d="M639.43,699.09l-1.11,1.07Z"/><path class="cls-53" d="M651.39,703.46l-1.09-1.1Z"/><path class="cls-10" d="M504.28,613c-.51-3.72,1.58-7.18,1.09-10.9,1.5-3.89-.37-8.09,1.08-12h0a14.84,14.84,0,0,1,3-1c3.87-.45,4.45.17,4.66,4.24.11,1.86-.69,3.93,1.07,5.49,0,8.12,0,16.24,0,24.36,0,1.74.56,3.66-1,5.09-1.82-1.73-1.38-4-1.44-6.14C512.44,613.62,512.46,613.62,504.28,613Z"/><path class="cls-36" d="M406.16,677.28c.21-1.61.94-2.24,2.55-1.44a29.51,29.51,0,0,1,10.56,8c.39.34.69.77,1.06,1.12,0,.35,0,.71,0,1.06-1.22,2.53-3.43,2.46-5.61,2C408.63,686.51,406.65,684,406.16,677.28Z"/><path class="cls-30" d="M584.93,560.67c1.27.79,1.05,2.08,1.08,3.28C584.73,563.16,585,561.87,584.93,560.67Z"/><path class="cls-41" d="M656.85,710a2.27,2.27,0,0,1-1.08,2.19A2.23,2.23,0,0,1,656.85,710Z"/><path class="cls-46" d="M420.33,685l-1.06-1.12Z"/><path class="cls-106" d="M539.16,470.23c0-2.19,0-4.37,0-6.55.41-.32.43-1,1.09-1.09h4.36c.29,3.35-1.64,6.44-1.09,9.81h-1.09c-1.7-1.1-.69-3-1.35-4.45C539.81,468.19,540.3,469.91,539.16,470.23Z"/><path class="cls-44" d="M506.45,590.1c-.55,4,1.22,8.17-1.08,12,0-2.18,0-4.37,0-6.55C505.63,593.71,504.67,591.63,506.45,590.1Z"/><path class="cls-86" d="M733.15,688.19l0-1.1c1.74-3.88.08-7.56-.71-11.27-.36-1.72-.95-3.38-1.44-5.07a16.37,16.37,0,0,1,5.52,5.64C740.07,682.51,739.42,684.79,733.15,688.19Z"/><path class="cls-92" d="M563.12,433.16A2.24,2.24,0,0,1,562,431,2.24,2.24,0,0,1,563.12,433.16Z"/><path class="cls-48" d="M540.24,462.59l-1.09,1.09c-.44-3.51-1.49-6.95-1.13-10.56a2.12,2.12,0,0,0-2.14-2.52,6.35,6.35,0,0,1,0-1.07c.27-1.45-.79-3.82,1.49-4s1.48,2.27,1.8,3.67a28.57,28.57,0,0,1,1.06,9Z"/><path class="cls-107" d="M504.28,613c1.18-.43,2.33-1,3.54-1.28,4-1.08,6.11.46,6.24,4.69.11,4,0,7.91,0,11.87-.24,3.28.67,6.68-1.1,9.79a12.72,12.72,0,0,1-10.9,0c0-6.55-.49-13.14,1.1-19.61,1.2-1.25-.09-3.11,1.07-4.37C504.27,613.71,504.27,613.35,504.28,613Z"/><path class="cls-10" d="M504.27,614.07c-.14,1.51.51,3.21-1.07,4.37C503.33,616.93,502.7,615.23,504.27,614.07Z"/></g></svg>