<svg xmlns="http://www.w3.org/2000/svg" width="131.293" height="132.293" viewBox="0 0 131.293 132.293">
  <g id="Group_2066" data-name="Group 2066" transform="translate(17.146 17.147)">
    <rect id="Rectangle_206" data-name="Rectangle 206" width="97" height="98" rx="39" transform="translate(0 0)" fill="#efefef"/>
    <rect id="Rectangle_201" data-name="Rectangle 201" width="112" height="103" rx="39" transform="translate(1 1)" fill="#fff"/>
    <g id="orange-juice" transform="translate(27.666 14.742)">
      <ellipse id="Ellipse_171" data-name="Ellipse 171" cx="27.651" cy="27.651" rx="27.651" ry="27.651" transform="translate(0 13.385)" fill="#fe9738"/>
      <path id="Path_3656" data-name="Path 3656" d="M229.057,128.1a27.811,27.811,0,0,1-36.24,26.481,27.8,27.8,0,0,0,14.231-53.669A27.8,27.8,0,0,1,229.057,128.1Z" transform="translate(-173.372 -87.415)" fill="#fe860a"/>
      <path id="Path_3657" data-name="Path 3657" d="M269.408,46.385a11.254,11.254,0,0,0,2.986-2.348,9.311,9.311,0,0,0,2.441-5.243.553.553,0,0,0-.272-.539,9.291,9.291,0,0,0-5.592-1.146,9.719,9.719,0,0,0-4.534,1.522,10.3,10.3,0,0,0-4.352,6.164c-.081.38-.4,1.362.128,1.649a8.814,8.814,0,0,0,1.524.652A10.157,10.157,0,0,0,269.408,46.385Z" transform="translate(-231.497 -32.104)" fill="#00c27a"/>
      <path id="Path_3658" data-name="Path 3658" d="M274.905,41.513a9.307,9.307,0,0,1-2.442,5.242,11.217,11.217,0,0,1-2.986,2.348,10.157,10.157,0,0,1-7.671.713,8.87,8.87,0,0,1-1.524-.652.549.549,0,0,1-.285-.527c.014-.171.028-.348.033-.389,0-.019,0-.037.008-.056a10.168,10.168,0,0,0,7.436-.784,11.239,11.239,0,0,0,2.986-2.347,9.369,9.369,0,0,0,2.391-4.862,8.615,8.615,0,0,1,1.781.776A.557.557,0,0,1,274.905,41.513Z" transform="translate(-231.567 -34.822)" fill="#08b865"/>
      <path id="Path_3659" data-name="Path 3659" d="M233.852,15.742a67.093,67.093,0,0,1-.39-13.127A2.921,2.921,0,0,1,237.227.135l.075.023a2.916,2.916,0,0,1,2.01,3.3,101.345,101.345,0,0,0-1.076,11.989,2.2,2.2,0,0,1-4.384.3Z" transform="translate(-208.425 -0.002)" fill="#d77f4a"/>
      <path id="Path_3660" data-name="Path 3660" d="M248.335,3.452a101.446,101.446,0,0,0-1.076,11.989,2.2,2.2,0,0,1-3.563,1.717,2.209,2.209,0,0,0,.846-1.717,101.446,101.446,0,0,1,1.076-11.989A2.916,2.916,0,0,0,244.046.331a2.879,2.879,0,0,1,2.2-.2l.076.023a2.915,2.915,0,0,1,2.01,3.3Z" transform="translate(-217.447 0)" fill="#c86d36"/>
      <g id="Group_2060" data-name="Group 2060" transform="translate(23.228 19.292)">
        <path id="Path_3661" data-name="Path 3661" d="M225.431,147.568a6.115,6.115,0,0,1-3.963-1.4,1.032,1.032,0,0,1,1.337-1.571,4.236,4.236,0,0,0,5.352-.075,1.032,1.032,0,0,1,1.381,1.533,6.141,6.141,0,0,1-4.107,1.518Z" transform="translate(-221.105 -144.252)" fill="#e57917"/>
      </g>
    </g>
  </g>
</svg>
