<svg xmlns="http://www.w3.org/2000/svg" width="137.415" height="113.329" viewBox="0 0 137.415 113.329">
  <path id="Icon_awesome-gifts" data-name="Icon awesome-gifts" d="M51.659,42.964A23.525,23.525,0,0,1,61.107,25.3a6.8,6.8,0,0,0-6.141-4.05H48.654l6.592-4.869a3.589,3.589,0,0,0,.794-4.936l-2-2.877a3.349,3.349,0,0,0-4.788-.819l-6.871,5.069,2.469-6.773a3.572,3.572,0,0,0-2.018-4.56L39.614.247a3.4,3.4,0,0,0-4.423,2.081L30.918,14.058,26.646,2.3A3.4,3.4,0,0,0,22.223.224L19,1.464a3.551,3.551,0,0,0-2,4.56L19.474,12.8,12.582,7.75a3.368,3.368,0,0,0-4.788.819l-2,2.877a3.61,3.61,0,0,0,.794,4.936l6.592,4.869H6.871A6.972,6.972,0,0,0,0,28.334v77.91a6.972,6.972,0,0,0,6.871,7.083H43.135a14.393,14.393,0,0,1-1.911-7.083V56.665A14.087,14.087,0,0,1,51.659,42.964ZM48.1,106.244a6.972,6.972,0,0,0,6.871,7.083H89.32V85H48.1Zm48.1,7.083h34.354a6.972,6.972,0,0,0,6.871-7.083V85H96.191Zm34.354-63.745h-4.38a16.659,16.659,0,0,0,.945-5.268c0-7.857-5.8-15.98-15.481-15.98-10.328,0-16.3,10.558-18.873,16.667-2.6-6.109-8.567-16.667-18.873-16.667-9.683,0-15.481,8.123-15.481,15.98a16.078,16.078,0,0,0,.945,5.268h-4.38A6.972,6.972,0,0,0,48.1,56.665V77.913H89.32V49.582H92.6l.15-.044.15.044h3.285V77.913h41.225V56.665A6.972,6.972,0,0,0,130.544,49.582Zm-58.4,0A8.061,8.061,0,0,1,70.6,48.52a5.511,5.511,0,0,1-1.889-4.205,5.131,5.131,0,0,1,5.175-5.356c4.015,0,7.644,6.065,9.555,10.624Zm42.77-1.062a8.061,8.061,0,0,1-1.546,1.062H102.074c1.889-4.493,5.54-10.624,9.555-10.624a5.131,5.131,0,0,1,5.175,5.356A5.511,5.511,0,0,1,114.913,48.52Z" transform="translate(0 0.001)" fill="#f3797a"/>
</svg>
