<svg xmlns="http://www.w3.org/2000/svg" xmlns:xlink="http://www.w3.org/1999/xlink" width="139.293" height="138.293" viewBox="0 0 139.293 138.293">
  <defs>
    <clipPath id="clip-path">
      <rect width="139.293" height="138.293" fill="none"/>
    </clipPath>
  </defs>
  <g id="Repeat_Grid_2" data-name="Repeat Grid 2" clip-path="url(#clip-path)">
    <g id="Group_2068" data-name="Group 2068" transform="translate(17.364 17.146)">
      <rect id="Rectangle_199" data-name="Rectangle 199" width="106" height="104" rx="39" transform="translate(1.782 0)" fill="#fff"/>
      <g id="blueberry" transform="translate(18.602 11.957)">
        <path id="Path_3607" data-name="Path 3607" d="M266.5,130.4a13.286,13.286,0,0,0,14.921-11.257l.994-6.842a.893.893,0,0,0-.755-1.012l-6.083-.884a13.34,13.34,0,0,0-2.733-.115l-11.116,1.011L248,123.709l12.649,4.753Z" transform="translate(-214.186 -92.311)" fill="#80d261"/>
        <path id="Path_3608" data-name="Path 3608" d="M303.656,21.094h.709A13.287,13.287,0,0,0,317.652,7.807V.893A.893.893,0,0,0,316.76,0h-6.147a13.287,13.287,0,0,0-13.287,13.287v3.6l-.293,4.622Z" transform="translate(-256.044 0)" fill="#97da7b"/>
        <path id="Path_3609" data-name="Path 3609" d="M299.5,17.268l-.01.011-2.35,2.494-.11,1.737,1.582-.1,2.47-2.622L317.652,1.681V.893A.893.893,0,0,0,316.76,0h-.527Z" transform="translate(-256.044 0)" fill="#80d261"/>
        <g id="Group_2056" data-name="Group 2056" transform="translate(0 15.992)">
          <ellipse id="Ellipse_126" data-name="Ellipse 126" cx="15.045" cy="15.045" rx="15.045" ry="15.045" transform="translate(32.993 32.09)" fill="#6c7fd8"/>
          <path id="Path_3610" data-name="Path 3610" d="M262.55,288.588a15.069,15.069,0,0,0-13.579,1.7v2.278q-.318-.9-.709-1.767a15.044,15.044,0,0,0-2.2,21.812,21.759,21.759,0,0,0,4.143-12.795V299.8a1.412,1.412,0,0,1,.936-1.341A20.578,20.578,0,0,0,262.55,288.588Z" transform="translate(-209.379 -255.6)" fill="#4f66d0"/>
          <path id="Path_3611" data-name="Path 3611" d="M344.226,117.832a.893.893,0,0,0-.755-1.012l-.525-.076-.1.074-.016.012-14.918,11.51-7.507,4.876,2.059.774.515.171,6.166-4c.025-.016.049-.033.073-.051l14.9-11.492Z" transform="translate(-275.998 -115.659)" fill="#68ca44"/>
          <ellipse id="Ellipse_127" data-name="Ellipse 127" cx="17.542" cy="17.542" rx="17.542" ry="17.542" transform="translate(17.474)" fill="#6c7fd8"/>
          <path id="Path_3612" data-name="Path 3612" d="M144.59,126.868a17.551,17.551,0,0,1,13.388-17.047,17.543,17.543,0,1,0,0,34.093A17.549,17.549,0,0,1,144.59,126.868Z" transform="translate(-118.804 -109.326)" fill="#4f66d0"/>
          <path id="Path_3613" data-name="Path 3613" d="M153.82,239.76a17.521,17.521,0,0,0,5.446-.863,21.913,21.913,0,0,0-21.511-17.884c-.484,0-.963.018-1.439.049-.025.383-.039.768-.039,1.157A17.542,17.542,0,0,0,153.82,239.76Z" transform="translate(-118.804 -202.123)" fill="#4f66d0"/>
          <ellipse id="Ellipse_128" data-name="Ellipse 128" cx="18.952" cy="18.952" rx="18.952" ry="18.952" transform="translate(0 25.263)" fill="#6c7fd8"/>
          <g id="Group_2055" data-name="Group 2055" transform="translate(0 16.822)">
            <path id="Path_3614" data-name="Path 3614" d="M26.432,259.964a18.961,18.961,0,0,1,14.147-18.337,18.952,18.952,0,1,0,0,36.673A18.959,18.959,0,0,1,26.432,259.964Z" transform="translate(-16.819 -232.571)" fill="#4f66d0"/>
            <path id="Path_3615" data-name="Path 3615" d="M102.536,342.466l.9-.676a1.713,1.713,0,0,1,2.3.226l1.067,1.189a1.708,1.708,0,0,0,.467.366l.566.3a1.713,1.713,0,0,1,.416,2.709l-.269.275a1.713,1.713,0,0,0-.468.932l-.115.73a1.713,1.713,0,0,1-2.578,1.2l-.1-.062a1.714,1.714,0,0,0-1.205-.217l-.963.183a1.713,1.713,0,0,1-2.025-1.838l.065-.711a1.713,1.713,0,0,0-.348-1.2l-.1-.13a1.713,1.713,0,0,1,.825-2.672l1.07-.35A1.725,1.725,0,0,0,102.536,342.466Z" transform="translate(-87.654 -318.315)" fill="#4f66d0"/>
            <path id="Path_3616" data-name="Path 3616" d="M319.55,371.384l.715-.536a1.359,1.359,0,0,1,1.827.18l.847.944a1.357,1.357,0,0,0,.371.291l.449.24a1.359,1.359,0,0,1,.33,2.149l-.213.218a1.36,1.36,0,0,0-.372.74l-.091.579a1.359,1.359,0,0,1-2.046.952l-.081-.049a1.36,1.36,0,0,0-.956-.172l-.764.145a1.359,1.359,0,0,1-1.607-1.458l.051-.564a1.359,1.359,0,0,0-.276-.952l-.079-.1a1.359,1.359,0,0,1,.654-2.12l.849-.278A1.348,1.348,0,0,0,319.55,371.384Z" transform="translate(-273.408 -343.183)" fill="#4f66d0"/>
            <path id="Path_3617" data-name="Path 3617" d="M219.1,184.109l.711-.533a1.351,1.351,0,0,1,1.816.178l.842.938a1.352,1.352,0,0,0,.368.289l.447.239a1.351,1.351,0,0,1,.328,2.136l-.212.217a1.351,1.351,0,0,0-.369.735l-.09.576a1.351,1.351,0,0,1-2.034.946l-.08-.049a1.351,1.351,0,0,0-.951-.171l-.76.144a1.351,1.351,0,0,1-1.6-1.45l.051-.561a1.351,1.351,0,0,0-.275-.946l-.079-.1a1.351,1.351,0,0,1,.651-2.108l.844-.276A1.349,1.349,0,0,0,219.1,184.109Z" transform="translate(-187.665 -183.306)" fill="#4f66d0"/>
          </g>
        </g>
      </g>
    </g>
  </g>
</svg>
