<svg xmlns="http://www.w3.org/2000/svg" xmlns:xlink="http://www.w3.org/1999/xlink" width="624" height="680" viewBox="0 0 624 680">
  <defs>
    <filter id="Rectangle_114" x="0" y="66" width="624" height="614" filterUnits="userSpaceOnUse">
      <feOffset dx="-3" dy="3" input="SourceAlpha"/>
      <feGaussianBlur stdDeviation="3" result="blur"/>
      <feFlood flood-color="#eeaf85"/>
      <feComposite operator="in" in2="blur"/>
      <feComposite in="SourceGraphic"/>
    </filter>
  </defs>
  <g id="Group_2042" data-name="Group 2042" transform="translate(-109 -145)">
    <g id="Polygon_2" data-name="Polygon 2" transform="translate(226 147)" fill="none">
      <path d="M187.5,0,375,78H0Z" stroke="none"/>
      <path d="M 187.5 1.624626159667969 L 7.511138916015625 76.5 L 367.4888610839844 76.5 L 187.5 1.624626159667969 M 187.5 0 L 375 78 L 0 78 L 187.5 0 Z" stroke="none" fill="#6c6c6d"/>
    </g>
    <g transform="matrix(1, 0, 0, 1, 109, 145)" filter="url(#Rectangle_114)">
      <rect id="Rectangle_114-2" data-name="Rectangle 114" width="606" height="596" transform="translate(12 72)" fill="#faf9f4"/>
    </g>
    <g id="Group_2000" data-name="Group 2000" transform="translate(172.566 203.99)">
      <ellipse id="Ellipse_98" data-name="Ellipse 98" cx="4" cy="3.5" rx="4" ry="3.5" transform="translate(6.433 28.01)" fill="#717172"/>
      <path id="Path_3516" data-name="Path 3516" d="M9362.748-3591.433s8.915,5.548,10.006-14.286-10.006-17.3-10.006-17.3-10.424,1.6-8.517,12.943" transform="translate(-9353.998 3623.12)" fill="none" stroke="#6c6c6d" stroke-width="2"/>
    </g>
    <g id="Group_1999" data-name="Group 1999" transform="translate(648.075 203.99)">
      <ellipse id="Ellipse_99" data-name="Ellipse 99" cx="4" cy="3.5" rx="4" ry="3.5" transform="translate(6.925 28.01)" fill="#717172"/>
      <path id="Path_3517" data-name="Path 3517" d="M9362.748-3591.433s8.915,5.548,10.006-14.286-10.006-17.3-10.006-17.3-10.424,1.6-8.517,12.943" transform="translate(-9353.998 3623.12)" fill="none" stroke="#6c6c6d" stroke-width="2"/>
    </g>
    <circle id="Ellipse_100" data-name="Ellipse 100" cx="2" cy="2" r="2" transform="translate(412 145)" fill="#717172"/>
  </g>
</svg>
