<svg xmlns="http://www.w3.org/2000/svg" width="403.002" height="332.729" viewBox="0 0 403.002 332.729">
  <path id="Intersection_6" data-name="Intersection 6" d="M-12544.58,6831.03c-38.714-7.034-45.023-62.671-88.134-82.341-42.83-19.534-70.877,33.576-136.029,37.052-40.572,2.165-75.779-14.008-102.2-31.53V6550a51,51,0,0,1,50.439-51h305.153a51.01,51.01,0,0,1,45.9,29.925,41,41,0,0,1,1.514,11.072v147.657c0,.343,0,.685-.014,1.024v100.085c-18.241,20.949-43.059,42.965-68.783,42.965A43.848,43.848,0,0,1-12544.58,6831.03Z" transform="translate(12870.947 -6499.002)" fill="#cadacb"/>
</svg>
