<svg xmlns="http://www.w3.org/2000/svg" width="61.998" height="120.998" viewBox="0 0 61.998 120.998">
  <g id="Group_2208" data-name="Group 2208" transform="translate(-75 -834.999)">
    <path id="Subtraction_6" data-name="Subtraction 6" d="M-18398,588h0V467a62.913,62.913,0,0,1,24.133,4.755,62.454,62.454,0,0,1,10.531,5.578,62.156,62.156,0,0,1,9.176,7.388,61.339,61.339,0,0,1,7.57,8.954,59.952,59.952,0,0,1,5.715,10.277A58.877,58.877,0,0,1-18336,527.5a58.872,58.872,0,0,1-4.873,23.549,59.945,59.945,0,0,1-5.715,10.276,61.331,61.331,0,0,1-7.57,8.953,62.16,62.16,0,0,1-9.176,7.387,62.447,62.447,0,0,1-10.531,5.577A62.934,62.934,0,0,1-18398,588Z" transform="translate(18473 368)" fill="#d8e28f"/>
    <path id="Icon_awesome-check" data-name="Icon awesome-check" d="M12.227,30.9.527,19.2a1.8,1.8,0,0,1,0-2.546L3.073,14.1a1.8,1.8,0,0,1,2.546,0L13.5,21.986,30.382,5.1a1.8,1.8,0,0,1,2.546,0L35.473,7.65a1.8,1.8,0,0,1,0,2.546l-20.7,20.7A1.8,1.8,0,0,1,12.227,30.9Z" transform="translate(80.998 877.5)" fill="#707070"/>
  </g>
</svg>
