<svg xmlns="http://www.w3.org/2000/svg" width="93.014" height="113.401" viewBox="0 0 93.014 113.401">
  <g id="Group_2182" data-name="Group 2182" transform="translate(-145.992 -468.8)">
    <path id="Path_3212" data-name="Path 3212" d="M29.306,0h34.4A29.306,29.306,0,0,1,93.014,29.306V84.095A29.306,29.306,0,0,1,63.708,113.4h-34.4A29.306,29.306,0,0,1,0,84.095V29.306A29.306,29.306,0,0,1,29.306,0Z" transform="translate(145.992 468.8)" fill="#f1d582"/>
    <g id="check" transform="translate(155.203 491.299)">
      <path id="Path_4284" data-name="Path 4284" d="M29.081,57.65a3.582,3.582,0,0,1-5.067,0L3.782,37.415a5.372,5.372,0,0,1,0-7.6l2.533-2.533a5.372,5.372,0,0,1,7.6,0L26.547,39.913,60.679,5.781a5.372,5.372,0,0,1,7.6,0l2.533,2.533a5.372,5.372,0,0,1,0,7.6Z" transform="translate(0 0)" fill="#c2da4d"/>
    </g>
  </g>
</svg>
