<svg id="strawberry" xmlns="http://www.w3.org/2000/svg" width="51.667" height="82.495" viewBox="0 0 51.667 82.495">
  <path id="Path_3719" data-name="Path 3719" d="M69.629,71.748,56.016,91.584a9.176,9.176,0,0,1-15.426,0L26.976,71.748a26.132,26.132,0,0,1-4.507-14.76c0-13.633,10.174-24.687,22.725-24.688h6.215c12.552,0,22.727,11.055,22.727,24.691A26.13,26.13,0,0,1,69.63,71.746Z" transform="translate(-22.469 -13.295)" fill="#ef5350"/>
  <path id="Path_3720" data-name="Path 3720" d="M40.727,22.375a22.655,22.655,0,0,1,8.44-1.623H55.38a22.649,22.649,0,0,1,8.439,1.625A18.012,18.012,0,0,0,71.572,7.565a17.981,17.981,0,0,0-12.871,5.4A24.57,24.57,0,0,0,52.273,1.747a24.565,24.565,0,0,0-6.427,11.219,17.982,17.982,0,0,0-12.871-5.4,18.013,18.013,0,0,0,7.752,14.81Z" transform="translate(-26.44 -1.747)" fill="#77bc4d"/>
  <g id="Group_2063" data-name="Group 2063" transform="translate(5.618 30.711)">
    <path id="Path_3721" data-name="Path 3721" d="M47.964,48.6a1.089,1.089,0,0,1-1.089-1.089V44.089a1.089,1.089,0,0,1,2.177,0V47.51A1.089,1.089,0,0,1,47.964,48.6Z" transform="translate(-37.311 -43)" fill="#e53935"/>
    <path id="Path_3722" data-name="Path 3722" d="M63.339,48.6A1.089,1.089,0,0,1,62.25,47.51V44.089a1.089,1.089,0,0,1,2.177,0V47.51A1.089,1.089,0,0,1,63.339,48.6Z" transform="translate(-43.123 -43)" fill="#e53935"/>
    <path id="Path_3723" data-name="Path 3723" d="M78.714,48.6a1.089,1.089,0,0,1-1.089-1.089V44.089a1.089,1.089,0,0,1,2.177,0V47.51A1.089,1.089,0,0,1,78.714,48.6Z" transform="translate(-48.934 -43)" fill="#e53935"/>
    <path id="Path_3724" data-name="Path 3724" d="M32.589,68.1A1.089,1.089,0,0,1,31.5,67.015V63.594a1.089,1.089,0,0,1,2.177,0v3.421A1.089,1.089,0,0,1,32.589,68.1Z" transform="translate(-31.5 -50.372)" fill="#e53935"/>
    <path id="Path_3725" data-name="Path 3725" d="M47.964,68.1a1.089,1.089,0,0,1-1.089-1.089V63.594a1.089,1.089,0,0,1,2.177,0v3.421A1.089,1.089,0,0,1,47.964,68.1Z" transform="translate(-37.311 -50.372)" fill="#e53935"/>
    <path id="Path_3726" data-name="Path 3726" d="M63.339,68.1a1.089,1.089,0,0,1-1.089-1.089V63.594a1.089,1.089,0,0,1,2.177,0v3.421A1.089,1.089,0,0,1,63.339,68.1Z" transform="translate(-43.123 -50.372)" fill="#e53935"/>
    <path id="Path_3727" data-name="Path 3727" d="M78.714,68.1a1.089,1.089,0,0,1-1.089-1.089V63.594a1.089,1.089,0,0,1,2.177,0v3.421A1.089,1.089,0,0,1,78.714,68.1Z" transform="translate(-48.934 -50.372)" fill="#e53935"/>
    <path id="Path_3728" data-name="Path 3728" d="M55.651,106.475a1.089,1.089,0,0,1-1.089-1.089v-3.421a1.089,1.089,0,1,1,2.177,0v3.421a1.088,1.088,0,0,1-1.089,1.089Z" transform="translate(-40.217 -64.876)" fill="#e53935"/>
    <path id="Path_3729" data-name="Path 3729" d="M71.026,106.475a1.089,1.089,0,0,1-1.089-1.089v-3.421a1.089,1.089,0,0,1,2.177,0v3.421a1.088,1.088,0,0,1-1.089,1.089Z" transform="translate(-46.028 -64.876)" fill="#e53935"/>
    <path id="Path_3730" data-name="Path 3730" d="M44.964,88.853a1.089,1.089,0,0,1-1.089-1.089V84.344a1.089,1.089,0,0,1,2.177,0v3.421A1.089,1.089,0,0,1,44.964,88.853Z" transform="translate(-36.177 -58.215)" fill="#e53935"/>
    <path id="Path_3731" data-name="Path 3731" d="M63.339,88.853a1.089,1.089,0,0,1-1.089-1.089V84.344a1.089,1.089,0,0,1,2.177,0v3.421A1.089,1.089,0,0,1,63.339,88.853Z" transform="translate(-43.123 -58.215)" fill="#e53935"/>
    <path id="Path_3732" data-name="Path 3732" d="M81.714,88.853a1.089,1.089,0,0,1-1.089-1.089V84.344a1.089,1.089,0,0,1,2.177,0v3.421A1.089,1.089,0,0,1,81.714,88.853Z" transform="translate(-50.068 -58.215)" fill="#e53935"/>
    <path id="Path_3733" data-name="Path 3733" d="M94.089,68.1A1.089,1.089,0,0,1,93,67.015V63.594a1.089,1.089,0,0,1,2.177,0v3.421A1.089,1.089,0,0,1,94.089,68.1Z" transform="translate(-54.745 -50.372)" fill="#e53935"/>
  </g>
</svg>
