<svg xmlns="http://www.w3.org/2000/svg" width="59.313" height="34.692" viewBox="0 0 59.313 34.692">
  <g id="Group_2124" data-name="Group 2124" transform="translate(-19949.988 5795.68)">
    <g id="Group_2122" data-name="Group 2122" transform="translate(19889.59 -5753.12)">
      <path id="Icon_awesome-money-bill-wave" data-name="Icon awesome-money-bill-wave" d="M93.216-41.524a21.714,21.714,0,0,0-6.721,2.1c-6.542,3.221-11.589,9.051-18.13,12.271a22.3,22.3,0,0,1-5.25,1.849,2.528,2.528,0,0,0-.588.2,1.619,1.619,0,0,0-.95,2.175L69.185-9.644a1.681,1.681,0,0,0,1.707.74,21.7,21.7,0,0,0,6.722-2.1c6.542-3.221,11.588-9.051,18.13-12.272a22.3,22.3,0,0,1,5.25-1.848,2.515,2.515,0,0,0,.588-.2,1.619,1.619,0,0,0,.95-2.175L94.925-40.783A1.683,1.683,0,0,0,93.216-41.524ZM64.639-23.281a25.619,25.619,0,0,0,3.545-1.267,3.41,3.41,0,0,1-2.1,3.8Zm6.835,11.928-1.146-2a3.8,3.8,0,0,1,4.857.9A17.721,17.721,0,0,1,71.474-11.353ZM84.356-21.2a5.118,5.118,0,0,1-6.677-1.762,4.38,4.38,0,0,1,1.9-6.189,5.117,5.117,0,0,1,6.677,1.762l.047.079a4.342,4.342,0,0,1-1.947,6.11Zm15.113-5.95a25.3,25.3,0,0,0-3.087,1.067,3.309,3.309,0,0,1,1.7-3.483Zm-5.662-9.882a3.684,3.684,0,0,1-4.441-1.118,17.611,17.611,0,0,1,3.268-.929Z" transform="translate(0)" fill="#d8e28f" stroke="#b9c46d" stroke-miterlimit="3.999" stroke-width="2"/>
    </g>
    <g id="Group_2123" data-name="Group 2123" transform="translate(19905.59 -5753.12)">
      <path id="Icon_awesome-money-bill-wave-2" data-name="Icon awesome-money-bill-wave" d="M93.216-41.524a21.714,21.714,0,0,0-6.721,2.1c-6.542,3.221-11.589,9.051-18.13,12.271a22.3,22.3,0,0,1-5.25,1.849,2.528,2.528,0,0,0-.588.2,1.619,1.619,0,0,0-.95,2.175L69.185-9.644a1.681,1.681,0,0,0,1.707.74,21.7,21.7,0,0,0,6.722-2.1c6.542-3.221,11.588-9.051,18.13-12.272a22.3,22.3,0,0,1,5.25-1.848,2.515,2.515,0,0,0,.588-.2,1.619,1.619,0,0,0,.95-2.175L94.925-40.783A1.683,1.683,0,0,0,93.216-41.524ZM64.639-23.281a25.619,25.619,0,0,0,3.545-1.267,3.41,3.41,0,0,1-2.1,3.8Zm6.835,11.928-1.146-2a3.8,3.8,0,0,1,4.857.9A17.721,17.721,0,0,1,71.474-11.353ZM84.356-21.2a5.118,5.118,0,0,1-6.677-1.762,4.38,4.38,0,0,1,1.9-6.189,5.117,5.117,0,0,1,6.677,1.762l.047.079a4.342,4.342,0,0,1-1.947,6.11Zm15.113-5.95a25.3,25.3,0,0,0-3.087,1.067,3.309,3.309,0,0,1,1.7-3.483Zm-5.662-9.882a3.684,3.684,0,0,1-4.441-1.118,17.611,17.611,0,0,1,3.268-.929Z" transform="translate(0)" fill="#d8e28f" stroke="#c1cb7d" stroke-miterlimit="3.999" stroke-width="2"/>
    </g>
  </g>
</svg>
