<svg xmlns="http://www.w3.org/2000/svg" width="405.949" height="337.576" viewBox="0 0 405.949 337.576">
  <path id="Intersection_6" data-name="Intersection 6" d="M-12542.2,6835.866c-39-7.137-45.354-63.585-88.777-83.543-43.14-19.815-71.394,34.067-137.021,37.6-40.874,2.2-76.335-14.216-102.954-31.991V6550a51,51,0,0,1,51-51h307a51,51,0,0,1,46.4,29.8A41.043,41.043,0,0,1-12465,6540v151c0,.342-.006.685-.013,1.024v100.961c-18.378,21.256-43.375,43.592-69.287,43.592A43.9,43.9,0,0,1-12542.2,6835.866Z" transform="translate(12870.948 -6499.001)" fill="#bbd9cd"/>
</svg>
