<svg xmlns="http://www.w3.org/2000/svg" width="47.072" height="87.152" viewBox="0 0 47.072 87.152">
  <g id="flat" transform="translate(0 0)">
    <path id="Path_3739" data-name="Path 3739" d="M236.277,36.051h0a14.547,14.547,0,0,0-4.261-10.286L230.251,24v3.127a14.547,14.547,0,0,1-2.443,8.069l-.57.855-1.1,1.318,8.28,7.373Z" transform="translate(-208.222 -24)" fill="#02a437"/>
    <path id="Path_3740" data-name="Path 3740" d="M224,74.077l2.337-3.271a45.02,45.02,0,0,1,12.775-12.011L243.583,56l-2.944,5.152a45.021,45.021,0,0,0-4.588,11.418h0l-.554,2.588Z" transform="translate(-206.489 -49.974)" fill="#029532"/>
    <path id="Path_3741" data-name="Path 3741" d="M195.583,74.077l-2.337-3.271a45.019,45.019,0,0,0-12.775-12.011L176,56l2.944,5.152a45.02,45.02,0,0,1,4.588,11.418h0l5.2,6.11Z" transform="translate(-167.528 -49.974)" fill="#027e2a"/>
    <path id="Path_3742" data-name="Path 3742" d="M162.545,140.051h0a16.744,16.744,0,0,0-5.166-7.569L152,128h0a43.467,43.467,0,0,1,23.823,10.488l1.785,1.563Z" transform="translate(-148.047 -108.417)" fill="#027226"/>
    <path id="Path_3743" data-name="Path 3743" d="M239.064,140.051h0a16.745,16.745,0,0,1,5.166-7.57L249.608,128h0a43.468,43.468,0,0,0-23.823,10.488L224,140.051l14.774.565Z" transform="translate(-206.489 -108.417)" fill="#026a23"/>
    <path id="Path_3744" data-name="Path 3744" d="M154.542,240.082h0a22.61,22.61,0,0,1-21.56-15.8h0a42.574,42.574,0,0,1,0-25.64h0a22.609,22.609,0,0,1,21.56-15.8h0a22.609,22.609,0,0,1,21.56,15.8h0a42.57,42.57,0,0,1,0,25.64h0A22.609,22.609,0,0,1,154.542,240.082Z" transform="translate(-131.005 -152.931)" fill="#fbb540"/>
    <path id="Path_3745" data-name="Path 3745" d="M171.067,212.433l4.649-4.649,2.429,2.431a42.552,42.552,0,0,0-1.021-8.1l-1.408,1.41-5.4-5.4,3.924-3.924a22.166,22.166,0,0,0-1.7-2.555l-4.35,4.35-4.649-4.649,4.269-4.267a22.37,22.37,0,0,0-2.634-1.629l-3.764,3.766-4.649-4.649,1.44-1.44a22.568,22.568,0,0,0-7.142,0l1.442,1.44-4.649,4.649-3.764-3.766a22.369,22.369,0,0,0-2.634,1.629l4.269,4.267-4.649,4.649-4.348-4.348a22.235,22.235,0,0,0-1.706,2.553l3.924,3.924-5.4,5.4-1.408-1.408a42.493,42.493,0,0,0-1.019,8.095l2.427-2.427,4.649,4.649-4.649,4.649-2.318-2.32a42.285,42.285,0,0,0,1.294,7.605l1.024-1.026,4.649,4.649L135.177,229a22.345,22.345,0,0,0,1.734,2.525l3.4-3.4,5.4,5.4-3.105,3.105a22.567,22.567,0,0,0,2.777,1.484l2.457-2.459,4.293,4.293a22.627,22.627,0,0,0,2.486.137,22.19,22.19,0,0,0,2.486-.137l4.293-4.293,2.457,2.459a22.3,22.3,0,0,0,2.777-1.484l-3.105-3.105,5.4-5.4,3.4,3.4A22.342,22.342,0,0,0,174.078,229l-3.011-3.011,4.649-4.649,1.024,1.026a42.283,42.283,0,0,0,1.294-7.605l-2.318,2.32Zm2.519-6.779-4.649,4.649-5.4-5.4,4.649-4.649ZM152.5,211.68l-5.4,5.4-4.649-4.649,5.4-5.4Zm-2.519-6.779,4.649-4.649,4.649,4.649-4.649,4.649Zm4.649,8.908,5.4,5.4-5.4,5.4-5.4-5.4Zm2.13-2.13,4.649-4.649,5.4,5.4-4.649,4.649Zm9.3-13.557-4.649,4.649-4.649-4.649,4.649-4.649Zm-11.428-11.428,4.649,4.649-4.649,4.649-4.649-4.649Zm-6.779,6.779,4.649,4.649-4.649,4.649-4.649-4.649Zm-12.181,12.181,5.4-5.4,4.649,4.649-5.4,5.4Zm0,13.557,4.649-4.649,4.649,4.649-4.649,4.649Zm6.779,6.779,4.649-4.649,5.4,5.4-4.649,4.649Zm12.181,12.181-4.649-4.649,4.649-4.649,4.649,4.649Zm6.779-6.779-4.649-4.649,5.4-5.4,4.649,4.649Zm7.532-7.532-4.649-4.649,4.649-4.649,4.649,4.649Z" transform="translate(-131.09 -152.931)" fill="#d18d28"/>
  </g>
</svg>
