<svg xmlns="http://www.w3.org/2000/svg" width="31.029" height="31.029" viewBox="0 0 31.029 31.029">
  <g id="smile" transform="translate(0 1.055) rotate(-2)">
    <g id="Group_2034" data-name="Group 2034">
      <path id="Path_3592" data-name="Path 3592" d="M15,0A15,15,0,1,1,0,15,15,15,0,0,1,15,0Z" transform="translate(0 -0.008)" fill="#a4d4d7"/>
      <path id="Path_3594" data-name="Path 3594" d="M15,0A15,15,0,1,1,0,15,15,15,0,0,1,15,0Z" transform="translate(0 -0.008)" fill="#a4d4d7"/>
      <circle id="Ellipse_115" data-name="Ellipse 115" cx="2.5" cy="2.5" r="2.5" transform="translate(6 6.992)" fill="#717172"/>
      <circle id="Ellipse_116" data-name="Ellipse 116" cx="2.5" cy="2.5" r="2.5" transform="translate(18 6.992)" fill="#717172"/>
      <path id="Path_3589" data-name="Path 3589" d="M16.264,30.87A7.273,7.273,0,0,1,9,23.605a.605.605,0,0,1,1.211,0,6.054,6.054,0,1,0,12.107,0,.605.605,0,0,1,1.211,0A7.273,7.273,0,0,1,16.264,30.87Z" transform="translate(-1.599 -5.387)" fill="#767869"/>
    </g>
  </g>
</svg>
