<svg xmlns="http://www.w3.org/2000/svg" width="93.014" height="113.4" viewBox="0 0 93.014 113.4">
  <g id="Group_2180" data-name="Group 2180" transform="translate(-145.992 -468.8)">
    <path id="Path_3212" data-name="Path 3212" d="M29.306,0h34.4A29.306,29.306,0,0,1,93.014,29.306V84.095A29.306,29.306,0,0,1,63.708,113.4h-34.4A29.306,29.306,0,0,1,0,84.095V29.306A29.306,29.306,0,0,1,29.306,0Z" transform="translate(145.992 468.8)" fill="#f1d582"/>
    <g id="Group_1957" data-name="Group 1957" transform="translate(114.857 403.303)">
      <path id="Path_3217" data-name="Path 3217" d="M99.653,108.116a1.556,1.556,0,0,0-1.231-.6H58.838l-1.729-6.651A1.556,1.556,0,0,0,55.6,99.7H47.53a1.556,1.556,0,1,0,0,3.112H54.4l1.729,6.651h0l6.1,23.438a1.556,1.556,0,0,0,1.506,1.164H92.325A1.556,1.556,0,0,0,93.83,132.9l6.1-23.438A1.554,1.554,0,0,0,99.653,108.116ZM70.43,130.95h-5.5l-1.222-4.7H70.43Zm0-7.812H62.9l-1.223-4.7H70.43Zm0-7.815H60.869l-1.222-4.7H70.43ZM82.514,130.95H73.542v-4.7h8.971Zm0-7.812H73.542v-4.7h8.971Zm0-7.815H73.542v-4.7h8.971Zm8.608,15.627h-5.5v-4.7h6.718Zm2.032-7.812H85.626v-4.7h8.751Zm2.033-7.815H85.626v-4.7H96.409Z" transform="translate(0 0)" fill="#fff"/>
      <path id="Path_3218" data-name="Path 3218" d="M129.744,271.439a5.684,5.684,0,1,0,5.684,5.684A5.69,5.69,0,0,0,129.744,271.439Zm0,8.256a2.572,2.572,0,1,1,2.572-2.573A2.575,2.575,0,0,1,129.744,279.7Z" transform="translate(-61.885 -136.11)" fill="#fff"/>
      <path id="Path_3219" data-name="Path 3219" d="M227.777,271.439a5.684,5.684,0,1,0,5.684,5.684A5.69,5.69,0,0,0,227.777,271.439Zm0,8.256a2.572,2.572,0,1,1,2.572-2.573A2.575,2.575,0,0,1,227.777,279.7Z" transform="translate(-139.58 -136.11)" fill="#fff"/>
    </g>
  </g>
</svg>
