<svg xmlns="http://www.w3.org/2000/svg" width="93.014" height="113.401" viewBox="0 0 93.014 113.401">
  <g id="Group_2185" data-name="Group 2185" transform="translate(-152.992 -639.8)">
    <path id="Path_3602" data-name="Path 3602" d="M29.306,0h34.4A29.306,29.306,0,0,1,93.014,29.306V84.095A29.306,29.306,0,0,1,63.708,113.4h-34.4A29.306,29.306,0,0,1,0,84.095V29.306A29.306,29.306,0,0,1,29.306,0Z" transform="translate(152.992 639.8)" fill="#f1d582"/>
    <g id="check" transform="translate(162.41 660.506)">
      <path id="Path_4284" data-name="Path 4284" d="M29.081,57.65a3.582,3.582,0,0,1-5.067,0L3.782,37.415a5.372,5.372,0,0,1,0-7.6l2.533-2.533a5.372,5.372,0,0,1,7.6,0L26.547,39.913,60.679,5.781a5.372,5.372,0,0,1,7.6,0l2.533,2.533a5.372,5.372,0,0,1,0,7.6Z" transform="translate(-2.207 -4.207)" fill="#c2da4d"/>
    </g>
    <g id="Group_2184" data-name="Group 2184" transform="translate(92.885 658.564)">
      <path id="Path_4285" data-name="Path 4285" d="M202.089,24.344a8.169,8.169,0,1,0-7,0Z" transform="translate(-96.313 -7.612)" fill="#717172"/>
      <path id="Path_4286" data-name="Path 4286" d="M151.717,19.322a1.169,1.169,0,0,1-.851-.368,13.978,13.978,0,0,1-.608-18.51,1.167,1.167,0,1,1,1.8,1.487,11.643,11.643,0,0,0,.511,15.425,1.167,1.167,0,0,1-.85,1.966Z" transform="translate(-58.778 0)" fill="#707070"/>
      <path id="Path_4287" data-name="Path 4287" d="M318.618,16.359a1.167,1.167,0,0,1-1.037-1.7,11.623,11.623,0,0,0-1.389-12.729,1.167,1.167,0,1,1,1.8-1.487,13.956,13.956,0,0,1,1.667,15.28A1.166,1.166,0,0,1,318.618,16.359Z" transform="translate(-204.92 0)" fill="#707070"/>
      <path id="Path_4288" data-name="Path 4288" d="M126.783,70.573V89.047s0,6.29-3.979,9.932a2.235,2.235,0,0,0-.689,1.657v3.583a2.342,2.342,0,0,1-2.334,2.335H101.109a2.341,2.341,0,0,1-2.334-2.335v-.432a6.94,6.94,0,0,0-2.089-4.971c-2.252-2.194-5.73-5.987-7.247-9.768-2.334-5.835-7-14-9.336-16.338s0-4.668,2.334-4.668,7,4.668,9.336,8.169A17.656,17.656,0,0,0,94.363,79.3a2.325,2.325,0,0,0,3.793-.98,13.984,13.984,0,0,0,.619-4.446V47.034a3.464,3.464,0,0,1,2.334-3.291,3.244,3.244,0,0,1,1.167-.21,3.5,3.5,0,0,1,3.5,3.5v14a3.463,3.463,0,0,1,2.334-3.291,3.231,3.231,0,0,1,1.167-.21,3.5,3.5,0,0,1,3.5,3.5v3.5a3.493,3.493,0,0,1,1.027-2.474,3.31,3.31,0,0,1,1.307-.817,3.234,3.234,0,0,1,1.167-.21,3.5,3.5,0,0,1,3.5,3.5v5.835a3.491,3.491,0,0,1,1.027-2.474,3.313,3.313,0,0,1,1.307-.817,3.385,3.385,0,0,1,1.424-.2A3.631,3.631,0,0,1,126.783,70.573Z" transform="translate(0 -37.677)" fill="#fdd7ad"/>
      <g id="Group_2183" data-name="Group 2183" transform="translate(97.106 5.855)">
        <path id="Path_4289" data-name="Path 4289" d="M217.89,43.533a3.244,3.244,0,0,0-1.167.21,3.464,3.464,0,0,0-2.334,3.291V73.876a13.984,13.984,0,0,1-.619,4.446,2.369,2.369,0,0,1-1.05,1.284,2.323,2.323,0,0,0,3.384-1.284,13.981,13.981,0,0,0,.619-4.446V47.034a3.464,3.464,0,0,1,2.334-3.291A3.249,3.249,0,0,0,217.89,43.533Z" transform="translate(-212.72 -43.533)" fill="#cbb292"/>
        <path id="Path_4290" data-name="Path 4290" d="M279.511,147.849a3.463,3.463,0,0,0-2.334,3.291v10.5a1.167,1.167,0,0,0,2.334,0v-10.5a3.464,3.464,0,0,1,2.334-3.291A3.347,3.347,0,0,0,279.511,147.849Z" transform="translate(-268.506 -133.634)" fill="#cbb292"/>
        <path id="Path_4291" data-name="Path 4291" d="M331.561,173.876a3.31,3.31,0,0,0-1.307.817,3.494,3.494,0,0,0-1.027,2.474v7a1.167,1.167,0,0,0,2.334,0v-7a3.464,3.464,0,0,1,2.335-3.291A3.35,3.35,0,0,0,331.561,173.876Z" transform="translate(-313.554 -156.16)" fill="#cbb292"/>
        <path id="Path_4292" data-name="Path 4292" d="M384.783,217.042a3.233,3.233,0,0,0-1.167.21,3.313,3.313,0,0,0-1.307.817,3.491,3.491,0,0,0-1.027,2.474v2.334a1.167,1.167,0,1,0,2.334,0v-2.334a3.464,3.464,0,0,1,2.334-3.291A3.236,3.236,0,0,0,384.783,217.042Z" transform="translate(-358.607 -193.701)" fill="#cbb292"/>
      </g>
    </g>
  </g>
</svg>
