<svg id="Layer_1" data-name="Layer 1" xmlns="http://www.w3.org/2000/svg" viewBox="0 0 56.6 49.04"><defs><style>.cls-1{fill:#d5d5d1;}.cls-2{fill:#f5f4ea;}.cls-3{fill:#f7f6ef;}.cls-4{fill:#f6f5ee;}.cls-5{fill:#f5f4e8;}.cls-6{fill:#f4f3e7;}.cls-7{fill:#f6f5eb;}.cls-8{fill:#f6f5ec;}.cls-9{fill:#f9f8f3;}.cls-10{fill:#f4f3e9;}.cls-11{fill:#e9e9e3;}.cls-12{fill:#e5e5e0;}.cls-13{fill:#ecece6;}.cls-14{fill:#f0efea;}.cls-15{fill:#e7e6e1;}.cls-16{fill:#e5e4df;}.cls-17{fill:#e1e0da;}.cls-18{fill:#efeee8;}.cls-19{fill:#ebeae5;}.cls-20{fill:#edece6;}.cls-21{fill:#f4f3e6;}.cls-22{fill:#edece7;}.cls-23{fill:#bfddda;}.cls-24{fill:#b9dcda;}.cls-25{fill:#c3dedb;}.cls-26{fill:#c2dedb;}.cls-27{fill:#afdad8;}.cls-28{fill:#a6d9d7;}.cls-29{fill:#c9e1dd;}.cls-30{fill:#e3e2dc;}.cls-31{fill:#dbdad5;}.cls-32{fill:#f4f3e5;}.cls-33{fill:#dbdad4;}.cls-34{fill:#dad9d1;}.cls-35{fill:#ebebe6;}.cls-36{fill:#ecebe7;}.cls-37{fill:#9cd7d5;}.cls-38{fill:#f1f1ea;}.cls-39{fill:#f0eee8;}.cls-40{fill:#deddd5;}.cls-41{fill:#aadbd9;}.cls-42{fill:#e5e4de;}.cls-43{fill:#e2e1dc;}.cls-44{fill:#e0dfd9;}.cls-45{fill:#e0e0da;}.cls-46{fill:#e3e2dd;}.cls-47{fill:#e6e6e0;}.cls-48{fill:#e8e7e1;}.cls-49{fill:#e1e0db;}.cls-50{fill:#e5e5df;}.cls-51{fill:#e2e1da;}.cls-52{fill:#e4e3dd;}.cls-53{fill:#e4e3dc;}.cls-54{fill:#f4f3e8;}.cls-55{fill:#dcdbd5;}.cls-56{fill:#e0dfda;}.cls-57{fill:#fefefe;}.cls-58{fill:#e7e6da;}.cls-59{fill:#e7e6db;}.cls-60{fill:#efede0;}.cls-61{fill:#edecdf;}.cls-62{fill:#dfded8;}.cls-63{fill:#dfded7;}.cls-64{fill:#f27b7c;}.cls-65{fill:#e8e8e3;}.cls-66{fill:#e2e1db;}.cls-67{fill:#dddcd7;}.cls-68{fill:#e6e4d9;}.cls-69{fill:#e5e4d9;}.cls-70{fill:#f3f3f3;}.cls-71{fill:#f2f2f1;}.cls-72{fill:#f1f1f0;}.cls-73{fill:#e1e0d5;}.cls-74{fill:#dddddb;}.cls-75{fill:#edebde;}.cls-76{fill:#f3f2e4;}.cls-77{fill:#f2f1e3;}</style></defs><path class="cls-1" d="M102.3,55.83a7.34,7.34,0,0,0-1.77,1.7c-.19.22-.39.43-.6.64a30.57,30.57,0,0,0-2.45,2.76,1.66,1.66,0,0,1-1.52.74c-1.12-.11-2.25,0-3.38,0l-3.22,0c-1.31,0-2.63.06-3.94,0-1.09,0-2.18,0-3.27,0-1.56,0-3.11,0-4.67,0l-3.17,0H54.86a1.38,1.38,0,0,1-.9-.3c-2.21-1.77-4.4-3.57-6.77-5.12a.72.72,0,0,1-.27-.33c0-.23.24-.19.38-.19,1.47,0,3,0,4.42,0s2.76,0,4.14,0c2,0,4.09,0,6.13,0s4.22,0,6.33,0l1.44,0c10.63,0,21.27,0,31.9,0a1.47,1.47,0,0,1,.59.06A.1.1,0,0,1,102.3,55.83Z" transform="translate(-46.74 -12.63)"/><path class="cls-2" d="M52.5,17c.12-.79.22-1.59.37-2.38.08-.44.13-.89.19-1.33,0-.26,0-.53.46-.53,4.28,0,8.56-.12,12.85-.06a.7.7,0,0,0,.38,0h4.49a7.15,7.15,0,0,0,1,0c1.44,0,2.87,0,4.3,0a2.67,2.67,0,0,0,1.09,0,1.25,1.25,0,0,1,1.23.24c.13.12.11,0,.14-.07a.42.42,0,0,1,.54-.11,2.29,2.29,0,0,0,.73.17,1.18,1.18,0,0,1,.76.29.36.36,0,0,0,.26.09c.16,0,.35,0,.37.22s-.2.18-.31.25.06.11.11.15c.55.46.55.46,1.13.06a1.09,1.09,0,0,1,.36-.17c.18,0,.31,0,.34.21s0,.24.18.27a.13.13,0,0,0,.12-.09A.27.27,0,0,0,83.5,14a2.17,2.17,0,0,0-1.26-.51c-.14,0-.26,0-.31-.16a.31.31,0,0,1,.14-.34c.32-.25.48-.28.86,0a.65.65,0,0,0,.86.06c-.07-.12-.21-.25,0-.33h2.63a.11.11,0,0,1,.09.09c0,.24.09.34.3.38a5.51,5.51,0,0,0,1,.08,10.78,10.78,0,0,1,2,.19,19.7,19.7,0,0,0,2.3.13c.69,0,1.38,0,2.07,0s.8,0,.93.77c0,.3.1.6.14.91a.94.94,0,0,0,.24.57c.13.37.46.59.67.9.15.83.31,1.66.47,2.49,0,.15.06.3.08.46s.08.19,0,.23-.13-.08-.16-.15a2.2,2.2,0,0,1-.12-.62c-.07-.58-.3-1.13-.32-1.72,0,0,0,0,0,.05s0,.42-.28.4-.44-.51-.38-.76.16-.17,0-.28a.35.35,0,0,0-.34-.08c-.59.15-.64.12-.74-.51a.4.4,0,0,1-.57-.15.71.71,0,0,1,0-.79.28.28,0,0,0-.29.19.3.3,0,0,1-.18.2c-.58.23-.58.71-.52,1.21s.1.74.16,1.11a.41.41,0,0,1-.06.41.17.17,0,0,1-.12,0,4.18,4.18,0,0,1-.27-1.25c-.05-.21,0-.42-.07-.63a.27.27,0,0,1,0-.12c-.07-.25,0-.54-.28-.72a1.25,1.25,0,0,0-.43,0q-12.75,0-25.48,0c-.91,0-1.81,0-2.71,0a5.73,5.73,0,0,0-1.31-.07c-.51,0-.79-.39-.54-.85A5,5,0,0,0,62,13.28c0-.16,0-.25-.16-.3a2.52,2.52,0,0,0-.54-.14H59.89c-.19,0-.33,0-.2.27a.23.23,0,0,1-.1.34.24.24,0,0,1-.34-.12c-.15-.37-.46-.35-.77-.33-.81.05-1.61-.13-2.42-.08s-1.53,0-2.3,0c-.3,0-.44.11-.47.4-.08.71-.25,1.41-.28,2.13a5.37,5.37,0,0,1-.21,1.13C52.75,16.74,52.73,16.93,52.5,17Z" transform="translate(-46.74 -12.63)"/><path class="cls-3" d="M97.92,26.27a14.69,14.69,0,0,1,.39,1.84c.23,1.11.4,2.22.6,3.33q.47,2.6.92,5.17c0,.16,0,.33.08.5s.06.44-.19.57-.62.51-1,.71a.93.93,0,0,1-.69.14c0,.08.09.09.13.13s.32.2.18.41a.45.45,0,0,1-.51.23l-.34-.11a.47.47,0,0,0-.65.3c-.08.19-.19.33-.41.32s-.29-.18-.33-.37c-.31-1.44-.48-2.91-.72-4.36A12.57,12.57,0,0,0,95,33c-.22-.91-.3-1.84-.46-2.77q-.31-2-.6-3.9c-.06-.38-.1-.76-.19-1.14s-.17-.92-.17-1.39a14.33,14.33,0,0,0-.27-2.16c0-.3,0-.47.35-.44a.22.22,0,0,0,.24-.1c.17-.29.31-.12.4.05s.26.39.55.38.23.12.15.29-.23.42.2.46.35.31.31.56,0,.38.28.35a.52.52,0,0,1,.64.49c0,.11.09.2.11.3s.14.29.37.3c.49,0,.64.15.68.45s-.16.36-.19.54.35.1.34.35A2.2,2.2,0,0,0,97.92,26.27Z" transform="translate(-46.74 -12.63)"/><path class="cls-2" d="M48,47.07a32.71,32.71,0,0,1,.44-3.28c.17-1.16.34-2.32.52-3.47a16.23,16.23,0,0,1,.31-1.85c.08-.73.21-1.44.32-2.16h0c.11-.17,0-.38.08-.55h0a6.3,6.3,0,0,1,.19-1.07.17.17,0,0,1,.12,0,11.06,11.06,0,0,1,1.11.5,1.1,1.1,0,0,0,1.22-.2c.32-.27.62-.57.95-.84a.47.47,0,0,1,.66,0c0-.8.21-1.54.28-2.29,0-.12-.08-.37.22-.31a1.52,1.52,0,0,1,.07.6c-.18,1.06-.21,2.14-.44,3.2a.32.32,0,0,1-.08.09c-.41-.1-.72.18-1.06.32-.15.07-.18.21,0,.27a.76.76,0,0,1,.3.1c.18.19.35.33.49,0,0-.08.11,0,.15,0a1.1,1.1,0,0,1,0,.51c-.15,1.17-.31,2.34-.41,3.53a2.09,2.09,0,0,1-.08.34,11.3,11.3,0,0,0-.14,1.29,1.6,1.6,0,0,1-.11.57c-.33.3-.38.3-.68,0a1.34,1.34,0,0,0-1.81.19.21.21,0,0,0,0,.25c.21.42.41.5.85.34a.52.52,0,0,1,.27-.05.91.91,0,0,0,.93-.33c.25-.29.26.11.34.26a.8.8,0,0,1-.07.34,1.33,1.33,0,0,1-1.51.88c-.19,0-.37,0-.47.17s0,.33.17.46.2.48-.11.68a1.23,1.23,0,0,0-.65.71c.11.45.3.54.77.32l.1,0a.34.34,0,0,1,.29.08.49.49,0,0,0,.7-.08c.19-.08.27,0,.33.19a4.67,4.67,0,0,1-.1,1.34c-.09.66-.14,1.34-.21,2a.57.57,0,0,0,.07.49c.22.14.46,0,.69.07.76,0,1.52,0,2.28,0,.19.21.47.3.63.56a.17.17,0,0,0,.19.1c.1,0,.1-.12.1-.2s0-.35.17-.45a8.92,8.92,0,0,1,1.55,0c.12,0,.17.11.1.23s-.18.18,0,.26.24,0,.31-.15.06-.29.23-.34c.7,0,1.4,0,2.1,0a.43.43,0,0,1,.37.41,4,4,0,0,0,.29.82c.07.22.11.38-.18.46s-.26.2-.17.4,0,.36-.22.38a1.1,1.1,0,0,0-.4.17.22.22,0,0,1-.32,0,.2.2,0,0,1,.06-.28c.28-.19.33-.36.05-.62s-.08-.41.07-.6.23-.32-.15-.38a.42.42,0,0,1-.37-.2c-.1-.23-.25-.22-.45-.18s-.23.19-.27.37a1.33,1.33,0,0,0,.08,1c.14.31-.18.66-.62.76s-.51,0-.55-.45a.39.39,0,0,0-.31-.4l-.56-.2c-.22,0-.39-.12-.49.2a.26.26,0,0,1-.49,0,1,1,0,0,0-.84-.64.44.44,0,0,1-.33-.36c-.06-.18-.16-.22-.3-.1s-.32.14-.46-.07-.2-.07-.27,0a1,1,0,0,0-.15.32,8.92,8.92,0,0,1-.64,1.49.4.4,0,0,1-.39.29,2.41,2.41,0,0,0-.91.28c-.68.29-1,.16-1.2-.53a.32.32,0,0,0-.38-.26c-.11,0-.22,0-.27-.12a.28.28,0,0,1,.11-.32,9.73,9.73,0,0,1,.9-.64c.09,0,.17-.07.17-.18s-.08-.15-.18-.17-.22-.05-.2-.16c.07-.37-.19-.72,0-1.1.05-.12.09-.28,0-.36s-.26.07-.36.17a1.67,1.67,0,0,1-.12.16c-.16.17-.29.13-.35-.1a.56.56,0,0,1,0-.36,4.8,4.8,0,0,1,.39-1.16.93.93,0,0,0,.16-.35.51.51,0,0,0-.78,0c-.18.24-.27.56-.58.68-.1.05-.21.18-.32.08s0-.24,0-.33a.73.73,0,0,0,.15-.83c-.05-.14.07-.25.11-.37s.06-.38-.19-.43-.27-.23-.15-.43a3.24,3.24,0,0,0,.36-.66c0-.09.13-.2,0-.29s-.21,0-.3,0a1.82,1.82,0,0,1-.3.11c-.14,0-.13.13-.08.24a.15.15,0,0,1,0,.19,2.6,2.6,0,0,0-.2.94.33.33,0,0,1-.06.1A.09.09,0,0,1,48,47.07Z" transform="translate(-46.74 -12.63)"/><path class="cls-4" d="M100.79,41.81l.36,1.92c.17,1,.42,2,.51,2.94-.21.27-.44.38-.73.1-.08-.08-.18-.14-.29-.07a1.56,1.56,0,0,1-.79.21c-.06,0-.14,0-.14.06,0,.31-.24.62-.09.92a1.26,1.26,0,0,1,.08.74A3.87,3.87,0,0,1,99,50.79,11.88,11.88,0,0,1,95.53,54a17.38,17.38,0,0,1-2,.78,8.72,8.72,0,0,1-2,.42c-.9,0-1.8.05-2.7,0a6.4,6.4,0,0,1-2.52-.5A16.16,16.16,0,0,1,84.71,54a2.73,2.73,0,0,1-.59-.3,3.42,3.42,0,0,0-.66-.4l-.14-.11a3.38,3.38,0,0,0-1-.61.91.91,0,0,1-.44-.38,10.14,10.14,0,0,0-.64-1c-.18-.26,0-.38.24-.45a.52.52,0,0,1,.59.29.87.87,0,0,0,.47.47c.06,0,.13.05.16.12a3.31,3.31,0,0,0,1.55,1.32,6.64,6.64,0,0,0,1.81.85c.5.09.88.38,1.35.49a11.31,11.31,0,0,0,2.25.24,10.58,10.58,0,0,0,5.49-1.19,11.05,11.05,0,0,0,1.65-1.18c-.63.09-1.23.26-1.85.32-.18,0-.31-.13-.48-.14a8.83,8.83,0,0,0-1.64-.71,6.94,6.94,0,0,0-2.87,0,6,6,0,0,0-.83.24,10.71,10.71,0,0,0-1.21.4c-.18.05-.36.17-.52,0a7.48,7.48,0,0,0-.19-1.56A3.66,3.66,0,0,0,87,49.3a1.23,1.23,0,0,1-.11-.71c0-.31.15-.46.43-.52a3.27,3.27,0,0,0,.51-.22.49.49,0,0,1,.55.07c.17.16.1.31,0,.46s0,.23,0,.34c0,.3,0,.61,0,.91a1.21,1.21,0,0,0,.3.71,1.07,1.07,0,0,0,.16-.75,3.83,3.83,0,0,0-.27-1c-.05-.22,0-.42.25-.42a10.78,10.78,0,0,0,1.4-.25c.23,0,.32,0,.33.25s0,.56,0,.85a8.48,8.48,0,0,1,.22,1.07.28.28,0,0,0,.22.26c.14,0,.22-.06.28-.17s.21-.38.08-.6.09-.43,0-.69-.16-.51-.28-.76,0-.47.28-.43a5.61,5.61,0,0,0,1.23-.07,1.14,1.14,0,0,1,.64.19,3.26,3.26,0,0,0,3.19,0,8.71,8.71,0,0,0,1.8-1.49c.56-.47.42-1,.47-1.52s0-.43.38-.3a1.29,1.29,0,0,0,.19,0c.34,0,.12.37.26.58a.71.71,0,0,0,.11-.76,4.25,4.25,0,0,0-.32-.54.28.28,0,0,1,0-.37.25.25,0,0,1,.36,0c.22.18.36.06.51-.14-.22,0-.31-.1-.36-.26a.49.49,0,0,0-.45-.39c-.19,0-.37-.13-.33-.36s.23-.25.43-.25a1.24,1.24,0,0,1,.72.15C100.61,42.4,100.64,42,100.79,41.81Z" transform="translate(-46.74 -12.63)"/><path class="cls-2" d="M50,34.72H50a.83.83,0,0,1,0-.56h0c.11-.17,0-.38.08-.56h0c.11-.17,0-.38.08-.55h0c.11-.15,0-.33.08-.48h0c.08-.51.11-1,.24-1.52V30.9a7.69,7.69,0,0,1,.16-1,23.91,23.91,0,0,1,.35-2.66c.15-1.23.34-2.45.53-3.67s.34-2.21.51-3.31c.13-.82.24-1.64.36-2.46,0-.09,0-.19.08-.25a1,1,0,0,1,.76-.32c.28,0,.38-.1.25-.39a.87.87,0,0,1,.18-.93.3.3,0,0,1,.45-.09c.48.32,1.1.48,1.34,1.11.06.16.2.19.37.14.39-.1.4-.08.42.32,0,.12,0,.24,0,.36-.16,1.5-.32,3-.51,4.5-.07.53-.15,1.06-.2,1.63.28-.05.41-.26.61-.34s.18-.09.26,0,0,.19,0,.29l-.07.11c-.84.48-.93,1.3-1,2.14-.16,1.41-.37,2.81-.51,4.22a.74.74,0,0,1-.18.51c-.2,0-.15-.19-.16-.3s-.13-.19-.27-.1a1.27,1.27,0,0,0-.3.31.61.61,0,0,1-.72.2c-.25-.09-.54-.17-.53-.56-.06.1-.18.09-.23.2a.9.9,0,0,1,.36.16c.22.19.23.36,0,.55a1,1,0,0,1-.53.26c-.29,0-.55,0-.71.3-.06.11-.21.1-.32,0a.23.23,0,0,1-.12-.3.59.59,0,0,0-.2-.63c-.05,0-.05-.12-.13-.14a.47.47,0,0,0,.15.66c.19.14.13.33-.07.4s-.32.31-.34.56c-.06.66-.18,1.31-.28,2A.49.49,0,0,1,50,34.72Z" transform="translate(-46.74 -12.63)"/><path class="cls-4" d="M99.35,44.6c-.19,0-.42.13-.5-.2.08.55-.08,1.06,0,1.58,0,.11,0,.22-.14.19-.28-.09-.31.13-.44.28a3.66,3.66,0,0,1-1.6,1.36,9.47,9.47,0,0,1-1.08.46A3,3,0,0,1,93.43,48a1.56,1.56,0,0,0-1.36-.17c-.2.08-.38,0-.58-.05s-.47.07-.24.34a1.3,1.3,0,0,1,.31.9c-.11.42.24.86-.1,1.25-.11.14-.19.26-.37.21s-.32-.11-.34-.33c0-.48-.22-.93-.29-1.4,0-.24.09-.51.05-.76a7.89,7.89,0,0,1-1.53.26c-.3,0-.29.12-.23.33-.2-.13-.22.2-.39.16s-.19-.31,0-.49.2-.08.09-.2-.18-.23-.33-.18a3.12,3.12,0,0,0-1,.41A.81.81,0,0,0,87,49c.1.31.32.61.16,1,0,.07,0,.13.07.17a.54.54,0,0,1,.1.59c0,.1-.07.25,0,.31.31.32.12.7.14,1.05-.22,0-.16-.23-.2-.36s-.07-.3-.11-.45c-.11-.72-.24-1.43-.41-2.14,0-.14,0-.27,0-.41l0-.1a1.94,1.94,0,0,0,0-.24s0,.07,0,.11,0,.2,0,.3a9.74,9.74,0,0,0,.06,1.53,16.17,16.17,0,0,1,.11,1.7c0,.21,0,.42,0,.64a.34.34,0,0,1-.44.37,9.76,9.76,0,0,1-1.38-.47.31.31,0,0,1-.22-.27,15.77,15.77,0,0,0-.42-1.64l-.09-.22a2,2,0,0,0-.09-.26,1.38,1.38,0,0,0-.2-.33,1.22,1.22,0,0,0-1.23-.8,5.1,5.1,0,0,1-1.43-.32,2.7,2.7,0,0,1-1.44-1.22,2,2,0,0,1-.1-.21,1.4,1.4,0,0,0-.11-.4,1.31,1.31,0,0,1-.06-.62,4,4,0,0,1,2-3c.24-.17.24-.31.15-.56A3.19,3.19,0,0,1,82.89,39a2.65,2.65,0,0,1,1.3-.43,3.84,3.84,0,0,1,2,.27c.17.11.25-.06.33-.18a8.93,8.93,0,0,1,1.2-1.48A5.49,5.49,0,0,1,89,36.19c.62-.33.85-.27,1.29.28.29.38.42.39.78.08a.52.52,0,0,1,.79,0A5.71,5.71,0,0,0,94,37.9a1.8,1.8,0,0,1,1.11,1.49c.06.49.52.58.89.75.12,0,.09-.11.08-.18-.32-2.14-.64-4.29-1-6.43a.62.62,0,0,1,.07-.56,16.24,16.24,0,0,1,.4,2.08c.14,1,.28,1.9.43,2.85.09.52.2,1,.28,1.55,0,.14.05.27.22.28a.3.3,0,0,0,.33-.23c.18-.46.42-.58.92-.37.2.08.35.14.54,0s.16-.2,0-.29-.14-.06-.16-.1-.36-.15-.27-.33.24,0,.37.07c.38,0,.63-.21.88-.4s.43-.3.62-.47c.11.15,0,.24-.09.34a1.42,1.42,0,0,0-.24.25c-.06.1-.09.2,0,.29a.13.13,0,0,0,.18.05c.1-.05.08-.15.08-.24,0-.4.11-.48.48-.37v.16a3.12,3.12,0,0,0,0,.43s0,.07,0,0,0-.05,0-.06.06.26.08.39-.07.23-.24.19a.68.68,0,0,0-.86.51s0,0,0,.07a.11.11,0,0,1,.05-.09c.23,0,.35.06.33.27s-.2.24-.37.23a.94.94,0,0,1-.55-.36c-.16-.17-.28-.2-.47,0s-.37.19-.56-.12c-.06-.1-.09-.26-.24-.21s-.09.18-.09.28a.38.38,0,0,1-.09.25.64.64,0,0,0-.07.89,2.09,2.09,0,0,0,.42.42,4.87,4.87,0,0,1,1.45,2.14C99.08,43.72,99.18,44.18,99.35,44.6Z" transform="translate(-46.74 -12.63)"/><path class="cls-5" d="M48,47.07h.08c.18.08.14.23.13.38a10.45,10.45,0,0,1-.18,1.25c-.1.67,0,1.35-.16,2,0,.22-.07.44-.13.66s0,.4.28.38.5.07.57.37a.34.34,0,0,0,.37.25h.31c.18,0,.36,0,.44.22s-.06.29-.18.4a1,1,0,0,0-.26.35c-.06.15-.14.31,0,.44a.39.39,0,0,0,.51.08c.44-.34.78-.19,1.11.18a.84.84,0,0,0,.29.2A.31.31,0,0,0,51.7,54c.16-.63.35-.78,1-.74.28,0,.4-.05.46-.34a3.09,3.09,0,0,1,.34-.85,2.42,2.42,0,0,0,.27-.69c.06-.27.2-.32.37-.12a.36.36,0,0,0,.41.14.25.25,0,0,1,.28.09,1,1,0,0,0,.61.35.92.92,0,0,1,.75.52c.09.22.29.09.39,0,.35-.32.76-.17,1.13-.14s.29.25.28.46,0,.45.36.45a.17.17,0,0,1,.15,0c.22.28.53.22.83.3s.76-.13,1.12-.21c.2-.05.39-.18.61-.1s-.06.2-.15.25a6,6,0,0,1-.58.25.73.73,0,0,0-.19.07c-.13.09-.22.23-.15.37s.22.05.34,0c.38-.2.53-.14.71.28-.12.16-.44,0-.44.15s.31.08.46.15a.11.11,0,0,1,.08.08c0,.19-.08.26-.24.28a1,1,0,0,1-.65-.12.45.45,0,0,0-.7.4c0,.27-.17.34-.39.34H56.51c-.28,0-.37-.12-.26-.37a.6.6,0,0,0,0-.57.34.34,0,0,1,0-.31c.15-.32,0-.39-.3-.4s-.74-.09-1,.28a.2.2,0,0,1-.29,0,2.77,2.77,0,0,1-.67-.56c-.23-.32-.15-.57.23-.7A2.58,2.58,0,0,1,54.4,53a.56.56,0,0,0,.35-.68c0-.21-.09-.33-.39-.16s-.32.52-.62.61a.06.06,0,0,0,0,.07.49.49,0,0,1-.18.6,1.21,1.21,0,0,1-.78.25c-.12,0-.32-.11-.33.07s.21.2.37.21a.72.72,0,0,0,.5-.2c.11-.08.23-.17.36,0s0,.22,0,.32l-.16.27c-.08.13-.24.27-.11.43a.6.6,0,0,0,.56.24c.15,0,.31-.08.47-.1a.42.42,0,0,1,.5.38.38.38,0,0,1-.43.41H52.13a.39.39,0,0,1-.44-.31.47.47,0,0,0-.11-.21,2.44,2.44,0,0,0-1.44,0,1.64,1.64,0,0,1-1.32.51c-.49,0-1,0-1.47,0s-.45-.13-.4-.48.13-.88.17-1.17c0,.41-.19.95-.19,1.52a.25.25,0,0,1-.09.21,1.69,1.69,0,0,1,0-1.11c.25-1.69.53-3.38.78-5.06.12-.8.22-1.59.34-2.38C48,47.16,48,47.12,48,47.07Z" transform="translate(-46.74 -12.63)"/><path class="cls-6" d="M46.84,55.76c0-.73.22-1.43.26-2.15.13,0,.15.07.13.14-.11.45-.08.92-.21,1.37s0,.48.4.48H49a1.37,1.37,0,0,0,1-.52c.11-.13.24-.25.4-.19a2.31,2.31,0,0,0,.94.07c.25,0,.39.08.39.33s.13.31.36.31h2.23c.23,0,.46-.05.42-.34s-.23-.34-.51-.25a.94.94,0,0,1-.93,0c-.24-.17-.28-.32-.12-.52s.23-.47.49-.65a.32.32,0,0,0-.42.12.75.75,0,0,1-.89.09.29.29,0,0,1-.18-.36c.05-.15.22-.14.34-.09a.88.88,0,0,0,.79-.12c.29-.16.44-.34.19-.65-.13-.15-.06-.24.11-.18s.3,0,.23-.22a.14.14,0,0,1,.14-.19.39.39,0,0,0,.43-.32.12.12,0,0,1,.22,0,.93.93,0,0,1,.18.82.62.62,0,0,1-.58.46c-.15,0-.36,0-.41.24s.11.32.2.45.17.09.23.16c.29.33.54.39.78-.06a.24.24,0,0,1,.29-.08,1.89,1.89,0,0,0,.67.07c.37,0,.45.14.26.46,0,0-.12.1-.08.16.2.3.35.58.07.93-.07.1.11.12.19.12.74,0,1.48,0,2.22,0,.13,0,.24,0,.35,0s.53.07.37-.37c-.07-.21.17-.31.31-.41a.43.43,0,0,1,.59,0c.19.18.39.12.6.13s.19-.11.19-.24A.32.32,0,0,1,61,54.4c-.19-.24-.36-.53-.7-.15a.36.36,0,0,1-.41,0c-.11,0-.1-.16-.06-.24s0-.41.31-.46a2.35,2.35,0,0,0,.94-.39l0,0c.14,0,.3,0,.36.1.16.31.5.37.72.6s.35.13.4,0c.09-.33.43-.59.26-1-.09-.21,0-.38.2-.51s.28-.25.42-.36a.67.67,0,0,1,.81,0,.63.63,0,0,1,0,.8c-.1.14-.24.24-.33.39a1.35,1.35,0,0,1-.9,1c-.19.06-.25.23-.33.37-.19.36-.43.64-.9.57a.34.34,0,0,0,.22.33,1.83,1.83,0,0,0,1.3-.08,6.22,6.22,0,0,1,1.42-.69,1.08,1.08,0,0,1,.19,0c.19,0,.4,0,.46.22s-.1.37-.28.47a3.27,3.27,0,0,1-.41.11,1.16,1.16,0,0,0,.54,0,2.6,2.6,0,0,1,1.11,0,9.42,9.42,0,0,0,1.3,0c.1,0,.21,0,.28,0,.46-.45.93-.12,1.39,0a2.24,2.24,0,0,0,.52,0H73c.15,0,.29,0,.36-.17s.21-.26.33-.39.32-.14.42.1a.43.43,0,0,1,0,.11c-.2.29-.2.29,0,.31s.37.06.56,0a1,1,0,0,0,.77-.24c.12-.08.17-.21,0-.29-.44-.28-.73-.72-1.17-1-.07-.35,0-.42.3-.34a.92.92,0,0,1,.23.09c.14.09.16.3.34.37s.6,0,.81.25a1.41,1.41,0,0,1,.17.32.33.33,0,0,0,.51.23l.13-.09c.17-.14.17-.28,0-.41a3,3,0,0,1-.36-.35,2.5,2.5,0,0,1-.16-.51c-.08-.19,0-.3.18-.36l.12,0c.22,0,.4,0,.47.3s-.15.36.17.46.17.46.18.71a.64.64,0,0,1-.08.14c-.17.16-.09.3,0,.45l.06.09c.05.11.12.21.26.2s.52,0,.77,0c.91,0,1.81,0,2.71,0,3.26,0,6.53-.07,9.79,0,.64,0,1.27,0,1.9,0s1.08.1,1.62,0h.65c.28,0,.57,0,.85,0h.22c1.68,0,3.37.05,5,0,.43,0,.85,0,1.27,0a1.19,1.19,0,0,0,.42,0c.08,0,.13-.09.07-.19s-.29,0-.43,0a.22.22,0,0,1-.11-.18c0-.36.37-.27.47-.48a3,3,0,0,0-.1-.67c0-.14-.05-.3.18-.3a5,5,0,0,0,.24,1.27c.09.12,0,.28.08.4.06.43.06.44-.35.44-.2,0-.4.11-.61,0h-55c-.13,0-.29,0-.41.08Z" transform="translate(-46.74 -12.63)"/><path class="cls-6" d="M56.09,17.75v-.63c-.15-.05-.19.1-.29.12s-.38.11-.45-.11a1.68,1.68,0,0,0-1-1c-.17-.08-.31-.39-.56-.22a.79.79,0,0,0-.22,1c.22.4.11.45-.3.48-.25,0-.64-.06-.75.35,0,.06-.05,0-.06,0a.37.37,0,0,1,0-.11v-.08c.1-.12,0-.28.08-.4V17a2,2,0,0,0,.36-1.15c.07-.91.23-1.8.35-2.7,0-.22.09-.31.31-.3a11.54,11.54,0,0,1,1.55.06,1.77,1.77,0,0,0,.5,0c1.14-.08,2.27.17,3.41,0,.13,0,.29,0,.26.22s.09.21.17.29a.13.13,0,0,0,.21,0q.1-.12,0-.24c-.09-.06-.23-.11-.17-.27s.22-.12.35-.12c.51,0,1,0,1.55,0,.29,0,.51.21.8.19.09,0,.12.11.09.18-.24.47,0,1.05-.37,1.48a.8.8,0,0,0-.11.58c0,.27.15.28.36.29a4.26,4.26,0,0,1,1.33.07.48.48,0,0,1-.41.11H57.23l-.11,0c-.15-.06-.28-.12,0-.24a1.17,1.17,0,0,1,.38,0c-.58-.36-1.08.08-1.62.1a.13.13,0,0,0-.12.14c0,.23-.1.33-.34.32s-.18.08-.09.2a1.19,1.19,0,0,0,.68.36c.11,0,.1-.09.14-.15s.13-.24.28-.08a6.13,6.13,0,0,1-.14,1.35C56.24,17.66,56.21,17.76,56.09,17.75Z" transform="translate(-46.74 -12.63)"/><path class="cls-7" d="M96.09,55.6h-.16a1,1,0,0,0-.88,0h-.64a.5.5,0,0,0-.41-.06c-.14,0-.31.07-.38-.11s0-.33.18-.44.12,0,.15-.11c-.13-.06-.36,0-.33-.24a9.11,9.11,0,0,1,1.13-.44,8.11,8.11,0,0,0,3.49-2.77c.15-.21.39-.31.55-.51a4.13,4.13,0,0,0,.8-2.26c0-.27.13-.54-.11-.78a.3.3,0,0,1,0-.34.88.88,0,0,0,.1-.22,1,1,0,0,1,.56-.55c.15,0,.31,0,.42-.17a.18.18,0,0,1,.31,0c.24.34.5.27.79.09.17.87.36,1.74.51,2.62a18.52,18.52,0,0,1,.37,2.25c-.09.22,0,.43,0,.65s0,.38-.34.3l-.31-.07c-.2,0-.37-.08-.39.21,0,0,0,.06,0,.06-.52.14-.8.65-1.34.8a3.23,3.23,0,0,0-1.39.49c-.22.19-.46.09-.62-.19s-.09-.32-.23-.41-.38-.39-.55,0c0,0,0,.05-.05.05-.8-.05-.48.85-.95,1.1-.11.06-.07.24,0,.36s.17.17.24.27.15.21.09.32-.19.06-.3,0S96.19,55.5,96.09,55.6Z" transform="translate(-46.74 -12.63)"/><path class="cls-8" d="M97.92,26.27c-.09-.15-.25-.31-.25-.46s0-.38-.31-.28c-.13,0-.16-.06-.13-.17s0-.2.09-.25c.21-.17.31-.44.15-.58a.69.69,0,0,0-.69-.16c-.13.06-.27.07-.27-.09s-.17-.39-.18-.59c0-.42-.27-.47-.6-.42s-.44,0-.32-.37,0-.57-.38-.54-.33,0-.25-.28a1.43,1.43,0,0,1,.25-.49c-.23,0-.42.08-.61-.09s-.11-.42-.38-.52c0,.26-.08.42-.4.3s-.26.07-.23.29a15.64,15.64,0,0,1,.29,2.15c-.15,0-.17-.11-.18-.21-.19-1.23-.4-2.46-.58-3.69,0-.35-.08-.7-.1-1.06,0-.14,0-.26.06-.38-.08-.61-.18-1.22-.24-1.84a.89.89,0,0,1,.57-.91.38.38,0,0,0,.16-.11c.23-.32.23-.32.63-.33a.62.62,0,0,0-.12.87c.09.12.2.27.37.06s.08-.11.16-.06a.21.21,0,0,1,.09.2c0,.56,0,.59.57.34.33-.15.38.24.62.22,0,.21-.34.18-.24.39s.09.52.33.55.08-.3.2-.43,0-.13.14-.17c.14.74.29,1.47.42,2.2a1.8,1.8,0,0,0,.08.39s0,.13.07,0a.25.25,0,0,0,0-.12c.16.77.33,1.53.47,2.3.25,1.36.48,2.72.71,4.08A1.64,1.64,0,0,1,97.92,26.27Z" transform="translate(-46.74 -12.63)"/><path class="cls-2" d="M96.09,55.6c.08-.21.22-.11.36-.09s.18.05.21,0a.29.29,0,0,0-.07-.18c-.13-.21-.48-.31-.4-.63a1.42,1.42,0,0,1,.44-.6.24.24,0,0,0,.06-.28c-.1-.33,0-.45.33-.39s.33,0,.34-.21.14-.24.28-.11.52.27.59.64.38.4.61.1.3-.15.47-.2a3,3,0,0,0,1.42-.54c.17-.16.31-.37.6-.34a.14.14,0,0,0,.14-.19c-.07-.32,0-.39.3-.23h0c.23,0,.49.19.64.12s0-.39,0-.6,0-.22.08-.29c.07.7.38,1.35.4,2.07-.22.1-.08.27-.06.4a1.49,1.49,0,0,1,.06.63c-.08.1-.19.06-.28.09s-.29.11-.2.31a.16.16,0,0,0,.08.16c.16.12.32-.14.48,0s.14.26-.08.32-.28,0-.4.08Z" transform="translate(-46.74 -12.63)"/><path class="cls-8" d="M99.11,39.58c-.1-.18-.1-.32.12-.41a.61.61,0,0,0,.23-.15c.13-.23.28-.32.48-.08s.2,0,.29-.08c.23,1,.42,2,.56,3,0,.2,0,.4-.21.51a.43.43,0,0,1-.5-.14c-.25-.24-.54,0-.81-.06,0,0-.14.09-.13.18a.24.24,0,0,0,.21.21c.4,0,.57.19.64.54,0,.17.12.2.25.07s.13-.1.19,0,0,.13-.06.17c-.22.15-.37.61-.73.16,0-.07-.15,0-.22,0a.18.18,0,0,0,0,.28c.15.14.19.36.32.49.29.31,0,.59,0,.88,0,.12-.15.14-.26.1a.18.18,0,0,1-.12-.26c0-.12.2-.25,0-.36s-.2-.5-.3-.71a10.17,10.17,0,0,0-.64-1.48A5,5,0,0,0,97.15,41c-.35-.25-.33-.64-.42-1,0-.05,0-.14,0-.14.4,0,.33-.28.3-.55,0-.12.16-.18.27-.2s.19.09.24.18c.21.43.2.43.54.15.13-.11.26-.17.4,0a1.35,1.35,0,0,0,.46.43.3.3,0,0,0,.37,0,.13.13,0,0,0,.06-.17C99.36,39.58,99.24,39.58,99.11,39.58Z" transform="translate(-46.74 -12.63)"/><path class="cls-9" d="M86.52,12.73H83.74a.68.68,0,0,1-.53.12c-1.1-.09-2.19.07-3.29,0-.73,0-1.47-.08-2.2-.07-2,0-4,0-6.06,0a.49.49,0,0,1-.27,0H66.78c-.14,0-.3.06-.41-.07h28a7.45,7.45,0,0,1,.94.08c.31,0,.23.39.39.55a.39.39,0,0,0-.11.15,16.69,16.69,0,0,0,.27,2c.05.36,0,.47-.32.49s-.32-.37-.38-.59A10.29,10.29,0,0,1,95,14.08c0-.27-.14-.42-.46-.41-.5,0-1,0-1.51,0a16.19,16.19,0,0,1-3-.12c-1.07-.22-2.15-.1-3.21-.28-.16,0-.32-.07-.37-.25s0-.21.14-.23a11.9,11.9,0,0,1,2,0c.71,0,1.43,0,2,0-1.18,0-2.5-.07-3.83,0A.27.27,0,0,1,86.52,12.73Z" transform="translate(-46.74 -12.63)"/><path class="cls-10" d="M95.53,15.91c.32-.05.25-.29.22-.49-.09-.58-.2-1.15-.29-1.73,0-.13-.06-.29.07-.41.18.18.1.45.24.64a14.82,14.82,0,0,0,.35,2.2,3.92,3.92,0,0,1,0,.59C95.9,16.48,95.49,16.38,95.53,15.91Z" transform="translate(-46.74 -12.63)"/><path class="cls-8" d="M100.07,37.91c-.27,0-.55,0-.36.41a.28.28,0,0,1-.14.34c-.12.09-.22,0-.31-.08a.29.29,0,0,1-.08-.35c.1-.27.47-.33.49-.64.25-.08.08-.36.24-.48Z" transform="translate(-46.74 -12.63)"/><path class="cls-8" d="M49.63,36.31a12.11,12.11,0,0,1-.32,2.16A8.3,8.3,0,0,1,49.63,36.31Z" transform="translate(-46.74 -12.63)"/><path class="cls-2" d="M102.3,55.76a1.43,1.43,0,0,1,.58-.08c.32,0,.42-.11.38-.4.16.44.11.49-.34.5a3.24,3.24,0,0,1-.62,0Z" transform="translate(-46.74 -12.63)"/><path class="cls-8" d="M50,34.16v.56c-.17.32-.07.71-.24,1A4.82,4.82,0,0,1,50,34.16Z" transform="translate(-46.74 -12.63)"/><path class="cls-8" d="M50.43,31.05a7.89,7.89,0,0,1-.24,1.52A3.76,3.76,0,0,1,50.43,31.05Z" transform="translate(-46.74 -12.63)"/><path class="cls-11" d="M95.77,13.92c-.28-.14-.16-.42-.24-.64h.16A1.74,1.74,0,0,1,95.77,13.92Z" transform="translate(-46.74 -12.63)"/><path class="cls-8" d="M50.59,29.94a2.43,2.43,0,0,1-.16,1C50.45,30.57,50.36,30.23,50.59,29.94Z" transform="translate(-46.74 -12.63)"/><path class="cls-8" d="M100.15,38.47a.41.41,0,0,1,0,.11c0,.1-.07.05-.09,0a.45.45,0,0,1,0-.51C100.2,38.18,100.13,38.33,100.15,38.47Z" transform="translate(-46.74 -12.63)"/><path class="cls-8" d="M49.71,35.76c0,.18.08.39-.08.55C49.66,36.13,49.56,35.92,49.71,35.76Z" transform="translate(-46.74 -12.63)"/><path class="cls-8" d="M50,33.6c0,.19.08.39-.08.56C50,34,49.88,33.77,50,33.6Z" transform="translate(-46.74 -12.63)"/><path class="cls-8" d="M50.11,33.05c0,.18.07.39-.08.55C50.06,33.42,50,33.21,50.11,33.05Z" transform="translate(-46.74 -12.63)"/><path class="cls-8" d="M50.19,32.57c0,.16.07.34-.08.48C50.14,32.89,50.05,32.71,50.19,32.57Z" transform="translate(-46.74 -12.63)"/><path class="cls-2" d="M52.5,17.11c0,.13,0,.28-.08.4C52.44,17.37,52.37,17.22,52.5,17.11Z" transform="translate(-46.74 -12.63)"/><path class="cls-2" d="M103.26,55.28c-.14-.11-.06-.26-.08-.4C103.31,55,103.24,55.15,103.26,55.28Z" transform="translate(-46.74 -12.63)"/><path class="cls-12" d="M92.58,17.11c.17.41.11.86.24,1.27a5.17,5.17,0,0,1,.11.54.57.57,0,0,1-.21.6c-1,.88-1.92,1.81-3,2.64-.22.18-.39.43-.71.46a.62.62,0,0,0-.84-.16,6.13,6.13,0,0,1-1.53.38.41.41,0,0,1-.5-.22c-.1-.21.11-.29.23-.4a6,6,0,0,0,.72-.61c.31-.46.82-.71,1.17-1.13a18.77,18.77,0,0,1,2-2c.48-.43,1-.88,1.47-1.28a2,2,0,0,0,.65-.79.08.08,0,0,1,.1,0v.08C92.61,16.67,92.47,16.91,92.58,17.11Z" transform="translate(-46.74 -12.63)"/><path class="cls-13" d="M57,15.51H91.85c.16,0,.35-.07.49.07a.71.71,0,0,1-.56.13H86.86a3.09,3.09,0,0,0-.43,0c-4.73,0-9.45,0-14.17,0H67.17a1.69,1.69,0,0,0-1.16.41,16,16,0,0,1-1.62,1.22,20.1,20.1,0,0,0-2.14,1.77c-.75.68-1.54,1.3-2.31,1.95-1.17.94-2.39,1.81-3.53,2.78a.14.14,0,0,1-.16,0l.14-.25a2.73,2.73,0,0,0-.76.51c-.06,0-.1.14-.2.1s-.06-.14-.06-.22c0-.54.14-1.07.2-1.6.11-1.06.26-2.12.36-3.18,0-.47.1-.94.16-1.41a14.36,14.36,0,0,0,.24-1.6.27.27,0,0,1-.07-.24.48.48,0,0,1,.46-.46A.29.29,0,0,1,57,15.51Z" transform="translate(-46.74 -12.63)"/><path class="cls-14" d="M89.07,22.61c1.09-.89,2.13-1.82,3.16-2.77.46-.43.8-.8.59-1.46h.08l.16,1.44a.4.4,0,0,0-.47.05c-.41.35-.78.73-1.15,1.11-.9.9-1.91,1.67-2.84,2.54l-1.31,1.22c-1,1-2.05,1.93-3.08,2.88-3.16,2.94-6.21,6-9.24,9-1.47,1.49-2.89,3-4.37,4.52-.18.19-.32.42-.52.6a.4.4,0,0,1-.31.15.2.2,0,0,1-.12-.18,1,1,0,0,1,.38-.59c1-1,1.91-1.94,2.83-2.94s2.09-2,3-3.15c1.66-1.58,3.27-3.21,4.9-4.81,1.35-1.32,2.75-2.57,4.13-3.85.91-.84,1.82-1.68,2.72-2.55l.11-.12a.88.88,0,0,0,.22-.21l.11-.11a.85.85,0,0,0,.24-.26C88.54,23,88.73,22.67,89.07,22.61Z" transform="translate(-46.74 -12.63)"/><path class="cls-8" d="M71.39,12.73H83.74a.6.6,0,0,0,.17.36l-.1,0c-.37.31-.68.15-1-.13s-.55-.08-.79.08-.07.17,0,.26.14.05.19,0,.17-.05.27,0a3.42,3.42,0,0,0,.77.3c.26,0,.43.31.54.54s-.09.36-.26.37a.32.32,0,0,1-.33-.36c.08-.39-.14-.22-.28-.17a1.37,1.37,0,0,0-.57.41c-.18.22-.35.18-.53,0s-.32-.4-.59-.46c-.07,0-.09-.08-.06-.16s.08-.14.18-.12.28,0,.27-.11-.18-.13-.31-.08a.18.18,0,0,1-.22-.05c-.29-.41-.75-.33-1.15-.41A1.43,1.43,0,0,1,79.6,13c-.42-.16-.55-.07-.57.45-.26-.55-.72-.59-1.2-.6a.48.48,0,0,0-.48.2c0,.09-.18.18-.27.09-.46-.44-1-.26-1.56-.28-.75,0-1.5,0-2.25,0H71.76C71.63,12.8,71.49,12.85,71.39,12.73Z" transform="translate(-46.74 -12.63)"/><path class="cls-8" d="M75.81,15.43h-.56c-.7,0-.72,0-.93-.67-.1-.33.22-.45.41-.57s.42-.22.11-.46c-.16-.12,0-.24,0-.35s.06-.26.19-.19.4.13.47.34a2.36,2.36,0,0,1,.1.38c0,.07,0,.14.11.13s.13-.08.11-.14c-.11-.41.26-.52.44-.74s.14-.14.23,0,.08.22,0,.27c-.36.17-.24.4-.1.64s.24.35.1.58,0,.3.21.34.23.05.29.18.1.18.08.25-.16,0-.25,0Z" transform="translate(-46.74 -12.63)"/><path class="cls-15" d="M89.63,15.59h2.71a2.77,2.77,0,0,1,.16.8h-.08c-.78.12-1.57.26-2.35.4a1.79,1.79,0,0,1-.86,0c-.2-.15-.1-.29,0-.42s.49-.43.69-.64C89.82,15.74,89.68,15.81,89.63,15.59Z" transform="translate(-46.74 -12.63)"/><path class="cls-8" d="M72.77,15.43h-.83c-.17,0-.29,0-.13-.22s.14-.44.11-.67a.65.65,0,0,1,.41-.79,1.22,1.22,0,0,0,.31-.25c.16-.13.79-.16.88,0s0,.5-.18.7-.22.15-.33.22-.32.12-.24.34.17.36.42.36a1.13,1.13,0,0,0,.32,0c.17,0,.3,0,.32.16s-.19.16-.31.17Z" transform="translate(-46.74 -12.63)"/><path class="cls-7" d="M86.52,12.73h4.31v.12c-1.43.13-2.87-.12-4.31,0Z" transform="translate(-46.74 -12.63)"/><path class="cls-15" d="M92.58,17.11c-.16-.2,0-.43-.08-.64C92.66,16.67,92.55,16.9,92.58,17.11Z" transform="translate(-46.74 -12.63)"/><path class="cls-16" d="M70,41.73a10.65,10.65,0,0,1,.83-.95c1.11-1.13,2.23-2.24,3.31-3.39,1.83-2,3.77-3.85,5.68-5.74.87-.85,1.72-1.73,2.62-2.55,1.31-1.19,2.57-2.43,3.87-3.64s2.31-2.18,3.53-3.19c1-.8,1.79-1.73,2.74-2.54.25-.21.35-.21.45.09.14,1,.29,1.92.44,2.87a3.55,3.55,0,0,0,.2,1l.16,1.44a.11.11,0,0,1-.12,0,.33.33,0,0,1-.06-.1c-.21-1-.3-2-.48-2.94,0-.1,0-.21,0-.31s0-.4-.18-.44-.32.13-.41.27a4.85,4.85,0,0,1-1.47,1.2.51.51,0,0,1-.21.1,1.45,1.45,0,0,0-1.21.55,22,22,0,0,1-2,1.71,36.07,36.07,0,0,0-3.21,3,17.68,17.68,0,0,1-1.5,1.36,4.63,4.63,0,0,0-.7.7,4.18,4.18,0,0,1-.7.76,16.67,16.67,0,0,0-1.44,1.58q-.72.77-1.47,1.5a11,11,0,0,1-1.54,1.43c-.49.41-.92.88-1.4,1.3A7.61,7.61,0,0,0,74.51,38,12,12,0,0,1,73,39.3a13.91,13.91,0,0,1-1.65,1.35,5.25,5.25,0,0,0-.84.86C70.37,41.64,70.27,41.85,70,41.73Z" transform="translate(-46.74 -12.63)"/><path class="cls-17" d="M93.78,25.16h.08c.19.78.26,1.58.39,2.37.21,1.28.4,2.57.61,3.86A8.56,8.56,0,0,0,95.13,33a24.25,24.25,0,0,0,.36,2.54c.19,1.37.4,2.73.6,4.1,0,.16.06.31.09.47s.11.19,0,.25-.19,0-.27-.11c-.26-2.13-.63-4.24-1-6.36-.27-1.85-.56-3.69-.83-5.54-.13-.89-.28-1.78-.41-2.67C93.7,25.48,93.64,25.31,93.78,25.16Z" transform="translate(-46.74 -12.63)"/><path class="cls-8" d="M94.08,21.66c.23.05.4.09.4.26a1.72,1.72,0,0,1-.16.63c-.06.12-.18,0-.25-.09s-.22-.21-.07-.29S94.17,21.89,94.08,21.66Z" transform="translate(-46.74 -12.63)"/><path class="cls-8" d="M94.53,23.07c-.11,0-.14-.1-.17-.19a.09.09,0,0,1,.09-.1.18.18,0,0,1,.19.16C94.65,23,94.61,23.06,94.53,23.07Z" transform="translate(-46.74 -12.63)"/><path class="cls-2" d="M61.11,53.21a8.56,8.56,0,0,0-1.3.42,1.59,1.59,0,0,1-1.07-.08c-.19-.08-.31-.35-.6-.37s-.22-.23-.22-.42c0-.47-.09-.46-.54-.46a1.36,1.36,0,0,0-1,.29c-.16.13-.29,0-.33-.17s-.24-.36-.5-.42-.66-.06-.81-.44c-.05-.1-.15-.1-.24-.05s-.41.17-.45-.17a.1.1,0,0,0-.11-.1.09.09,0,0,0-.11.08c0,.49-.39.83-.49,1.28,0,.18-.16.32-.12.53s-.13.3-.34.29c-.92-.06-.92-.06-1.11.8a.53.53,0,0,1-.59.17,1.83,1.83,0,0,1-.49-.39c-.21-.24-.47-.36-.75-.07s-.59.1-.81-.07,0-.39,0-.57a.74.74,0,0,1,.32-.4c.1,0,.19-.12.15-.24s-.16-.16-.28-.16H49c-.27,0-.44-.08-.45-.37s-.2-.28-.4-.26c-.45.06-.55-.1-.43-.55A8.38,8.38,0,0,0,47.87,50,10,10,0,0,1,48,48.35a2.76,2.76,0,0,0,.1-1.28h0c.09-.28.05-.64.41-.76,0-.16-.31-.15-.17-.35,0,0,0-.06,0-.08a.21.21,0,0,1,.08-.32,2.83,2.83,0,0,1,.54-.23c.21,0,.38,0,.26.31a4.15,4.15,0,0,1-.45.83c-.08.12-.19.27.1.28a.37.37,0,0,1,.28.58c-.05.08-.16.19-.14.22.29.48-.05.83-.3,1.22a1.38,1.38,0,0,0,.88-.88c.06-.12.12-.21.26-.16a1.19,1.19,0,0,0,.46,0c.13,0,.37,0,.18.28-.18.06-.36.11-.41.32s-.07.17-.15.18c-.45.06-.45.5-.67.76,0,.05-.07.13,0,.18s.13,0,.19,0a1,1,0,0,0,.42-.5c.07-.26.12-.55.47-.6-.12.36-.23.73-.35,1.09a.76.76,0,0,0,0,.64,2.31,2.31,0,0,1,.43-.53c.23-.16.49-.06.42.19-.14.48.07.95,0,1.41.38,0,.52.13.43.43,0,.06-.08.16-.11.15-.42-.06-.53.43-.88.51-.13,0-.3.14-.25.3s.21,0,.33,0a.33.33,0,0,1,.36.33c.1.62.41.78,1,.53a3.14,3.14,0,0,1,1.05-.33c.37,0,.37-.43.5-.68a13.64,13.64,0,0,0,.57-1.37c0-.11.08-.22.23-.24s.21.1.25.22.15.15.27,0c.29-.27.37-.25.46.14a.34.34,0,0,0,.35.31.77.77,0,0,1,.75.54c.05.13.08.26.25.25s.15-.18.17-.3.11-.25.27-.16a3.61,3.61,0,0,0,.64.19c.38.13.68.27.61.76,0,.17.1.24.29.21a1.12,1.12,0,0,0,.61-.31c.29-.25,0-.42-.07-.62a.8.8,0,0,1,0-.55,1.43,1.43,0,0,0,.08-.22c0-.11-.25-.22,0-.32a3.44,3.44,0,0,1,.72-.17s.1,0,.1.05c.05.46.34.43.69.38.17,0,.19.29,0,.48-.35.39-.35.39,0,.71a.25.25,0,0,1,0,.39c-.06.06-.15.1-.22.16s-.23.11-.13.23.19,0,.27-.06.06-.07.09-.08c.37,0,.54-.16.35-.58,0-.1.13-.33.37-.3s.18,0,.14-.11a10.19,10.19,0,0,1-.49-1.3l-.05-.06a1.06,1.06,0,0,1,.8-.08c.27.2.14.38,0,.55s-.2.21-.1.34.2,0,.3-.06a1.06,1.06,0,0,1,.19-.06c.22-.06.43-.07.53.18s-.1.39-.41.41-.32.15-.16.39.12.45-.17.55A2.67,2.67,0,0,1,61.11,53.21Z" transform="translate(-46.74 -12.63)"/><path class="cls-8" d="M50,34.72c.08-.85.3-1.68.34-2.54,0-.17,0-.41.35-.36a.18.18,0,0,0,.17-.14c0-.13-.09-.15-.16-.2a.6.6,0,0,1,0-.86c.09-.06.18-.07.15.1s.09.26.27.25c.39,0,.31.15.19.37,0,.06-.1.1-.13.15s-.16.25,0,.33a.2.2,0,0,0,.31-.14c.05-.26.18-.3.42-.24a.73.73,0,0,0,.67-.18c.1-.09.29-.15.18-.33s-.16-.3-.36-.23-.26,0-.29-.11.12-.17.23-.17.2-.2.37-.29c-.22.47.09.62.41.72a.53.53,0,0,0,.71-.33c.09-.22.35-.21.5-.36s.13.06.14.14,0,.34,0,.52a.55.55,0,0,1,.09.5.61.61,0,0,1,0,.12.09.09,0,0,1-.12,0c-.08.56-.13,1.12-.25,1.66s0,.81-.19,1.2c-.26-.35-.53-.34-.86.11s-.74.5-1,.92A2,2,0,0,1,51,35.27a.88.88,0,0,0-.7-.32C50.17,35,50.14,34.79,50,34.72Z" transform="translate(-46.74 -12.63)"/><path class="cls-18" d="M61.74,50.74H58.56a.28.28,0,0,1-.4,0H56.41a.8.8,0,0,1-.88,0H53.06c-.23-.11-.49,0-.72-.08s-.12-.37-.11-.49c.11-1,.16-1.91.33-2.86a3.4,3.4,0,0,0,0-.64,5.11,5.11,0,0,1,.13-1.4A12.58,12.58,0,0,1,53,43.33l.08-.32a.67.67,0,0,1,.08-.64,13.14,13.14,0,0,0,.16-1.66c0-.09,0-.19.08-.25a.56.56,0,0,1,.11.48c-.05.46,0,.92-.11,1.38a2.51,2.51,0,0,0,.21,1.12,4.15,4.15,0,0,1,0,1.49c0,.26,0,.52,0,.78-.09.84-.15,1.69-.22,2.53-.06.66,0,1.32-.1,2,0,.24.08.34.32.33,1.3,0,2.6.05,3.9-.06a15.72,15.72,0,0,1,1.94,0,15.73,15.73,0,0,1,2.06,0c.16,0,.27-.09.37-.2.93-1,1.8-2.05,2.75-3,.47-.53,1-1,1.41-1.59,1-1.07,2-2.26,3-3.35.22-.23.36-.56.74-.6a.16.16,0,0,0,.08.16c0,.3-.2.45-.37.62-.62.66-1.21,1.36-1.81,2-.89,1.09-1.9,2.08-2.8,3.15-.71.83-1.42,1.66-2.16,2.44-.08.09-.19.18-.12.31s.19.08.29.08l1,0h20c.22,0,.46-.06.65.1,0,.2-.15.25-.28.24a12.35,12.35,0,0,1-2.43-.15H81.5a2.84,2.84,0,0,1-1,.13H73.71c-.77,0-1.55,0-2.33,0-1.4,0-2.8,0-4.21,0H64.25c-.54,0-1.08,0-1.62,0A2.09,2.09,0,0,1,61.74,50.74Z" transform="translate(-46.74 -12.63)"/><path class="cls-19" d="M54.49,31.45v-.08A1.39,1.39,0,0,1,55,30.28a.92.92,0,0,0,.24-.58c.13-.76.25-1.51.36-2.27,0-.15-.06-.44.26-.41a.62.62,0,0,1,.07.46c-.14,1-.35,2-.51,3.05-.22,1.34-.49,2.68-.61,4-.08.8-.21,1.6-.28,2.4s-.14,1.6-.19,2.41a5.84,5.84,0,0,1-.22,1.44.1.1,0,0,1-.12,0,.73.73,0,0,1-.1-.64,5.9,5.9,0,0,0-.09-2.54,4.72,4.72,0,0,1,.09-1.53c0-.27-.11-.56.1-.8l.36-3,0-.31C54.52,31.89,54.39,31.66,54.49,31.45Z" transform="translate(-46.74 -12.63)"/><path class="cls-6" d="M53,43.33a9.84,9.84,0,0,1-.11,1.53c0,.54-.14,1.07-.21,1.6,0,.08,0,.16-.08.21,0-.12-.13-.14-.24-.08a.55.55,0,0,1-.59,0c-.15-.07-.3-.13-.44,0-.47.16-.57.13-1-.31a1.13,1.13,0,0,1,.7-.8.41.41,0,0,0,.26-.36c0-.16-.11-.18-.23-.22s-.19-.29-.15-.46.15-.37.41-.34.68.25.9-.18C52.76,44.06,52.8,43.61,53,43.33Z" transform="translate(-46.74 -12.63)"/><path class="cls-20" d="M54,35.36c-.05.72-.08,1.45-.14,2.17,0,.26.18.42.22.66a6,6,0,0,1,0,1.8c0,.29,0,.58,0,.87a.78.78,0,0,1,.09.58.59.59,0,0,1,0,.13,1.84,1.84,0,0,0-.05.57,1.18,1.18,0,0,1,0,.2c-.1,1-.25,2-.36,3,0,.13,0,.3-.18.33,0-.57.11-1.13.11-1.69a2.7,2.7,0,0,0-.15-.84,2.83,2.83,0,0,1-.11-1.13,7.1,7.1,0,0,0,.07-1.6c.13-1.49.41-3,.48-4.46v-.06a1.61,1.61,0,0,1,0-.49.16.16,0,0,1,.07-.09Z" transform="translate(-46.74 -12.63)"/><path class="cls-8" d="M50,35.21c.07.09.11.17.16.18.68.1.57.63.6,1.09,0,.08,0,.16.08.21s.14,0,.21-.07.34-.42.67-.37a1.59,1.59,0,0,0,.1,1c.1.21,0,.31-.19.32a1,1,0,0,1-.62-.07c-.27-.15-.43,0-.49.24,0,.08,0,.18-.12.18s-.12-.12-.12-.21,0-.36-.29-.41-.32-.15-.29-.45C49.75,36.33,49.88,35.81,50,35.21Z" transform="translate(-46.74 -12.63)"/><path class="cls-21" d="M53.14,42.37l-.08.64c-.11-.06-.05-.2-.14-.28s-.14.17-.21.25-.29.32-.57.22a.67.67,0,0,0-.68.1c-.22.19-.39.1-.54-.09a3.76,3.76,0,0,0-.25-.31c-.23-.22-.2-.41.08-.51s.21-.3.39-.38a1.57,1.57,0,0,1,1.54.39C52.85,42.62,53,42.33,53.14,42.37Z" transform="translate(-46.74 -12.63)"/><path class="cls-8" d="M53.94,35.36v.08c-.11.17,0,.38-.08.56h0c-.18.1,0,.41-.21.45s-.28-.2-.42-.31-.23,0-.34-.07-.31-.16-.16-.32c.28-.31.72-.35,1.07-.54C53.87,35.17,53.93,35.27,53.94,35.36Z" transform="translate(-46.74 -12.63)"/><path class="cls-5" d="M50.35,48.35a1.11,1.11,0,0,0-.4.7c-.05.35-.39.43-.63.6-.08.05-.15,0-.19-.11a.16.16,0,0,1,0-.22c.18-.17.21-.44.35-.59s.6-.42.79-.76c0-.07.17,0,.25.06S50.5,48.29,50.35,48.35Z" transform="translate(-46.74 -12.63)"/><path class="cls-2" d="M55.53,50.74h.88a2.07,2.07,0,0,0,0,.43c0,.14,0,.24-.12.27s-.29.05-.35-.1a.51.51,0,0,0-.44-.39C55.31,50.91,55.5,50.81,55.53,50.74Z" transform="translate(-46.74 -12.63)"/><path class="cls-2" d="M58.16,50.74h.4c0,.21,0,.42-.24.52a.33.33,0,0,1-.42-.11c-.12-.18.07-.21.16-.29A.58.58,0,0,0,58.16,50.74Z" transform="translate(-46.74 -12.63)"/><path class="cls-5" d="M48.36,46a1.43,1.43,0,0,1,0,.61c-.09.16-.06.36-.2.5A1.66,1.66,0,0,1,48.36,46Z" transform="translate(-46.74 -12.63)"/><path class="cls-5" d="M51.31,46.59c.11-.17.23-.26.43-.1a.9.9,0,0,0,.6.1c-.16.3-.39.3-.65.15S51.46,46.57,51.31,46.59Z" transform="translate(-46.74 -12.63)"/><path class="cls-5" d="M50.35,46.28c.3.17.57.41,1,.31C50.88,47,50.54,46.85,50.35,46.28Z" transform="translate(-46.74 -12.63)"/><path class="cls-8" d="M53,36.64c-.06.11-.14.25-.27.26a.19.19,0,0,1-.17-.23.24.24,0,0,1,.26-.2C52.89,36.48,53,36.5,53,36.64Z" transform="translate(-46.74 -12.63)"/><path class="cls-2" d="M57.05,50.84a.18.18,0,0,1,.14.2.15.15,0,0,1-.15.15c-.11,0-.15-.09-.14-.19A.16.16,0,0,1,57.05,50.84Z" transform="translate(-46.74 -12.63)"/><path class="cls-8" d="M53.81,34.93c-.09,0-.22-.06-.21-.16s.14-.12.24-.13.14,0,.11.15S53.92,35,53.81,34.93Z" transform="translate(-46.74 -12.63)"/><path class="cls-5" d="M52.34,50.66c.24,0,.5-.08.72.08C52.82,50.7,52.57,50.82,52.34,50.66Z" transform="translate(-46.74 -12.63)"/><path class="cls-22" d="M54.49,31.45c0,.21.08.44-.08.64v-.64Z" transform="translate(-46.74 -12.63)"/><path class="cls-5" d="M48.44,45.56a.51.51,0,0,0-.08.32C48.23,45.61,48.25,45.55,48.44,45.56Z" transform="translate(-46.74 -12.63)"/><path class="cls-8" d="M52.34,36.24c-.06,0-.1,0-.12,0l-.06-.09s.05,0,.07,0Z" transform="translate(-46.74 -12.63)"/><path class="cls-8" d="M73.7,50.74h7.8c-.26.11-.27.24-.07.46a2.07,2.07,0,0,1,.44.73.88.88,0,0,0,.53.54,3.37,3.37,0,0,1,1,.66,4.46,4.46,0,0,1-1,.48A.66.66,0,0,0,82,54a.58.58,0,0,1-.87.41c-.25-.12-.63-.19-.61-.54s.38-.42.68-.49t0,0c-.1-.07-.19,0-.29,0a1,1,0,0,1-.84-.24c-.35-.3-.5-.29-.74.1a.38.38,0,0,1-.39.22,4.33,4.33,0,0,0-.72,0,.65.65,0,0,1-.73-.38c-.13-.3-.7-.3-.93-.05a1.58,1.58,0,0,1-.23.22c-.28.09-.57.14-.84.25a.87.87,0,0,1-1-.23c-.25-.21-.07-.43,0-.66a.6.6,0,0,0-.18.47.43.43,0,0,1-.44.43c-.31,0-.66.22-.91-.3-.09.47-.39.54-.7.58a.93.93,0,0,0-.56.25c-.18.16-.39.4-.68.11-.08-.09-.16,0-.23.08s-.24.21-.39.19a11.91,11.91,0,0,0-1.79.16c-.34,0-.53-.16-.52-.5a.5.5,0,0,0-.21-.43.53.53,0,0,1,.18-1c.11,0,.24-.06.23-.22a.67.67,0,0,0-.27-.47c-.11-.11-.18,0-.26.08s-.43.21-.6-.06a.17.17,0,0,0-.2-.09.68.68,0,0,1-.44-.16c-.2-.13-.21-.29,0-.39a1.32,1.32,0,0,0,.59-.6h4.23a5.68,5.68,0,0,0,1.09,0c.39,0,.53.19.34.52a.37.37,0,0,0,.11.56.38.38,0,0,0,.54,0,.53.53,0,0,0,.08-.69C73.39,50.94,73.35,50.79,73.7,50.74Z" transform="translate(-46.74 -12.63)"/><path class="cls-8" d="M81.74,50.74a19.4,19.4,0,0,1,2.41.06.3.3,0,0,0,.3-.14l0,0,0,0c.09.56.52,1,.44,1.64a.31.31,0,0,0,.26.32c.43,0,.75.31,1.16.38s.45.08.45-.36c0-.16,0-.31,0-.47.22,0,.16.24.17.38,0,.51.15.58.63.42.26,0,.5-.22.77-.11s.56.07.83,0a2.08,2.08,0,0,1,.86,0,.73.73,0,0,0,.58-.06,4.82,4.82,0,0,1,2.27-.43A1.82,1.82,0,0,0,94,52.22a.41.41,0,0,1,.24,0c.1,0,.19.07.28.09s.29.28.49.06c.7-.15,1.42-.22,2.12-.41a4.36,4.36,0,0,1-1,.91,9,9,0,0,1-4.39,1.65,13.06,13.06,0,0,1-4.32-.17.77.77,0,0,1-.58-.32.14.14,0,0,0-.19-.08,1,1,0,0,1-.75-.15,13.13,13.13,0,0,1-2.7-1.55c-.16-.15-.37-.27-.41-.52,0-.07,0-.13-.11-.14A.78.78,0,0,1,82,51C82,50.82,81.8,50.84,81.74,50.74Z" transform="translate(-46.74 -12.63)"/><path class="cls-2" d="M76.33,53.21c.34-.5.62-.6,1.13-.38.06,0,.16.06.16.09,0,.46.33.42.65.42a3.32,3.32,0,0,1,.77,0c.13,0,.19-.09.24-.22A.46.46,0,0,1,80.1,53a.72.72,0,0,0,.9.25.86.86,0,0,1,.23,0c.11,0,.23,0,.24.15s-.12.17-.23.16a.81.81,0,0,0-.58.2c-.12.09-.16.22,0,.3a1.38,1.38,0,0,0,.88.38.4.4,0,0,0,.39-.35c0-.56.51-.6.82-.7s.42-.33.71-.22l.08.08c.11.3.41.28.63.4a2.78,2.78,0,0,0,.56.24.12.12,0,0,1-.07.21,1.09,1.09,0,0,0-.62.53c-.14.2-.36.22-.56.3-.48.2-1-.06-1.43.12a.37.37,0,0,1-.27,0c-.41-.13-.55,0-.6.39a.45.45,0,0,1,0,.23H78.32c-.22-.12-.49-.11-.71-.25s-.3-.28-.07-.48a.34.34,0,0,0,.11-.38.26.26,0,0,1,.06-.3c.13-.09.19,0,.27.1s.25.16.35,0,.37-.37.53-.57l0,0c-.74.3-1.3-.12-1.89-.45-.13-.07-.28-.17-.45,0A.11.11,0,0,1,76.33,53.21Z" transform="translate(-46.74 -12.63)"/><path class="cls-8" d="M81.11,55.6a.6.6,0,0,1,.18-.78c.07-.06.17-.14.24-.07a.63.63,0,0,0,.79.06c.13-.06.28,0,.41.09s.21.09.3,0a.39.39,0,0,1,.49-.11.19.19,0,0,0,.22,0,2.7,2.7,0,0,1,1-.89,19.31,19.31,0,0,0,2.67,1.07,4.08,4.08,0,0,0,1.17.12h3c0,.46-.36.44-.63.56C87.64,55.52,84.37,55.64,81.11,55.6Z" transform="translate(-46.74 -12.63)"/><path class="cls-2" d="M90.91,55.6c.2-.2.55-.23.63-.56a6.45,6.45,0,0,0,1.62-.31,1,1,0,0,1,.46-.09c.06.14.15.16.29.11s.23-.06.25.09-.09.19-.21.2a.25.25,0,0,0-.26.19c-.06.25.06.33.28.26s.34-.1.44.11Z" transform="translate(-46.74 -12.63)"/><path class="cls-23" d="M94.49,52.33c-.09,0-.18,0-.24-.07A8.45,8.45,0,0,0,91.51,52a.31.31,0,0,1-.19,0,.7.7,0,0,0-1-.44.36.36,0,0,1-.4-.08,6,6,0,0,1,3.42.14c.43.15.77.44,1.2.58.06,0,.11.08.08.14S94.55,52.38,94.49,52.33Z" transform="translate(-46.74 -12.63)"/><path class="cls-24" d="M90,51.46a3.26,3.26,0,0,0,.62-.06c.53-.13.65,0,.73.53-.09.11-.22.1-.35.12a3.57,3.57,0,0,0-1.11.29.74.74,0,0,1-.58.11c-.1-.11,0-.16.07-.22.26-.26.25-.3-.09-.47a.16.16,0,0,1-.09-.07A1.61,1.61,0,0,1,90,51.46Z" transform="translate(-46.74 -12.63)"/><path class="cls-25" d="M93.69,49.75a1.26,1.26,0,0,1-.12.68c0,.08-.07.19-.18.19s-.15-.11-.18-.18a2,2,0,0,1-.11-1.61c0-.08.06-.19.16-.21s.15.1.18.18C93.56,49.12,93.77,49.41,93.69,49.75Z" transform="translate(-46.74 -12.63)"/><path class="cls-26" d="M88.36,48.75c.13-.06.13-.44.39-.16a2.34,2.34,0,0,1,.2,1.68c0,.09,0,.24-.15.25s-.16-.12-.22-.21A2.34,2.34,0,0,1,88.36,48.75Z" transform="translate(-46.74 -12.63)"/><path class="cls-27" d="M89.15,51.69c.42,0,.57.16.47.44s-.31.12-.39.28-.56.32-.87.4-.51.21-.8.15c0-.06,0-.1.07-.14a2.52,2.52,0,0,1,.29-.12c.19-.06.39-.11.4-.36s-.29-.11-.37-.25A3.16,3.16,0,0,1,89.15,51.69Z" transform="translate(-46.74 -12.63)"/><path class="cls-28" d="M88,52.09c.15.09.4-.26.48.1a.44.44,0,0,1-.38.58c-.14,0-.27.08-.41.12a3.81,3.81,0,0,1-.47-1.12c0-.17-.07-.34.08-.48.17.24.09.56.23.81S87.79,52,88,52.09Z" transform="translate(-46.74 -12.63)"/><path class="cls-8" d="M84.13,53.61c-.29,0-.63.06-.63-.4C83.71,53.35,84,53.37,84.13,53.61Z" transform="translate(-46.74 -12.63)"/><path class="cls-29" d="M94.49,52.33c.13,0,.13-.06.08-.15l.4.15.13.23A1.32,1.32,0,0,1,94.49,52.33Z" transform="translate(-46.74 -12.63)"/><path class="cls-22" d="M55.85,27a9.8,9.8,0,0,0-.31,1.77c-.08.35-.11.71-.18,1a.93.93,0,0,1-.4.7c-.33.19-.37.54-.47.86v-.55a5.26,5.26,0,0,0,.24-1.47c.18-.93.18-1.88.37-2.82a6.61,6.61,0,0,0,.16-1.32c0-.6.4-.86.76-1.17a1.88,1.88,0,0,1,.23-.16.22.22,0,0,1,0,.19c-.13.94-.24,1.88-.37,2.81A.44.44,0,0,1,55.85,27Z" transform="translate(-46.74 -12.63)"/><path class="cls-30" d="M56.25,24V23.8h.16a1.74,1.74,0,0,1,0,1.19c-.22,1.45-.44,2.9-.63,4.35a.31.31,0,0,1,0,.13,1.11,1.11,0,0,0-.12.56c-.22,1.46-.48,2.91-.65,4.38s-.34,3.16-.46,4.75c-.1,1.18-.25,2.35-.4,3.52,0,.11,0,.25-.19.26a1.2,1.2,0,0,1,0-.65v-.16c.1-.17,0-.38.08-.56v-.08c.11-.2,0-.43.08-.63.1-1,.22-2,.29-3,0-.69.09-1.37.18-2,.13-.91.17-1.84.33-2.74.2-1.09.35-2.19.56-3.27.13-.7.24-1.41.35-2.11,0-.22,0-.45,0-.67v-.08C56,26,56.1,25,56.25,24Z" transform="translate(-46.74 -12.63)"/><path class="cls-31" d="M93.78,25.16c.17,1.12.35,2.23.51,3.35.13.85.24,1.7.36,2.55.11.68.25,1.37.35,2.06.16,1,.3,2.08.45,3.12.11.71.21,1.41.35,2.11a17.25,17.25,0,0,0,.27,1.73c0,.09-.06.13-.15.14-.52-.17-1-.39-1-1S94.46,38.3,94,38a3.69,3.69,0,0,0-.75-.36A2.75,2.75,0,0,1,92,36.8c-.42-.46-.59-.44-1,0-.19.21-.48.13-.75-.22-.49-.63-.67-.63-1.37-.22a6.63,6.63,0,0,0-2.38,2.44c-.06.1-.12.26-.26.15-.61-.48-1.32-.32-2-.35a.46.46,0,0,1,.35-.53A3.77,3.77,0,0,0,81.83,37c-.07-.24.13-.33.26-.44.84-.74,1.61-1.57,2.41-2.35.62-.61,1.24-1.23,1.8-1.89.73-.59,1.39-1.24,2.11-1.84A11.35,11.35,0,0,0,90,28.83c.55-.64,1.16-1.23,1.72-1.86s1-1.15,1.59-1.71c.11-.12.21-.3.43-.18Z" transform="translate(-46.74 -12.63)"/><path class="cls-32" d="M83.1,43.33c-.07-.2-.25-.32-.34-.49a1.66,1.66,0,0,1,0-1.59c.1-.21.13-.5.38-.63.2.05.31-.17.49-.19a3.12,3.12,0,0,1,2.16-.32,2.52,2.52,0,0,1,.66.26c.48.25.62.2.81-.28A4.52,4.52,0,0,1,88.67,38c.56-.41.79-.4,1.24.11A9.57,9.57,0,0,0,92.8,40.3a22.67,22.67,0,0,1,2.83,1.53,1.28,1.28,0,0,1,.22.17c.2.25.44.46.66.69a2.14,2.14,0,0,1-.32,3.55,2.89,2.89,0,0,1-1.25.56c-.34.05-.46-.09-.33-.41a1.6,1.6,0,0,0,.18-.68,1.06,1.06,0,0,0-.32-.79c-.24-.22-.46-.47-.71-.7s-.46-.2-.76,0a1.64,1.64,0,0,0-.8,2c.06.19-.1.27-.27.31a1.06,1.06,0,0,1-1.08-.59,2.52,2.52,0,0,0-.28-.44c-.31-.33-.62-.28-.81.13a1.67,1.67,0,0,1-.25.54c-.09.09-.18.18-.31.13s-.13-.16-.14-.26,0-.27,0-.4a1.34,1.34,0,0,0-.46-1c-.2-.18-.41-.33-.6-.52a.42.42,0,0,0-.52-.05,1.84,1.84,0,0,0-.81,1.82c0,.13.08.25.11.38a.41.41,0,0,1-.3.53,6.63,6.63,0,0,1-4.44,0A1.3,1.3,0,0,1,82,45a3.91,3.91,0,0,1,3.1-1.43c-.19-.06-.47.12-.71-.09.07-.2.24-.16.38-.17a1.79,1.79,0,0,0,.46,0,.79.79,0,0,1,.27,0,3.65,3.65,0,0,0-2.26.09A.14.14,0,0,1,83.1,43.33Z" transform="translate(-46.74 -12.63)"/><path class="cls-33" d="M81.82,37c.27-.21.54,0,.81,0a2.5,2.5,0,0,1,1.5.74,2.09,2.09,0,0,0,.55.3c.06,0,.14,0,.14.11s-.07.14-.14.12c-.36-.09-.34.25-.47.41a2.8,2.8,0,0,0-2.54,2.76A2.49,2.49,0,0,0,82,42.87c.12.22,0,.3-.14.43a4.28,4.28,0,0,0-1.93,2.28c-.07.23,0,.48-.14.7s-.4.53-.76.55a.25.25,0,0,0,.09.22c.12.16.19.35,0,.5s-.33.05-.48,0c-.37-.23-.37-.23-.42.18,0,.17-.09.31-.27.34a.84.84,0,0,0-.5.3.83.83,0,0,1-1.25.1.37.37,0,0,0-.22-.08.36.36,0,0,1-.37-.4.8.8,0,0,1-.22.32c-.1.08-.21.17-.35.09a.25.25,0,0,1-.15-.3.49.49,0,0,0-.15-.43.33.33,0,0,1-.11-.36.35.35,0,0,0-.14-.45c-.2-.13-.09-.3,0-.47-.68,0-.68-.55-.89-1a3,3,0,0,1-1.07.76c-.12-.3.12-.46.29-.58a5.17,5.17,0,0,0,1.11-1.13,30.64,30.64,0,0,1,3.79-3.68,3.57,3.57,0,0,0,.28-.27A7.58,7.58,0,0,0,79.46,39c.25-.31.64-.51.82-.89l1.19-1.06C81.57,37,81.67,36.89,81.82,37Z" transform="translate(-46.74 -12.63)"/><path class="cls-34" d="M72.5,46.12c.28-.33.75-.44,1-.84.07-.14.21-.14.21.06a3.25,3.25,0,0,0,.2.6.41.41,0,0,0,.51.3c.1,0,.2-.07.26,0s-.07.15-.13.2-.17.22,0,.31a.29.29,0,0,1,.14.48.22.22,0,0,0,.06.31c.15.16.39.28.17.56,0,.06,0,.12.08.16a.14.14,0,0,0,.21,0c.17-.15.36-.31.28-.6.18.07.16.17.17.26a.85.85,0,0,0,0,.23.23.23,0,0,0,.16.1c.47,0,.89.68,1.4.09.18-.22.35-.46.7-.43.12,0,.17-.18.12-.33a.34.34,0,0,1,.14-.45c.15-.07.24.1.34.21s.33.27.47.13,0-.31-.12-.43a.29.29,0,0,1-.13-.27c0-.16.16,0,.23-.05a.46.46,0,0,0,.37-.27c.06-.2.2-.19.34-.18a1.36,1.36,0,0,0,.08.63c0,.08-.14.12-.18.21s.2.09.26.19l.08.16a.24.24,0,0,1-.08.34.27.27,0,0,0,0,.39c.09.15.21.14.34.07a.27.27,0,0,1,.43.12c.15.29.47.17.7.28a13.48,13.48,0,0,0,1.9.33c.54,0,.69.48.88.86s-.06.33-.19.45a1.29,1.29,0,0,1-.36.25l-.13,0H69c-.3,0-.36-.18-.2-.43a8.14,8.14,0,0,1,1-1.2c.55-.54,1-1.17,1.52-1.74.26-.29.51-.6.79-.89A.45.45,0,0,1,72.5,46.12Z" transform="translate(-46.74 -12.63)"/><path class="cls-35" d="M90,37c.32.32.53.74.88,1a7.27,7.27,0,0,0,.71.5c-.18-.22-.35-.41-.23-.68.19,0,.23.19.33.31a3.06,3.06,0,0,0,1.88,1.06A15.21,15.21,0,0,0,91.67,38c-.12-.07-.32-.08-.27-.31.08,0,.15,0,.22,0a.18.18,0,0,0,.16.08,3.39,3.39,0,0,1,.72.4,3.07,3.07,0,0,0,1,.63,1.22,1.22,0,0,1,.32.32.27.27,0,0,1,0,.32.79.79,0,0,1-.57.08.87.87,0,0,1,.41.24.43.43,0,0,0,.31.16c.11.06.23.07.32.16h.08a1.8,1.8,0,0,0,.48.24c.38.26.8.43,1.18.69a7.81,7.81,0,0,1,1.34,1.15,3,3,0,0,0,.27.23,2.51,2.51,0,0,1,.56,1,2.9,2.9,0,0,1,.3,1,2.72,2.72,0,0,1-.86,2.24,4.15,4.15,0,0,1-1.83,1.1,5.9,5.9,0,0,1-1.73,0,4.53,4.53,0,0,1-.74-.34,1.57,1.57,0,0,0-1-.11,2.09,2.09,0,0,1-1.49-.23c-.45-.27-.48-.26-.59.26,0,0-.05.06-.07.09l0,0c-.09-.47,0-.63.43-.79a.76.76,0,0,1,.41.15,1.75,1.75,0,0,0,1.6.16.75.75,0,0,1,.77.13,2.43,2.43,0,0,0,1.89.41,3.85,3.85,0,0,0,2.35-1.4,2.34,2.34,0,0,0,.3-2.58A5.81,5.81,0,0,0,95,40.83c-.92-.48-1.87-.89-2.77-1.4A6.93,6.93,0,0,1,90,37.58a1,1,0,0,1-.26-.48C89.8,37,89.86,37,90,37Z" transform="translate(-46.74 -12.63)"/><path class="cls-36" d="M83.1,43.33h.08c.14,0,.19.05.17.19s-.29.17-.45.24a2.76,2.76,0,0,0-1.79,2.06,1.61,1.61,0,0,0,1.06,1.8,5.84,5.84,0,0,0,2.59.27,8.15,8.15,0,0,0,2.93-.8.88.88,0,0,1,.83.1c.31.55.81.39,1.29.32.1,0,.19-.1.3,0h0a.11.11,0,0,1,0,.08,1.37,1.37,0,0,1-1.36.16,1,1,0,0,0-1.24-.13,8.25,8.25,0,0,1-4.83.56,2.56,2.56,0,0,1-1.24-.56A2.22,2.22,0,0,1,81,45,3.59,3.59,0,0,1,83.1,43.33Z" transform="translate(-46.74 -12.63)"/><path class="cls-37" d="M87.25,51.29a1.39,1.39,0,0,0,.34,1.15c.12.1,0,.3,0,.45l-.08.07c-.14.1-.27.24-.45.13a.49.49,0,0,1-.27-.48.79.79,0,0,0-.07-.52c0-.59-.12-1.16-.09-1.74a9.31,9.31,0,0,1,0-1.18.85.85,0,0,0,0-.42v-.32c.21,0,.06.19.16.24h0c.1.12,0,.28.08.39A13.06,13.06,0,0,1,87.25,51.29Z" transform="translate(-46.74 -12.63)"/><path class="cls-22" d="M90,37a.18.18,0,0,0-.16.08,3.43,3.43,0,0,0-2.55,2.06,7.28,7.28,0,0,0-.31.77c-.07.19-.2.32-.39.22a4.25,4.25,0,0,0-2-.33.15.15,0,0,1,0-.17h0a2.32,2.32,0,0,1,1.54,0c.51.13.51.14.69-.32A12.46,12.46,0,0,1,87.61,38a3.32,3.32,0,0,1,1.66-1.1C89.48,36.84,89.76,36.76,90,37Z" transform="translate(-46.74 -12.63)"/><path class="cls-25" d="M91.11,50.22A2,2,0,0,1,90.86,48,1.82,1.82,0,0,1,91.11,50.22Z" transform="translate(-46.74 -12.63)"/><path class="cls-8" d="M95.77,47.79c.43-.32,1-.46,1.38-.8A3.07,3.07,0,0,0,98.4,44.4c0-.36-.28-.63-.24-1,.49.33.35.88.38,1.33a2.7,2.7,0,0,1-1.27,2.37,4.69,4.69,0,0,1-.79.52A1.5,1.5,0,0,1,95.77,47.79Z" transform="translate(-46.74 -12.63)"/><path class="cls-33" d="M81.35,48.67c-.32,0-.68.18-.83-.31,0-.17-.19-.06-.28,0s-.34.12-.44-.1-.27-.41,0-.55a.22.22,0,0,0,.14-.25A3.22,3.22,0,0,0,81.35,48.67Z" transform="translate(-46.74 -12.63)"/><path class="cls-38" d="M84.53,39.66v.16c-.07.18-.23.17-.36.17s0,.08,0,0,0,0,0,0a.2.2,0,0,1,.11,0c-.17.29-.53.26-.73.49-.18-.07-.27.35-.48.08A1.9,1.9,0,0,1,84.53,39.66Z" transform="translate(-46.74 -12.63)"/><path class="cls-38" d="M86.76,39.34c0,.46-.14.55-.56.41a3.06,3.06,0,0,0-1.67-.09c.33-.31.74-.16,1.11-.15a1.88,1.88,0,0,1,.64.16C86.62,39.81,86.57,39.4,86.76,39.34Z" transform="translate(-46.74 -12.63)"/><path class="cls-39" d="M91.62,37.75h-.24a.41.41,0,0,1-.07.15c-.06.38.34.53.42.85a2.42,2.42,0,0,1-.9-.68c.15,0,.21.14.37.19C91.27,38,91,37.46,91.62,37.75Z" transform="translate(-46.74 -12.63)"/><path class="cls-40" d="M83.58,50.5c.17-.23.53-.28.55-.64a.4.4,0,0,1,.16.32c0,.09-.1.21.09.24s.07.09.07.16h0A1.37,1.37,0,0,1,83.58,50.5Z" transform="translate(-46.74 -12.63)"/><path class="cls-39" d="M93.62,39.82a1.11,1.11,0,0,1-.61-.33c.26,0,.51,0,.77,0C93.73,39.61,93.6,39.68,93.62,39.82Z" transform="translate(-46.74 -12.63)"/><path class="cls-33" d="M79.91,47.31h-.15c-.12,0-.26,0-.29-.13s.12-.18.21-.23l.15,0A.63.63,0,0,1,79.91,47.31Z" transform="translate(-46.74 -12.63)"/><path class="cls-8" d="M98.16,43.41a9.23,9.23,0,0,1-.56-1C98,42.62,98.08,43,98.16,43.41Z" transform="translate(-46.74 -12.63)"/><path class="cls-41" d="M86.61,48.75a6.56,6.56,0,0,1,.07,1.6A7.15,7.15,0,0,1,86.61,48.75Z" transform="translate(-46.74 -12.63)"/><path class="cls-39" d="M92.5,38.23a2.22,2.22,0,0,1-.72-.4A.91.91,0,0,1,92.5,38.23Z" transform="translate(-46.74 -12.63)"/><path class="cls-34" d="M84.38,50.42c-.08.09-.21.12-.27,0s.09-.21.18-.28S84.37,50.33,84.38,50.42Z" transform="translate(-46.74 -12.63)"/><path class="cls-4" d="M90.71,47.86c-.11,0-.12-.09-.11-.17s0-.13.12-.1.14.09.13.17S90.78,47.86,90.71,47.86Z" transform="translate(-46.74 -12.63)"/><path class="cls-3" d="M99.24,39.7a.12.12,0,0,1-.15.11c-.09,0-.16,0-.18-.12s.06-.09.13-.11S99.15,39.7,99.24,39.7Z" transform="translate(-46.74 -12.63)"/><path class="cls-39" d="M94.81,40.38a.51.51,0,0,1-.48-.24A.85.85,0,0,1,94.81,40.38Z" transform="translate(-46.74 -12.63)"/><path class="cls-41" d="M86.76,48.67l-.16-.24s0-.13,0-.15.09,0,.1.09A1.45,1.45,0,0,1,86.76,48.67Z" transform="translate(-46.74 -12.63)"/><path class="cls-39" d="M93.78,39.18a.71.71,0,0,1-.32-.32A.34.34,0,0,1,93.78,39.18Z" transform="translate(-46.74 -12.63)"/><path class="cls-39" d="M94.25,40.14a.47.47,0,0,1-.32-.16C94.07,40,94.19,40,94.25,40.14Z" transform="translate(-46.74 -12.63)"/><path class="cls-41" d="M86.84,49.06c-.13-.11-.06-.26-.08-.39C86.89,48.78,86.83,48.93,86.84,49.06Z" transform="translate(-46.74 -12.63)"/><path class="cls-2" d="M57.35,54.18c0-.14,0-.26.09-.29s.16.07.22.14.25.41.56.21c.12-.07.54.54.45.69s-.2.43-.44.49-.32-.15-.42-.3A3.71,3.71,0,0,1,57.35,54.18Z" transform="translate(-46.74 -12.63)"/><path class="cls-2" d="M61,54.4c.11.09.07.21.08.32a1.15,1.15,0,0,1-.35.07c-.14,0-.36,0-.33-.25s.19-.24.37-.2Z" transform="translate(-46.74 -12.63)"/><path class="cls-2" d="M59.23,55.37c0,.09,0,.14-.13.12a.13.13,0,0,1-.12-.16c0-.06.07-.15.11-.15S59.19,55.31,59.23,55.37Z" transform="translate(-46.74 -12.63)"/><path class="cls-2" d="M56.93,53.3a.1.1,0,0,1,.1.11c0,.07-.05.1-.1.08a.19.19,0,0,1-.09-.11C56.83,53.31,56.89,53.31,56.93,53.3Z" transform="translate(-46.74 -12.63)"/><path class="cls-2" d="M76.33,53.21h.15c-.14.09-.29.17-.13.37s0,.31.13.43a.34.34,0,0,1,0,.29c0,.1,0,.13.1.13.39,0,.28.24.17.45l-.08.08a.44.44,0,0,1-.64-.29,1.22,1.22,0,0,0-.15-.27c-.24-.28-.62,0-.88-.23a1.77,1.77,0,0,0-.24-.4,2.68,2.68,0,0,1-.3-.05c-.25-.08-.28,0-.18.21a3.24,3.24,0,0,0,.4.43c.34.33.14.7.12,1.06,0,.1-.13.12-.2.18-.22,0-.42-.08-.64-.08-.4-.13,0-.27,0-.4.07-.31-.24-.5-.28-.78,0,0,0-.05-.09,0s-.08,0-.07.09c.17.55-.31.81-.51,1.2H69.68c-.18,0-.44-.14-.49-.12-.31.1-.5-.17-.76-.19a.18.18,0,0,0-.14,0c-.09.39-.4.24-.64.27a17.8,17.8,0,0,1-1.78-.08,2.15,2.15,0,0,0-.62.08c-.2-.17-.06-.26.09-.29s.31-.17.17-.41c-.24-.43-.2-.51.27-.67s.31-.46.48-.69c0,0,0-.06,0-.07a4.5,4.5,0,0,1-.75-.33c-.13-.09-.19.13-.27.22a.34.34,0,0,1-.08.09.52.52,0,0,0-.24.61c.07.41-.13.58-.53.46-.2-.05-.18.1-.22.19a.77.77,0,0,1-.72.53c-.18,0-.29-.09-.22-.23a2.75,2.75,0,0,0,.18-.84.61.61,0,0,1,.19-.34,1,1,0,0,0,.31-.7c.11-.13.22-.26.34-.38a.47.47,0,0,0,0-.71.53.53,0,0,0-.67,0c-.14.14-.23.33-.46.35s-.26.22-.43.09-.09-.26-.05-.4a1.26,1.26,0,0,0,0-.51.67.67,0,0,1,.74-.81,2.79,2.79,0,0,0,.82,0h3c.07.51-.39.56-.72.78.26.16.44.45.77.16.07.13,0,.37.22.4a.34.34,0,0,0,.4-.25c0-.13.16-.16.24,0s.33.33.37.59,0,.39-.27.36-.34.17-.4.37a.37.37,0,0,0,.21.46c.23.13.33.24.24.53s.2.43.41.37c.38-.1.81.09,1.14-.22a.16.16,0,0,1,.15,0c.49.27.81,0,1.13-.35.16.06,0,.29.21.31a.35.35,0,0,0,.33-.18c.24-.35.63-.32,1-.4.14,0,.29-.06.27-.26s0-.2.07-.24.19.08.27.14.11.33.38.2.81.06.7-.57c0-.06,0-.12,0-.19s.07-.26.21-.3.14,0,.17.07,0,.22-.1.31c-.15.29,0,.58.48.67a.69.69,0,0,0,.53-.09A1.17,1.17,0,0,1,76.33,53.21Z" transform="translate(-46.74 -12.63)"/><path class="cls-5" d="M63.9,53.13a.9.9,0,0,1-.19.66.78.78,0,0,0-.22.79.36.36,0,0,1-.05.22c0,.11-.25.2-.14.33s.28,0,.4,0a.43.43,0,0,0,.36-.46.41.41,0,0,1,.22-.35c.12-.06.14.11.19.19s.19.08.26,0a.48.48,0,0,0,.09-.45c-.13-.34,0-.55.44-.63-.17,0-.13.22-.22.33s-.05.28,0,.4.13.09.18,0a1.53,1.53,0,0,0,.33-.66c0-.09-.07-.12-.16-.11h-.17c.07-.49.12-.51.47-.21a.71.71,0,0,0,.44.11c.25,0,.31.13.18.33a1.47,1.47,0,0,0-.24.54c0,.16-.18.15-.31.17-.4.05-.46.2-.23.51s.29.41-.22.53c-.15,0-.16.11-.1.23a3.23,3.23,0,0,1-.44,0c-.1,0-.23,0-.23-.16s.13-.15.24-.15.32,0,.44-.13.18-.16.12-.3a.21.21,0,0,0-.27-.12c-.44.13-1,.07-1.23.57,0,0,0,.07-.05.07-.38-.17-.58.41-1,.24a1,1,0,0,0-.51,0c-.37.07-.47-.23-.64-.43s0-.15,0-.22a.13.13,0,0,1,.18,0c.31.24.49,0,.61-.21.22-.33.35-.67.81-.8A1,1,0,0,0,63.9,53.13Z" transform="translate(-46.74 -12.63)"/><path class="cls-5" d="M64.21,50.74c-.25.16-.54.06-.81.07a.65.65,0,0,0-.63.75,1.74,1.74,0,0,1,0,.51c-.1.46-.11.45.33.34-.11.17-.25.32-.08.53s0,.3-.06.43a1,1,0,0,0-.18.39c0,.14,0,.31-.18.29a.76.76,0,0,1-.5-.12c-.34-.23-.55-.65-1-.72.24-.09.39-.32.69-.34s.32-.19.12-.4a1.18,1.18,0,0,1-.17-.22c-.12-.2-.1-.33.17-.32h0c.19,0,.41.07.51-.19a.15.15,0,0,0-.08-.22c-.22-.11-.4,0-.6.09s-.16.38-.33.11-.26-.42.08-.56.21-.24.2-.42c.22-.16.44,0,.65,0C63,50.73,63.61,50.74,64.21,50.74Z" transform="translate(-46.74 -12.63)"/><path class="cls-2" d="M76.48,53.21c.09-.22.28-.11.38-.06a5.75,5.75,0,0,1,.94.43.66.66,0,0,0,.8.05c.13-.08.3-.19.4,0s-.09.24-.2.33a1.16,1.16,0,0,0-.26.23c-.3.41-.43.42-.76,0-.12.06-.08.15,0,.23s.13.4-.18.51-.1.18,0,.28.56.1.73.36h-.88a1,1,0,0,0-.16-.32c-.11-.17-.22-.35-.08-.56l.08-.08c.09-.2,0-.44.14-.64s-.06-.15-.15-.16a.33.33,0,0,1-.31-.39A.49.49,0,0,0,76.48,53.21Z" transform="translate(-46.74 -12.63)"/><path class="cls-6" d="M74.65,55.6a1.08,1.08,0,0,0-.09-1.32c-.09-.11-.23-.19-.23-.35.37.08.46.49.77.64,0,0,.07.07.11.11s.56.19.43.47a.89.89,0,0,1-.83.45Z" transform="translate(-46.74 -12.63)"/><path class="cls-6" d="M73.06,55.6a.85.85,0,0,1,.22-.5c.2-.17.34-.35.17-.64s.08-.28.2-.33.21.08.2.2c0,.28.39.47.16.79a.27.27,0,0,0-.15-.25c-.1.17-.34.22-.42.43S73.29,55.63,73.06,55.6Z" transform="translate(-46.74 -12.63)"/><path class="cls-6" d="M77,53.45c.11.17.17.38.46.29.09,0,.24.12.15.2s-.16.48-.29.7a1.7,1.7,0,0,1,0-.39c0-.18,0-.25-.19-.3C76.67,53.83,76.67,53.82,77,53.45Z" transform="translate(-46.74 -12.63)"/><path class="cls-6" d="M76.8,54.88c0-.16.2-.54-.28-.32-.17.07-.17-.1-.12-.18a.55.55,0,0,0,.08-.37,2.8,2.8,0,0,0,.31.28C77.07,54.47,77.1,54.68,76.8,54.88Z" transform="translate(-46.74 -12.63)"/><path class="cls-2" d="M95.05,55.6c.29-.38.58-.21.88,0Z" transform="translate(-46.74 -12.63)"/><path class="cls-6" d="M75.93,54.4a.33.33,0,0,1,.17.21.51.51,0,0,0,.62.35C76.22,55.15,76.16,55.1,75.93,54.4Z" transform="translate(-46.74 -12.63)"/><path class="cls-6" d="M102.46,55c-.09-.36,0-.39.48-.4,0,.21-.12.15-.2.16S102.47,54.87,102.46,55Z" transform="translate(-46.74 -12.63)"/><path class="cls-5" d="M55.66,55.63a.44.44,0,0,1,.13-.53s.09,0,.09,0C55.92,55.33,55.81,55.45,55.66,55.63Z" transform="translate(-46.74 -12.63)"/><path class="cls-6" d="M74,55.12c.07.13-.28.27,0,.4a.14.14,0,0,1-.23,0c-.08-.07,0-.16,0-.21A1.52,1.52,0,0,1,74,55.12Z" transform="translate(-46.74 -12.63)"/><path class="cls-6" d="M77.2,54.72a1.73,1.73,0,0,0,.08.56C77.12,55.11,76.88,55,77.2,54.72Z" transform="translate(-46.74 -12.63)"/><path class="cls-5" d="M51.06,55.4c-.06,0-.1.09-.14.09a.09.09,0,0,1-.12-.11.1.1,0,0,1,.11-.08A.39.39,0,0,1,51.06,55.4Z" transform="translate(-46.74 -12.63)"/><path class="cls-6" d="M74.81,53.77a.38.38,0,0,1,.24.4A.52.52,0,0,1,74.81,53.77Z" transform="translate(-46.74 -12.63)"/><path class="cls-6" d="M103,55.2c-.16-.06-.32.18-.48,0C102.7,55.2,102.86,55,103,55.2Z" transform="translate(-46.74 -12.63)"/><path class="cls-6" d="M77.28,55.28c.15.06.17.18.16.32A.43.43,0,0,1,77.28,55.28Z" transform="translate(-46.74 -12.63)"/><path class="cls-6" d="M102.54,55.6c.11-.13.26-.06.4-.08C102.83,55.65,102.67,55.58,102.54,55.6Z" transform="translate(-46.74 -12.63)"/><path class="cls-2" d="M57,15.51h-.24a.34.34,0,0,0-.39.4v.24c-.24.1-.12.33-.2.52-.26-.2-.6-.19-.84-.41s-.28-.25-.2-.43.23-.07.36,0,.24,0,.16-.18,0-.24.16-.27a4.74,4.74,0,0,0,1-.27c.26-.11.54.14.83.17,0,0,.06.08.06.13s-.07.06-.12.06C57.37,15.47,57.15,15.36,57,15.51Z" transform="translate(-46.74 -12.63)"/><path class="cls-2" d="M95.08,54.41a.15.15,0,0,1,.12.19c0,.1-.09.12-.18.11a.1.1,0,0,1-.11-.12A.18.18,0,0,1,95.08,54.41Z" transform="translate(-46.74 -12.63)"/><path class="cls-42" d="M69.71,41.73a15.43,15.43,0,0,0-1.36,1.44c-.81.81-1.41,1.81-2.3,2.55a1.53,1.53,0,0,1-.27-.17c-.25-.15-.33-.35-.11-.58s.16-.43-.07-.6a1.08,1.08,0,0,1-.48-.75,1,1,0,0,0-.4-.57c-.08-.25-.27-.31-.52-.34-.55-.07-1.06.21-1.6.18-.22-.18,0-.27.09-.37.81-.77,1.67-1.5,2.56-2.2s1.67-1.39,2.46-2.14c1.37-1.31,2.82-2.53,4.31-3.71a25.86,25.86,0,0,0,2.37-2.09,22.25,22.25,0,0,1,2.28-1.92,14.14,14.14,0,0,0,2.15-1.87A8.74,8.74,0,0,1,80.2,27.4a5.37,5.37,0,0,0,1-.8,9.44,9.44,0,0,1,1.22-1,4.71,4.71,0,0,0,.42-.36c.49-.48,1-.88,1.55-1.35A6,6,0,0,1,85.44,23a11.81,11.81,0,0,1,1.35-1.2c.14-.08.25-.25.45-.14a6.49,6.49,0,0,1-.8.69c-.08.07-.27.09-.18.26a.33.33,0,0,0,.41.15,7.72,7.72,0,0,0,1.71-.46c.35-.16.59-.06.69.32a6,6,0,0,0-.71.63.69.69,0,0,0-.24.24l-.08.08a.69.69,0,0,0-.24.24l-.08.08a5.49,5.49,0,0,1-.67.49c-.39.17-.69,0-.71-.4a1.49,1.49,0,0,0-.06-.51c-.1-.24-.3-.29-.4-.07-.21.48-.64.64-1,.91s-.59.43-.9.64a.87.87,0,0,0-.29,1.18,3.07,3.07,0,0,1,.28.95.45.45,0,0,1-.15.42c-.28.26-.42.23-.53-.12s-.31-.52-.38-.83-.19-.12-.27,0a1.56,1.56,0,0,1-.56.49.7.7,0,0,0-.26.39.93.93,0,0,1-.68.69,2.92,2.92,0,0,0-1.36,1c-.3.33-.61.67-.93,1a1.85,1.85,0,0,0-.37.51,1.73,1.73,0,0,1-1.09.87.9.9,0,0,0-.49.37,5.72,5.72,0,0,1-.93,1c.56,0,.43.41.48.74a2.18,2.18,0,0,1-.49,1.54,12.54,12.54,0,0,1-.83,1c-1.26,1.28-2.52,2.54-3.75,3.84-.46.49-.93,1-1.4,1.46A1.41,1.41,0,0,0,69.71,41.73Z" transform="translate(-46.74 -12.63)"/><path class="cls-43" d="M87.24,21.65a3.75,3.75,0,0,0-1.32,1.05,2.27,2.27,0,0,1-.43.39c-.31-.38-.68-.21-1-.08a8.38,8.38,0,0,1-2.48.42c-.35,0-.38,0-.27-.4a1.4,1.4,0,0,1,.46-.54,6.87,6.87,0,0,0,.92-.87,28.07,28.07,0,0,1,2.79-2.43c.83-.69,1.58-1.48,2.43-2.16.2-.16-.08-.28,0-.41a.7.7,0,0,1,.8.09,12.81,12.81,0,0,0,2.7-.36c.2,0,.39-.1.57,0a.53.53,0,0,1-.2.49c-.74.65-1.49,1.3-2.22,2a21.1,21.1,0,0,0-1.83,1.95C87.91,21.13,87.47,21.28,87.24,21.65Z" transform="translate(-46.74 -12.63)"/><path class="cls-44" d="M59.91,21a20.71,20.71,0,0,1,1.59-1.36c.72-.66,1.47-1.28,2.21-1.92l.5-.38a2.32,2.32,0,0,1,.9-.14c.53-.06,1-.19,1.57-.26a8.89,8.89,0,0,1,1.86,0A8.87,8.87,0,0,0,70,16.86a5.16,5.16,0,0,0,.79-.08,12.23,12.23,0,0,1,3.31.1c.05.2,0,.22-.16.24a7.36,7.36,0,0,1-1.15,0,5.58,5.58,0,0,0-1.58-.05.76.76,0,0,0-.49.24A14.69,14.69,0,0,1,68,19.58c-.63.44-1.21,1-1.83,1.4a43.82,43.82,0,0,1-3.42,3c-1,.83-2,1.66-3,2.54-1.18,1.07-2.4,2.1-3.6,3.13-.13.11-.24.27-.45.17a.24.24,0,0,1,0-.33,3.92,3.92,0,0,0,.49-1.24c0-.21.18-.28.38-.27a2.5,2.5,0,0,0,1.57-.55,6.2,6.2,0,0,0,1.2-1.09,1.5,1.5,0,0,0,0-2.38,2.48,2.48,0,0,0-1-.65c-.14-.05-.35-.07-.36-.26s.16-.28.3-.35A5.92,5.92,0,0,0,59.91,21Z" transform="translate(-46.74 -12.63)"/><path class="cls-16" d="M74.17,17c-.73,0-1.47-.08-2.2-.15a7,7,0,0,0-1.76.19c-.07,0-.13,0-.18,0a.44.44,0,0,1,.44-.22A1.52,1.52,0,0,0,71.74,16a.75.75,0,0,1,.7-.34h14a.78.78,0,0,0,.43,0h2.79c.08.13.22.06.34.11-.11.35-.45.47-.66.72-.09.09-.17.16-.16.29-.26.05-.53-.22-.79,0s-.8.12-1.2.18a26.19,26.19,0,0,1-4.68.25c-1.73-.06-3.47,0-5.2-.08a16.05,16.05,0,0,0-2.3,0A1,1,0,0,1,74.17,17Z" transform="translate(-46.74 -12.63)"/><path class="cls-45" d="M59.91,21a3.52,3.52,0,0,1-1.37,1.61,1.14,1.14,0,0,0-.5.43l.5.2a2.13,2.13,0,0,1,1.16,1c.21.35.49.66.3,1.15a4.26,4.26,0,0,1-.65,1,4.66,4.66,0,0,1-1.73,1.39,1.49,1.49,0,0,1-1.09.23c-.2-.05-.28.09-.28.28a1.67,1.67,0,0,1-.56,1.14c0-.94.24-1.85.35-2.78s.35-1.91.37-2.88a12.35,12.35,0,0,1,2-1.64l1.3-1A.37.37,0,0,1,59.91,21Z" transform="translate(-46.74 -12.63)"/><path class="cls-46" d="M63.58,17.59c-.95.82-1.88,1.66-2.84,2.46-.72.61-1.47,1.16-2.21,1.73l-1.75,1.37c-.09.07-.19.18-.31.12s-.07-.19-.06-.28c.08-.88.16-1.76.26-2.64A20.57,20.57,0,0,1,57,17.89a.59.59,0,0,1,.16-.38.24.24,0,0,1,.09.16,1.5,1.5,0,0,1-.08.55c-.3,1.36-.34,2.76-.54,4.13a.4.4,0,0,0,.07.34c.54-.4,1-.86,1.55-1.28,1-.79,2-1.56,3-2.33a20.6,20.6,0,0,1,1.87-1.48c.12-.13,0-.17-.08-.18-1.36-.25-2.63-.93-4.06-.85a.8.8,0,0,1-.8-.42c-.12-.21-.24-.19-.4,0a1.09,1.09,0,0,0-.27.56c-.08.28,0,.64-.33.83a12.53,12.53,0,0,1,.26-1.72c0-.24.24-.19.41-.19h7.38c.08.09.26,0,.28.16a.4.4,0,0,1-.17.34,17.64,17.64,0,0,0-1.46,1.12A1.07,1.07,0,0,0,63.58,17.59Z" transform="translate(-46.74 -12.63)"/><path class="cls-47" d="M86.84,15.59c-.13.14-.3.08-.45.08H72.51c-.25,0-.43,0-.58.27a3.28,3.28,0,0,1-.68.76c-.23.19-.56.06-.84.16A1.75,1.75,0,0,0,70,17a9.08,9.08,0,0,1-2.27,0,6.51,6.51,0,0,0-1.59.16,8.64,8.64,0,0,1-2,.2l2-1.55a1,1,0,0,1,.7-.21Z" transform="translate(-46.74 -12.63)"/><path class="cls-48" d="M63.58,17.59a.44.44,0,0,1,.24-.43q.75-.6,1.53-1.17c.21-.15.09-.3-.1-.4H66l.05.08Z" transform="translate(-46.74 -12.63)"/><path class="cls-6" d="M56.33,15.91c-.06-.31.08-.45.39-.4A.6.6,0,0,0,56.33,15.91Z" transform="translate(-46.74 -12.63)"/><path class="cls-12" d="M75.93,35.12a1.16,1.16,0,0,1,.32-.7c.13-.1.09-.28.07-.42a3.21,3.21,0,0,1,0-.62c0-.21.08-.51-.33-.35a.15.15,0,0,1-.19-.1c0-.09,0-.15.09-.21.27-.25.54-.5.79-.77s.21-.53.51-.55.58-.29.87-.42a.33.33,0,0,0,.17-.16,10.13,10.13,0,0,1,2.29-2.55,1,1,0,0,1,.59-.29c.42,0,.49-.32.57-.58a.81.81,0,0,1,.45-.54.66.66,0,0,0,.39-.38.26.26,0,0,1,.3-.2c.17,0,.2.16.2.3,0,.36.42.57.38,1,0,0,.1.09.16,0s.32-.19.3-.39a2.55,2.55,0,0,0-.26-1c-.29-.61-.22-1.11.37-1.39.41-.19.63-.6,1-.75s.59-.23.67-.62c0-.16.22-.42.47-.33s.27.37.29.61-.1.41.14.57.18.15.34,0a7.9,7.9,0,0,1,.8-.46,9.81,9.81,0,0,1-1.32,1.26c-.66.57-1.26,1.21-1.91,1.79-2.43,2.16-4.72,4.47-7,6.75A20.83,20.83,0,0,1,75.93,35.12Z" transform="translate(-46.74 -12.63)"/><path class="cls-30" d="M67.56,44.52c.23-.47.68-.75,1-1.17s.92-.9,1.26-1.46l.24-.16a.38.38,0,0,0,.32-.21,3.72,3.72,0,0,1,1.34-1.28c.73-.34,1-1.12,1.76-1.42s.89-.88,1.34-1.32,1-1,1.55-1.46c.23-.2.38-.51.7-.6.1.32-.15.48-.33.65a19.6,19.6,0,0,0-1.77,1.76c-.74.9-1.68,1.6-2.38,2.53a2.93,2.93,0,0,1-.4.46,4.29,4.29,0,0,0-.66.62,26.08,26.08,0,0,1-1.84,2.1.65.65,0,0,1-.89-.1c.3.24.18.44,0,.64a3.15,3.15,0,0,1-.37.36c-.07.06-.2.15-.24.09C68,44.25,67.77,44.52,67.56,44.52Z" transform="translate(-46.74 -12.63)"/><path class="cls-12" d="M88.12,23.48a.23.23,0,0,1,.24-.24A.47.47,0,0,1,88.12,23.48Z" transform="translate(-46.74 -12.63)"/><path class="cls-12" d="M87.8,23.8a.23.23,0,0,1,.24-.24A.47.47,0,0,1,87.8,23.8Z" transform="translate(-46.74 -12.63)"/><path class="cls-2" d="M81.56,12.81c.12,0,.23,0,.24.16s-.14.17-.24.18-.23,0-.24-.14S81.45,12.83,81.56,12.81Z" transform="translate(-46.74 -12.63)"/><path class="cls-17" d="M93.78,25.08c-.48.19-.71.65-1,1-.54.54-1,1.11-1.57,1.66-.79.83-1.49,1.73-2.34,2.5-.12.11-.2.26-.38.27a.16.16,0,0,1,0-.15c0-.07.12-.14,0-.22s-.17,0-.26,0a1.63,1.63,0,0,1-.49.14c-.37,0-.49-.19-.35-.53a.38.38,0,0,0,0-.34.33.33,0,0,1-.49,0s-.06.05-.06.08c0,.5-.22.66-.72.5l-.48-.15c.06.17.19.2.3.25.3.16.34.32.14.61l-.18.22c-.06.08-.13.18-.26.14s-.11-.17-.1-.28a.5.5,0,0,0-.36-.61.26.26,0,0,1-.15-.42.64.64,0,0,0-.15-.93c-.29-.28-.29-.46,0-.69A12.26,12.26,0,0,0,86.17,27,21.71,21.71,0,0,1,89,24.69c.29-.59,1.06-.69,1.35-1.3a1.11,1.11,0,0,1,.51-.54,4.22,4.22,0,0,0,1.59-1.25c.13-.21.38-.27.55-.43s.16,0,.17.14c.14.76.27,1.52.4,2.29Z" transform="translate(-46.74 -12.63)"/><path class="cls-49" d="M90.83,22.85a10.44,10.44,0,0,0-.65.94c-.09.22-.36.24-.54.36s-.37.22-.41.46a.15.15,0,0,1-.11.14A7.31,7.31,0,0,0,87.43,26a8.56,8.56,0,0,0-1.1.89,1.79,1.79,0,0,0-.31.36,3.49,3.49,0,0,1-1,1c-.2.16-.26.32,0,.51.08.06.13.16.21.22a.42.42,0,0,1,.08.64c-.14.22-.3.45.16.55.3.07.33.38.27.66,0,.07-.07.16,0,.2s.13-.05.14-.11.15-.18.22-.27.1-.42-.15-.44-.32-.25-.43-.49a2.75,2.75,0,0,1,.7.22c.2.14.33,0,.49,0,.32,0,0-.24.06-.36s0-.17,0-.23.19,0,.23,0c.21.3.26-.11.41-.09.37.07.09.31.11.47s-.31.21-.1.39a.53.53,0,0,0,.57,0,.82.82,0,0,0,.2-.12.38.38,0,0,1,.47.07c.13.12-.09.19-.15.3l-.09.13a24,24,0,0,1-2.07,1.83,6.68,6.68,0,0,0-1.15,1,1.94,1.94,0,0,1-.55.44.47.47,0,0,1-.53,0A3,3,0,0,0,83,33.3c-.3,0-.39-.28-.31-.56-.09,0-.11,0-.14.06-.39.43-.7.44-1.1,0s-.28-.43-.7,0c-.72.74-1.45,1.48-2.19,2.2a15.71,15.71,0,0,1-2.65,2.37c-.2.12-.29.35-.45.51A13.15,13.15,0,0,0,74.26,39c-.41.51-1,.86-1.39,1.32-.11.08-.21.21-.37.11,0-.26.2-.33.33-.46a4.35,4.35,0,0,1,.82-.84c.42-.27.64-.73,1-1.07s.85-.89,1.3-1.32.92-.67,1.1-1.25a27.57,27.57,0,0,0,2-1.91,14.57,14.57,0,0,0,1.3-1.41,7.3,7.3,0,0,1,1.33-1.39c.27-.2.37-.51.61-.72.53-.47,1.06-.94,1.58-1.43.37-.34.72-.7,1.07-1.06a32.28,32.28,0,0,1,3.4-3A14,14,0,0,0,90,23C90.2,22.81,90.54,22.84,90.83,22.85Z" transform="translate(-46.74 -12.63)"/><path class="cls-5" d="M48.86,50.82a1,1,0,0,0-.55,0c-.06,0-.18,0-.17-.13a.88.88,0,0,1,.2-.54.21.21,0,0,1,.29-.05.69.69,0,0,0,.7.14c.07,0,.15,0,.19.11s0,.17,0,.21A1.45,1.45,0,0,1,48.86,50.82Z" transform="translate(-46.74 -12.63)"/><path class="cls-5" d="M49.63,50.73c0-.31.17-.43.44-.26s.18,0,.25-.06.19-.09.28,0a.23.23,0,0,1,0,.29.17.17,0,0,1-.26.08c-.16-.13-.2,0-.25.1a.25.25,0,0,1-.32.16C49.67,51,49.63,50.93,49.63,50.73Z" transform="translate(-46.74 -12.63)"/><path class="cls-5" d="M48.89,47.19c0,.1-.09.2-.22.2s-.16-.06-.13-.15.08-.21.21-.19A.13.13,0,0,1,48.89,47.19Z" transform="translate(-46.74 -12.63)"/><path class="cls-5" d="M48.93,45.86c-.12,0-.16,0-.17-.12s.08-.19.18-.22.13,0,.12.1A.35.35,0,0,1,48.93,45.86Z" transform="translate(-46.74 -12.63)"/><path class="cls-5" d="M48.67,51.46c0,.1-.05.15-.12.14s-.16-.05-.16-.13a.12.12,0,0,1,.14-.14C48.62,51.33,48.64,51.41,48.67,51.46Z" transform="translate(-46.74 -12.63)"/><path class="cls-50" d="M62.54,42.85a5.9,5.9,0,0,1,1.87-.24c.33,0,.39.2.36.48v.06c0,.23,0,.46,0,.69-.06,1-.13,2-.17,3,0,.13,0,.26.06.37a.48.48,0,0,1-.07.18c-.56.51-1,1.13-1.51,1.68s-.85.91-1.24,1.39a.4.4,0,0,1-.46.16,4.09,4.09,0,0,0-1.48,0,4.68,4.68,0,0,1-.55,0c-2,0-3.9,0-5.85.07-.32,0-.42-.1-.39-.41.13-1.39.08-2.8.31-4.18a2.17,2.17,0,0,0,0-.36,5.14,5.14,0,0,0,.16-1c.1-.8.21-1.6.32-2.4v.64c.14.14.1.32.08.49-.17,1.48-.35,3-.5,4.46a16.57,16.57,0,0,1-.11,1.86c0,.14-.06.28-.08.43s.08.33.33.21a.91.91,0,0,0,.16-.11c1-.89,2-1.75,3-2.67.62-.58,1.29-1.12,2-1.65a31.7,31.7,0,0,0,2.49-2.15,6.43,6.43,0,0,1,.92-.81C62.3,42.92,62.38,42.8,62.54,42.85Z" transform="translate(-46.74 -12.63)"/><path class="cls-51" d="M67.56,44.52c.2-.08.27-.32.5-.37.08.1-.09.29.1.34s.2-.1.29-.18a3.6,3.6,0,0,0,.37-.41c.06-.08.16-.22-.06-.25s-.26,0-.19-.15.23-.26.35-.11.45.24.71.1c0,.31-.27.4-.44.56a16.71,16.71,0,0,0-1.73,2A30.86,30.86,0,0,1,64.73,49c-.11.1-.2.32-.41.14a1.38,1.38,0,0,1,.53-1.54C65.7,46.49,66.64,45.52,67.56,44.52Z" transform="translate(-46.74 -12.63)"/><path class="cls-52" d="M64.85,47.55s0,.1,0,.11c-.54.38-.47.94-.46,1.48a1.72,1.72,0,0,1,0,.9c0,.18-.17.22-.33.16a.27.27,0,0,0-.39.12,1.06,1.06,0,0,0,.58.07,33.47,33.47,0,0,1,4.13,0c2.76.28,5.51.07,8.26.13,2.18,0,4.35,0,6.53,0a.8.8,0,0,0,.43,0h0c.29,0,.57.13.87.08v.08H62.89c-.22,0-.53.09-.61-.15s.18-.36.32-.51a25.54,25.54,0,0,0,1.76-2A4.29,4.29,0,0,1,64.85,47.55Z" transform="translate(-46.74 -12.63)"/><path class="cls-53" d="M64.69,47.23c-.07,0-.15.1-.2.08s0-.14,0-.21c.15-1.09.14-2.2.23-3.29.11-.23,0-.49.08-.72.27,0,.35.15.4.35a1.37,1.37,0,0,0,.59.94.33.33,0,0,1,0,.59c-.25.21-.27.39.07.51a.25.25,0,0,1,.18.24A8.12,8.12,0,0,1,64.69,47.23Z" transform="translate(-46.74 -12.63)"/><path class="cls-54" d="M73.7,50.74c-.19.1-.3.2,0,.38s.09.66,0,.79a.54.54,0,0,1-.76,0c-.28-.21-.43-.39-.12-.72s0-.38-.23-.41-.77.09-1.13-.08Z" transform="translate(-46.74 -12.63)"/><path class="cls-50" d="M54.1,40.86c0,.21.07.44-.08.63v-.63Z" transform="translate(-46.74 -12.63)"/><path class="cls-2" d="M53.86,36c0-.19-.08-.39.08-.56C53.91,35.62,54,35.83,53.86,36Z" transform="translate(-46.74 -12.63)"/><path class="cls-50" d="M54,41.57c0,.19.07.39-.08.56C54,42,53.86,41.74,54,41.57Z" transform="translate(-46.74 -12.63)"/><path class="cls-2" d="M68.82,52.23a2.88,2.88,0,0,0-.09-.48c0-.17,0-.23.17-.18a3.68,3.68,0,0,1,1.12.56c.08.06.18.14.14.26a2.41,2.41,0,0,0,0,.71c0,.33-.25.45-.52.27a.37.37,0,0,0-.5,0c-.08.07-.17.18-.27.1s0-.21,0-.32.16-.32,0-.49S68.87,52.4,68.82,52.23Z" transform="translate(-46.74 -12.63)"/><path class="cls-2" d="M71.94,52.75c-.07.14,0,.4-.32.38a.29.29,0,0,1-.28-.32.39.39,0,0,1,.38-.38C71.92,52.41,71.94,52.57,71.94,52.75Z" transform="translate(-46.74 -12.63)"/><path class="cls-2" d="M70.33,53.22c.09,0,.12.1.13.18s0,.09-.1.08-.18-.06-.15-.19A.11.11,0,0,1,70.33,53.22Z" transform="translate(-46.74 -12.63)"/><path class="cls-4" d="M88.36,52.81c.25-.23.59-.25.87-.4a1.1,1.1,0,0,0,.56-.16c.37-.15.78-.15,1.16-.27s.52,0,.78,0a4.55,4.55,0,0,1,2.28.32.53.53,0,0,1-.54.24,11.57,11.57,0,0,0-2.2.15c-.33.06-.53.36-.87.35-.09,0-.2.07-.27,0-.64-.31-1.29,0-1.95-.05C88.15,52.88,88.34,52.91,88.36,52.81Z" transform="translate(-46.74 -12.63)"/><path class="cls-29" d="M94,52.25A5.4,5.4,0,0,0,91.58,52a5,5,0,0,1-.67,0,.06.06,0,0,1,0-.06l0,0h.39a6.14,6.14,0,0,1,2.56.17.57.57,0,0,1,.39.16Z" transform="translate(-46.74 -12.63)"/><path class="cls-23" d="M90.91,51.93V52a7.18,7.18,0,0,1-1.12.23C90.12,52,90.55,52.08,90.91,51.93Z" transform="translate(-46.74 -12.63)"/><path class="cls-13" d="M56.25,24a15.38,15.38,0,0,1-.4,2.87A19.82,19.82,0,0,1,56.25,24Z" transform="translate(-46.74 -12.63)"/><path class="cls-55" d="M53.3,49.86c.1-1.46.14-2.93.37-4.39.14-.84.18-1.69.27-2.54a11.22,11.22,0,0,0,.23-1.63c.13-1,.24-2,.3-2.94.05-.69.11-1.37.18-2,.11-1,.19-1.94.34-2.9s.31-2,.46-3c0-.16,0-.32.08-.47s.12-.17.24-.16a3.12,3.12,0,0,0,.86-.67c1.21-1,2.43-2.07,3.61-3.14s2.72-2.26,4.07-3.4c.62-.53,1.19-1.11,1.82-1.64.27,0,.2.23.2.39,0,.77-.13,1.54-.08,2.32A6.94,6.94,0,0,0,66,25.57c0,1.5-.18,3-.28,4.51s-.17,2.78-.28,4.16c-.08,1.11-.16,2.22-.22,3.33,0,.08,0,.17,0,.21s.15,0,.21-.08A2.75,2.75,0,0,1,66.58,37a1.55,1.55,0,0,1,.23-.06c.31.12.06.27,0,.33-.57.41-1,1-1.55,1.4a5.25,5.25,0,0,0-.73.76c-.7.72-1.43,1.41-2.15,2.12s-1.49,1.31-2.14,2.06c-.43.5-1,.89-1.44,1.37-.89.93-1.73,1.9-2.62,2.82a8.21,8.21,0,0,1-.6.58c-.68.56-1.1,1.36-1.79,1.9-.11.09-.19.28-.36.2s-.11-.28-.08-.43A.16.16,0,0,0,53.3,49.86Z" transform="translate(-46.74 -12.63)"/><path class="cls-45" d="M55.77,29.78l-.24.16a.52.52,0,0,1,.16-.48A.51.51,0,0,0,55.77,29.78Z" transform="translate(-46.74 -12.63)"/><path class="cls-56" d="M72.82,40.22c.21-.23.34-.55.71-.58.17,0,.14-.2.22-.3a6.59,6.59,0,0,1,1.08-1,3.39,3.39,0,0,0,.51-.49C76,37.1,76.8,36.66,77.43,36s1.12-1.13,1.68-1.69l1.78-1.77c.16-.17.25-.19.42,0s.37.66.85.45a.66.66,0,0,0,.34-.32c0-.08.07-.19.19-.14s.09.15.08.24c0,.42.08.52.52.47s.38.33.67.35.31.33.51.23a1.91,1.91,0,0,0,.7-.51,2.55,2.55,0,0,1,1.2-1c-.16.44-.62.6-.89,1-.66.86-1.55,1.51-2.27,2.32-.43.49-1,.83-1.39,1.35l-.32.16a.54.54,0,0,1-.65.14,1.77,1.77,0,0,0-1.09,0c-.42.13-.64,0-.69-.47a.49.49,0,0,0-.34-.4c-.18-.08-.25.07-.36.16a3.81,3.81,0,0,0-.56.71c-.06.08-.11.17,0,.26s.14,0,.22,0a.63.63,0,0,1,.56.1c.09.06.2.12.16.25a.21.21,0,0,1-.3.12c-.44-.22-.73.09-1,.29a.63.63,0,0,0-.28.92c0,.16-.15.25-.24.38a1.25,1.25,0,0,0-.49.72c-.61,0-.76.52-.9,1-.09.27-.16.42-.45.26a.48.48,0,0,0-.42,0,2.46,2.46,0,0,1-1.9,0,2.25,2.25,0,0,0-1.23-.21c.12-.3.42-.42.63-.63.21.11.41.42.65.23S72.89,40.5,72.82,40.22Z" transform="translate(-46.74 -12.63)"/><path class="cls-57" d="M84.29,40.06c-.05,0-.12,0-.14,0s0-.08.06-.09l.32-.13a2.61,2.61,0,0,1,1.86.18c.25.11.37.18.48-.19a4.11,4.11,0,0,1,2.32-2.68.61.61,0,0,1,.6,0,8,8,0,0,0,3.29,2.65,21.17,21.17,0,0,1,3,1.63,4.6,4.6,0,0,1,2,2.6,2.52,2.52,0,0,1-1,2.67,3.64,3.64,0,0,1-2.34,1A2.32,2.32,0,0,1,93.07,47a.26.26,0,0,0-.32-.06,2.15,2.15,0,0,1-2.24-.31c-.36-.08-.45.32-.71.4a2.91,2.91,0,0,1-.5.16,1,1,0,0,1-.42.1.43.43,0,0,1-.36-.1,1.55,1.55,0,0,0-1.34.19,7.89,7.89,0,0,1-3.52.6,5.68,5.68,0,0,1-1.51-.29,1.8,1.8,0,0,1-1-2.45,3.36,3.36,0,0,1,2.21-1.8.23.23,0,0,1,.1-.12,2.68,2.68,0,0,1,1.81,0c-.27.21-.61,0-.88.16a.91.91,0,0,1-.47.18,4.08,4.08,0,0,0-1.79,1.08,2.08,2.08,0,0,0-.37.51,1.24,1.24,0,0,0,.74,1.88,5,5,0,0,0,1.93.13,9.73,9.73,0,0,0,2.38-.46c.29-.09.35-.19.18-.47a1.37,1.37,0,0,1-.26-1,1.06,1.06,0,0,1,.74-.9.94.94,0,0,1,.44,0,1.39,1.39,0,0,1,.78,2.21c-.06.06-.1.16-.15.14a1.26,1.26,0,0,0,.62-.07,1,1,0,0,0,.71-.88c0-.19.09-.38.3-.42s.35.14.44.33a1.6,1.6,0,0,0,1.55,1c.36,0,.36-.05.24-.39a1.42,1.42,0,0,1,.19-1.57.94.94,0,0,1,.65-.33,1.16,1.16,0,0,1,.37,0,1.46,1.46,0,0,1,.68.39,1,1,0,0,1-.18,1.77.87.87,0,0,0-.28.19,1.76,1.76,0,0,0,1.27.13,3.42,3.42,0,0,0,1.78-1.07A2.07,2.07,0,0,0,97,43.15a5.67,5.67,0,0,0-1.86-1.65c-1-.59-2-1-3-1.57a8,8,0,0,1-2.49-2.12c-.19-.24-.36-.16-.56-.07a4,4,0,0,0-1.84,2.12c-.31.74-.3.74-1,.41a2.39,2.39,0,0,0-1.62-.21A.69.69,0,0,1,84.29,40.06Z" transform="translate(-46.74 -12.63)"/><path class="cls-58" d="M84.29,40.06a2.47,2.47,0,0,1,2.27.27c.29.17.37.15.49-.17a4.27,4.27,0,0,1,2-2.49c.47-.25.44-.25.77.16a8.63,8.63,0,0,0,2.83,2.26,25.15,25.15,0,0,1,3.15,1.7,4.25,4.25,0,0,1,1.57,1.79,2,2,0,0,1-.55,2.48,2.62,2.62,0,0,1-3.23.78c.05-.19.2-.16.3-.21.35-.21.69-.41.7-.88a1.18,1.18,0,0,0-.68-1.09l-.28-.14a.22.22,0,0,1,.1-.26c.85.43,1.54,1.32.82,2.24-.15.2-.09.34.15.32,1.06-.09,2.72-1.18,2.6-2.5a2.18,2.18,0,0,0-.52-1.3,7,7,0,0,0-1-1,18.34,18.34,0,0,0-2.84-1.58A9.15,9.15,0,0,1,89.65,38c-.16-.21-.37-.17-.58-.06a3.44,3.44,0,0,0-1.29,1.25,5.62,5.62,0,0,0-.52,1.11.47.47,0,0,1-.72.3,2.65,2.65,0,0,0-2.85,0l-.11,0C83.72,40.24,84.07,40.24,84.29,40.06Z" transform="translate(-46.74 -12.63)"/><path class="cls-59" d="M87.48,44.52c-.67.18-1,1-.36,1.86.24.33.13.39-.17.49a10,10,0,0,1-3.87.51,1.55,1.55,0,0,1-1.62-1.19,1.61,1.61,0,0,1,.38-1.29,3.77,3.77,0,0,1,2.53-1.41h1c-.29.25-.63.15-.94.22A4.05,4.05,0,0,0,82,45.11a1.27,1.27,0,0,0,.07,1.64,2.76,2.76,0,0,0,1.68.39,8.17,8.17,0,0,0,2.73-.39c.3-.09.39-.25.26-.54a1.46,1.46,0,0,1,.4-1.86.9.9,0,0,0,.15-.18.45.45,0,0,1,.74-.09l.57.49a1.58,1.58,0,0,1,.5,1.36c0,.16-.13.39.06.45s.31-.16.42-.31a2.35,2.35,0,0,0,.14-.37c.07-.21.14-.43.39-.45a.6.6,0,0,1,.61.37,1.94,1.94,0,0,0,.46.64.82.82,0,0,0,.41.22c.54.13.64,0,.54-.49a1.61,1.61,0,0,1,1-1.85c.09,0,.15,0,.19.07a.29.29,0,0,1-.06.31,1.09,1.09,0,0,0-.86,1.4,4.25,4.25,0,0,0,.33.79A1.76,1.76,0,0,1,91,46.47a1.5,1.5,0,0,1-.52-.73c-.06-.16-.13-.32-.32-.31s-.22.21-.24.39a1,1,0,0,1-.8.93c-.19,0-.41,0-.56-.16a2.32,2.32,0,0,0,.25-1,1.23,1.23,0,0,0-1-1.14C87.69,44.17,87.59,44.36,87.48,44.52Z" transform="translate(-46.74 -12.63)"/><path class="cls-60" d="M93.22,44.2a1.53,1.53,0,0,0-1,1.86c.11.53,0,.64-.54.51a1.48,1.48,0,0,1-1-.86c-.11-.24-.24-.4-.53-.39s-.32.23-.38.43a1.19,1.19,0,0,1-.53.76c-.08,0-.17.11-.26.05s-.06-.16,0-.25A1.91,1.91,0,0,0,87.88,44a.35.35,0,0,0-.49.08c-.15.21-.34.37-.5.57a1.3,1.3,0,0,0-.1,1.48c.19.4.15.5-.27.63a9.16,9.16,0,0,1-2.64.42,8.47,8.47,0,0,1-1.33-.16.58.58,0,0,1-.49-.31,6.79,6.79,0,0,0,4.32,0c.28-.07.38-.24.27-.49A1.87,1.87,0,0,1,87.37,44,.47.47,0,0,1,88,44c.21.17.4.35.6.52a1.66,1.66,0,0,1,.54,1.42c0,.11-.08.28.09.3s.21-.12.26-.22a1.85,1.85,0,0,0,.12-.33c.08-.24.19-.48.45-.5a.69.69,0,0,1,.66.36,2.3,2.3,0,0,0,.47.68.89.89,0,0,0,.38.21c.45.09.55,0,.45-.46a1.47,1.47,0,0,1,.68-1.64.76.76,0,0,0,.16-.11c.43-.42.61-.42,1,0l.6.59a1.22,1.22,0,0,1,.24,1.49c-.06.12-.22.24-.1.39s.26,0,.37,0A2.94,2.94,0,0,0,97,45.23a1.91,1.91,0,0,0-.35-2.29c-.29-.29-.57-.59-.85-.89,1,.7,1.89,1.8,1.49,3a2.92,2.92,0,0,1-1.72,1.65,4.54,4.54,0,0,1-.91.26c-.13,0-.28,0-.35-.13s0-.21.13-.3a1.11,1.11,0,0,0,0-1.65,2.07,2.07,0,0,0-.66-.55A1.85,1.85,0,0,1,93.22,44.2Z" transform="translate(-46.74 -12.63)"/><path class="cls-61" d="M85.25,43.33a5.58,5.58,0,0,0-1.91.15l-.16-.15a2.52,2.52,0,0,1,1.72-.28,1.51,1.51,0,0,1,.94.35Z" transform="translate(-46.74 -12.63)"/><path class="cls-40" d="M83.58,50.5c-.12.13-.28.08-.42.08-4.63,0-9.26,0-13.89,0L64.5,50.5a10.1,10.1,0,0,1-1.1,0c.19-.49.3-.53.71-.34.19.08.2-.09.18-.2a1.8,1.8,0,0,1,.08-.8,19.45,19.45,0,0,0,2.49-2.56A5.5,5.5,0,0,1,67.4,46a.66.66,0,0,0,.27-.28c.2-.36.32-.42.7-.23a2.35,2.35,0,0,0,1.16.19c.22,0,.42,0,.32-.36a.29.29,0,0,1,.06-.29,2,2,0,0,1,2-.57.44.44,0,0,0,.56-.29c.16-.46.32-.51.7-.19a6.17,6.17,0,0,0,.76.42A2.77,2.77,0,0,1,73,45.5a1.07,1.07,0,0,0-.52.62c-.4.36-.72.8-1.09,1.18-.54.55-.94,1.19-1.51,1.72a12.28,12.28,0,0,0-1.1,1.34.48.48,0,0,0,.43.14H83.58Z" transform="translate(-46.74 -12.63)"/><path class="cls-62" d="M73.94,44.44c-.35.09-.57-.17-.8-.33s-.23-.24-.4-.2-.15.22-.16.36-.52.51-.72.35c-.35-.32-.72-.1-1,0a2.77,2.77,0,0,0-.53.32c-.2.11-.53.18-.27.57.1.14,0,.28-.25.3a2.24,2.24,0,0,1-1.46-.19c-.29-.19-.47-.06-.57.21a.29.29,0,0,1-.33.22,11.52,11.52,0,0,1,2.14-2.43.54.54,0,0,0,.09-.12c.68-.63,1.15-1.45,1.84-2.08l.59-.21a.23.23,0,0,1,.26,0c.49.54,1.13.43,1.75.38a1.36,1.36,0,0,0,.64-.19.31.31,0,0,1,.15,0c.73.4.51-.36.65-.59a.87.87,0,0,1,.9-.5c.23-.18.47-.37.39-.72a1.08,1.08,0,0,1,.24-.32,3.21,3.21,0,0,1,1.11-.16,1.63,1.63,0,0,0,1.56-.58c.23-.08.26-.48.6-.37a.58.58,0,0,1-.19.38c-.61.5-1,1.17-1.64,1.68-.15.13-.34.2-.48.33-.09-.12,0-.24,0-.37a3,3,0,0,1,.43-.47c-.17,0-.38,0-.36.08.07.36-.28.4-.4.6s0,.28.12.4a2.17,2.17,0,0,1-.71.6c-.29.13-.36.47-.61.66a18.28,18.28,0,0,0-2.14,2C74.17,44.16,74.21,44.45,73.94,44.44Z" transform="translate(-46.74 -12.63)"/><path class="cls-63" d="M78.24,39.18a5.39,5.39,0,0,1-1.2.08c0-.2-.28-.31-.17-.54a2,2,0,0,1,.57-.59c.08-.05.21-.07.29-.16a.46.46,0,0,1,.61-.07c.11.07.24.15.3,0s-.12-.12-.19-.17a.37.37,0,0,0-.47-.06c-.1.07-.22.12-.32,0a.29.29,0,0,1,0-.37c.25-.34.5-.68.77-1,.08-.1.19,0,.29,0s.46.21.46.52.2.51.55.39a1.36,1.36,0,0,1,1-.06.85.85,0,0,0,.73,0,4.55,4.55,0,0,1-1.19,1c-.28,0-.26.41-.56.4a.43.43,0,0,0-.53.09c-.24.25-.55,0-.83,0-.08,0-.17-.07-.26,0C78.08,38.86,78.43,39,78.24,39.18Z" transform="translate(-46.74 -12.63)"/><path class="cls-63" d="M77.76,40.78c-.13-.05-.32,0-.36-.18s.1-.17.2-.22a.3.3,0,0,1,.4-.16c.14.11,0,.21,0,.32A.47.47,0,0,1,77.76,40.78Z" transform="translate(-46.74 -12.63)"/><path class="cls-31" d="M82.91,38.55c.07,0,.13,0,.14.12a.1.1,0,0,1-.11.09.13.13,0,0,1-.13-.12C82.8,38.58,82.85,38.56,82.91,38.55Z" transform="translate(-46.74 -12.63)"/><path class="cls-33" d="M78.53,48.22a.28.28,0,0,1-.26.19.1.1,0,0,1-.1-.13c0-.11.09-.2.2-.2S78.53,48.11,78.53,48.22Z" transform="translate(-46.74 -12.63)"/><path class="cls-33" d="M79.3,48c.11.12.19.23,0,.37a.14.14,0,0,1-.11,0A.27.27,0,0,1,79.3,48Z" transform="translate(-46.74 -12.63)"/><path class="cls-64" d="M91.31,37.9l.07-.15a11.66,11.66,0,0,1,2.26,1.56A2.79,2.79,0,0,1,91.31,37.9Z" transform="translate(-46.74 -12.63)"/><path class="cls-65" d="M88.52,47.23h.39c.07.17.13.35.3.08.13,0,.23.13.36,0,.32,0,.18-.22.22-.36l.4-.35c.13-.14.23-.15.32,0-.39.14-.43.45-.4.8-.62.26-1.28.39-1.53-.06A1,1,0,0,1,88.52,47.23Z" transform="translate(-46.74 -12.63)"/><path class="cls-6" d="M74.37,54.5c.06,0,.1,0,.11.09s0,.12-.12.11-.09-.05-.09-.1S74.31,54.51,74.37,54.5Z" transform="translate(-46.74 -12.63)"/><path class="cls-6" d="M65.73,53.54a7.75,7.75,0,0,1-.4.72.2.2,0,0,1-.32,0c-.1-.17-.22-.37-.09-.58a1.08,1.08,0,0,1,.51-.4C65.66,53.19,65.71,53.29,65.73,53.54Z" transform="translate(-46.74 -12.63)"/><path class="cls-2" d="M62.41,53.76a.51.51,0,0,1-.33-.31c0-.14,0-.23.15-.28l.1-.06c.16-.09.28-.26.5-.18a.13.13,0,0,1,.07.19c-.12.22-.17.49-.41.62Z" transform="translate(-46.74 -12.63)"/><path class="cls-49" d="M64.45,39.34a7.41,7.41,0,0,1,1.22-1.22c.4-.41.86-.75,1.25-1.17,0-.29.28-.33.45-.47.59-.45,1.21-.87,1.76-1.36,1.69-1.52,3.36-3.07,5.08-4.55.09-.08.15-.19.24-.27a17.09,17.09,0,0,0,2-2c.72-.81,1.47-1.59,2.25-2.35.63-.6,1.31-1.16,1.93-1.77a4.12,4.12,0,0,0,.83-.89c.11-.12.18-.3.39-.26l-.13.36a9.51,9.51,0,0,0,2.83-.51,2.07,2.07,0,0,1,.74-.1c.3,0,.3.12.23.33a5.8,5.8,0,0,0-1.2,1l-1.43,1.22a14.16,14.16,0,0,0-1.57,1.2,10.83,10.83,0,0,1-1.52,1.2,1.11,1.11,0,0,1-.39.2c-.09,0-.2,0-.22.13-.11.46-.49.59-.87.71-.11,0-.15.07-.11.19a.55.55,0,0,1-.29.64c-.81.51-1.55,1.09-2.3,1.67a14.21,14.21,0,0,0-1.91,1.89,1.08,1.08,0,0,1-.89.35c-.31,0-.61,0-.78.34a.35.35,0,0,1-.43.12.5.5,0,0,0-.48.13c-.71.61-1.55,1.06-2.26,1.68a4.79,4.79,0,0,0-1,1c-.11.18-.35.17-.51.3a14.29,14.29,0,0,0-2,1.8A1.09,1.09,0,0,1,64.45,39.34Z" transform="translate(-46.74 -12.63)"/><path class="cls-66" d="M64.45,39.34a2.9,2.9,0,0,0,1.18-1A8.49,8.49,0,0,1,67.32,37c.39-.26.65-.63,1-.9s.77-.57,1.12-.89a4.15,4.15,0,0,1,.77-.55,2.61,2.61,0,0,0,.74-.54c.18-.18.39-.36.69-.19a.22.22,0,0,0,.32-.14c.1-.47.51-.38.76-.35a1.17,1.17,0,0,0,1.21-.63,4.4,4.4,0,0,1,1.19-1.24A20.29,20.29,0,0,1,77,30.08a3.1,3.1,0,0,0,1-.76c.1-.15.16-.26,0-.41s0-.26.11-.23a.77.77,0,0,0,.74-.33c.26-.71,1-.67,1.46-1.09s1-.88,1.53-1.31a5.36,5.36,0,0,1,1-.63,2.48,2.48,0,0,1-.94.77c-.5.29-.79.8-1.28,1.11a14.23,14.23,0,0,0-1.44,1.15c-.35.3-.65.66-1,1a13.62,13.62,0,0,1-1.26,1c-.62.47-1.17,1-1.8,1.47A13.61,13.61,0,0,0,73.93,33c-.91.84-1.89,1.61-2.87,2.37a20.81,20.81,0,0,0-1.69,1.42c-1.08,1-2.12,2-3.25,3s-2.37,1.94-3.52,3a.45.45,0,0,0-.06.14,27.28,27.28,0,0,0-2.22,1.94A18.23,18.23,0,0,1,58.88,46c-.68.48-1.27,1.06-1.91,1.58s-1.26,1.19-1.91,1.77c-.42.36-.87.68-1.27,1.07a.39.39,0,0,1-.47.1c-.17-.11-.1-.31-.07-.48a1.8,1.8,0,0,1,0-.19l0,0c.13.14-.07.43.15.48s.22-.22.36-.33a1.91,1.91,0,0,0,.6-.63A10,10,0,0,1,55.74,48c.32-.35.65-.69,1-1a20.68,20.68,0,0,0,1.42-1.55c.71-.83,1.59-1.46,2.27-2.29.25-.3.59-.53.87-.81.72-.73,1.52-1.37,2.22-2.13C63.81,39.93,64.14,39.64,64.45,39.34Z" transform="translate(-46.74 -12.63)"/><path class="cls-12" d="M79,28.75a.39.39,0,0,1-.17.42s-.08,0-.08-.05C78.71,28.93,78.87,28.89,79,28.75Z" transform="translate(-46.74 -12.63)"/><path class="cls-67" d="M81.82,23c-.28.17-.42.48-.64.72s-.28.42-.55.47c-.06-.29.27-.4.32-.67-.42,0-.82-.09-1.22-.15a3.25,3.25,0,0,1-1.6-.67c-.31-.25-.69-.1-1-.05a2.93,2.93,0,0,1-1,0,8,8,0,0,0-2,.15,18.57,18.57,0,0,1-2.89.07,1.42,1.42,0,0,0-.71.07,11.78,11.78,0,0,1-3.37.71c-.3,0-.62.19-.92,0a2.73,2.73,0,0,1,0-1.39c.06-.41,0-.81.06-1.21,0,0-.07-.07-.1-.11.86-.69,1.74-1.35,2.63-2,.58-.42,1.11-.91,1.66-1.38.18-.16.2-.5.48-.55a3.7,3.7,0,0,1,1-.09A11.23,11.23,0,0,0,74,17s.09-.05.13-.07c.59,0,1.17-.1,1.75-.07,1.79.09,3.58,0,5.36.09.89,0,1.78.08,2.66,0a23.62,23.62,0,0,0,3.46-.28,6.13,6.13,0,0,1,1,0c0,.12.2,0,.27.14-.29.27-.57.55-.87.81-.85.73-1.67,1.51-2.56,2.21a21.45,21.45,0,0,0-2.58,2.37C82.37,22.51,82,22.68,81.82,23Z" transform="translate(-46.74 -12.63)"/><path class="cls-55" d="M63.18,17.67c-1.54,1.21-3.06,2.47-4.63,3.65-.58.43-1.11.93-1.66,1.4-.08.07-.14.2-.25.16s-.07-.19-.07-.28a16.23,16.23,0,0,1,.2-2,23,23,0,0,1,.43-3,.44.44,0,0,1,.37-.2,12.93,12.93,0,0,1,2.33-.18c1,.07,2,0,3,.06C63.05,17.37,63.25,17.39,63.18,17.67Z" transform="translate(-46.74 -12.63)"/><path class="cls-66" d="M63.18,17.67c0-.28-.24-.24-.42-.24-1,0-2.1,0-3.14,0a12.19,12.19,0,0,0-2.42.25v-.16h0a3.4,3.4,0,0,0,.24-1,.4.4,0,0,1,.15-.38c.18-.1.23-.38.44-.37s.22.27.33.41a.64.64,0,0,0,.56.25,7.53,7.53,0,0,1,2.77.49c.47.17,1,.25,1.48.38.11,0,.23.05.22.18S63.28,17.66,63.18,17.67Z" transform="translate(-46.74 -12.63)"/><path class="cls-62" d="M72.82,40.22c.4.18.06.5.14.75s-.16.2-.29.2a.54.54,0,0,1-.57-.39c.19-.09.2-.34.4-.4S72.71,40.26,72.82,40.22Z" transform="translate(-46.74 -12.63)"/><path class="cls-42" d="M64.77,43.09c0,.24.08.49-.08.72C64.73,43.57,64.61,43.31,64.77,43.09Z" transform="translate(-46.74 -12.63)"/><path class="cls-33" d="M66.21,23.64a13.75,13.75,0,0,0,4.21-.78.76.76,0,0,1,.35-.09,17.36,17.36,0,0,0,2,0,12.41,12.41,0,0,0,2.28-.23,3.11,3.11,0,0,1,.91,0,4,4,0,0,0,1.2,0c.38-.05.82-.19,1.21.25a2.51,2.51,0,0,0,1.63.55,3.52,3.52,0,0,0,1.23.05l-.64.83a16.08,16.08,0,0,1-1.4,1.34,16.69,16.69,0,0,0-1.4,1.39c-.24.29-.55.52-.8.81a32.62,32.62,0,0,1-2.27,2.43,2.46,2.46,0,0,1-.27.17c-.87.66-1.65,1.42-2.5,2.12-.57.47-1.07,1.06-1.65,1.53s-1.24,1.18-2,1.67a5.13,5.13,0,0,0-1,.89,2.62,2.62,0,0,0-.48.4,3.34,3.34,0,0,0-1.42.91c-.1.09-.22.23-.34.15s-.07-.26,0-.39a9.7,9.7,0,0,0,.11-1.42c.11-1,.12-2,.18-3,.1-1.41.21-2.83.31-4.24,0-.53.06-1.05.09-1.58l.24-3.59A.17.17,0,0,1,66.21,23.64Z" transform="translate(-46.74 -12.63)"/><path class="cls-63" d="M76.8,39.58c0,.14.31.28.15.33s-.18.54-.54.39C76.16,39.85,76.64,39.8,76.8,39.58Z" transform="translate(-46.74 -12.63)"/><path class="cls-68" d="M93.43,44.92a.81.81,0,0,1,.82.74c0,.32-.62.87-1,.85s-.54-.51-.53-1A.62.62,0,0,1,93.43,44.92Z" transform="translate(-46.74 -12.63)"/><path class="cls-69" d="M87.24,45.56a.54.54,0,0,1,.37-.58c.21-.11.35,0,.49.13a.66.66,0,0,1,.19.71c-.08.3-.29.63-.57.64s-.37-.39-.46-.66A.63.63,0,0,1,87.24,45.56Z" transform="translate(-46.74 -12.63)"/><path class="cls-70" d="M89.79,47c0,.13.23.22.12.39s-.24.07-.36,0a2,2,0,0,1-.21-.2l0,0C89.44,47,89.65,47.12,89.79,47Z" transform="translate(-46.74 -12.63)"/><path class="cls-71" d="M93.22,44.2a.35.35,0,0,1,.48.08l-.09.24h-.39Z" transform="translate(-46.74 -12.63)"/><path class="cls-72" d="M89.23,47.31c0,.15,0,.34-.21.3s-.19-.21-.11-.38l.4-.08h0C89.36,47.24,89.29,47.28,89.23,47.31Z" transform="translate(-46.74 -12.63)"/><path class="cls-73" d="M88.59,46.59a1.18,1.18,0,0,1,.56.16,1.36,1.36,0,0,1-.72.08C88.4,46.68,88.51,46.65,88.59,46.59Z" transform="translate(-46.74 -12.63)"/><path class="cls-72" d="M87.48,44.52c0-.15,0-.35.18-.38s.22.15.22.3Z" transform="translate(-46.74 -12.63)"/><path class="cls-62" d="M70.88,45.11s.06,0,.07,0c.09.2-.17.34-.1.55s-.08.11-.15.08-.35,0-.45-.21c0,0,0-.09,0-.1Z" transform="translate(-46.74 -12.63)"/><path class="cls-62" d="M71.43,45.22c-.1,0-.19,0-.17-.13s.09-.27.22-.29a.19.19,0,0,1,.19.21C71.67,45.15,71.51,45.15,71.43,45.22Z" transform="translate(-46.74 -12.63)"/><path class="cls-56" d="M78.24,39.18c0-.18-.13-.23-.21-.35s-.15-.17,0-.27.17-.12.25,0c.23.23.54-.06.78.15,0,0,.13-.05.17-.12.18-.32.37-.26.56,0A1.4,1.4,0,0,1,78.24,39.18Z" transform="translate(-46.74 -12.63)"/><path class="cls-40" d="M69.47,45.35c-.06-.23,0-.6-.35-.26-.09.08-.43-.1-.62.12a.35.35,0,0,1-.11-.09.16.16,0,0,1,.07-.21c.25-.12.37-.37.6-.5.06,0,.15-.14.2,0,.18.37.46.2.72.15s.33-.07.38.09-.14.2-.28.24S69.67,45.11,69.47,45.35Z" transform="translate(-46.74 -12.63)"/><path class="cls-56" d="M78,40.22l-.4.16c-.18-.41.25-.15.33-.3s-.25-.39.08-.49c0,0,0,0,0,0,.16,0,.38-.16.47,0s-.15.27-.27.39Z" transform="translate(-46.74 -12.63)"/><path class="cls-56" d="M74.85,41.91c.16-.15.33-.08.48-.1s.27,0,.38-.07.24-.19.33,0-.1.2-.22.24A.9.9,0,0,1,74.85,41.91Z" transform="translate(-46.74 -12.63)"/><path class="cls-63" d="M77.23,40.79s0,.11-.11.09-.11,0-.1-.09a.18.18,0,0,1,.12-.08S77.24,40.72,77.23,40.79Z" transform="translate(-46.74 -12.63)"/><path class="cls-56" d="M77.83,38.36c0,.09-.07.14-.09.15s-.15.31-.36.22c0,0-.07-.12-.06-.12A.65.65,0,0,1,77.83,38.36Z" transform="translate(-46.74 -12.63)"/><path class="cls-74" d="M89.23,47.31l.08-.16c.18,0,.26.07.24.24C89.38,47.63,89.32,47.42,89.23,47.31Z" transform="translate(-46.74 -12.63)"/><path class="cls-55" d="M67.4,36.55c0-.06,0-.16,0-.18.48-.3.75-.85,1.29-1.08.38-.17.58-.54.89-.79.68-.55,1.3-1.17,1.95-1.76.9-.81,1.81-1.62,2.77-2.36a.37.37,0,0,1,.15,0,3.79,3.79,0,0,1-.91.92c-.85.78-1.73,1.53-2.58,2.31a19.69,19.69,0,0,1-2.7,2.29C68,36.07,67.77,36.42,67.4,36.55Z" transform="translate(-46.74 -12.63)"/><path class="cls-61" d="M94,45.67c0,.27-.37.63-.62.6S93,46,93,45.69s.27-.62.5-.61A.62.62,0,0,1,94,45.67Z" transform="translate(-46.74 -12.63)"/><path class="cls-75" d="M87.4,45.59c0-.23.16-.43.42-.41s.3.26.29.48-.08.53-.37.51S87.41,45.86,87.4,45.59Z" transform="translate(-46.74 -12.63)"/><path class="cls-76" d="M93.48,45.24a.4.4,0,0,1,.42.33.54.54,0,0,1-.47.54c-.26,0-.29-.15-.29-.36S93.16,45.27,93.48,45.24Z" transform="translate(-46.74 -12.63)"/><path class="cls-77" d="M87.78,45.33c.14.06.28.14.24.31s0,.4-.27.38-.18-.26-.19-.42A.22.22,0,0,1,87.78,45.33Z" transform="translate(-46.74 -12.63)"/></svg>