<svg xmlns="http://www.w3.org/2000/svg" width="142.293" height="132.293" viewBox="0 0 142.293 132.293">
  <g id="Group_2071" data-name="Group 2071" transform="translate(17.364 17.361)">
    <g id="Group_2070" data-name="Group 2070" transform="translate(-0.218 -0.215)">
      <rect id="Rectangle_204" data-name="Rectangle 204" width="108" height="98" rx="39" transform="translate(0 0)" fill="#efefef"/>
      <rect id="Rectangle_203" data-name="Rectangle 203" width="108" height="98" rx="39" transform="translate(0 0)" fill="#fff"/>
    </g>
    <g id="lemon" transform="translate(21.171 11.335)">
      <path id="Path_3734" data-name="Path 3734" d="M237.854,11.315a1.089,1.089,0,0,1-1.089-1.089V4.353a15.95,15.95,0,0,1-9.039,4.729,1.089,1.089,0,0,1-.363-2.148,13.3,13.3,0,0,0,9.52-6.341,1.09,1.09,0,0,1,2.06.494v9.14A1.089,1.089,0,0,1,237.854,11.315Z" transform="translate(-202.254 0.001)" fill="#aa6100"/>
      <path id="Path_3735" data-name="Path 3735" d="M85.157,42.572q-.342.856-.748,1.684A25.438,25.438,0,0,1,74.056,55.239a26.871,26.871,0,0,1-16.725,2.9.4.4,0,0,1-.229-.675A14.435,14.435,0,0,0,58.393,55.9c2.476-3.47,3.737-8.092,6.978-11.137a15.786,15.786,0,0,1,8.58-4.007,23.458,23.458,0,0,1,7.729.237l3.226,1.053A.4.4,0,0,1,85.157,42.572Z" transform="translate(-56.991 -34.747)" fill="#6dc82a"/>
      <path id="Path_3736" data-name="Path 3736" d="M121.224,65.171a25.438,25.438,0,0,1-10.353,10.983A26.225,26.225,0,0,1,99.94,79.291c2.063-3.318,3.374-7.373,6.312-10.132a15.786,15.786,0,0,1,8.58-4.007A22.666,22.666,0,0,1,121.224,65.171Z" transform="translate(-93.806 -55.661)" fill="#7ed63e"/>
      <path id="Path_3737" data-name="Path 3737" d="M200.01,103.53c0,11-5.079,20.483-12.393,24.79a8.913,8.913,0,0,0-3.438,3.845,5.912,5.912,0,0,1-2.725,2.722,6.073,6.073,0,0,1-2.686.619,5.994,5.994,0,0,1-5.411-3.341,8.913,8.913,0,0,0-3.438-3.845c-7.313-4.307-12.393-13.787-12.393-24.79,0-11.025,5.1-20.519,12.433-24.816a8.837,8.837,0,0,0,3.412-3.786,5.988,5.988,0,0,1,5.4-3.314,6.1,6.1,0,0,1,2.686.618,5.916,5.916,0,0,1,2.711,2.7,8.836,8.836,0,0,0,3.412,3.786C194.912,83.011,200.01,92.506,200.01,103.53Z" transform="translate(-143.167 -61.386)" fill="#eebf00"/>
      <path id="Path_3738" data-name="Path 3738" d="M232.255,107.182c0,11.006-5.079,20.489-12.393,24.8a8.915,8.915,0,0,0-3.438,3.847,5.913,5.913,0,0,1-2.725,2.722,5.913,5.913,0,0,1-2.725-2.722,8.915,8.915,0,0,0-3.438-3.847c-7.314-4.308-12.393-13.792-12.393-24.8,0-11.028,5.1-20.526,12.433-24.824a8.839,8.839,0,0,0,3.412-3.788,5.917,5.917,0,0,1,2.711-2.7,5.917,5.917,0,0,1,2.711,2.7,8.838,8.838,0,0,0,3.412,3.788C227.157,86.656,232.255,96.154,232.255,107.182Z" transform="translate(-175.413 -65.037)" fill="#ffd422"/>
    </g>
  </g>
</svg>
