<svg xmlns="http://www.w3.org/2000/svg" width="134.814" height="276.544" viewBox="0 0 134.814 276.544">
  <g id="Group_2176" data-name="Group 2176" transform="translate(-822 -556.021)">
    <path id="Path_3206" data-name="Path 3206" d="M418.146,381.3c11.058,12.371,13.145,21.944,12.753,28.664-.807,13.8-12.2,17.728-11.842,31.051.323,12.055,9.831,15.618,10.02,28.664.118,8.175-3.5,14.892-6.376,19.109" transform="translate(471.983 343.493)" fill="none" stroke="#000" stroke-miterlimit="10" stroke-width="1"/>
    <path id="Path_3207" data-name="Path 3207" d="M429.447,383.418a29.47,29.47,0,0,1-19.5,0,24.92,24.92,0,0,0,3.562-3.216,23.581,23.581,0,0,0,2.906-3.9c.027-.055.064-.1.091-.155a25.009,25.009,0,0,0,3.2-8.918,22.666,22.666,0,0,0,2.8,8.608c.3.556.647,1.111,1.029,1.676a22.843,22.843,0,0,0,4.673,4.992C428.645,382.853,429.064,383.163,429.447,383.418Z" transform="translate(472.713 344.747)" fill="#e35253"/>
    <path id="Path_3208" data-name="Path 3208" d="M478.168,278.458c0,1.1-.018,2.2-.055,3.288-1.33,41.628-27.919,75.341-61.55,78.839a53.221,53.221,0,0,1-5.8.31h-.191a55.987,55.987,0,0,1-18.81-3.325A62.934,62.934,0,0,1,371.765,345.7c-.31-.273-.619-.547-.929-.838-16.66-14.984-27.482-39.151-27.482-66.405,0-45.527,30.178-82.437,67.407-82.437a57.629,57.629,0,0,1,31.754,9.7c16.506,10.8,28.912,29.759,33.6,52.477A100.2,100.2,0,0,1,478.168,278.458Z" transform="translate(478.646 360)" fill="#f3797a"/>
    <ellipse id="Ellipse_66" data-name="Ellipse 66" cx="30.8" cy="11.475" rx="30.8" ry="11.475" transform="matrix(0.658, -0.753, 0.753, 0.658, 827.851, 602.645)" fill="#fff"/>
  </g>
</svg>
