<svg xmlns="http://www.w3.org/2000/svg" width="403" height="287.495" viewBox="0 0 403 287.495">
  <path id="Intersection_7" data-name="Intersection 7" d="M55,540h-.336A52.957,52.957,0,0,1,2,487V263.3a5.125,5.125,0,0,1,.4-.409,229,229,0,0,0,19.628,11.973,188.574,188.574,0,0,0,22.664,10.427,157.885,157.885,0,0,0,25.038,7.253,139.167,139.167,0,0,0,27.148,2.72c2.436,0,4.9-.068,7.33-.2a123.4,123.4,0,0,0,40.059-9.19c11.784-4.768,22.033-10.612,31.945-16.263,7.956-4.537,15.47-8.821,22.856-11.96,8.256-3.509,15.3-5.143,22.178-5.143a43.928,43.928,0,0,1,18.989,4.427,71.364,71.364,0,0,1,14.137,8.8,91.8,91.8,0,0,1,11.646,11.125c7.1,7.987,13.019,16.9,18.748,25.529,6.183,9.31,12.023,18.1,18.893,25.148a54.464,54.464,0,0,0,11.18,9,40.735,40.735,0,0,0,13.529,5.12,42.764,42.764,0,0,0,7.838.722,51.913,51.913,0,0,0,19.036-3.877A86.035,86.035,0,0,0,373.4,328.361a146.022,146.022,0,0,0,16.76-14.187c4.844-4.718,9.833-10.1,14.826-16V256.2l.012.043V487a52.956,52.956,0,0,1-52.664,53H55Z" transform="translate(-2 -252.505)" fill="#faf9f4"/>
</svg>
