<svg xmlns="http://www.w3.org/2000/svg" width="239.354" height="336.618" viewBox="0 0 239.354 336.618">
  <g id="Group_2083" data-name="Group 2083" transform="translate(-158.958 -380.345)">
    <g id="Group_1955" data-name="Group 1955" transform="matrix(0.996, -0.087, 0.087, 0.996, -199.791, 268.525)">
      <line id="Line_7" data-name="Line 7" x1="0.586" y1="0.019" transform="translate(382.996 288.828)" fill="none" stroke="#000" stroke-miterlimit="10" stroke-width="1"/>
      <path id="Path_3193" data-name="Path 3193" d="M573.319,248.7c0,41.4-26,75.384-59.13,78.829a51.076,51.076,0,0,1-5.569.3h-.184a53.738,53.738,0,0,1-18.055-3.191,60.406,60.406,0,0,1-19.191-11.392c46.12-18.877,78.462-58.728,100.162-83.987A96.174,96.174,0,0,1,573.319,248.7Z" transform="translate(-16.066 -8.579)" fill="#e5aba9"/>
      <path id="Path_3194" data-name="Path 3194" d="M371.5,329.5" transform="translate(-3.537 -21.177)" fill="none" stroke="#000" stroke-miterlimit="10" stroke-width="1"/>
      <path id="Path_3195" data-name="Path 3195" d="M599,415" transform="translate(-32.129 -31.923)" fill="#f0bcc2"/>
      <ellipse id="Ellipse_62" data-name="Ellipse 62" cx="29.727" cy="11.014" rx="29.727" ry="11.014" transform="matrix(0.658, -0.753, 0.753, 0.658, 433.472, 206.787)" fill="#f5eaeb"/>
      <path id="Path_3196" data-name="Path 3196" d="M444,268" transform="translate(-12.649 -13.448)" fill="#f0bcc2"/>
      <path id="Path_3197" data-name="Path 3197" d="M476.673,283.726c0,41.4-26,75.384-59.13,78.829a51.084,51.084,0,0,1-5.569.3h-.184a53.738,53.738,0,0,1-18.055-3.191,60.406,60.406,0,0,1-19.191-11.392c46.12-18.877,78.462-58.728,100.162-83.987A96.172,96.172,0,0,1,476.673,283.726Z" transform="translate(-3.92 -12.98)" fill="#e5aba9"/>
      <path id="Path_3198" data-name="Path 3198" d="M411.354,532.021" transform="translate(-8.546 -46.63)" fill="#f0bcc2"/>
      <ellipse id="Ellipse_63" data-name="Ellipse 63" cx="29.727" cy="11.014" rx="29.727" ry="11.014" transform="matrix(0.658, -0.753, 0.753, 0.658, 348.972, 236.533)" fill="#fff"/>
      <path id="Path_3202" data-name="Path 3202" d="M418.146,381.3c10.613,11.874,12.617,21.062,12.24,27.512-.775,13.242-11.71,17.016-11.366,29.8.31,11.571,9.436,14.991,9.618,27.512.114,7.847-3.357,14.293-6.12,18.341" transform="translate(-9.4 -27.688)" fill="none" stroke="#000" stroke-miterlimit="10" stroke-width="1"/>
      <path id="Path_3203" data-name="Path 3203" d="M428.663,382.768a28.286,28.286,0,0,1-18.719,0,23.92,23.92,0,0,0,3.419-3.086,22.635,22.635,0,0,0,2.789-3.742c.026-.052.061-.1.087-.149a24,24,0,0,0,3.069-8.56,21.756,21.756,0,0,0,2.684,8.262c.289.533.621,1.067.988,1.609a21.926,21.926,0,0,0,4.485,4.791C427.894,382.226,428.3,382.523,428.663,382.768Z" transform="translate(-8.369 -25.919)" fill="#97bbba"/>
      <path id="Path_3210" data-name="Path 3210" d="M418.146,381.3c9.075,11.836,10.788,20.994,10.466,27.423-.662,13.2-10.012,16.961-9.719,29.707.265,11.533,8.068,14.942,8.223,27.423a35.556,35.556,0,0,1-5.233,18.282" transform="translate(76.335 -55.321)" fill="none" stroke="#000" stroke-miterlimit="10" stroke-width="1"/>
      <path id="Path_3200" data-name="Path 3200" d="M525.309,347.747a28.286,28.286,0,0,1-18.719,0,23.92,23.92,0,0,0,3.419-3.086,22.635,22.635,0,0,0,2.789-3.742c.026-.052.061-.1.087-.149a24,24,0,0,0,3.069-8.56,21.755,21.755,0,0,0,2.684,8.262c.289.533.621,1.067.988,1.609a21.927,21.927,0,0,0,4.485,4.791C524.54,347.2,524.942,347.5,525.309,347.747Z" transform="translate(-20.515 -21.518)" fill="#eab569"/>
      <path id="Path_3201" data-name="Path 3201" d="M569.4,240.126c0,1.058-.018,2.107-.052,3.156-1.277,39.956-26.8,72.315-59.078,75.672a51.076,51.076,0,0,1-5.569.3h-.184a53.738,53.738,0,0,1-18.055-3.191,60.406,60.406,0,0,1-19.191-11.392c-.3-.262-.595-.525-.892-.8C450.387,289.481,440,266.286,440,240.126c0-43.7,28.966-79.126,64.7-79.126a55.314,55.314,0,0,1,30.479,9.312c15.843,10.369,27.751,28.564,32.254,50.37A96.174,96.174,0,0,1,569.4,240.126Z" transform="translate(-12.146)" fill="#f1d582"/>
      <ellipse id="Ellipse_64" data-name="Ellipse 64" cx="29.563" cy="11.014" rx="29.563" ry="11.014" transform="matrix(0.658, -0.753, 0.753, 0.658, 438.831, 206.347)" fill="#f8f6ed"/>
      <path id="Path_3205" data-name="Path 3205" d="M469.744,267.569c0,.957-.017,1.905-.051,2.854-1.247,36.13-26.175,65.39-57.7,68.425a53.85,53.85,0,0,1-5.44.269h-.179a56.271,56.271,0,0,1-17.635-2.886,60.168,60.168,0,0,1-18.745-10.3c-.29-.237-.581-.474-.871-.727-15.619-13.005-25.765-33.979-25.765-57.634,0-39.514,28.292-71.548,63.195-71.548a57.144,57.144,0,0,1,29.77,8.42c15.474,9.376,27.105,25.829,31.5,45.546A80.745,80.745,0,0,1,469.744,267.569Z" transform="translate(6.995 -0.645)" fill="rgba(198,156,156,0.29)"/>
      <path id="Path_3204" data-name="Path 3204" d="M472.753,275.147c0,1.058-.017,2.107-.052,3.156-1.277,39.956-26.8,72.315-59.078,75.672a51.084,51.084,0,0,1-5.569.3h-.184a53.738,53.738,0,0,1-18.055-3.191,60.406,60.406,0,0,1-19.191-11.392c-.3-.262-.595-.525-.892-.8-15.991-14.383-26.378-37.578-26.378-63.738,0-43.7,28.966-79.126,64.7-79.126a55.314,55.314,0,0,1,30.479,9.312c15.843,10.369,27.751,28.564,32.254,50.37A96.172,96.172,0,0,1,472.753,275.147Z" transform="translate(0 -4.401)" fill="#d2e4e2"/>
      <ellipse id="Ellipse_65" data-name="Ellipse 65" cx="29.563" cy="11.014" rx="29.563" ry="11.014" transform="matrix(0.658, -0.753, 0.753, 0.658, 348.97, 236.37)" fill="#fff"/>
    </g>
  </g>
</svg>
