<svg xmlns="http://www.w3.org/2000/svg" xmlns:xlink="http://www.w3.org/1999/xlink" width="143.293" height="137.293" viewBox="0 0 143.293 137.293">
  <defs>
    <clipPath id="clip-path">
      <rect width="143.293" height="137.293" fill="none"/>
    </clipPath>
  </defs>
  <g id="Repeat_Grid_3" data-name="Repeat Grid 3" clip-path="url(#clip-path)">
    <g id="Group_2067" data-name="Group 2067" transform="translate(16.755 17.146)">
      <rect id="Rectangle_200" data-name="Rectangle 200" width="109" height="103" rx="39" transform="translate(0.391 1)" fill="#fff"/>
      <g id="kiwi" transform="translate(23.952 22)">
        <circle id="Ellipse_129" data-name="Ellipse 129" cx="31.5" cy="31.5" r="31.5" transform="translate(0.439 0)" fill="#966645"/>
        <ellipse id="Ellipse_130" data-name="Ellipse 130" cx="29.129" cy="29.129" rx="29.129" ry="29.129" transform="translate(1.668 2.186)" fill="#bbe383"/>
        <g id="Group_2057" data-name="Group 2057" transform="translate(19.572 20.09)">
          <ellipse id="Ellipse_131" data-name="Ellipse 131" cx="10.074" cy="11.225" rx="10.074" ry="11.225" transform="translate(1.151)" fill="#fffcb5"/>
          <ellipse id="Ellipse_132" data-name="Ellipse 132" cx="11.225" cy="10.073" rx="11.225" ry="10.073" transform="translate(0 1.151)" fill="#fffcb5"/>
        </g>
        <g id="Group_2058" data-name="Group 2058" transform="translate(10.275 10.97)">
          <path id="Path_3618" data-name="Path 3618" d="M253.052,97.3a.4.4,0,0,1-.406.394h0a.4.4,0,0,1-.395-.406l.114-7.573a.4.4,0,0,1,.407-.394h0a.4.4,0,0,1,.394.406Z" transform="translate(-232.188 -89.324)" fill="#93bf54"/>
          <path id="Path_3619" data-name="Path 3619" d="M253.052,364.955a.4.4,0,0,1-.406.4h0a.4.4,0,0,1-.395-.406l.114-7.574a.4.4,0,0,1,.407-.394h0a.4.4,0,0,1,.394.406Z" transform="translate(-232.188 -324.305)" fill="#93bf54"/>
          <path id="Path_3620" data-name="Path 3620" d="M267.121,112.317a.384.384,0,0,1-.455.3h0a.385.385,0,0,1-.335-.428l1.148-6.849a.385.385,0,0,1,.456-.3h0a.386.386,0,0,1,.333.429Z" transform="translate(-244.545 -103.116)" fill="#93bf54"/>
          <path id="Path_3621" data-name="Path 3621" d="M230.513,355.008a.385.385,0,0,1-.455.3h0a.385.385,0,0,1-.334-.428l1.148-6.849a.385.385,0,0,1,.456-.3h0a.385.385,0,0,1,.334.428Z" transform="translate(-212.405 -316.183)" fill="#93bf54"/>
          <path id="Path_3622" data-name="Path 3622" d="M281.448,103.632a.4.4,0,0,1-.5.267h0a.4.4,0,0,1-.267-.5l2.2-7.247a.4.4,0,0,1,.5-.267h0a.4.4,0,0,1,.266.5Z" transform="translate(-257.133 -95.07)" fill="#93bf54"/>
          <path id="Path_3623" data-name="Path 3623" d="M207.525,360.872a.4.4,0,0,1-.5.267h0a.4.4,0,0,1-.267-.5l2.2-7.246a.4.4,0,0,1,.5-.267h0a.4.4,0,0,1,.266.5Z" transform="translate(-192.233 -320.91)" fill="#93bf54"/>
          <path id="Path_3624" data-name="Path 3624" d="M292.368,123.97a.384.384,0,0,1-.519.159h0a.386.386,0,0,1-.2-.5l3-6.266a.385.385,0,0,1,.52-.158h0a.385.385,0,0,1,.2.5Z" transform="translate(-266.744 -113.761)" fill="#93bf54"/>
          <path id="Path_3625" data-name="Path 3625" d="M190.144,347.107a.385.385,0,0,1-.519.159h0a.386.386,0,0,1-.2-.5l3-6.266a.385.385,0,0,1,.52-.158h0a.385.385,0,0,1,.2.5Z" transform="translate(-176.997 -309.66)" fill="#93bf54"/>
          <path id="Path_3626" data-name="Path 3626" d="M310.758,124.827a.4.4,0,0,1-.557.1h0a.4.4,0,0,1-.1-.558l4.344-6.2a.4.4,0,0,1,.558-.1h0a.4.4,0,0,1,.1.557Z" transform="translate(-282.914 -114.493)" fill="#93bf54"/>
          <path id="Path_3627" data-name="Path 3627" d="M160.552,346.362a.4.4,0,0,1-.557.1h0a.4.4,0,0,1-.1-.557l4.344-6.2a.4.4,0,0,1,.558-.1h0a.4.4,0,0,1,.1.557Z" transform="translate(-151.043 -308.987)" fill="#93bf54"/>
          <path id="Path_3628" data-name="Path 3628" d="M317.132,149.251a.385.385,0,0,1-.542-.01h0a.385.385,0,0,1-.037-.542l4.794-5.025a.386.386,0,0,1,.544.011h0a.385.385,0,0,1,.036.542Z" transform="translate(-288.557 -136.946)" fill="#93bf54"/>
          <path id="Path_3629" data-name="Path 3629" d="M150.638,329.578a.385.385,0,0,1-.543-.01h0a.386.386,0,0,1-.037-.542L154.853,324a.385.385,0,0,1,.543.011h0a.385.385,0,0,1,.036.542Z" transform="translate(-142.385 -295.262)" fill="#93bf54"/>
          <path id="Path_3630" data-name="Path 3630" d="M333,156.236a.4.4,0,0,1-.562-.067h0a.4.4,0,0,1,.067-.563l5.959-4.675a.4.4,0,0,1,.562.068h0a.4.4,0,0,1-.068.562Z" transform="translate(-302.513 -143.336)" fill="#93bf54"/>
          <path id="Path_3631" data-name="Path 3631" d="M124.918,324.585a.4.4,0,0,1-.562-.067h0a.4.4,0,0,1,.067-.563l5.959-4.675a.4.4,0,0,1,.563.068h0a.4.4,0,0,1-.068.562Z" transform="translate(-119.828 -291.136)" fill="#93bf54"/>
          <path id="Path_3632" data-name="Path 3632" d="M334.579,182.311a.384.384,0,0,1-.516-.168h0a.385.385,0,0,1,.122-.53l6.047-3.415a.385.385,0,0,1,.517.169h0a.386.386,0,0,1-.123.529Z" transform="translate(-303.964 -167.311)" fill="#93bf54"/>
          <path id="Path_3633" data-name="Path 3633" d="M122.876,306.491a.384.384,0,0,1-.517-.168h0a.385.385,0,0,1,.123-.529l6.047-3.416a.385.385,0,0,1,.516.169h0a.385.385,0,0,1-.123.529Z" transform="translate(-118.102 -276.334)" fill="#93bf54"/>
          <path id="Path_3634" data-name="Path 3634" d="M349.508,200.7a.4.4,0,0,1-.511-.244h0a.4.4,0,0,1,.244-.511l7.143-2.52a.4.4,0,0,1,.511.245h0a.4.4,0,0,1-.244.51Z" transform="translate(-317.104 -184.212)" fill="#93bf54"/>
          <path id="Path_3635" data-name="Path 3635" d="M98.485,293.583a.4.4,0,0,1-.511-.243h0a.4.4,0,0,1,.244-.511l7.142-2.521a.4.4,0,0,1,.511.244h0a.4.4,0,0,1-.245.511Z" transform="translate(-96.722 -265.754)" fill="#93bf54"/>
          <path id="Path_3636" data-name="Path 3636" d="M345.64,226.009a.384.384,0,0,1-.435-.324h0a.385.385,0,0,1,.285-.462l6.822-1.3a.385.385,0,0,1,.436.326h0a.385.385,0,0,1-.286.462Z" transform="translate(-313.788 -207.488)" fill="#93bf54"/>
          <path id="Path_3637" data-name="Path 3637" d="M105.324,275.885a.385.385,0,0,1-.436-.324h0a.385.385,0,0,1,.286-.462L112,273.8a.385.385,0,0,1,.435.326h0a.384.384,0,0,1-.285.461Z" transform="translate(-102.806 -251.276)" fill="#93bf54"/>
          <path id="Path_3638" data-name="Path 3638" d="M355.919,255.349a.4.4,0,0,1-.391-.409h0a.4.4,0,0,1,.409-.392l7.572.176a.4.4,0,0,1,.391.41h0a.4.4,0,0,1-.409.391Z" transform="translate(-322.857 -234.38)" fill="#93bf54"/>
          <path id="Path_3639" data-name="Path 3639" d="M88.27,253.146a.4.4,0,0,1-.391-.409h0a.4.4,0,0,1,.409-.392l7.572.176a.4.4,0,0,1,.391.41h0a.4.4,0,0,1-.41.391Z" transform="translate(-87.879 -232.447)" fill="#93bf54"/>
          <path id="Path_3640" data-name="Path 3640" d="M346.456,269.343a.384.384,0,0,1-.292-.457h0a.385.385,0,0,1,.43-.331l6.84,1.205a.385.385,0,0,1,.292.458h0a.385.385,0,0,1-.431.33Z" transform="translate(-314.631 -246.673)" fill="#93bf54"/>
          <path id="Path_3641" data-name="Path 3641" d="M104.077,230.738a.385.385,0,0,1-.292-.457h0a.385.385,0,0,1,.431-.331l6.84,1.2a.385.385,0,0,1,.291.458h0a.385.385,0,0,1-.43.33Z" transform="translate(-101.837 -212.78)" fill="#93bf54"/>
          <path id="Path_3642" data-name="Path 3642" d="M350.461,287.633a.4.4,0,0,1-.242-.512h0a.4.4,0,0,1,.512-.242l7.133,2.548a.4.4,0,0,1,.242.512h0a.4.4,0,0,1-.512.242Z" transform="translate(-318.176 -262.744)" fill="#93bf54"/>
          <path id="Path_3643" data-name="Path 3643" d="M97.077,201.392a.4.4,0,0,1-.243-.511h0a.4.4,0,0,1,.512-.243l7.132,2.548a.4.4,0,0,1,.242.512h0a.4.4,0,0,1-.512.242Z" transform="translate(-95.721 -187.03)" fill="#93bf54"/>
          <path id="Path_3644" data-name="Path 3644" d="M337.047,297.911a.385.385,0,0,1-.134-.526h0a.385.385,0,0,1,.513-.179l6.114,3.295a.385.385,0,0,1,.133.527h0a.385.385,0,0,1-.513.178Z" transform="translate(-306.47 -271.795)" fill="#93bf54"/>
          <path id="Path_3645" data-name="Path 3645" d="M119.095,185.057a.385.385,0,0,1-.134-.526h0a.386.386,0,0,1,.514-.179l6.114,3.295a.385.385,0,0,1,.133.526h0a.384.384,0,0,1-.513.178Z" transform="translate(-115.122 -172.716)" fill="#93bf54"/>
          <path id="Path_3646" data-name="Path 3646" d="M331.323,321.3a.4.4,0,0,1-.037-.565h0a.4.4,0,0,1,.566-.037l5.684,5.007a.4.4,0,0,1,.035.565h0a.4.4,0,0,1-.565.036Z" transform="translate(-301.488 -292.368)" fill="#93bf54"/>
          <path id="Path_3647" data-name="Path 3647" d="M127.828,147.433a.4.4,0,0,1-.037-.564h0a.4.4,0,0,1,.565-.036l5.684,5.006a.4.4,0,0,1,.036.565h0a.4.4,0,0,1-.565.036Z" transform="translate(-122.832 -139.725)" fill="#93bf54"/>
          <path id="Path_3648" data-name="Path 3648" d="M315,325.912a.384.384,0,0,1,.071-.538h0a.385.385,0,0,1,.543.024l4.461,5.323a.384.384,0,0,1-.071.538h0a.385.385,0,0,1-.542-.025Z" transform="translate(-287.206 -296.473)" fill="#93bf54"/>
          <path id="Path_3649" data-name="Path 3649" d="M154.273,140.426a.385.385,0,0,1,.071-.538h0a.386.386,0,0,1,.543.024l4.461,5.323a.385.385,0,0,1-.072.538h0a.384.384,0,0,1-.542-.025Z" transform="translate(-146.098 -133.628)" fill="#93bf54"/>
          <path id="Path_3650" data-name="Path 3650" d="M303.083,344.417a.4.4,0,0,1,.163-.542h0a.4.4,0,0,1,.542.163l3.577,6.676a.4.4,0,0,1-.164.543h0a.4.4,0,0,1-.542-.164Z" transform="translate(-276.772 -312.762)" fill="#93bf54"/>
          <path id="Path_3651" data-name="Path 3651" d="M173.155,110.414a.4.4,0,0,1,.163-.542h0a.4.4,0,0,1,.542.163l3.576,6.676a.4.4,0,0,1-.164.542h0a.4.4,0,0,1-.542-.164Z" transform="translate(-162.704 -107.322)" fill="#93bf54"/>
          <path id="Path_3652" data-name="Path 3652" d="M286.162,343.083a.385.385,0,0,1,.254-.48h0a.385.385,0,0,1,.5.212l2.321,6.546a.384.384,0,0,1-.255.48h0a.385.385,0,0,1-.5-.212Z" transform="translate(-261.942 -311.665)" fill="#93bf54"/>
          <path id="Path_3653" data-name="Path 3653" d="M200.363,113.132a.385.385,0,0,1,.254-.48h0a.386.386,0,0,1,.5.213l2.321,6.546a.385.385,0,0,1-.255.479h0a.384.384,0,0,1-.5-.212Z" transform="translate(-186.615 -109.783)" fill="#93bf54"/>
          <path id="Path_3654" data-name="Path 3654" d="M269.934,355.985a.4.4,0,0,1,.336-.455h0a.4.4,0,0,1,.456.337l1.122,7.491a.4.4,0,0,1-.337.455h0a.4.4,0,0,1-.455-.337Z" transform="translate(-247.708 -323.032)" fill="#93bf54"/>
          <path id="Path_3655" data-name="Path 3655" d="M226.333,91.906a.4.4,0,0,1,.336-.455h0a.4.4,0,0,1,.456.337l1.121,7.49a.4.4,0,0,1-.337.455h0a.4.4,0,0,1-.455-.337Z" transform="translate(-209.428 -91.187)" fill="#93bf54"/>
        </g>
        <g id="Group_2059" data-name="Group 2059" transform="translate(15.533 15.087)">
          <ellipse id="Ellipse_133" data-name="Ellipse 133" cx="0.751" cy="0.44" rx="0.751" ry="0.44" transform="translate(6.949 7.597) rotate(-123.994)" fill="#4f1818"/>
          <ellipse id="Ellipse_134" data-name="Ellipse 134" cx="0.751" cy="0.44" rx="0.751" ry="0.44" transform="translate(7.507 3.376) rotate(-123.994)" fill="#4f1818"/>
          <ellipse id="Ellipse_135" data-name="Ellipse 135" cx="0.752" cy="0.44" rx="0.752" ry="0.44" transform="matrix(0.041, -0.999, 0.999, 0.041, 12.561, 3.907)" fill="#4f1818"/>
          <ellipse id="Ellipse_136" data-name="Ellipse 136" cx="0.751" cy="0.44" rx="0.751" ry="0.44" transform="translate(10.842 4.791) rotate(-126.321)" fill="#4f1818"/>
          <ellipse id="Ellipse_137" data-name="Ellipse 137" cx="0.751" cy="0.44" rx="0.751" ry="0.44" transform="matrix(0.169, -0.986, 0.986, 0.169, 14.702, 1.481)" fill="#4f1818"/>
          <ellipse id="Ellipse_138" data-name="Ellipse 138" cx="0.751" cy="0.44" rx="0.751" ry="0.44" transform="matrix(0.169, -0.985, 0.985, 0.169, 16.707, 3.708)" fill="#4f1818"/>
          <ellipse id="Ellipse_139" data-name="Ellipse 139" cx="0.751" cy="0.44" rx="0.751" ry="0.44" transform="translate(19.858 4.648) rotate(-57.057)" fill="#4f1818"/>
          <ellipse id="Ellipse_140" data-name="Ellipse 140" cx="0.751" cy="0.44" rx="0.751" ry="0.44" transform="translate(19.076 1.503) rotate(-82.571)" fill="#4f1818"/>
          <ellipse id="Ellipse_141" data-name="Ellipse 141" cx="0.751" cy="0.44" rx="0.751" ry="0.44" transform="matrix(0.622, -0.783, 0.783, 0.622, 21.984, 5.521)" fill="#4f1818"/>
          <ellipse id="Ellipse_142" data-name="Ellipse 142" cx="0.751" cy="0.44" rx="0.751" ry="0.44" transform="matrix(0.622, -0.783, 0.783, 0.622, 24.902, 5.428)" fill="#4f1818"/>
          <ellipse id="Ellipse_143" data-name="Ellipse 143" cx="0.751" cy="0.44" rx="0.751" ry="0.44" transform="matrix(0.965, -0.262, 0.262, 0.965, 27.715, 8.596)" fill="#4f1818"/>
          <ellipse id="Ellipse_144" data-name="Ellipse 144" cx="0.751" cy="0.44" rx="0.751" ry="0.44" transform="translate(25.688 7.726) rotate(-53.856)" fill="#4f1818"/>
          <ellipse id="Ellipse_145" data-name="Ellipse 145" cx="0.751" cy="0.44" rx="0.751" ry="0.44" transform="matrix(0.991, -0.136, 0.136, 0.991, 27.405, 11.075)" fill="#4f1818"/>
          <ellipse id="Ellipse_146" data-name="Ellipse 146" cx="0.751" cy="0.44" rx="0.751" ry="0.44" transform="translate(26.227 21.584) rotate(33.511)" fill="#4f1818"/>
          <ellipse id="Ellipse_147" data-name="Ellipse 147" cx="0.751" cy="0.44" rx="0.751" ry="0.44" transform="matrix(0.991, -0.136, 0.136, 0.991, 29.776, 12.712)" fill="#4f1818"/>
          <ellipse id="Ellipse_148" data-name="Ellipse 148" cx="0.752" cy="0.44" rx="0.752" ry="0.44" transform="translate(27.217 17.774) rotate(15.373)" fill="#4f1818"/>
          <ellipse id="Ellipse_149" data-name="Ellipse 149" cx="0.751" cy="0.44" rx="0.751" ry="0.44" transform="translate(27.599 20.091) rotate(15.373)" fill="#4f1818"/>
          <ellipse id="Ellipse_150" data-name="Ellipse 150" cx="0.751" cy="0.44" rx="0.751" ry="0.44" transform="matrix(0.984, -0.176, 0.176, 0.984, 30.111, 16.239)" fill="#4f1818"/>
          <ellipse id="Ellipse_151" data-name="Ellipse 151" cx="0.751" cy="0.44" rx="0.751" ry="0.44" transform="translate(17.534 28.613) rotate(77.409)" fill="#4f1818"/>
          <ellipse id="Ellipse_152" data-name="Ellipse 152" cx="0.752" cy="0.44" rx="0.752" ry="0.44" transform="matrix(0.624, 0.781, -0.781, 0.624, 26.023, 24.767)" fill="#4f1818"/>
          <ellipse id="Ellipse_153" data-name="Ellipse 153" cx="0.751" cy="0.44" rx="0.751" ry="0.44" transform="translate(20.768 29.607) rotate(77.355)" fill="#4f1818"/>
          <ellipse id="Ellipse_154" data-name="Ellipse 154" cx="0.751" cy="0.44" rx="0.751" ry="0.44" transform="translate(23.795 25.433) rotate(55.751)" fill="#4f1818"/>
          <ellipse id="Ellipse_155" data-name="Ellipse 155" cx="0.751" cy="0.44" rx="0.751" ry="0.44" transform="translate(15.528 28.611) rotate(77.355)" fill="#4f1818"/>
          <ellipse id="Ellipse_156" data-name="Ellipse 156" cx="0.751" cy="0.44" rx="0.751" ry="0.44" transform="translate(21.977 27.516) rotate(67.772)" fill="#4f1818"/>
          <ellipse id="Ellipse_157" data-name="Ellipse 157" cx="0.751" cy="0.44" rx="0.751" ry="0.44" transform="translate(12.347 28.906) rotate(113.715)" fill="#4f1818"/>
          <ellipse id="Ellipse_158" data-name="Ellipse 158" cx="0.752" cy="0.44" rx="0.752" ry="0.44" transform="matrix(0.257, 0.966, -0.966, 0.257, 13.703, 27.865)" fill="#4f1818"/>
          <ellipse id="Ellipse_159" data-name="Ellipse 159" cx="0.751" cy="0.44" rx="0.751" ry="0.44" transform="translate(10.015 28.209) rotate(121.077)" fill="#4f1818"/>
          <ellipse id="Ellipse_160" data-name="Ellipse 160" cx="0.751" cy="0.44" rx="0.751" ry="0.44" transform="matrix(-0.516, 0.856, -0.856, -0.516, 8.212, 27.433)" fill="#4f1818"/>
          <ellipse id="Ellipse_161" data-name="Ellipse 161" cx="0.752" cy="0.44" rx="0.752" ry="0.44" transform="matrix(-0.812, 0.584, -0.584, -0.812, 5.241, 24.601)" fill="#4f1818"/>
          <ellipse id="Ellipse_162" data-name="Ellipse 162" cx="0.751" cy="0.44" rx="0.751" ry="0.44" transform="translate(5.828 26.714) rotate(118.782)" fill="#4f1818"/>
          <ellipse id="Ellipse_163" data-name="Ellipse 163" cx="0.751" cy="0.44" rx="0.751" ry="0.44" transform="translate(5.024 22.906) rotate(149.84)" fill="#4f1818"/>
          <ellipse id="Ellipse_164" data-name="Ellipse 164" cx="0.751" cy="0.44" rx="0.751" ry="0.44" transform="translate(2.831 21.256) rotate(149.84)" fill="#4f1818"/>
          <ellipse id="Ellipse_165" data-name="Ellipse 165" cx="0.751" cy="0.44" rx="0.751" ry="0.44" transform="translate(1.494 16.839) rotate(-173.817)" fill="#4f1818"/>
          <ellipse id="Ellipse_166" data-name="Ellipse 166" cx="0.751" cy="0.44" rx="0.751" ry="0.44" transform="matrix(-0.844, 0.537, -0.537, -0.844, 3.709, 18.939)" fill="#4f1818"/>
          <ellipse id="Ellipse_167" data-name="Ellipse 167" cx="0.751" cy="0.44" rx="0.751" ry="0.44" transform="translate(2.148 15.013) rotate(-166.45)" fill="#4f1818"/>
          <ellipse id="Ellipse_168" data-name="Ellipse 168" cx="0.751" cy="0.44" rx="0.751" ry="0.44" transform="translate(1.807 12.255) rotate(-166.432)" fill="#4f1818"/>
          <ellipse id="Ellipse_169" data-name="Ellipse 169" cx="0.752" cy="0.44" rx="0.752" ry="0.44" transform="translate(5.303 8.478) rotate(-143.265)" fill="#4f1818"/>
          <ellipse id="Ellipse_170" data-name="Ellipse 170" cx="0.751" cy="0.44" rx="0.751" ry="0.44" transform="translate(2.192 9.655) rotate(-168.761)" fill="#4f1818"/>
        </g>
      </g>
    </g>
  </g>
</svg>
