<svg xmlns="http://www.w3.org/2000/svg" viewBox="0 0 1117.09 1117.09"><defs><style>.cls-1{fill:#f3797a;}.cls-2{fill:#488d80;}.cls-3{fill:#d8e28f;}.cls-4{fill:#e4ecb8;}.cls-5{fill:#bcd28c;}.cls-6{fill:#e8eec2;}.cls-7{fill:#f1d485;}.cls-8{fill:#f2d387;}.cls-9{fill:#f1d484;}.cls-10{fill:#f2d486;}.cls-11{fill:#f1d384;}.cls-12{fill:#f1d283;}.cls-13{fill:#c5d78d;}.cls-14{fill:#f2d485;}.cls-15{fill:#dde8a7;}.cls-16{fill:#f2d687;}.cls-17{fill:#5c9888;}.cls-18{fill:#b3d18d;}.cls-19{fill:#f59d8c;}.cls-20{fill:#a9cb93;}.cls-21{fill:#b6d0ca;}.cls-22{fill:#eecabd;}.cls-23{fill:#efb6ac;}.cls-24{fill:#eec0b5;}.cls-25{fill:#eec6ba;}.cls-26{fill:#f19a95;}.cls-27{fill:#efb3aa;}.cls-28{fill:#eec8bc;}.cls-29{fill:#efb5ab;}.cls-30{fill:#eebdb2;}.cls-31{fill:#efafa6;}.cls-32{fill:#efbeb3;}.cls-33{fill:#eec2b6;}.cls-34{fill:#f28382;}.cls-35{fill:#f0ada5;}.cls-36{fill:#f09e98;}.cls-37{fill:#f0a29c;}.cls-38{fill:#f28483;}.cls-39{fill:#f0a49e;}.cls-40{fill:#f0a19b;}.cls-41{fill:#ecb9af;}.cls-42{fill:#f28584;}.cls-43{fill:#f19b96;}.cls-44{fill:#eebfb4;}.cls-45{fill:#f0a7a0;}.cls-46{fill:#efb6ad;}.cls-47{fill:#f28281;}.cls-48{fill:#f28785;}.cls-49{fill:#efafa7;}.cls-50{fill:#f1908d;}.cls-51{fill:#f28987;}.cls-52{fill:#f0aca4;}.cls-53{fill:#f1bfb5;}.cls-54{fill:#a2c38a;}.cls-55{fill:#99bd89;}.cls-56{fill:#eeb1a8;}.cls-57{fill:#8ab588;}.cls-58{fill:#6ba283;}.cls-59{fill:#a0c389;}.cls-60{fill:#76afa5;}.cls-61{fill:#619b82;}.cls-62{fill:#64897f;}.cls-63{fill:#deadab;}.cls-64{fill:#b2d1cc;}.cls-65{fill:#bdd5d1;}.cls-66{fill:#d7b6b2;}.cls-67{fill:#efd5d4;}.cls-68{fill:#75877e;}.cls-69{fill:#d6e7e5;}.cls-70{fill:#f5f4e6;}.cls-71{fill:#f3ecde;}.cls-72{fill:#f1dbce;}.cls-73{fill:#f0d8ca;}.cls-74{fill:#f3e7da;}.cls-75{fill:#f1dfd1;}.cls-76{fill:#f2e4d7;}.cls-77{fill:#f1dccf;}.cls-78{fill:#f2e1d4;}.cls-79{fill:#f5f3e5;}.cls-80{fill:#f3e9dc;}.cls-81{fill:#f1ddcf;}.cls-82{fill:#f3e9db;}.cls-83{fill:#f4efe1;}.cls-84{fill:#f4eddf;}.cls-85{fill:#f37a7b;}.cls-86{fill:#f2e3d5;}.cls-87{fill:#f0d7ca;}.cls-88{fill:#f09f9a;}.cls-89{fill:#f1e0d3;}.cls-90{fill:#f2e5d8;}.cls-91{fill:#f1ded1;}.cls-92{fill:#f2e1d3;}.cls-93{fill:#f5f2e5;}.cls-94{fill:#f1dacd;}.cls-95{fill:#f2e4d6;}.cls-96{fill:#f1dfd2;}.cls-97{fill:#f1a7a0;}.cls-98{fill:#f1ddd0;}.cls-99{fill:#f0dbcd;}.cls-100{fill:#f1e1d3;}.cls-101{fill:#f0a09b;}.cls-102{fill:#f3eadc;}.cls-103{fill:#f2e5d7;}.cls-104{fill:#f19c97;}.cls-105{fill:#f0a39d;}.cls-106{fill:#f0aaa2;}.cls-107{fill:#f2e2d4;}.cls-108{fill:#f1b1aa;}.cls-109{fill:#f0dacc;}.cls-110{fill:#f0d6c9;}.cls-111{fill:#f0aaa3;}.cls-112{fill:#f2e3d6;}.cls-113{fill:#f18f8c;}.cls-114{fill:#f1928f;}.cls-115{fill:#f09f99;}.cls-116{fill:#f0d9cc;}.cls-117{fill:#f2aea7;}.cls-118{fill:#eec1b5;}.cls-119{fill:#f0d4c7;}.cls-120{fill:#eec1b6;}.cls-121{fill:#efb1a8;}.cls-122{fill:#eebeb3;}.cls-123{fill:#f0d2c6;}.cls-124{fill:#eec0b4;}.cls-125{fill:#efb5ac;}.cls-126{fill:#eebfb3;}.cls-127{fill:#efb7ae;}.cls-128{fill:#efb3a9;}.cls-129{fill:#eeb3aa;}.cls-130{fill:#eeb7ad;}.cls-131{fill:#f0b7ae;}.cls-132{fill:#f0b4ab;}.cls-133{fill:#efb2a9;}.cls-134{fill:#f4f0e2;}.cls-135{fill:#f3e8da;}.cls-136{fill:#eeccbf;}.cls-137{fill:#f3e8db;}.cls-138{fill:#efd3c6;}.cls-139{fill:#efd2c5;}.cls-140{fill:#efd0c3;}.cls-141{fill:#efd1c4;}.cls-142{fill:#f3e6d9;}</style></defs><g id="Layer_6_Image" data-name="Layer 6 Image"><path class="cls-1" d="M403.09,583.85c.63-17.9,4.31-35.22,10.06-52.14.64-1.88,1.49-3.69,2.24-5.53,4.34-2.42,6.1-6.8,8.4-10.82,1.47-2.57-1-4.31-.86-6.53,6.13-13.2,12.43-26.33,19.48-39.07,1.66-3,3.21-6,4.81-9.05a6.9,6.9,0,0,0,.77-1h0c6.22-4.41,6.7-11.69,9-18.06,11.27-20.89,26.45-39.09,40.06-58.38,4.65-3.15,7.29-7.65,8.71-13,3.42-4.9,6.33-10.28,10.36-14.61,8.18-8.79,13.35-20,22.49-27.93,6.46-.78,9.39-5.49,11.89-10.68,9.33-5.85,19.65-6.5,30.31-6.15,12.28.4,20.8,7.64,29.18,15.2a144.82,144.82,0,0,1,19.23,21.41c-3,4.89-2.81,6.76.93,11,1.59,1.77,3.19,2.2,5.16.76a1.26,1.26,0,0,1,1.36.26c8.37,17.24,18.55,33.56,26.11,51.21-.71,3.08.5,5.47,2.32,7.92,2,2.7,4.34,5.26,5.51,8.53a483,483,0,0,1,21.1,55.15c.26.86.44,1.75.66,2.62-3.16,5.22-.28,9.36,2.71,13.17,2.73,3.5,4.93,7,4.58,11.62,2,5.82,4,11.66,6.15,17.45a108.69,108.69,0,0,1,6.29,28.59c4.42,14.9,2.06,30.17,2.44,45.29-.64,5.59,1.51,11.42-1.46,16.81-2.12,9.12-4.22,18.24-7.63,27a79.2,79.2,0,0,1-14.87,24.3c-1.44,1.6-3,3.11-3.81,5.2-4.11,8.65-15.69,15-24.93,14.28-6.71-.52-13,2.37-19.54,3.56-8.91,1.62-17.64,4.15-26.84,3.4-2.34-.19-4.74,0-6.76-1.55a7.46,7.46,0,0,0-6.58-1.25c-3.88.9-7.84.65-11.76.46-2.36-.12-4.88-.42-4.36-3.92,3.71-4.09,9-2.68,13.29-2.86,10.66-.44,20.75-3,30.88-5.73,3.77-.17,7.54-.08,11.32,0A23.23,23.23,0,0,0,661,671.14a28.61,28.61,0,0,1,6.42-6.48c.4-.33.83-.64,1.24-.95s.78-.65,1.17-1c3.84-3.19,5.94-7.75,9-11.54.23-.41.49-.82.74-1.22s.44-.84.66-1.26.43-.86.65-1.29c1.13-2.2,1.84-4.57,2.9-6.81.59-3,1.09-6,1.85-9,4-19,4.07-38.19,3.83-57.43.71-3.55-1.76-4-4.32-4.66-3.42-.85-7-1.8-4.94-6.75.17-.32.31-.75.6-.89,7.3-3.37,6.25-9.14,4.95-15.46-3.88-19-6.56-38.19-13.23-56.48-5-13.78-11-27.13-17.21-40.42a16.89,16.89,0,0,0-.87-2.89c-.26-.4-.51-.81-.79-1.21-2.78-3.43-4-7.68-6.18-11.46-4.18-6.57-8.62-13-12.71-19.59-2.68-4.54-5.68-8.89-8.25-13.5-.35-.61-.65-1.25-1-1.87-.25-.38-.49-.77-.75-1.15s-.56-.74-.84-1.11-.57-.77-.84-1.17c-2.88-3.53-5.1-7.71-10.29-10.36,1.49,5.17,4,8.88,5.79,12.9a9.75,9.75,0,0,1,.54,1.39,19.44,19.44,0,0,0,1.07,2.74c2.45,4.95,4.71,10,7.61,14.69,4.64,8.52,9.68,16.82,13.51,25.76,2.44,5.18,4.7,10.46,7.28,15.59,2,3.57,4.06,7.08,4.29,11.32-.17,1.15-.5,2.17-1.83,2.46-3.94-2.44-5.17-6.73-7.21-10.48-6.79-12.18-10.78-25.66-17.51-37.87-4.29-7.79-9.73-14.74-15.37-21.55-6.25-7-10.88-15.33-17.61-22a11.64,11.64,0,0,1-.77-1.32c-.12-.22-.22-.45-.33-.68a14,14,0,0,1-.6-1.38c-4.56-5.25-7.31-11.88-12.63-16.54-7.9-4.7-15.44-2.68-22.87,1.23a43.84,43.84,0,0,0-4.94,3.2c-.36.32-.75.63-1.13.94s-.72.66-1.09,1c-.17.18-.35.34-.52.52-.34.37-.69.71-1,1.05-5.19,4.47-8.8,10.21-12.66,15.75-6.59,10.64-14,20.78-20.76,31.3-2.24,3.48-3,6.4-.77,9.92a9.31,9.31,0,0,1,.43,2.41c-1,6.07-2.84,7.6-8.81,7.18-1.37-.1-2.78-.85-4.12.1a80.33,80.33,0,0,0-9.29,15.25q-14.36,28.61-31.36,55.7c-1.48,2.64-2.41,5.61-4.54,7.87-1.85,2.36-2.79,5.25-4.5,7.7-4.17,7.17-7.41,14.82-11.29,22.13a13.05,13.05,0,0,1-.67,1.22c-.33.57-.67,1.14-1,1.72-.18.39-.39.77-.6,1.15-.4.78-.74,1.59-1.11,2.38-.81,1.65-1.59,3.3-2.39,4.95-.2.43-.42.84-.65,1.25-.45.85-.86,1.72-1.29,2.58a58.53,58.53,0,0,0-4.33,8.17c-9.45,17.16-9.78,35.63-7.84,54.42.64,7.54,2.55,14.66,7,20.92,1.89,3.45,5.17,6.08,6.06,10.13.05,3,1.21,6.13-1.57,8.58Q404,637.52,403.13,601.44C402.73,595.58,404.58,589.71,403.09,583.85Z"/><path class="cls-2" d="M431.42,661c.19-3.05.37-6.09.55-9.14,3.11-.59,4,2.3,5.91,3.69a16.34,16.34,0,0,1,2.33,3.86c2.41,6.05,6.9,10.44,11.46,14.88,6.41,6.24,14.26,10.43,21.44,15.56a14.08,14.08,0,0,0,4,1.84c.74.18,1.48.39,2.23.6a40.81,40.81,0,0,0,4.93.79c14.28,2.54,28.64,4.43,43,6.05a65.46,65.46,0,0,0,27.84-3c7.24-2.34,14.43-4.56,22.18-4.9,7.24-.31,14.21,2.28,21.48,1.35,3.47-.44,7.15-1.53,10.55.57,6.23,1.81,12.62,1.54,18.81.47,8.55-1.48,17-3.42,25.51-5.31a54.94,54.94,0,0,1,10.67-1.14,23.13,23.13,0,0,0,15.64-6.5c2.18-2.17,4.13-4.59,6.76-6.28,2.07.63,2.57,2,1.42,3.72a36,36,0,0,1-3.46,4.16c-1.34,1.47-2.72,2.9-4.19,4.25-2.89,2.66-4.08,5.19-1.64,9.17,1.75,2.85,1.75,6.61,1.36,10.1a2.44,2.44,0,0,1-1.83,2.4,2.25,2.25,0,0,1-2.61-1.43,19.25,19.25,0,0,0-1.86-3.29c-2.33-2.82-6.48-3.84-9.27-1.92-7.72,5.33-15.11,11.14-23.49,14.92.13,2.14,1.49,2.64,2.28,3.55,5,5.77,4.47,13-1.28,17.81-.89.75-1.84,1.34-2.93.69s-.89-1.81-.43-2.86c.15-.33.36-.63.5-1,3.07-7.2,2-9.53-5.66-11.81-5.17-1.54-7.85-.63-11.32,3.37a84.12,84.12,0,0,1-7.92,8.21c-5.39,4.75-11.52,5.75-18.16,2.7a28.63,28.63,0,0,1-6.46-4c-2.37-2-4.71-4-7.12-5.89-3.07-2.43-3.87-2.31-5.53,1.33a39,39,0,0,0-3.22,19.61c.92,11.65,6.31,21.42,12.81,30.72,3.75,5.35,7.52,10.66,9.67,16.93.66,1.93,1.52,3.76-.28,5.52a1.44,1.44,0,0,0-.88.47l-.16.07c-1.1.53-2,0-2.93-.52-12.21-8.06-21-19.25-28.54-31.53-2.83-7.06-4.27-14.47-5.61-21.91-.21-1.89-.08-3.83-.73-5.66a11.83,11.83,0,0,1-.33-1.57c-.33-3,0-6.11-.7-9.13-.57-2.44-1.57-4.4-4.33-4.84a11.53,11.53,0,0,1-1.31-.88c-4.08-1-7.5.85-10.57,3-5.79,4.08-12.31,6.7-18.58,9.82a12.77,12.77,0,0,1-14.64-1.53c-2.53-2-5-4.16-7.43-6.24.39-2.59,2.58-2.25,4.16-2.22a33.72,33.72,0,0,0,13.52-2.87,8.78,8.78,0,0,1,1.68-.34,17.12,17.12,0,0,1,4.9.24c1.41.1,2.64,1.25,4.12.68l-.89-.44a6,6,0,0,1-1.55-1.07,2.74,2.74,0,0,1-.48-1.4,2.13,2.13,0,0,1,1.28-1.87c3.91-.41,7.8-1.28,10.24-.88-6.05.41-13.64.63-21.18,1.58-2.57,1.08-5.33,1.38-8,2.08-8.75,3.49-13.49-3.09-19.08-7.57-1.4-1.54-2.35-3.43-3.91-4.84-2.21-2.2-4.62-4.35-7.58-5.19-15.08-4.24-26.77-14.31-39.52-22.56a16.73,16.73,0,0,0-3.59-2.53,8.94,8.94,0,0,0-6.84-1.32l-1.29.55c-1.07.48-2.14,1.07-3.26.13-1.59-1.93-3.2-3.84-4.75-5.79-.67-.85-1.24-1.83-.6-2.93.79-1.36,2.12-1.33,3.3-.82,3.26,1.42,6.46,3,9.7,4.48.64.3,1.32.52,2,.77.92-.77.54-1.57.06-2.37C432.79,669.91,431.84,665.45,431.42,661Z"/><path class="cls-3" d="M437.29,683.12c6.77,3.79,13,8.39,19.4,12.74A60.09,60.09,0,0,0,473.05,704c4.65,1.42,9.24,3.14,12.06,7.56,1.71,3.21-.13,4.68-2.85,5.45a21.62,21.62,0,0,1-8,.22c-4.9-1.33-9.42-3.81-14.44-4.79a18.21,18.21,0,0,0-5.56-2,31.62,31.62,0,0,1-19.94-11.86c-2.46-3.11-5.17-6-7.75-9a9.22,9.22,0,0,1-2.56-5.26c1.53-4.21,4.58-4.58,8.26-3.22A40.25,40.25,0,0,1,437.29,683.12Z"/><path class="cls-4" d="M593,800.93l2.1,1c-1.46,3.39-4.43,5.14-8,4-4.93-1.56-10-3-12.06-8.86-.65-1.87-2.71-3.34-4.31-4.77-5.74-5.08-10.07-11.28-14.13-17.68-1.24-2-2.55-4-2.8-6.38-1-2.7.89-4.56,2-6.64,2.82-.12,2.36,2.48,3.28,3.93C564.7,782.74,576.64,793.93,593,800.93Z"/><path class="cls-5" d="M517.82,726.63A24.17,24.17,0,0,1,504,730.25c-1.56-.06-3.24-.48-4.66.67l-1.23-.84c-5.06-2.49-10.36-4.56-14.42-8.7.3-3,2.78-4.18,4.79-5.75a75.63,75.63,0,0,1,6.15,5.07c2.89,2.89,6.06,4.19,10.09,2.91a8.73,8.73,0,0,1,2.12-.14c4.11.07,8.3-2.82,12.34.3a2.62,2.62,0,0,1,.1,1.81A3.28,3.28,0,0,1,517.82,726.63Z"/><path class="cls-6" d="M556,761.63c.83,2.73-1.62,4.35-2.21,6.6-2.81-5.73-3.71-12-4.14-18.18-.56-8-1-16.2,1-24.19a1.41,1.41,0,0,1,1,0c4.06,3.18,2.92,8,3.74,12.15a104.83,104.83,0,0,0,1.27,17.51C556.9,757.55,557.61,759.73,556,761.63Z"/><path class="cls-7" d="M699.61,509.72a27.93,27.93,0,0,0-6.43-11.59c-2.71-2.8-3.14-6.8-4.09-10.43-.7-2.66,1.19-2.95,3.23-2.77,3.22,4.58,5.18,9.78,7.47,14.84C701.38,503.28,702,506.44,699.61,509.72Z"/><path class="cls-8" d="M713.92,601.42c0-8.29.08-16.57.06-24.86a13.54,13.54,0,0,0-.52-4.26c-1.8-5.41-1.79-11-1.41-16.54,5.05,5.14,4.13,12.25,6,18.42a2.26,2.26,0,0,1-1,2.83c-2.7,1.18-2.12,3.45-2.14,5.54q-.07,9.45-.11,18.9A.56.56,0,0,1,713.92,601.42Z"/><path class="cls-9" d="M422.93,508.83c4,3.2,4.05,3.24,1.84,7.37-1.52,2.84-3.21,5.61-5,8.3-1,1.47-2.2,3-4.39,1.68.25-2.1.86-4.13,1.17-6.23C417.21,515.5,418.71,511.33,422.93,508.83Z"/><path class="cls-10" d="M456.94,441.62c1.25,7.64-2.61,15.41-9,18.06a3.76,3.76,0,0,1-.19-3.56c1.82-3.88,3.48-7.83,5.24-11.74C453.75,442.7,454.6,441.08,456.94,441.62Z"/><path class="cls-11" d="M403.09,583.85c4.3,5.86,1.94,11.73,0,17.59-4.62-3.52-4.49-8.55-4.08-13.53C399.23,585.68,400.37,583.83,403.09,583.85Z"/><path class="cls-12" d="M635.44,359.49c0,1.12-.11,2.45-1.43,2.56a4.55,4.55,0,0,1-4.35-1.68c-1.5-2.25-3-4.52-4.49-6.74-1.2-1.74-.81-3.92,1.68-4.82a4.59,4.59,0,0,0,2.32-1.3c1.75,1,2.35,2.73,3.09,4.4.68.56.42,1.63,1.17,2.14l0-.06C633.77,355.93,635.41,357.41,635.44,359.49Z"/><path class="cls-9" d="M670.56,427.16c-4.34-3.06-6.4-7.91-9.3-12.07-1.23-1.75-.46-3.4,1.47-4.38,5.06,3.09,6.83,8.59,9.61,13.31C673.18,425.43,672.41,426.82,670.56,427.16Z"/><path class="cls-11" d="M550.45,317.06c1.64,3.24-1.11,4.95-2.61,6.93-1.27,1.67-3.26,2.78-4.67,4.37-2,2.27-3.28,1.13-4.61-.62a29,29,0,0,0,2.1-3.13C542.75,320.53,545.78,317.75,550.45,317.06Z"/><path class="cls-13" d="M488.51,715.63c.23,3.24-3.56,3.33-4.46,5.68-2.19,1.57-3.72-.31-5.46-1l-3.12-1.2c-1.14-.79-3-1-2.37-3.15,2.67,0,5.34-.07,8,0,3,.06,4.19-1.46,4-4.31C486.88,712.4,487.53,714.15,488.51,715.63Z"/><path class="cls-14" d="M505.71,370.28c.31.82,1.06,1.79.84,2.43-1.32,3.91-3.91,7.09-6.48,10.23-.68.83-2,.48-3.07.31C498,377.61,499.9,372.64,505.71,370.28Z"/><path class="cls-15" d="M478.59,720.26c2-.37,3.59,1,5.46,1,5,2.5,10,4.91,14.09,8.77C490.1,729.84,483.77,726.2,478.59,720.26Z"/><path class="cls-16" d="M713.92,601.42q.45,0,.9,0c2.54,4.26,1,9.1,1.89,13.62.37,1.94-1.5,3.08-3.68,2.79-.06-4.33-.13-8.66-.18-13C712.84,603.61,712.74,602.32,713.92,601.42Z"/><path class="cls-17" d="M473.1,715.91l2.36,3.15c-5.93-.47-11.54-1.73-15.62-6.6,3.27-1.55,6.13.2,9,1.22A30.47,30.47,0,0,1,473.1,715.91Z"/><path class="cls-18" d="M437.29,683.12c-2.42.4-4.58-.86-6.9-1.19-2.12-.31-3.51-.59-4.37,1.76-.15.4-1.3.42-2,.62l-.66-1.23a11.9,11.9,0,0,1,1.83-3.16h0c3.16-1.48,6,.09,8.87,1A4.13,4.13,0,0,1,437.29,683.12Z"/><path class="cls-19" d="M635.44,359.49a6.29,6.29,0,0,1-2.05-5.5,10.36,10.36,0,0,1,3.23,5.51Z"/><path class="cls-20" d="M425.2,679.92a3.34,3.34,0,0,1-1.84,3.16c-.41-.67-.83-1.34-1.25-2Z"/><path class="cls-21" d="M431.8,674.42a2.27,2.27,0,0,1,.93,2.26c-.15.67-.59.72-1,.11Z"/><path class="cls-19" d="M633.43,354.05c-.95-.4-1.1-1.25-1.17-2.14A2.32,2.32,0,0,1,633.43,354.05Z"/><path class="cls-10" d="M448,459.68l-.77,1A1.06,1.06,0,0,1,448,459.68Z"/><path class="cls-4" d="M595.23,801.83l.88-.48A.68.68,0,0,1,595.23,801.83Z"/><path class="cls-22" d="M631.13,682c-4.26.67-8.23,2.37-12.38,3.46-9.3,2.44-18.84,2.08-28.25,3.14-1.4.16-2.91-.18-4.08.95-.8,1.22-2.08,1.35-3.35,1.5a7.61,7.61,0,0,0-2.23.21c-1.26,0-2.44.47-3.68.59l-1.54,0c-.54,0-1.06,0-1.6,0-1.12.06-2.18.58-3.33.51a242.5,242.5,0,0,1-56.18,1.66,89.93,89.93,0,0,1-39.67-13.51,67.11,67.11,0,0,0-6.16-4.09c-3-1.88-6.49-3-9.05-5.58s-5.17-5.22-7.78-7.8c-2.11-2.32-3.82-5-5.75-7.42-.3-.38-.58-.77-.87-1.16-.16-.18-.3-.38-.46-.56a59,59,0,0,1-7.94-9.83c-3.43-5.57-6.84-11.15-6.89-18a2.22,2.22,0,0,1,1.13-1.26c3.82-.38,7.6.18,11.39.57,2.13.88,4.63.35,6.64,1.72a4.74,4.74,0,0,1,.32,4.25c.61-1.21,0-2.75.64-4,2.5-1.62,4.92-.23,7.37.18a16.44,16.44,0,0,0,4.77.85,14.29,14.29,0,0,1,2.34.39c6,1.49,12.06,2.3,18.85,4-6.47-1.92-12.17-3.39-17.81-5.07a13.72,13.72,0,0,1-1.45-.49,17.31,17.31,0,0,0-3.77-.78c-4-.86-7.74-2.59-11.79-3.27-5.28-1-10.53-2.42-16-.78a3.31,3.31,0,0,1-3.54-.62c-2.45-7.93-.81-15.84.41-23.67A176.22,176.22,0,0,1,437.72,565c.84-3.56,2.67-6.78,3.57-10.32a11.45,11.45,0,0,1,.57-1.55c5.08-11.32,9.06-23.2,17.05-33,1.69-2.07,3.12-4.54,6.35-4.42a2.11,2.11,0,0,1,1.68,1.49c-2.8,4.54-6.3,8.59-9.08,13.16,3.27-4.44,5.94-9.35,9.92-13.25,3.6-.77,6.37,1.38,9.39,2.66.68.33,1.35.7,2,1.06a13.21,13.21,0,0,1,1.31.77c4.66,2.12,7.9,6.41,12.7,8.42-1.2-4.45-5.16-6.16-8.19-8.74-.4-.26-.78-.55-1.15-.84s-.73-.56-1.09-.86l-.56-.4a20.08,20.08,0,0,0-2.48-1.29c-3.78-2.34-8.51-3.12-11.44-6.88-.69-3.23,2.05-4.74,3.51-6.84,1.73-2.49,3.74-4.78,5.42-7.32,4.2-.31,5.53,3.32,7.8,5.67,4.15,6,10.84,9.56,15,15.54,6.08,5.23,10.38,12.26,17.13,16.91-2.59-6.53-7.24-11.62-11.36-17.06-.35-.35-.67-.73-1-1.11a14.71,14.71,0,0,1-.95-1.14c-3-4.44-6.7-8.42-9.3-13.16-.3-.37-.59-.77-.88-1.16s-.62-.75-.91-1.14c-2.28-4.48-6.28-6.42-10.93-7.44-.82-1.72.49-2.9,1.07-4.28,4.76-7.64,9.35-15.38,14.16-23,3-4.87,6.38-9.44,9.6-14.14,2.88-4.19,3.92-4.05,7.47.28,3.53,6,7.64,11.73,10.6,18.1a20.35,20.35,0,0,0,1.42,2.54c.3.4.58.81.85,1.22,3,4.95,5,10.44,8.42,15.22-1.31-6.38-4.89-11.89-7-17.93a8.43,8.43,0,0,1-.53-1.37,8.79,8.79,0,0,0-2.22-4.41c-3-4.61-4.19-10-6.5-15-1.41-3.45-1.6-7.25-3.07-10.69a4.69,4.69,0,0,1,0-2.41c2.36-3.81,4.43-7.82,7.5-11.16,4.35,3.48,4.62,9.11,7.1,13.59,1.21,2.18,1.74,4.72,2.56,7.1,3.87,10.53,6.45,21.54,10.53,32l2.18-.58c-.62-11.3-3.75-22.21-6.21-33.23-1.18-5.8-3.16-11.39-4.57-17.12-1.07-4.37-3.74-7.62-6.72-10.73,4.72-5.09,6.52-11.62,8.81-17.92a8.81,8.81,0,0,1,.61-1.37c.37-.64.8-1.25,1.21-1.86a54.13,54.13,0,0,1,8.09-13.94c.14-.22.29-.42.43-.64l.46-.62c1.41-1.6,2.9-3.1,4.39-4.62a33.41,33.41,0,0,1,24.11-8.5c1.86.64,4.07.69,5.11,2.82.41,2.53.46,5.1.81,7.65,0,12.13,1.13,24.18,2.2,36.24a18.59,18.59,0,0,0,.3,2.7c.33,1.37.44,3.17,2.41,3,1.62-.14,1.57-1.77,1.73-3a46.77,46.77,0,0,0,.12-4.88c.14-5.79-.35-11.59.34-17.37a40.52,40.52,0,0,0,1.07-6.4c.52-4.16,1.9-4.63,5.19-1.89,2.54,2.11,4.25,4.92,6.06,7.63,3,4.52,6.07,9,9,13.58,1.58,2.52,3.18,5,4.9,7.45a11.69,11.69,0,0,1,.79,1.19,22.55,22.55,0,0,0,1.93,2.94,10.41,10.41,0,0,1,.77,1.22c1.68,3.54,3.63,6.94,5.09,10.58.31.88.6,1.77,1,2.63.46,1,.91,2.07,1.27,3.14a23.87,23.87,0,0,0,1,2.47c.56,1.22,1.14,2.42,1.76,3.6a9.76,9.76,0,0,1,.53,1.25,20.57,20.57,0,0,0,1.74,4.4,8.86,8.86,0,0,1,.55,1.27c.61,2.5,2.29,4.67,2.22,7.37a6,6,0,0,1-.24,1.4,23.62,23.62,0,0,1-1.12,2.65c-.19.45-.41.88-.64,1.32-2.31,4.72-4.72,9.39-7,14.13a122.11,122.11,0,0,1-8.69,14.77c.07.52-1.39,0-.63,1l.37.64a4.1,4.1,0,0,1,.1,1.48c-1.26,4.17-4.49,7.11-6.69,10.69-3,3.58-5.86,7.36-9.06,10.8-4.08,4.38-5.76,9.08-2.54,14.66,1.62,2.59,3.33,1.08,5,.06,3.34-2.1,4.93-5.5,6.38-9,.76-1.79,1-3.8,2.1-5.45a54.81,54.81,0,0,0,5.55-9.7,105.81,105.81,0,0,0,5.62-15.14c.63-2.8,3.16-4.37,4.41-6.78a50.12,50.12,0,0,0,6.58-9.92c1.1-1.49,2-3.19,4.08-3.55.95,0,1.88.2,2.21,1.19,2.61,7.84,6.48,15.18,8.71,21.45-2.26-6.63-6.23-14.32-9.13-22.41a5.42,5.42,0,0,1-.59-3.09c3-4.3,4.54-1.21,5.5,1.34,3.57,9.48,7.84,18.66,11.61,28,7.41,18.44,14.66,36.94,18.86,56.45.57,3.74,1.68,7.39,1.93,11.18a7.41,7.41,0,0,1-.2,1.56,5.52,5.52,0,0,1-.61,1.41,10.1,10.1,0,0,1-2.71,2.46c-.37.28-.76.54-1.14.81-.18.15-.37.29-.54.44-.33.33-.68.64-1,1l-.49.5a54.1,54.1,0,0,1-6.54,5.54c-.34.33-.7.64-1.06,1l-.54.49c-.35.33-.73.64-1.11.94s-.79.6-1.2.88c-3,2.49-6.6,4.3-10.43,7.84,6.68,0,10.18-4,14.52-6.16a9,9,0,0,1,1.27-.75c.64-.36,1.29-.69,1.93-1,2.53-1.53,5.09-3,7.64-4.53a3.21,3.21,0,0,1,3.17-.17c3.92,7.85,3.91,16.46,4.77,24.89-.84,1.29-2.15,1.21-3.37,1-4.64-.84-8.87.49-13,2.24-1,.34-2,.62-2.92,1-.46.2-.93.36-1.4.52a81.5,81.5,0,0,1-9.67,3.16c-.93.29-1.85.61-2.75,1a14.06,14.06,0,0,1-1.41.53,84.68,84.68,0,0,0-15.66,6.35c6.62-.14,12.68-3,19.06-4.22a11.34,11.34,0,0,1,1.53-.36,21.91,21.91,0,0,0,4.67-1c4.83-1.33,9.83-1.88,14.66-3.23,3.61-.13,6.7-3.89,10.68-1.59,1.06,9.36,2.5,18.75-2.61,27.52-5,3.58-10.92,4.94-16.39,7.38-.94.33-1.91.59-2.84,1-.42.22-.87.42-1.31.62-2,.7-3.79,2.36-6.15,1.28-3-2.18-6.67-.4-9.81-1.74a15.14,15.14,0,0,1-4.11-2.5c-4.83-3.91-10.24-3.45-15.77-2.13-2.15-1.16-1.88-3.29-2.08-5.21-1.16-11.17-3.26-22.07-9-31.93-.42-1-.72-2.08-1.19-3.09-.27-.48-.5-1-.72-1.47-9.28-19.8-15.95-40.49-21.41-61.61-1.31-5-2.6-10.11-5.19-14.71-.26-.45-.49-.91-.73-1.38s-.48-.91-.71-1.38a119.82,119.82,0,0,1-5.48-12.89c-2.4-7-3.13-14.31-4.86-21.79-.63,3.13.94,6.62-2.41,8.43a2.69,2.69,0,0,1-4-1.41,8.87,8.87,0,0,1,.64-4.14c.86-2.27.64-4.65.59-7-.08-3.83.24-7.2,4.81-8.54,2.46-.72,2.77-3.08,2.68-5.38s-.77-4.28-.9-6.45c.12-4.63-1.39-9-1.92-13.56a24.45,24.45,0,0,0-.71-4.89,12.07,12.07,0,0,1-.41-1.57c-1-4.76-1.53-9.6-2.74-14.33-.33-1.27-.56-2.5-2.29-2.42-1.91.09-1.82,1.62-1.77,2.76.37,9.91-2.48,19.69-1,29.63a10.57,10.57,0,0,1,.24,4,7.33,7.33,0,0,1-.46,1.58A24.07,24.07,0,0,1,562,462.5c-3.36,5.9-2.75,12-1.17,18.26.84,3.3,2.23,6.44,2.92,9.78.52,4,.53,7.73-4.19,9.35-5.69,6.25-8.25,14.19-11.77,21.62-1.18,2.48-1.24,6.77-4.41,6.71s-3-4.4-4.33-6.81c-.36-.62.08.17-.21-.49a12,12,0,0,1-.55-3.19,17.53,17.53,0,0,0-.59-5.34c-1-5.52-5-9.08-8.45-13-2.44-4.6-5.44-8.87-7.9-13.46-.26-.42-.49-.86-.72-1.29s-.51-.86-.75-1.29c-1.8-2.56-3.38-5.32-6.61-7.42-.9,2.91.57,4.81,1.24,6.83,2.85,7,5.73,13.89,9.63,20.35,2.24,7.5,7.54,13.27,11.36,19.89,6.12,9.25,5,18,.42,28-8.57,18.75-16.22,38-21.83,57.88-2.31,8.2-3.54,8.44-9.85,2.48-3.59-5.05-7.42-9.77-13.2-12.64-3.76-1.86-7.42-2.86-11.51-1.61-3.52.13-6.74-1.23-10.06-2.08-2.43-.61-4.89-1.46-8,.55,6.64,4.35,14.31,4.25,21,7,5.51,6.15,12.11,10.09,20.62,10.13,7,3.1,8,5.13,6.66,12.53-.51,2.81-1.58,5.55-1.19,8.48-.5,4.34,1.34,9-1.89,13-6.39,1.45-12.81,2.84-19.25,4.09-4.67.83-6.69-3.24-10.15-6.19-.36,4.44,1.82,5.93,4.73,6.88.49.13,1,.29,1.46.46,1.74.9,4.31.17,5.27,2.64,0,1.91-3.3,3-1.63,5.18,1.32,1.76,3.56,1.46,5.52,1.46A22.08,22.08,0,0,0,501,659.4c2.29-.95,4.22-2.37,2.94-5.33-1.06-2.46-.08-4.14,1.87-5.54,3.15-1.29,3.21,1.29,3.69,3.08a55.78,55.78,0,0,0,5.79,13.93c3.81,6.48,9.13,10.63,16.43,12.18,6.28,1.34,12,5.12,18.84,4.08,19.41,4,34.81-5.21,49.93-15.26,1.49-1,2.52-2.62,4.31-3.24,2.54.21,2,1.94,1.56,3.42a36.59,36.59,0,0,1-2.54,5.69c-4.54,7-9,10.5-14.69,11.45,3.74-.4,7.47-.89,11.2-1.39,1.69.6,3.27,1.58,5.07,1.4-.76-.41-1.85.09-2.67-.54-.17-2.64,2.28-2.79,3.74-3.78,2.3-1.57,5-2.62,6.57-5.1,5.6-7.72,7.8-16.61,9-25.85.28-2.08-.3-4.43,1.81-6,3.71.36,5.35,3.86,8.28,5.46,4.68,2.56,9.26,4.83,14.37,1.08,6.31.14,11.87-3.63,18.18-3.52,3.67,0,7.34-2.08,11,0,1.51,1.52,1.08,3.14.27,4.79-3.27,4.88-6.19,10-10.53,14.12C657.36,676.94,644.54,680.06,631.13,682Z"/><path class="cls-23" d="M675.87,566.59c0-4.15-1.45-8.05-2.15-12.07,1-4.61-1.23-8.71-2.16-13q-2.85-13.17-5.26-26.4c-.2-.82-.35-1.65-.49-2.48a17.24,17.24,0,0,0-.85-3.17A242.77,242.77,0,0,0,654,477.77a33.25,33.25,0,0,1-2.13-8.23c-.78-3.89-2.61-7.37-4.39-10.86-1-6.05,2.13-11.38,7.61-13l0,0c.7.56.47,1.6,1.12,2.19q4.54,10.15,9.1,20.31a239.78,239.78,0,0,1,18.17,58.4c1.54,9.07,3.29,18.11,5,27.15.81,4.28.81,4.36-2.91,6.37-1.57.85-3.42,1.35-4.31,3.14-1.61,1-2.36,2.93-4.12,3.75A1.26,1.26,0,0,1,675.87,566.59Z"/><path class="cls-24" d="M484,489.19l-2.18,3.24c-1.37,1.51-3.36,2.4-4.3,4.33,0,4.72-4.46,6.65-6.42,10.16-.76,1.35-2.39,2.21-2.34,4.06l-.6.39-.73,0a16.34,16.34,0,0,1-2.83-.73c-2.22-1.34-5.41-1.61-5.63-5.13,5.7-9.85,11.45-19.67,17.09-29.56,3.32-5.8,6.64-11.61,9.64-17.58,4.23-8.41,8.64-16.7,13.58-24.7,2.63-.68,3.6,1.48,5,2.9,1.23,2,2.72,3.86,3.47,6.14.9,5-2.51,8.51-4.26,12.59-1.5,3.49-3.83,6.55-5.75,9.82-4.32,6.63-8,13.66-12.5,20.18C484.53,486.44,483.37,487.56,484,489.19Z"/><path class="cls-1" d="M576.64,691l4.25-.22c.38-.27.77-.54,1.16-.79l4.37-.42c.21,1.41.91,2.35,2.44,2.3,4.28-.15,8.66.77,12.82-.58,2.38-.77,4.57.27,6.86,0,.61-.07.76,1.07.8,1.8-9.41-.49-18.83-.32-28.24-.66a46.54,46.54,0,0,0-19.7,3.25C553,699.25,544,700.49,535,701.42a11.7,11.7,0,0,1-2.71,0c-15.78-2-31.61-3.72-47.29-6.52a12.09,12.09,0,0,1-2-.72c-1.35-1.12-3.35-.46-4.65-1.71a5.27,5.27,0,0,1-2.15-.37c-1-.83-2.34-.68-3.43-1.24-8.68-5.35-17.52-10.53-24.53-18.07-3.74-4-8.09-7.77-9.22-13.61,1.73-.89,2.7.46,3.85,1.29a12.17,12.17,0,0,1,1.05,1c.18.17.34.34.51.51.36.31.7.65,1,1,.19.15.36.31.54.47,3,2.41,6.18,4.59,9.2,7,2.71,2,5.43,4,8.06,6.1a13.06,13.06,0,0,0,2.34,1.56c.44.19.86.41,1.28.64a23.48,23.48,0,0,1,2.36,1.16c2.06,1.3,3.72,1,5-1.06,7,3.3,13.46,7.82,21.3,9.19a53.05,53.05,0,0,1,9.81,2.83,33.55,33.55,0,0,0,12.71,2.26c10.48-.15,21,.3,31.45-.3,7.57-.44,15.12-.93,22.69-.89.62-.56,1.5-.39,2.17-.79l1.24-.05A.75.75,0,0,0,576.64,691Z"/><path class="cls-25" d="M439.36,564.39a288.18,288.18,0,0,0-8,31.92c-1.64,8.6-1.78,17.18-1.79,25.83a5.71,5.71,0,0,1,1.09,3.32v1.06c-6.31,2.78-10.15,1.38-11.94-4.34-2.12-8.6-1.53-17.38-.95-26,.68-10.12,2.82-20.1,8.21-29a21.29,21.29,0,0,1,1.28-1.72C431,561.64,435.09,562.14,439.36,564.39Z"/><path class="cls-26" d="M666.12,509.87a2.32,2.32,0,0,1,1,2.27,1.4,1.4,0,0,0,0,2.13c2.35,4.19,2,9,3.06,13.51,1.75,7.33,2.94,14.8,4.31,22.22.29,1.57.77,3.24-.8,4.52a228,228,0,0,0-9.65-33.16c-6.79-17.47-13.92-34.8-20.86-52.21-.85-2.14-1.56-3.64-3.34-.69-.84,1-1,2.47-2.2,3.27s-1.54,2.78-3.17,3.35c-2.61.61-5.22,1-7.52,2.72-1.45,1.09-3.45,1.48-2.36-1.7a66,66,0,0,1,7.65-15.24c1.48-.14,3.28.27,3.71,1.4,1.21,3.23,2.72.77,4.12.5,1.84-.32,3-2.64,5.23-1.86.78,4.14,4.15,7,5.47,10.85,4.77,5.44,5.87,12.56,8.59,18.92S663.57,503.57,666.12,509.87Z"/><path class="cls-27" d="M682.37,602.59c-2.09-5.72-2.1-11.81-3.21-17.7-.49-2.59-.72-5.22-2.26-7.47.5-3.45,4-3.81,5.94-5.78a11.52,11.52,0,0,1,1.27-.76,11.92,11.92,0,0,1,2.06-.93c3.36-1.57,4.48.3,4.92,3.21,0,7.63.07,15.25,0,22.88-.06,11.6-1.73,23.05-3.42,34.48a12.8,12.8,0,0,1-1,2.54,8.7,8.7,0,0,1-6.28,2.84,2.35,2.35,0,0,1-1.38-.7c2.82-3.57,3-7.89,3.24-12.11.24-5.36.09-10.74.1-16.11C682.2,605.52,681.56,604.07,682.37,602.59Z"/><path class="cls-28" d="M626.81,439.07a2.29,2.29,0,0,1-1.09-2.18c.6-1.41-.16-2.37-1.1-3.27a2.28,2.28,0,0,1-1.07-2.18c-.51-4.59-3.38-8.11-5.45-12h0c-.79-1.05-1.35-2.25-2.18-3.27h0c-1.81-2.55-2.81-5.68-5.46-7.63-4.39-5.31-7.76-11.32-11.65-17-1.68-2.44-3.79-4.29-5.95-6.61-2,2.76.35,6.13-2,8.32-2.46-3.05-1.29-6.55-1.27-9.91,1.15-1.8-1.64-6.14,3.46-5.39v0a5.58,5.58,0,0,0,1.08,1.09c6.72,6.53,11.46,14.63,17.29,21.86,11.51,14.29,19.32,30.56,25.45,47.72a5.37,5.37,0,0,1,.35,3.19,3.24,3.24,0,0,1-1.63,1.82c-3.8.53-3-3.15-4.43-4.82h0c-.9-1.75-1.2-3.74-2.19-5.46h0C628.11,442.05,628.31,440.13,626.81,439.07Z"/><path class="cls-29" d="M512.31,425c-2.82-2.88-2.78-5.52-.4-9,7.06-10.25,13.72-20.78,20.57-31.19a8.46,8.46,0,0,1,1.6-1.42c2.18-2.9,5-2.81,8.12-1.88,2.2,1.43,1.08,3.05.26,4.67a63.71,63.71,0,0,1-8.84,12.92C526.32,407.62,519.46,416.44,512.31,425Z"/><path class="cls-30" d="M512.31,425a6.69,6.69,0,0,1,2-4.81c7.52-8.86,15.08-17.71,22.29-26.82,2.59-3.29,4.25-7.32,6.34-11a4.76,4.76,0,0,1,1.59-3.82c1.23-1.29,2.75-3,4.54-1.78,2.25,1.52-.06,3-.68,4.53l0,0c-.29.23-.39.47-.3.71s.17.37.27.37c-3.89,4.12-5.87,9.41-8.71,14.18-.74,0-.72.75-1.09,1.11l0,0c-3.5,6.6-6.32,13.61-11.7,19-6.18.36-5.17,4.47-4.41,8.46-2.57,2.25-3.24,6.73-7.78,6.69-1.76-1.12-1.19-3.35-2.26-4.79Z"/><path class="cls-31" d="M635.56,414c4.93,6.17,8.82,13,13.07,19.64.35.43.71,1.14.39,1.44-3,2.82-5.24,6.42-9.09,8.26-1.68-5.18-4.35-9.92-7-14.6-2.15-3.77-4.09-7.62-6.09-11.46C627.32,412.33,629.68,411.45,635.56,414Z"/><path class="cls-32" d="M465.54,516.43c-2.68.2-3.88,2.3-5.34,4.09-7,8.59-10.91,18.85-15.27,28.84-.64,1.47-.91,3.1-2.29,4.15-2.84-3.44-.7-7.07-.45-10.63,1.12-7.94,5.27-14.77,8.06-22.1,1.4-2.59,2.33-5.45,4.35-7.68,2.53-1.65,5-.71,7.49.14C463.46,514.05,465.63,514,465.54,516.43Z"/><path class="cls-33" d="M418.7,622.18a7.48,7.48,0,0,0,7.15,4.33c1.6,0,3.19,0,4.79,0A50.31,50.31,0,0,0,438.27,644c-5.11,3.27-7.35,3.08-12.1-1.06-2.84-2.22-4-5.54-5.09-8.68A35,35,0,0,1,418.7,622.18Z"/><path class="cls-34" d="M636.59,452.1c-5.82-15.91-12-31.67-22-45.55-1.24-1.71-2.86-3.31-3.17-5.59.61.38,1.41.62,1.8,1.16,7.63,10.55,15.2,21.05,20.33,33.23,3.64,8.62,6.21,17.8,11.77,25.55L641,464.12C638.4,460.53,635.63,457,636.59,452.1Z"/><path class="cls-35" d="M548.35,381.32l.83-3.95c-3.65.1-4.26,3.49-6.28,5-3,.13-6-.51-8.82,1.06,3.39-6.24,7.34-12,13.13-16.33a9.7,9.7,0,0,0,1.13-1.09h0c.38-.34.74-.71,1.1-1.08h0c3.27-1.35,5.54-.15,7.14,2.79a3.89,3.89,0,0,1-.07,1.52,7.29,7.29,0,0,1-.69,1.33c-.12.21-.27.41-.39.62l-.74,1.24c-.62,1.53-1.79,2.81-2,4.53A11.74,11.74,0,0,1,548.35,381.32Z"/><path class="cls-36" d="M593.06,378c-1.49.14-2.4.78-2,2.45.17.69.54,1.37-.17,2-1.29,2.58-.46,5.33-.57,8s-.54,4.91-3.74,4.79a4.8,4.8,0,0,1-5-4.78c-.42-4.48.64-9-.57-13.47,0-2.19-.94-4.38,0-6.56,5.8-1.12,8.43,3.54,12,6.54C593.06,377.28,593.07,377.64,593.06,378Z"/><path class="cls-37" d="M556,369.28c-.38-4.14-4.18-3.13-6.51-4.32,7.85-7.21,16.7-10.8,27.42-7.44a5.4,5.4,0,0,1,3.12,2c1.43,2.53,2,5.07.09,7.63-2.5,1.34-3.48-.91-4.86-2.11-4.39-3.81-7.18-3.8-11.93-.37C561,366.34,559.65,369.74,556,369.28Z"/><path class="cls-38" d="M639.93,443.32c2.25-3.23,4.28-6.66,8.24-8.21.3-.12.31-1,.46-1.49,2.27,4,3.73,8.36,6.49,12.05-3.71,3.65-7.54,7.23-7.61,13Q643.72,451,639.93,443.32Z"/><path class="cls-39" d="M635.56,414c-1.77,0-3.54,0-5.31,0a3.13,3.13,0,0,0-3.43,3.24A61.76,61.76,0,0,1,619.19,402c-.67-.56-.39-1.6-1.07-2.17,0-.35,0-.71,0-1.06,1.18-3.74,3.67-3.61,6.58-2.22h0c.33.39.7.74,1.06,1.11h0c.63.59.44,1.6,1.12,2.16A73.87,73.87,0,0,1,635.56,414Z"/><path class="cls-40" d="M631.13,682c5.22-1.75,10.34-3.92,15.68-5.15,6.54-1.5,11.25-5.18,15.06-10.37a8.29,8.29,0,0,1,3.09-2.91,3.63,3.63,0,0,1,4.34,1.07,55.62,55.62,0,0,0-7.4,7.7c-5,6.42-11.57,10-20,9.76C638.33,682,634.73,682,631.13,682Z"/><path class="cls-41" d="M426.17,642.9a15.64,15.64,0,0,0,12.1,1.06c1.9,3.77,5.23,6.43,7.62,9.81a9.11,9.11,0,0,1-8.72,2.19c-2.07-1-3-3.33-5.2-4.12C430.4,648.63,427.22,646.45,426.17,642.9Z"/><path class="cls-42" d="M512.41,427a6.65,6.65,0,0,1,2.16,4.38c1.48,1.54,3,3.05,2.22,5.5l-.06,2.15c-.05,2.73-1.67,4.71-3.39,6.53-1.4,1.47-3.11,2.75-4.92.35-.34-4.29-1.48-6.41-4.84-9l-4.26-3.21c1.44-1.92,3.12-.88,4.84-.49C510,434.52,511.94,433,512.41,427Z"/><path class="cls-43" d="M624.65,396.55a10.08,10.08,0,0,0-6.58,2.22c-2.86-3.53-4.21-7.88-6.37-11.79-.5-.9-1.14-2,0-2.87a2.49,2.49,0,0,1,3.42.34,33.17,33.17,0,0,1,4.19,4.19C621.26,391.17,623.85,393.27,624.65,396.55Z"/><path class="cls-44" d="M439.36,564.39c-4,.31-8.21-.81-12.12,1.06.62-3,2.53-5.3,4.36-7.63.81-.51.62-1.55,1.19-2.18h0c3.11-2,6.44-1.93,9.86-1C442.24,558.09,440,561,439.36,564.39Z"/><path class="cls-45" d="M669.3,664.65a7.22,7.22,0,0,1-4.34-1.07l9.81-13.07c1.81-1.13,3.62-1.7,5.44,0-2.55,4.9-5.25,9.68-9.8,13.08-.33.39-.76.68-1.09,1.07Z"/><path class="cls-46" d="M442.63,554.59c-3.13,1.81-6.55.88-9.86,1a13.52,13.52,0,0,1,3.27-6.51c.71-.56.53-1.57,1.13-2.19h0c.69-.56.49-1.58,1.11-2.18h0c1.37-1.86,3-3.15,5.46-2.18-.64,3.61-1.48,7.19-1.08,10.91C442.64,553.87,442.63,554.23,442.63,554.59Z"/><path class="cls-47" d="M666.12,509.87c-1.69.76-1.16-.83-1.36-1.4-4.31-12.37-8.86-24.65-14-36.72a2.32,2.32,0,0,0,1.1-2.2C657.94,482.53,663.13,495.81,666.12,509.87Z"/><path class="cls-48" d="M578.85,367.15c2.11-2.29.67-5.11,1.14-7.65a9,9,0,0,1,3.87,3.68,41.46,41.46,0,0,0,8.24,11.28,3.53,3.53,0,0,1,.94,2.47c-2.26-1.37-4.57-2.66-6.76-4.12-1.63-1.09-3.19-2.22-5.21-2.42-1-1.72-3.41-.53-4.51-2.09C577,367.32,578.21,367.79,578.85,367.15Z"/><path class="cls-38" d="M691.09,573.16c-1.85-3.09-1.85-3.09-5.39-2.21-.36.36-.79.66-1.12,1-.35,0-.7.06-1,.06-6.22,2-8,1.05-7.69-4.41h0a10.5,10.5,0,0,1,1.09-1.12c1-1.69,2.25-3.06,4.33-3.35-1.23,2.46-.86,4.08,2.2,4.51,1.4.2,2.77,1,4.13.95C691,568.55,691.33,570.57,691.09,573.16Z"/><path class="cls-49" d="M443.72,542.6l-5.46,2.18a153.57,153.57,0,0,1,12-24c-.74,5.33-3.59,10-4.85,15.15C444.85,538.15,443.59,540.2,443.72,542.6Z"/><path class="cls-50" d="M462.22,514.3c-2.61.06-5-1.59-7.62-1.2,2-2.18,2.77-5.14,4.41-7.55a23.78,23.78,0,0,0,6.51,4.35c.56.69,1.59.45,2.17,1.11h0C467.57,515,465.27,515.24,462.22,514.3Z"/><path class="cls-51" d="M680.22,635.25a26.5,26.5,0,0,1,6.54-2.19c-1.33,2.76-.33,6.09-2.18,8.72a8.9,8.9,0,0,1-4.26-.18C677.21,639.53,677.26,637.41,680.22,635.25Z"/><path class="cls-52" d="M681.31,640.7c1.21,0,2.5-.23,3.27,1.08-1.29,2.08-1.1,4.89-3.25,6.54-2.17.75-3.83.23-4.85-1.91a5.88,5.88,0,0,1,1.13-4.67C678.62,640.61,680.29,641.79,681.31,640.7Z"/><path class="cls-53" d="M676.91,646.1c1.08,1.52,3.08,1.2,4.42,2.22a6.37,6.37,0,0,1-.12,1.07,10.34,10.34,0,0,1-1,1.09h0l-5.44,0a7.43,7.43,0,0,0,1.09-4.38A.7.7,0,0,1,676.91,646.1Z"/><path class="cls-46" d="M432.79,555.64a2,2,0,0,1-1.19,2.18A2.53,2.53,0,0,1,432.79,555.64Z"/><path class="cls-38" d="M656.22,447.82a2.41,2.41,0,0,1-1.12-2.19A2.09,2.09,0,0,1,656.22,447.82Z"/><path class="cls-49" d="M437.17,546.94a2.14,2.14,0,0,1-1.13,2.19A2.39,2.39,0,0,1,437.17,546.94Z"/><path class="cls-49" d="M438.27,544.77a2.19,2.19,0,0,1-1.11,2.18A2.3,2.3,0,0,1,438.27,544.77Z"/><path class="cls-43" d="M626.84,399.82a2.19,2.19,0,0,1-1.12-2.16A2.27,2.27,0,0,1,626.84,399.82Z"/><path class="cls-43" d="M618.12,399.83a2.23,2.23,0,0,1,1.07,2.17A2.19,2.19,0,0,1,618.12,399.83Z"/><path class="cls-40" d="M669.32,664.64l1.09-1.07Z"/><path class="cls-52" d="M680.21,650.48c.33-.37.67-.73,1-1.09C680.88,649.75,680.54,650.11,680.21,650.48Z"/><path class="cls-37" d="M549.44,365l-1.1,1.08Z"/><path class="cls-37" d="M548.34,366l-1.12,1.09Z"/><path class="cls-43" d="M625.71,397.66l-1.06-1.11Z"/><path class="cls-36" d="M594.14,379.1,593.06,378Z"/><path class="cls-54" d="M593,800.93a44.49,44.49,0,0,1-25.54-16.85c-4-5.41-7.81-11.21-9.28-18.06,4-1.3,5.27,1.62,6.69,4.32,5.85,7.82,11.54,15.74,18.6,22.59C586.44,795.85,590.12,797.87,593,800.93Z"/><path class="cls-55" d="M564.84,770.34c-1.63-2.37-4.08-3.47-6.69-4.32-1.61-1-.55-3.36-2.16-4.39-1.3-7.93-2.8-15.84-2.19-24,3.08-1.07,3.38,1.55,4.36,3.27a4.53,4.53,0,0,1,0,1c1.2,1.67-.23,3.83,1,5.49C560.71,755.2,562.64,762.8,564.84,770.34Z"/><path class="cls-56" d="M437.17,656a30.19,30.19,0,0,1,8.72-2.19h0c.34.38.7.74,1.08,1.09l5.47,7.62c-2.19,2.84-4.81,2.65-7.63,1.09h0c-.37-.36-.72-.73-1.11-1.07h0a10.66,10.66,0,0,0-1.14-1.09L439,659.19Z"/><path class="cls-57" d="M558.16,741c-1.32-1.27-2.55-2.65-4.36-3.27-.49-4-.62-8.06-2.22-11.85,4.66.18,4.49.24,5.79,4.4C558.47,733.79,558,737.37,558.16,741Z"/><path class="cls-58" d="M524.34,726.83l-5.47-.09a.68.68,0,0,1,.07-1h0c1-1.25,2.69-2.62-.46-3.23-1.36-.27-2.93.21-3.94-1.19.27-.23.53-.63.83-.66,8.22-.9,16.43-.19,24.68.34-5-.56-9.66,1.51-14.54,1.49-.68.7-.94,1.41,0,2.12l1.06,0a11,11,0,0,0,1.12,1l1.05,0C527.91,728.61,526,727.17,524.34,726.83Z"/><path class="cls-59" d="M514.54,721.29h8.15c-.54,2.69-1.3,4.3-3.75,4.42-.22-1.83-1.45-2.2-3-2.19-3,0-6,0-9,0C509.18,721.88,512.1,722.44,514.54,721.29Z"/><path class="cls-60" d="M494.37,699.91c-3.2,1.79-5.43-.72-8-.67C489.16,697.5,491.5,699.15,494.37,699.91Z"/><path class="cls-61" d="M524.34,726.83c1.5-.22,3.24.48,4.38-1.13,1,.12,2.44-.32,2.62,1,.16,1.14-1.15,1.12-2,1.09C527.64,727.77,525.75,728.41,524.34,726.83Z"/><path class="cls-20" d="M434.07,680.93c-3,.19-5.81-1.59-8.87-1C428.42,678,431.33,678.66,434.07,680.93Z"/><path class="cls-62" d="M645.16,693.05c-1.29,2.13-3.08,2.41-6,1.67Z"/><path class="cls-57" d="M559.21,747.48c-1.76-1.56-.84-3.63-1-5.49C559.83,743.58,559.08,745.61,559.21,747.48Z"/><path class="cls-63" d="M478.51,692.11c1.46.76,3.4.5,4.49,2.08-1.55-.07-3.2.3-4.5-1-.3-.25-.41-.5-.3-.75S478.4,692.11,478.51,692.11Z"/><path class="cls-64" d="M437,671.48a3.73,3.73,0,0,1-.75-3.92c1.49.26,1.47,1.62,1.95,2.58C437.86,670.64,437.75,671.35,437,671.48Z"/><path class="cls-65" d="M437,671.48l1.2-1.34c.33.74.65,1.49,1,2.23a3.16,3.16,0,0,1-.8.79A1.92,1.92,0,0,1,437,671.48Z"/><path class="cls-66" d="M472.77,690.87c1.33,0,2.71-.3,3.67,1,.36.2.49.4.37.61s-.24.31-.37.31A7.19,7.19,0,0,1,472.77,690.87Z"/><path class="cls-61" d="M525.49,724.58c-.61-.09-1.52.12-1.44-.87.06-.72.79-1,1.46-1.25C525.5,723.16,525.5,723.87,525.49,724.58Z"/><path class="cls-67" d="M476.44,692.8c0-.31,0-.62,0-.92l2.07.22v1.12Z"/><path class="cls-68" d="M560.67,700.21c-.13,0-.27.17-.38.14-.41-.11-.45-.33-.11-.55a.49.49,0,0,1,.41.08C560.66,699.93,560.65,700.1,560.67,700.21Z"/><path class="cls-69" d="M438.37,673.16l.8-.79C439.3,673,439.17,673.44,438.37,673.16Z"/><path class="cls-61" d="M527.67,725.67l-1.12-1Z"/><path class="cls-59" d="M518.94,725.71c0,.34,0,.69-.07,1a3.75,3.75,0,0,1-1-.11C518.19,726.32,518.56,726,518.94,725.71Z"/><path class="cls-70" d="M605,663.56a25.27,25.27,0,0,1-7.33,7.05c-7.28,4.76-15.28,8.08-23.3,11.26a38.67,38.67,0,0,1-23.83,1.29c-2.95-.94-6.41-.88-8.16-4.17-8.62-12.46-13.9-26-14.1-41.37-.11-8.32-.11-16.62,1.21-24.87.75-5.76,2.58-11.26,4.3-16.78,1.26-4.3,3.31-8.3,4.66-12.57a219.18,219.18,0,0,0,6.8-21.77c4.17-16.2,11.36-31.29,16.57-47.09.91-2.78,2-5.52,5.26-6.41,3.69-.1,4.94,2.54,5.88,5.39a76.17,76.17,0,0,1,2.91,13.26,65.67,65.67,0,0,0,4.43,15.08c3.87,10.5,6.53,21.36,9.37,32.17,2.3,11.84,8.76,22,13.2,33,2.15,5.34,4.17,10.75,5,16.51,2,8.8,3.74,17.61,3,26.71C610.5,655.39,609.6,660.28,605,663.56Z"/><path class="cls-71" d="M605,663.56a5.48,5.48,0,0,1,1.24-2.94,20.3,20.3,0,0,0,3.2-10.71c.5-9.13-1.27-17.92-3.33-26.69,1.33-5.09-1.58-9.34-2.91-13.86-.6-2-1.53-4-2.27-6.06-.3-.82-.64-1.61-.88-2.44a3.1,3.1,0,0,1,.42-1.74c3.84-3.17,7.91-3.28,12.16-.93h0c.65.58.41,1.6,1.08,2.17,6.85,10.76,9.1,22.8,9.84,35.26.06,1.1.11,2.17,1.08,2.91.76,1.45,1.08,2.91,0,4.36-1.67,1.42-.86,3.36-1.08,5.09-1.26,9.91-3.16,19.59-9.82,27.57a9.47,9.47,0,0,1-7.82,1.24c-2.19-.58-4.25-1.5-3.07-4.49.17-2.24,1.58-4,2.42-5.94C605.7,665.33,606.23,664.4,605,663.56Z"/><path class="cls-72" d="M506.94,633.06c-.18-3.28,1-6.35,1.57-9.49,1-5.4.54-6.58-4.69-9.15a8.23,8.23,0,0,1-1.26-1,6.85,6.85,0,0,1,2.17-3.27c1,.79,2,1.53,2.92,2.39s1.42,1.59,2.22,2.51c1.9-1.64,2-3.94,2.59-5.94,5.4-19.21,13.25-37.5,20.75-55.93,1.57-3.85,2.8-7.9,4.83-11.49s1.3-6.88-.2-10.31c-1.22-2.81-3.15-5.32-3.66-8.44,2-.39,3.08-2.81,5.44-2.18,2.46,1.58,1.62,5.07,4.08,7,4.3-9.94,7.83-20.15,14.46-28.76,4,.59,5.09,2.4,3.55,6.53-1.65,4.42-4.16,8.46-5.87,12.88-6.74,17.44-14.68,34.39-21.23,51.9-3.84,10.72-8.05,21.31-11.47,32.18-.59,1.89-1.43,3.72-1.41,5.75a4.41,4.41,0,0,1-.48,2.11,4.55,4.55,0,0,0-.45,2.6,6.54,6.54,0,0,1,0,1.4c-.53,2.08-.32,4.41-2.09,6-2.62,3.29,0,8.34-3.81,11.24C512.23,632.17,509.74,633.49,506.94,633.06Z"/><path class="cls-73" d="M533.09,569.85c3-5.63,4.48-11.85,7.14-17.6,7.06-15.28,12.33-31.32,19.93-46.37,1.93-3.81,1.66-4.38-2-6.87,5.28-1,4.36-5.09,4.36-8.72a4.45,4.45,0,0,1,4.37,0c3.66,1.22,4.12,1.08,4.3-1.72a21,21,0,0,0-.92-8.77c3.16.28,3.62,2.4,4.06,4.14.78,3.13,1.14,6.37,1.8,9.53.84,4,1.81,8,2.73,12.07-2.26,1.28-4.32,2.76-5.16,5.41-2.67.56-2.35-1.62-2.59-3-.41-2.5,0-5.05-.38-8.49-1.6,3.57-2.13,6.75-3.84,9.38a12.08,12.08,0,0,0-3.31,4.8,216.51,216.51,0,0,1-9,23.63c-3.34,7.29-4.86,15.41-7.29,23.13-2.48,7.9-5.1,15.75-7.67,23.62-3.92-1.94-1.11-5-.93-7.4.27-3.39-.21-5.33-4-5.17C533.8,571.25,533.59,570.41,533.09,569.85Z"/><path class="cls-74" d="M612.64,598.19h-6.85a6.24,6.24,0,0,0-5.13,2.18c-2.34.1-2.23-2-2.84-3.33a153.73,153.73,0,0,1-9.11-24.88q-4.44-16.54-9.59-32.88a5.39,5.39,0,0,1,.11-3.59c4.37-3.79,6.53-3.92,11.61-.72,3,10.94,6.11,21.83,9.92,32.52,3.38,9.5,6.53,19.1,11.1,28.13A14.7,14.7,0,0,1,612.64,598.19Z"/><path class="cls-75" d="M506.94,633.06a9.08,9.08,0,0,1,7.63-2.18c1.76,1.74,1.23,4,1.49,6.15,1.18,9.73,2.82,19.33,8.93,27.46a13.25,13.25,0,0,1,2.84,3.93c3.26,6.8,9.63,8.71,16.16,10.42,1.24,2.87,4.62,2.5,6.56,4.32-4.7.14-9.32.27-13.5-2.66-1.2-.84-3.1-.69-4.68-1-11.79-2.21-18-10.45-22.09-20.77-1.12-2.81-2.29-5.65-2.36-8.82,0-1.42-1.29-.66-2.08-.52a2.2,2.2,0,0,1-.75-2,2.82,2.82,0,0,1,.75-1.25c2-2,.88-4.42,1.05-6.65S506.94,635.21,506.94,633.06Z"/><path class="cls-76" d="M522.21,424.87c-.07-.16-.13-.34-.21-.5-3.61-6.84-3.18-7.6,4.63-8.28a1.32,1.32,0,0,1,2,.2c3.78,1.44,5.89,4.28,7,8.09,1.87,6.67,4.58,13.12,5.11,20.13.37,2.45-.47,4.34-2.9,5-2.66.77-4.41-.8-5.81-2.86-2.72-7-5.13-14.08-8.76-20.68C522.3,426.19,521.85,425.9,522.21,424.87Z"/><path class="cls-70" d="M504.73,610.19c.07,1.61,0,3.15-2.17,3.27A21.86,21.86,0,0,1,487,609c-2-1.54-2.63-4.33-5.12-5.36-1.5-2.29-4.94-4-2.17-7.53,2.91-1.68,5.77-1.35,8.78-.06C495.47,599,501.19,603.31,504.73,610.19Z"/><path class="cls-45" d="M581.07,377c2.26,3.68.64,7.72,1,11.58.2,2.07.34,3.84,2.51,4.91,3.1,1.53,4.81.73,5.12-2.76.14-1.61,0-3.24,0-4.86,0-1.26-.1-2.56,1.14-3.41l0,10.88c0,8,0,15.94-.06,23.9,0,1.4.42,3-.87,4.08-1.12,1-2.43,1.73-4,1a4.07,4.07,0,0,1-2.67-3.77c.06-3.64-1.08-7.21-1-10.73C582.46,397.47,580.29,387.27,581.07,377Z"/><path class="cls-77" d="M532,446.69l1,.47c4.94,2.36,4.94,2.36,7.73-2.65,2.61,5,2.76,10.68,4.2,16s1.93,10.57,3,15.83c.39,1.89.17,3.32-1.74,3.88s-3.61,0-4.28-2.14c-1.33-4.29-2.6-8.61-4-12.89C536,459,534,452.86,532,446.69Z"/><path class="cls-78" d="M596.3,465.22c2.25-7.61,3.65-15.46,6.53-22.89,3.55,1.27,7.35.06,10.92,1.1.28,2.49-1.23,4.43-2.08,6.55-2.17,5.47-4.43,10.89-6.65,16.33-.7.56-.42,1.61-1.09,2.19,0,.36,0,.72,0,1.08C597.46,472.24,595.55,471.15,596.3,465.22Z"/><path class="cls-79" d="M496.06,548.08c9.31.16,15.3,5.72,19.86,12.93,1.84,2.92,1.31,6.64-.29,9.9-2,1.52-3.22-.1-4.43-1.24a34.6,34.6,0,0,0-5.36-4.15c-3.12-1-5-3.79-7.6-5.51-2.08-2.94-5.4-5.46-3.32-9.81h0C495.62,549.67,495.4,548.64,496.06,548.08Z"/><path class="cls-70" d="M566.89,490.3a3.5,3.5,0,0,1-4.37,0c-2.35-6.07-4.53-12.12-4.42-18.82a17.41,17.41,0,0,1,3.33-10.6,9.19,9.19,0,0,0,1.05-1.11h0c2.83-1.68,4.38,0,5.62,2.23a8.81,8.81,0,0,1,1.31,5.74c-1.23,6.39-.47,12.91-1.47,19.3C568,488.27,567.33,489.24,566.89,490.3Z"/><path class="cls-70" d="M624.63,642.89c0-1.46-1.14-2.91,0-4.36,4.91-3.15,10.41-2.88,15.51.85,1.44,1.06,2.75,2.31,4.11,3.46,2.42,1.3,3.57,3.11,2.39,5.87-.06.23-.12.46-.19.68-.15,2.58-1.77,3.24-4.05,3.3-5.6.17-10.07-2.44-14.2-5.78A12.24,12.24,0,0,1,624.63,642.89Z"/><path class="cls-70" d="M539.62,520.8c-1.92.47-2.65,3.89-5.44,2.18-.72-1.24-1.18-2.8-2.22-3.68-5-4.22-6.7-10.13-8.7-15.92-.91-2.37-1.91-4.94.85-6.64,2.59-1.59,4.25.37,5.74,2.25,4.41,3.35,8.22,7.12,8.72,13.09,1.21,1.66-.23,3.82,1,5.48C539.6,518.64,539.61,519.72,539.62,520.8Z"/><path class="cls-80" d="M568,487c0-6-.05-12,0-17.93a22,22,0,0,0-1-6.39c-.69-2.43-2.25-3.07-4.47-3v-4.36c-.09-3.75,0-7.48,1.4-11.05.69-1.3,1.48-2.67,3.17-2.38s2.09,1.9,2.15,3.32c.13,3.27,1.33,6,4.13,7.66,2.31,1.42,1.07,4,2.22,5.72,0,2.87,1.4,5.53,1.12,8.49-.35,3.73-.89,5.1-4.45,5.55-3.14.4-3.11,2.08-3.25,4.39C568.81,480.43,570,483.92,568,487Z"/><path class="cls-79" d="M635.57,581.87c-2.29,7.31-8.25,9.37-14.91,10.39-.67.1-1.43-.31-2.08-.17-4.5,1-4.49,1-4.82-3.72-.58-5.36,3-7.6,7.1-9.41A7.33,7.33,0,0,1,624,578c.86,0,1.72,0,2.59,0,2.15-.3,4.19-1.29,6.36-1.35,2.64-.06,4.86.56,3.66,4.09h0A10.23,10.23,0,0,0,635.57,581.87Z"/><path class="cls-81" d="M596.3,465.22c.45,4.2.45,4.22,4,4.35,1.22.05,2.44,0,3.66,0q-5.14,12.46-10.32,24.95a9.19,9.19,0,0,1-1,1.9c-1.27,1.75-3.12,1.84-4.86,1.14s-1.13-2.41-1.06-3.81a2,2,0,0,1,.12-.52Z"/><path class="cls-82" d="M613.75,443.43c-2.83,1.65-5.92,1-8.93,1-1.31,0-1.8-.94-2-2.1,0-.36,0-.73,0-1.09,1.32-1.63-.19-3.82,1.07-5.46a22.78,22.78,0,0,1,.2-3.21c1.4-6.64,2.3-7.27,9-6.58,3.52.36,5,2.05,4.9,5.68s-1.7,6.54-3.24,9.57c-.69.57-.47,1.59-1.08,2.19Z"/><path class="cls-70" d="M612.65,516.44c-1.31,3.33-2.1,6.82-3.83,10s-4.48,5.14-7.4,6.88c-2.18,1.3-3.14.53-4.07-2.7-1.36-7.82,1.91-13.91,7.26-19.17,2.17-2.13,4.87-3.75,7.69-1.86C614.94,511.37,613.52,514.09,612.65,516.44Z"/><path class="cls-83" d="M635.53,528.42c-.07-2.5,2.51-3.43,3.23-5.46v0a13.72,13.72,0,0,1,11.09-3.19c4.12.6,5.26,2.84,3.06,6.45a54.12,54.12,0,0,1-4.35,5.5c-.34.37-.69.72-1.05,1.07h0c-.35.37-.71.73-1.07,1.09h0c-2.86,1.72-5.83,2.9-9.15,1.45-2-.88-4.06-1.85-2.84-4.72h0C635.13,530,634.88,529,635.53,528.42Z"/><path class="cls-79" d="M505.84,647.24v2.16c-.73,1.46-2.66,2.72-.38,4.54,2,1.59,1.12,3.18-.47,4.47-5.15,4.15-11.14,4.92-17.32,3.53-4-.91-4.31-3.26-1.17-6.05a10.3,10.3,0,0,1,1.87-1.06,4.77,4.77,0,0,1,2.16-2.36c3.66-1.46,7.59-2.27,10.79-4.87A3.59,3.59,0,0,1,505.84,647.24Z"/><path class="cls-84" d="M462.23,561.14a110.8,110.8,0,0,1-12.87-5.41c-1.19-.57-2.25-1.32-2.22-2.77,0-1.74,1.33-2.31,2.78-2.81a10.33,10.33,0,0,1,7.33-.33c4.6,1.66,9,3.63,12.62,7C469.55,561.43,468.19,562.21,462.23,561.14Z"/><path class="cls-85" d="M578.85,367.15a2.61,2.61,0,0,1-2.29,1.15A37.1,37.1,0,0,0,552.73,377c-2.18-2.33.86-3.62,1.08-5.47.38-.35.71-.75,1.07-1.12h0a11,11,0,0,0,1.06-1.1l0,0c2.89-1.57,4.59-4.49,7.27-6.32,5.31-3.62,9.35-3.17,13.61,1.7C577.54,365.46,578.18,366.32,578.85,367.15Z"/><path class="cls-86" d="M590.84,535c-3.72-.47-7.56-2.21-10.89,1.1-4.17-1.85-2.55-6-3.61-9.07a19.19,19.19,0,0,0-.57-4.33,6,6,0,0,1,0-1.84c2-4.17,4.93-4.35,8.52-2.22h0a13.76,13.76,0,0,0,1.07,1.09A49,49,0,0,1,590.84,535Z"/><path class="cls-87" d="M564.7,444.52c-.4,3.69-.57,7.44-2.18,10.89-2.31-3.67-1.52-7.9-.86-11.52,1.25-6.81.62-13.62,1-20.41.2-3.3,1.84-2.92,3.77-2.92,1.77,0,3.44-.31,3.5,2.68a52.12,52.12,0,0,0,1.74,11,27.24,27.24,0,0,1,.62,5.87c-4.39,2-4.94-1.41-5.47-4.21-.39-2.09.2-4.32-.08-6.11C566.74,434.57,566.61,439.66,564.7,444.52Z"/><path class="cls-88" d="M509.11,445.61c1.52,1.81,2.5.27,3.31-.7,1.54-1.86,2.89-3.89,4.31-5.84,3.1,3,2,7.29,3.31,10.87.81,1.64.9,3.19-1,4-2.29,1-4.19.27-5.55-1.81-.46-.54-1-1.07-1.38-1.64-1.12-1.52-2.1-1.79-3.29,0-3.49,5.28-7.06,10.51-10.6,15.75-1,.27-1.49.07-1.08-1.07,2.8-5.57,5.56-11.17,8.42-16.72a10.4,10.4,0,0,0,1.38-6.15C509.79,442,507.71,445,509.11,445.61Z"/><path class="cls-89" d="M529.85,499l-.49-.2c-5.4-2.55-5.85-2.29-6.08,3.54,0,.35,0,.7,0,1.05-4.79-6.19-7.37-13.42-9.79-20.72-.38-4.08,2-3.57,4.36-2.43,1.46.7,2.35,2.18,3.27,3.52h0c.36.36.69.76,1.08,1.09,1.83,3.1,3.6,6.22,5.5,9.27C528.63,495.65,529.66,497.12,529.85,499Z"/><path class="cls-90" d="M612.65,516.44c0-.72,0-1.44,0-2.16-.17-4.48-1.78-5.42-5.57-3.2a13.09,13.09,0,0,0-5,4.87,37.66,37.66,0,0,0-4.74,14.7c-1.76-1.5-.76-4.19-2.6-5.77-1-.8.12-2,.44-3,.87-2.66,2.78-4.68,4.53-6.65,3.2-3.61,5.49-8.05,9.64-10.81,1.73-2.46,3.91-3.66,6.93-2.44,2.24.9,3.05,2.38,1.82,4.65A21.73,21.73,0,0,1,612.65,516.44Z"/><path class="cls-74" d="M634.44,530.61c1.58,3.21,4,4.66,7.33,3.86a20.52,20.52,0,0,1,4.66-.59c-3.23,4.69-6.38,9.46-10.89,13.09-6.23.7-7.27.11-7.63-4.37C630.17,538.65,631.48,534.18,634.44,530.61Z"/><path class="cls-74" d="M477.56,496.76c-.47-3.2.06-3.73,4.3-4.33,6.21-.92,9.67,2.48,12,7.65.37.36.7.76,1.07,1.11h0c1,1.81.84,3.46-.92,4.66a5.81,5.81,0,0,1-6.09.33c-1.44-.7-2.46-2-3.87-2.83A28.09,28.09,0,0,0,477.56,496.76Z"/><path class="cls-91" d="M479.7,564.38c3.26.21,4.77,3.13,7,4.82,3.85,2.93,7.08,6.67,10.54,10.11a2.22,2.22,0,0,1,.69,2.46c-.52,1.29-1.71,1.08-2.77,1.12a3.77,3.77,0,0,1-2.94-1.15c-5.57-5.75-12.62-9.48-19-14.08C475.05,566,477.6,565.63,479.7,564.38Z"/><path class="cls-89" d="M484.06,503.36c2.12-.12,3.26,2,5.32,2.2,3.65.36,4.72-.36,5.56-4.36,3,4.88,7.14,9,9.82,14.14.37.36.7.76,1.09,1.1h0c-.65,5.31-3.72,3.38-6.53,2.18C494.54,513.22,488.38,509.22,484.06,503.36Z"/><path class="cls-92" d="M494.92,550.2c.5,3.48,2,6.6,3.32,9.81l-17.57-11.38a21.45,21.45,0,0,1-2.66-1.81c-1.73-1.58-1.56-2.74.54-3.58,2.43-1,4.87-1.14,7.16.49Z"/><path class="cls-93" d="M682.37,602.59c.81,1.45,1.91,2.89.07,4.39a19.83,19.83,0,0,1-9.84,3.2c-2.13,1.06-4.5.63-6.72.79-3.49.25-4.54-1.8-3.1-5.16h0c.59-.63,1.6-.4,2.18-1.07C670.46,601.59,676.19,600.31,682.37,602.59Z"/><path class="cls-94" d="M499.32,518.62c1.38,0,2.76,0,4.14,0a2.15,2.15,0,0,0,2.39-2.16c5.31,5.14,9,11.52,13.4,17.37a2.09,2.09,0,0,1,.32,2.5c-.71,1-1.91.94-3,.61a8,8,0,0,1-3.32-2.69C508.61,529.05,504,523.83,499.32,518.62Z"/><path class="cls-90" d="M479.72,596.06c-1,3,1.85,4.91,2.17,7.53l-16.11-4.29a16.35,16.35,0,0,1-3.07-.95c-1.37-.7-3.61-1-3.44-2.92.19-2.19,2.36-2.47,4.16-2.64a14.82,14.82,0,0,1,6.37.81A44.46,44.46,0,0,0,479.72,596.06Z"/><path class="cls-92" d="M564.7,444.52c.14-3.75-.44-7.54.91-11.23a6.18,6.18,0,0,0-.42-4.22,4.68,4.68,0,0,1,.52-5,14.3,14.3,0,0,1,2.25,8,34.31,34.31,0,0,0,.13,4.31c.36,2.34,1.43,4.1,4.24,3.81h0c1.15,1.26-.13,3.12,1.08,4.36.87,4.71,2.3,9.32,2.18,14.17-1.22-2.49-2.32-4.85-5.25-6.12s-2.33-4.48-2.4-7.13c0-1,.33-2.43-1.19-2.45C566.08,443,565.38,444,564.7,444.52Z"/><path class="cls-95" d="M602.84,672.3c.19,2.47,1.71,3.29,4,3.26s4.61,0,6.92,0c-2.47,4.23-7.41,4.89-10.92,7.61a1.41,1.41,0,0,1-2.08.08c-4.55,2.75-9.36.47-14.13.76C594.12,682.91,598.37,677.46,602.84,672.3Z"/><path class="cls-52" d="M513.46,452.15a19.51,19.51,0,0,0,3,1c2.46.41,3.76-.63,3.56-3.23,3.06,4.71,4.28,10.2,6.52,15.27,2,.81,1.17,3.05,2.17,4.37.89,3.07-.22,4.14-3.27,3.27h0c-.62-.6-.43-1.6-1.09-2.18C520.64,464.55,516.58,458.63,513.46,452.15Z"/><path class="cls-96" d="M627.91,542.6c.11,1.88,1,3.13,3,3.2a9.76,9.76,0,0,1,4.66,1.17,28.81,28.81,0,0,1-7.49,7.75c-4.44,3.17-3.61,3.89-11.24,2.4C620.94,552.28,624.83,547.72,627.91,542.6Z"/><path class="cls-97" d="M624.62,476.1c.36,2.58,1.52,1.35,2.32.39,2.17-2.58,4.59-3.33,7.56-1.41a18.07,18.07,0,0,1-6.56,9.78c-3.14,1.57-6.36,3-8.41,6.14-.71,1.11-1.94,2.15-3.62,1.47h0a.71.71,0,0,1-.24-.74c.08-.25.15-.37.23-.37A111.75,111.75,0,0,1,624.62,476.1Z"/><path class="cls-80" d="M430.64,625.46c-1.69-.67-2-1.81-1.09-3.32,6.54-3.12,13.08-2.09,19.6.06,1.26,5,.61,5.48-6.54,4.34C438.59,626.51,434.54,626.84,430.64,625.46Z"/><path class="cls-98" d="M584.32,518.61c-1.41,0-2.82,0-4.24,0a3.13,3.13,0,0,0-3.4,3.25c-3.61-2.88-4.18-6.67-3.27-10.9-.25-5.45.29-5.7,5.45-5.45Z"/><path class="cls-99" d="M643.16,573.11c2.58-2.26,6-2.13,9-3.15a91,91,0,0,1,17.71-4.24c.3,0,.63.27,1.54.69-4,3.64-9.31,3.76-13.65,5.82s-9,3.52-13.53,5.24A10.84,10.84,0,0,1,643.16,573.11Z"/><path class="cls-100" d="M651.9,614.54c-5.61,2.5-11.72,3.35-17.51,5.25-1.7.55-3.17-.25-4.59-1.19,3-3.3,7.44-5.28,18.82-8.41C649.91,611.49,651.57,612.52,651.9,614.54Z"/><path class="cls-101" d="M462.22,514.3a5.27,5.27,0,0,0,5.46-3.29l1.12,0c3.93,2.28,8.4,3.61,12,6.54.57.67,1.58.48,2.17,1.11h0c.37.37.72.74,1.12,1.07h0c-.22,3.24-2,3.39-4.42,2.22-.36,0-.71,0-1.06,0-.34-.39-.76-.68-1.13-1-3.39-.7-6.28-2.9-9.77-3.29-.35.47-.7.44-1,0l-1.13-1.08C464.85,515.06,462.91,515.66,462.22,514.3Z"/><path class="cls-98" d="M618.11,506.65c-.85-3.14-2.74-4.53-5.39-3.78a22.23,22.23,0,0,0-3.36,1.57c1.29-4.16,5.1-6.8,6.56-10.87a16.91,16.91,0,0,1,7.67-2.16c.22.27.69.64.63.78C622.14,497,621.13,502.25,618.11,506.65Z"/><path class="cls-102" d="M651.9,614.54c-1.74-1-3.2-2.14-3.28-4.35.36,0,.71,0,1.07,0,.59-.65,1.62-.38,2.19-1.07,3.69-.9,7-3,10.9-3.28-1.26,3,.77,3.91,2.94,4.24a49.28,49.28,0,0,0,6.88.13,59.4,59.4,0,0,1-15.25,3.27c-1.27,1.15-3.13-.14-4.38,1.08Z"/><path class="cls-43" d="M674.71,578.52a21.85,21.85,0,0,1-7.53,4.42c-.37.36-.79.65-1.13,1a8.89,8.89,0,0,1-1,.06c-3.22,1.2-5.25.79-4.46-3.35v0a6.67,6.67,0,0,0,1.1-1.09h0a11.53,11.53,0,0,0,1.11-1.1,53.9,53.9,0,0,1,7.67-6.48C673.55,573.1,674.89,575.31,674.71,578.52Z"/><path class="cls-27" d="M525.46,472.85a3.07,3.07,0,0,0,3.27-3.27,123.79,123.79,0,0,1,8.69,19.17c.28.74.9,1.88-.21,2.38a2.17,2.17,0,0,1-2.88-.81,31.76,31.76,0,0,1-1.55-2.87Q529.11,480.16,525.46,472.85Z"/><path class="cls-103" d="M479.7,564.38c-.95,3.55-3.82,3.27-6.54,3.28h0c-.32-.41-.76-.7-1.11-1.07a42.44,42.44,0,0,1-9.81-5.45c2.93-.79,6.79.06,7.64-4.36l4.37,3.25c.37.37.73.73,1.11,1.09l1.07,0,1.07,1.07h0c.37.36.73.73,1.1,1.08a12.47,12.47,0,0,0,1.1,1.08Z"/><path class="cls-104" d="M681.31,640.7c-.82,1.28-2.16,1-3.37,1.16-.37.32-.75.62-1.15.91-.89.47-1.81.9-2.73,1.34-1.78,1-3.75.87-5.68,1-2.77-.16-6.16,1.8-7.78-2.27h0c.59-.63,1.62-.4,2.18-1.09,5.32-2.47,10.78-4.64,16.32-6.57l1.12,0C679.57,637.27,677.41,639.59,681.31,640.7Z"/><path class="cls-105" d="M660.56,580.7c.19,2.84,2.08,3.42,4.46,3.35-3.16,3.3-7.31,5-11.24,7.11a5.55,5.55,0,0,1-4.22.21c-1.78-.53-2.17-2-.59-3.06C652.86,585.82,656.2,582.47,660.56,580.7Z"/><path class="cls-106" d="M479.66,521.91c1.88.08,3.57-.22,4.42-2.22a24.71,24.71,0,0,1,10.69,8.5c.6.86,1.87,2.27.18,3.19-1.13.61-2.74,1.6-3.92.12C487.86,527.54,483.27,525.32,479.66,521.91Z"/><path class="cls-107" d="M505.84,647.24c-1.07,0-2.4-.26-3.06.59-3.13,4-8,4.34-12.21,5.92-2.45-1-5.19.08-7.62-1.07l-1.08,0c-1.17-4.61,3.33-1.59,4.36-3.24,4-.8,8.16-1.38,12.12-2.5a26.51,26.51,0,0,1,7.49-.76Z"/><path class="cls-108" d="M660.6,642.86c2.68,2.21,5.86.58,8.76,1.14-.64,3.1-3.93,1.7-5.49,3.23a3.47,3.47,0,0,0-3.57.12c-2.72,1.46-5.83,1.73-8.69,2.75a6,6,0,0,1-5.15-.71l-.11,0c1-4.31,4-4.91,7.72-4.37Z"/><path class="cls-92" d="M442.61,626.54c.87,0,1.74,0,2.6,0,3.52-.19,3.52-.19,3.94-4.31,4.28.07,7.9,2.56,12,3.24.87,1,2.38.11,3.27,1.08h0a2.31,2.31,0,0,1,0,3.27h-2.18c-1.24-1.21-3.11.08-4.36-1.08-2.67.47-5-1.27-7.66-1.05-.35.53-.69.5-1,0C447,627.25,444.54,628.46,442.61,626.54Z"/><path class="cls-109" d="M464.43,629.79v-3.27c7.21,1.43,14.34,3.09,21.59,6.42-3.44,1.11-3.44,1.11-11.24-.63C471.32,631.54,467.66,631.55,464.43,629.79Z"/><path class="cls-110" d="M563,406.29c3.73,3.12,6.8,5.53,6.13,10.25-.29,2-1,2.9-3,2.91s-3.63-.31-3.56-2.84C562.63,413.45,562.21,410.25,563,406.29Z"/><path class="cls-111" d="M444.82,663.57a20,20,0,0,0,7.63-1.09,32.1,32.1,0,0,1,7.6,7.65c-1.36,2.61-3.36,2-5.4,1.06C451.23,668.83,447.57,666.79,444.82,663.57Z"/><path class="cls-112" d="M643.16,573.11c2.28,1,2.24,2.53,1.09,4.36-2.55,1.06-4.76,2.91-7.61,3.29-.32-3.3-2.62-3.61-5.11-3.12-1.93.38-3.79,1.13-5.81.91-.36-.24-.47-.48-.35-.71s.25-.35.37-.35c4.73-1,9.31-2.72,14.14-3.3.59-.65,1.63-.38,2.2-1.06Z"/><path class="cls-45" d="M528.66,416.29l-2-.2c3.07-5.08,6.17-10.14,9.21-15.23.73-1.24,1.21-2.65,2.72-3.22-.86,6.1-3.72,11.44-6.31,16.9C531.48,416.15,530.09,416.19,528.66,416.29Z"/><path class="cls-44" d="M657.39,514.48c6.82,13.83,10.24,28.51,13.8,43.14C666.4,543.22,662.43,528.56,657.39,514.48Z"/><path class="cls-113" d="M674.71,578.52l-4.27-6.46v0a10.51,10.51,0,0,1,1.07-1l.05,0a10.09,10.09,0,0,1,1-1.05l3.26-2.25c1.53,4.32,1.53,4.32,7.69,4.41-1.56,2.6-4.74,3.18-6.64,5.36Z"/><path class="cls-114" d="M636.59,452.1c.95,4.2,3.87,7.68,4.4,12-1.61.06-3.7-.43-2.62,3.2-1.54-3.34-3.93-4.79-6.1-6.46h0c.71-.55.41-1.61,1.09-2.18,0-.36,0-.73,0-1.09,1-1.33.65-3.3,2.18-4.36Z"/><path class="cls-115" d="M454.65,671.19a8.84,8.84,0,0,0,5.4-1.06q4.38,2.7,8.74,5.42c1.14,3.31-1.07,3.28-3.27,3.28h0c-.57-.68-1.6-.42-2.16-1.1A55.06,55.06,0,0,1,454.65,671.19Z"/><path class="cls-116" d="M486.23,649.42a2.53,2.53,0,0,1-2.14,1.08,2,2,0,0,0-2.22,2.16c-3.68-.45-5.9-2.51-6.45-6.17-.2-1.38-.39-3.07,1.59-3.47,1.57-.32,3,.22,3.48,1.82C481.36,647.79,483,649.6,486.23,649.42Z"/><path class="cls-117" d="M623.59,491.41c-1.83,3.3-5,1.81-7.67,2.16,0-.36,0-.73,0-1.1a7.85,7.85,0,0,0,3.8-3.53c1.72-3.7,4.61-4.51,8.23-4.08C627.82,487.93,624.5,488.87,623.59,491.41Z"/><path class="cls-118" d="M435.59,593.88c.65-10.34,3.56-20.11,7.59-29.6C441,574.23,437.88,584,435.59,593.88Z"/><path class="cls-88" d="M522.21,424.87l1,1.14c-.51,4.61-3.61,7.69-6.46,10.91-.79-1.81-2.13-3.4-2.22-5.5,2.23,0,2.48-2.25,3.82-3.27S520,424.89,522.21,424.87Z"/><path class="cls-44" d="M637.67,471.73a3.55,3.55,0,0,1,2.2-3.27c2.53,8.88,6.71,17.11,10.09,25.66.25.61.91,1.22-.12,2.14-2.61-3.52-3.6-7.77-5.43-11.58-1.72-3.57-3.06-7.32-4.43-11A2.55,2.55,0,0,0,637.67,471.73Z"/><path class="cls-110" d="M625.74,577.49c0,.35,0,.71,0,1.06l-2.15,0a7.52,7.52,0,0,1-6.56-2.2,42.86,42.86,0,0,1,5.88-9.59c1.09,2.67.53,4.94.64,7.1C623.62,575.55,623.47,577.23,625.74,577.49Z"/><path class="cls-73" d="M521.1,483.75a35.62,35.62,0,0,0-3.78-2.85c-1.94-1.12-3.21-.24-3.85,1.76-1.46-1.46-1.61-3.49-2.23-5.3-.34-1-.89-2.08.34-2.85s2.12,0,2.95.56A18.58,18.58,0,0,1,521.1,483.75Z"/><path class="cls-119" d="M505.84,565.52a9.22,9.22,0,0,1,5.87,3.09c1.1,1.1,2.13,2.36,3.92,2.3.85,1.36,1.73,2.71,2.55,4.1.36.61.67,1.34,0,1.93a1.67,1.67,0,0,1-2.42-.16c-1.45-1.57-2.72-3.31-4.12-4.93C509.77,569.68,507.32,568.05,505.84,565.52Z"/><path class="cls-120" d="M659.5,661.36c2.9-3.69,4.37-8.21,6.84-12.24,1.72,1.29-.53,2.62.1,3.82,1.34.17,1.84-1.14,2.88-1.36a18.1,18.1,0,0,1-7.67,9.82A1.42,1.42,0,0,1,659.5,661.36Z"/><path class="cls-121" d="M497.11,465.21l1.08,1.07L484,489.19c-1.57-1.09-.57-2.25,0-3.23C488.39,479,492.76,472.12,497.11,465.21Z"/><path class="cls-50" d="M465.52,678.83c1.4-.79,3.24-1.13,3.27-3.28,2.31.26,3.81,1.89,5.49,3.23-1.52,2,2,2.29,1.16,4.29C471.83,682.43,468.36,681.43,465.52,678.83Z"/><path class="cls-90" d="M654.07,645.05c-2.55,1.49-6.09,1.25-7.72,4.37-.76-2.17,0-4.84-2.09-6.58,2.9,0,5.8,0,8.69,0C654.8,642.87,654.39,644,654.07,645.05Z"/><path class="cls-71" d="M621.38,579.67c-.24.26-.43.67-.72.76-3.92,1.25-5.73,4.31-6.9,7.94a4.43,4.43,0,0,0-.49-1.49c-2.87-3.3-2.89-3.28.44-6.16C616.12,579.26,618.42,577.05,621.38,579.67Z"/><path class="cls-122" d="M638.76,523a2.31,2.31,0,0,1-2.18-1.33c-2.5-6.45-5-12.92-7-19.55,4.17,6.48,5.88,14,9.2,20.86Z"/><path class="cls-123" d="M663.87,647.23c1.23-2.1,4-1.56,5.48-3.23,1.94.21,3.58-.94,5.42-1.16.61-.64,1.62-.39,2.25-1l.92,0a5.87,5.87,0,0,1-1,4.24l-1,0C671.77,645.46,667.9,647.23,663.87,647.23Z"/><path class="cls-32" d="M449.67,652.39,452,653c.65-1.29-1.26-2.34.08-3.87,2.45,3.44,2.24,7.82,4.46,11.24C452.74,659.12,451.9,655.3,449.67,652.39Z"/><path class="cls-124" d="M447.55,649.56a33.24,33.24,0,0,1-10.85-15.65C440.53,639,443.58,644.56,447.55,649.56Z"/><path class="cls-120" d="M466.67,517.51l1,0-11,15.78A40.56,40.56,0,0,1,466.67,517.51Z"/><path class="cls-44" d="M657.49,515.19a72.26,72.26,0,0,1-6.9-16.65C653.35,502,656.58,509.78,657.49,515.19Z"/><path class="cls-125" d="M533.18,688.94h18.11v.41H533.19Z"/><path class="cls-89" d="M621.38,579.67c-2.65-.33-5.15.42-7.67,1.05l3.3-4.33c2.53-.28,4.45,1.24,6.56,2.2A2.35,2.35,0,0,1,621.38,579.67Z"/><path class="cls-44" d="M618.1,419.45c3.48,2.95,4.75,7.12,6.1,11.23,0,.17-.42.5-.65.76C621.82,427.4,619.11,423.81,618.1,419.45Z"/><path class="cls-122" d="M435.16,596.72c-.73,2.8.52,5.9-1.27,8.45C433.06,602.15,434,599.37,435.16,596.72Z"/><path class="cls-122" d="M457.32,654.65c2.54,2.19,3.32,5.55,5.74,7.82C459.17,661.16,458.4,657.8,457.32,654.65Z"/><path class="cls-126" d="M492.19,482.42a12.56,12.56,0,0,1-5.42,8A22.75,22.75,0,0,1,492.19,482.42Z"/><path class="cls-44" d="M610.46,408.55c1.07-1,1.57-.05,1.95.66,1.22,2.3,3.38,4.13,3.51,7C613.3,414.21,611.89,411.37,610.46,408.55Z"/><path class="cls-44" d="M635.54,453.23a6.27,6.27,0,0,1-2.18,4.36c.43-3.2-2.63-5.52-2.19-8.72C633.05,449.9,632.68,453.18,635.54,453.23Z"/><path class="cls-115" d="M659.5,661.36l2.15,0a23.22,23.22,0,0,1-6.51,6.59c-.33-.26-.43-.52-.32-.77s.22-.38.33-.38Z"/><path class="cls-127" d="M655.15,666.84c0,.38,0,.76,0,1.14a8.51,8.51,0,0,1-4.38,3.83A9.94,9.94,0,0,1,655.15,666.84Z"/><path class="cls-128" d="M522.11,686.86c-3.12,1.08-5.2.46-7.32,0Z"/><path class="cls-32" d="M450.84,646.58c-.9-1.53-.67-3.16.21-4.87.32,1.6.64,3.19,1,4.79Z"/><path class="cls-116" d="M483,652.68c2.54.39,5.32-1,7.62,1.07l-2.2,1.08C487.1,652.78,484.22,654.75,483,652.68Z"/><path class="cls-120" d="M455,535.89c.07,1.82-.75,3.29-2.06,5.12C452.23,538.47,453.54,537.16,455,535.89Z"/><path class="cls-129" d="M562.45,688.16a14.5,14.5,0,0,1-7.67-.13A14.44,14.44,0,0,1,562.45,688.16Z"/><path class="cls-44" d="M626.81,439.07c2.48.57,2.06,2.6,2.19,4.36A6,6,0,0,1,626.81,439.07Z"/><path class="cls-130" d="M600.73,683.24l2.08-.08h4.25C603.36,684.22,603.36,684.22,600.73,683.24Z"/><path class="cls-44" d="M629,443.42a6.29,6.29,0,0,1,2.19,5.46A6.31,6.31,0,0,1,629,443.42Z"/><path class="cls-130" d="M500.56,684.85c-1.12.76-2.23.65-3.82,0C498.27,684.14,499.36,684,500.56,684.85Z"/><path class="cls-78" d="M603.92,435.78c-.24,1.84.73,3.93-1.07,5.46C603.08,439.4,602.15,437.32,603.92,435.78Z"/><path class="cls-44" d="M624.62,433.62c1.89.52,2.15,1.27,1.1,3.27C625.36,435.8,625,434.71,624.62,433.62Z"/><path class="cls-131" d="M449.2,627.64a7.08,7.08,0,0,1,1,0c-.11,1.4.37,2.84-.47,4.55C448.77,630.59,449.35,629.05,449.2,627.64Z"/><path class="cls-27" d="M528.73,469.58c-1.48-1.08-1.17-3.05-2.17-4.37C529.46,465.58,528.52,467.87,528.73,469.58Z"/><path class="cls-72" d="M539.6,517.56c-1.74-1.57-.84-3.63-1-5.48C540.32,513.64,539.4,515.7,539.6,517.56Z"/><path class="cls-132" d="M664.59,623.54c-.29-.42-.61-.67-.62-.94,0-.57-.37-1.36.59-1.53a1.56,1.56,0,0,1,.34.88A9.39,9.39,0,0,1,664.59,623.54Z"/><path class="cls-100" d="M653,614.53c1.16-1.59,2.86-.95,4.38-1.08C656.18,615,654.49,614.39,653,614.53Z"/><path class="cls-44" d="M615.92,416.18a3.29,3.29,0,0,1,2.18,3.27A3.29,3.29,0,0,1,615.92,416.18Z"/><path class="cls-133" d="M570.26,688c-.21.17-.4.47-.62.49-.66.08-1.39.28-1.79-.52,0,0,.23-.3.37-.33A2.08,2.08,0,0,1,570.26,688Z"/><path class="cls-109" d="M457.89,628.7c1.51.14,3.21-.5,4.36,1.08C460.74,629.64,459,630.28,457.89,628.7Z"/><path class="cls-87" d="M573.41,444.51c-1.59-1.14-.94-2.85-1.08-4.36C573.92,441.3,573.27,443,573.41,444.51Z"/><path class="cls-130" d="M510.42,685.71c-.34.31-.54.62-.77.65-.62.06-1.36.29-1.69-.54a2,2,0,0,1,.87-.39A9.06,9.06,0,0,1,510.42,685.71Z"/><path class="cls-130" d="M610.72,683.72c-.26.16-.53.43-.79.44s-.55-.26-.82-.41c.26-.16.53-.44.8-.44S610.45,683.57,610.72,683.72Z"/><path class="cls-109" d="M464.43,626.52c-1.2,0-2.48.19-3.27-1.08C462.36,625.46,463.64,625.24,464.43,626.52Z"/><path class="cls-130" d="M579.4,686.55c.28.14.55.29.82.44-.26.16-.53.44-.8.44s-.54-.26-.81-.41Z"/><path class="cls-130" d="M505,685.92c-.28.15-.55.42-.82.42s-.55-.27-.83-.43c.28-.15.55-.42.83-.42S504.77,685.76,505,685.92Z"/><path class="cls-130" d="M575.87,687c-.28.14-.57.4-.85.39s-.53-.3-.79-.47c.29-.14.58-.4.85-.39S575.61,686.87,575.87,687Z"/><path class="cls-102" d="M665,604.74a2.24,2.24,0,0,1-2.18,1.07A2.22,2.22,0,0,1,665,604.74Z"/><path class="cls-99" d="M642.08,573.13a2.23,2.23,0,0,1-2.2,1.06A2.27,2.27,0,0,1,642.08,573.13Z"/><path class="cls-108" d="M662.78,641.77a2.2,2.2,0,0,1-2.18,1.09A2.24,2.24,0,0,1,662.78,641.77Z"/><path class="cls-27" d="M524.37,470.67a2.24,2.24,0,0,1,1.09,2.18A2.24,2.24,0,0,1,524.37,470.67Z"/><path class="cls-100" d="M651.88,609.09a2.21,2.21,0,0,1-2.19,1.07A2.25,2.25,0,0,1,651.88,609.09Z"/><path class="cls-45" d="M538.54,397.67c.28-.45-.55-2,1.09-1.11Z"/><path class="cls-44" d="M671.91,563.59l-.14-.47c.14,0,.37-.15.4-.11C672.48,563.43,672.38,563.64,671.91,563.59Z"/><path class="cls-1" d="M574.41,691.08a2.31,2.31,0,0,1-2.16.79A1.94,1.94,0,0,1,574.41,691.08Z"/><path class="cls-44" d="M671.81,560.46c0,.13-.09.38-.15.38a1.42,1.42,0,0,1-.46-.14c0-.14.09-.38.14-.38A1.21,1.21,0,0,1,671.81,560.46Z"/><path class="cls-92" d="M496.06,548.08a2.22,2.22,0,0,1-1.13,2.13A2.14,2.14,0,0,1,496.06,548.08Z"/><path class="cls-26" d="M633.36,458.68a2.24,2.24,0,0,1-1.09,2.18A2.24,2.24,0,0,1,633.36,458.68Z"/><path class="cls-74" d="M635.53,528.42a2.22,2.22,0,0,1-1.09,2.19A2.28,2.28,0,0,1,635.53,528.42Z"/><path class="cls-106" d="M483,518.63a2.21,2.21,0,0,1-2.17-1.11A2.25,2.25,0,0,1,483,518.63Z"/><path class="cls-81" d="M603.93,468.5a2.25,2.25,0,0,1,1.09-2.19A2.25,2.25,0,0,1,603.93,468.5Z"/><path class="cls-74" d="M613.72,600.36a2.28,2.28,0,0,1-1.08-2.17A2.22,2.22,0,0,1,613.72,600.36Z"/><path class="cls-78" d="M613.75,443.43a2.24,2.24,0,0,1,1.08-2.19A2.27,2.27,0,0,1,613.75,443.43Z"/><path class="cls-41" d="M447,654.86l-1.08-1.09Z"/><polygon class="cls-120" points="669.32 651.58 669.57 651.13 669.77 651.34 669.32 651.58"/><path class="cls-105" d="M666.05,584l1.13-1Z"/><path class="cls-112" d="M635.57,581.87l1.06-1.12C636.28,581.13,635.92,581.5,635.57,581.87Z"/><path class="cls-105" d="M661.67,579.63l-1.1,1.09Z"/><path class="cls-105" d="M662.77,578.54l-1.1,1.1Z"/><path class="cls-43" d="M671.52,571l-1.07,1Z"/><path class="cls-43" d="M672.59,569.9l-1,1.05Z"/><path class="cls-113" d="M676.93,566.54c-.36.37-.73.74-1.09,1.12,0-.36,0-.71,0-1.07Z"/><path class="cls-91" d="M472,566.59l1.11,1.07Z"/><path class="cls-1" d="M582.05,690l-1.16.79Z"/><path class="cls-91" d="M479.7,564.39l-1.1-1.08Z"/><path class="cls-91" d="M478.6,563.31l-1.1-1.08Z"/><path class="cls-1" d="M576.64,691c-.32.49-.65.51-1,0A1.76,1.76,0,0,1,576.64,691Z"/><path class="cls-91" d="M477.49,562.22l-1.07-1.07Z"/><path class="cls-91" d="M475.35,561.12,474.24,560Z"/><path class="cls-74" d="M646.43,533.87l1.07-1.09Z"/><path class="cls-74" d="M647.52,532.77l1.05-1.07Z"/><path class="cls-106" d="M477.47,520.82l1.13,1Z"/><path class="cls-98" d="M585.39,519.71l-1.07-1.09Z"/><path class="cls-106" d="M484.07,519.7,483,518.63Z"/><path class="cls-94" d="M505.85,516.44c-.37-.36-.73-.73-1.09-1.1C505.12,515.71,505.48,516.08,505.85,516.44Z"/><path class="cls-89" d="M494.93,501.19l-1.07-1.11Z"/><path class="cls-117" d="M615.9,491.36c0,.37,0,.74,0,1.11C615.16,492.11,615.18,491.73,615.9,491.36Z"/><path class="cls-73" d="M522.18,484.84l-1.08-1.09Z"/><path class="cls-87" d="M562.48,459.76l-1.05,1.11Z"/><path class="cls-35" d="M548.34,382.38c-.77-.38-.71-.74,0-1.08C548.36,381.66,548.35,382,548.34,382.38Z"/><path class="cls-47" d="M667.15,514.27c-1.06-.69-1.18-1.39,0-2.13C667.12,512.85,667.14,513.56,667.15,514.27Z"/><path class="cls-50" d="M509.11,445.61c-1.39-.65-.76-2.65-2.2-3.27-1.34-1.66-3-3.13-3.33-5.42,2.26,1.35,4.73,1.2,7.59.54C510.28,440.49,508.52,442.79,509.11,445.61Z"/><path class="cls-101" d="M467.69,511a2.27,2.27,0,0,1-2.17-1.11A2.16,2.16,0,0,1,467.69,511Z"/><path class="cls-50" d="M463.36,677.73a2.22,2.22,0,0,1,2.16,1.1A2.22,2.22,0,0,1,463.36,677.73Z"/><path class="cls-111" d="M443.71,662.49l1.11,1.07Z"/><path class="cls-111" d="M442.58,661.41l1.14,1.09Z"/><path class="cls-113" d="M684.58,572l1.12-1Z"/><path class="cls-37" d="M554.88,370.4l-1.07,1.12Z"/><path class="cls-37" d="M555.94,369.3l-1.06,1.1Z"/><path class="cls-134" d="M544,678.84c-8.29,1-13.71-3.09-17.52-10-.6-1.09-.92-2.38-2.1-3.09-7.61-14.47-10.85-29.58-6.52-45.76,1.91-1.79.51-4.67,2.17-6.55,3.27-3.91,7-3.17,10.89-1.09-1.37,8.23-1.35,16.55-1,24.83.41,9.89,1.4,19.66,6.84,28.49C539.34,669.91,540.31,675.13,544,678.84Z"/><path class="cls-22" d="M551.59,637.43a42.69,42.69,0,0,0,7.69,11.74c3.09,3.13,2.22,5.65-2,6.47a29.87,29.87,0,0,1-12.42-.06c-7.86-1.88-10.08-6.7-7.37-14.89q3.85-8.48,13-5.2C550.88,636.08,551.09,636.84,551.59,637.43Z"/><path class="cls-135" d="M589.77,626.52c-.46-2.95,1.19-5.6,1.14-8.54-.1-6.16-1.57-12.12-2.36-18.17-.09-.66-.47-1.66-.95-1.83-6.43-2.29-4.73-8.06-5.41-12.71-.36-2.48,0-5.06-.07-7.59,0-3.06.32-6.15-.89-9.11a1.92,1.92,0,0,1,.68-2.45c1.66,0,1.88,1.49,2.19,2.58,1.52,5.37,3,10.75,4.27,16.18.41,1.79,1.51,3.72,0,5.68-1.24,1.57.08,3.21.62,4.59,2.87,7.22,4.54,14.79,6.7,22.22a22.2,22.2,0,0,1,.65,5.88C594.16,624.43,592.32,626.18,589.77,626.52Z"/><path class="cls-22" d="M598.49,649.41c-2.16,4.68-8.25,7.47-14,6.37a17.21,17.21,0,0,1-2.58-.83c-4.4-1.61-4.93-3.48-1.92-7.14,1.72-2.08,3.59-4,5.39-6a7.69,7.69,0,0,1,2.26-1.44c3.11-1.06,6.37-1.93,9.25.24C600,642.89,599.24,646.23,598.49,649.41Z"/><path class="cls-96" d="M534.19,570.94a7.22,7.22,0,0,1,1.47-.68c4-.78,5.54.62,4.69,4.51-.66,3.06-1.48,6.08-.73,9.24q-2.18,6-4.36,12c-3.11,2.31-6.65,2.15-10.23,1.79A148.91,148.91,0,0,1,534.19,570.94Z"/><path class="cls-81" d="M551.59,637.43l-1.07-1.1c-3.07-3.35-3.63-7.67-4.54-11.84-.53-2.44-.83-4.94-2.49-7-.2-4.66,1.72-8.43,4.86-11.69h0c.66-.58.46-1.58,1.09-2.18h0c4.63-1.27,5.76-.69,5.92,3.49.08,2.09.56,4.28-.46,6.31.3,6.21-1.95,12-2.69,18.11C552,633.5,551.68,635.45,551.59,637.43Z"/><path class="cls-82" d="M525.47,598.19c2.68-3.35,6.55-1.36,9.79-2.19-1.57,5.42-3.42,10.76-4.35,16.35-3.64.32-7.42-.84-10.89,1.09l0-1.11a1.49,1.49,0,0,1,0-2.16l1.06-1.1C521.39,605,522.18,601.08,525.47,598.19Z"/><path class="cls-136" d="M573.41,511a40,40,0,0,0,3.27,10.9c0,.36,0,.72,0,1.08,1,.89,0,2.41,1.08,3.28a24.43,24.43,0,0,0,2.18,9.81c0,1.09,0,2.17,0,3.26.34,1.3,1.61,2.92-1.07,3.21-3.88-8.43-4.45-17.7-6.69-26.55-.75-3-1-6.7-5.32-7.16-.27-4.74,2-8.62,3.94-13.22,2.08,2.22,1.23,4.26,1.5,6.07C572.78,504.78,571.22,508.11,573.41,511Z"/><path class="cls-137" d="M548.35,605.82c-.91,4.19-3.88,7.63-4.36,12,1.42,6.87-.73,13.34-5.45,16.35A168.07,168.07,0,0,1,542,614c2.2-8.54,3.93-17.21,7.27-25.4,1.81-4.46,2.51-9.4,5.6-13.32h0c-.39,4.57-2.42,8.68-3.83,13a115.28,115.28,0,0,0-3.43,12.52C547.27,602.55,546.68,604.34,548.35,605.82Z"/><path class="cls-137" d="M554.9,613.44c0-1.42,0-2.84,0-4.25-.09-5.06-.17-5.14-5.44-5.55,4.72-10.33,8.34-21.32,17.81-28.8-1.67,2.88-3.31,5.76-5,8.62-4.54,7.69-5.38,16.3-6.28,24.9C555.8,610.09,556.56,612,554.9,613.44Z"/><path class="cls-138" d="M538.54,634.15c4-4.73,4.18-10.72,5.45-16.35,1-.33,1.92-.78,2.24,1a145,145,0,0,0,4.29,17.53c-5.53-2.08-9.54.43-13.08,4.36C537.07,638.38,538.19,636.33,538.54,634.15Z"/><path class="cls-139" d="M589.76,572c2.43,9,6.12,17.5,9.37,26.19a9.91,9.91,0,0,0,1.53,2.14c0,.36,0,.72,0,1.08.35.37.68.77,1.06,1.11,1.12,5.23,4.08,9.86,4.94,15.2.32,1.92,1.23,3.79-.56,5.46-.81-8-4.15-15.22-7.49-22.36C595,593,591,585.38,589,576.9a26.32,26.32,0,0,1-.34-2.67C588,573,587.72,571.92,589.76,572Z"/><path class="cls-78" d="M589.77,626.52c1.16-3.11,3.58-3.71,6.53-3.27l2.16,14.17c-3.54-1.19-7.19-1.16-10.86-1.09C588.32,633.06,589.05,629.79,589.77,626.52Z"/><path class="cls-110" d="M587.6,636.33c3.86-2,7.6-2.87,10.86,1.09.17,3.05,1.6,5.93,1.13,9.08-.16,1.08-.12,2.17-1.1,2.91,0-.18,0-.36,0-.54-.06-8-1.55-9.11-9.35-7.42a27.21,27.21,0,0,1-3.74.32C585.51,639.71,586.85,638.14,587.6,636.33Z"/><path class="cls-98" d="M589.76,572a2.31,2.31,0,0,0-1.11,2.19c-2-3.27-2.28-7.09-3.16-10.68a207.9,207.9,0,0,0-6.59-21c1.28-.76,1-2,1.07-3.21,2.36,4.27,2.52,9.2,4,13.74C586.07,559.34,587.85,565.71,589.76,572Z"/><path class="cls-119" d="M567,518.94c-.69.2-1-.24-1-.79a3.17,3.17,0,0,1,1.56-3.08c.57-.29,1.19.59,1.35,1.28C569.19,517.88,568.29,518.59,567,518.94Z"/><path class="cls-137" d="M549.44,603.63a2.24,2.24,0,0,1-1.09,2.18A2.24,2.24,0,0,1,549.44,603.63Z"/><path class="cls-137" d="M554.89,575.3c.08-.16.2-.45.24-.44.37.09.28.25-.24.44Z"/><path class="cls-74" d="M601.74,602.56l-1.06-1.11Z"/><path class="cls-140" d="M517.85,620c-.13,2.87.34,5.79-.85,8.56a3,3,0,0,0-.18,1.61c1.09,7.77.28,15.8,3.49,23.31,1.69,3.95,2.73,8.18,4.06,12.28-4.62-4.24-5.82-10.15-7.49-15.76a53.18,53.18,0,0,1-2.31-19.11c1.88-3.4.89-7.43,2.4-10.9a.55.55,0,0,1,.42-.21C517.55,619.78,517.7,619.92,517.85,620Z"/><path class="cls-141" d="M525.47,598.19a72.11,72.11,0,0,0-4.38,10.88c-1.87-1.42-.56-2.93-.1-4.39q4.75-15,10.54-29.65c.66-1.67,1.05-3.45,1.56-5.18l1.1,1.09Q529.82,584.56,525.47,598.19Z"/><path class="cls-141" d="M520,610.17c0,.72,0,1.44,0,2.16C518.87,611.59,518.92,610.87,520,610.17Z"/><path class="cls-72" d="M566.37,494.87c.61,2.36,1,4.05-.56,5.44-.42.38-1.17.31-1.31-.24C564.05,498.31,564.59,496.77,566.37,494.87Z"/><path class="cls-142" d="M510.93,560.66c-2.14-1-3.12-2.7-4.93-4.27C509.29,557.15,509.31,557.13,510.93,560.66Z"/><path class="cls-87" d="M499.85,553.85a.94.94,0,0,1-.44-1.15c.1-.54.46-.86,1-.52a1.09,1.09,0,0,1,.5.79A.92.92,0,0,1,499.85,553.85Z"/><path class="cls-98" d="M577.77,526.26c-1.27-.79-1-2.07-1.08-3.28C578,523.77,577.74,525.06,577.77,526.26Z"/><path class="cls-52" d="M677,641.84a2.42,2.42,0,0,1-2.25,1A2.18,2.18,0,0,1,677,641.84Z"/></g></svg>